<svg width="463" height="221" viewBox="0 0 463 221" fill="none" xmlns="http://www.w3.org/2000/svg">
<path d="M90.0844 201.602H134.053V170.521H157.174V134.386H134.053V19.2852H69.3637C64.8153 26.8659 60.2247 34.4466 55.5921 42.0274C50.9594 49.5239 46.3267 57.0625 41.694 64.6432C37.0614 72.224 32.4287 79.8047 27.796 87.3854C23.1634 94.9662 18.4886 102.547 13.7717 110.128C9.139 117.624 4.54844 125.163 0 132.744V170.521H90.0844V201.602ZM38.7881 136.028V134.765C42.2415 129.206 45.6529 123.647 49.0221 118.087C52.4755 112.528 55.929 106.969 59.3824 101.41C62.9201 95.7664 66.3736 90.165 69.7428 84.6058C73.1962 79.0466 76.6076 73.4874 79.9768 67.9282C83.4302 62.369 86.8837 56.8098 90.3371 51.2506H91.3479V136.028H38.7881Z" fill="#E3EDFF"/>
<path d="M371.548 201.602V209.602H379.548H423.516H431.516V201.602V178.521H446.637H454.637V170.521V134.386V126.386H446.637H431.516V19.2852V11.2852H423.516H358.827H354.298L351.967 15.1692C347.433 22.7257 342.857 30.2823 338.239 37.8391C333.603 45.3413 328.967 52.8855 324.331 60.4716L317.382 71.8427L310.433 83.2138C305.812 90.7762 301.148 98.3386 296.443 105.901L296.436 105.912L296.43 105.922C291.779 113.448 287.17 121.017 282.603 128.628L281.463 130.528V132.744V170.521V178.521H289.463H371.548V201.602ZM366.025 88.7903C368.305 85.1192 370.567 81.448 372.811 77.7767V128.028H341.8C342.973 126.109 344.141 124.19 345.304 122.271L350.461 113.97L355.624 105.659C355.627 105.654 355.63 105.65 355.632 105.646C359.18 99.9863 362.644 94.3678 366.025 88.7903Z" fill="#E3EDFF" stroke="#080520" stroke-width="16"/>
<path d="M147.218 56.8334L147.214 56.8435L147.209 56.8536C140.423 72.1688 137.174 90.0443 137.174 110.254V110.507C137.174 130.718 140.424 148.628 147.202 164.017L147.214 164.043L147.226 164.07C154.103 179.382 164.065 191.496 177.179 200.082C190.383 208.727 205.901 212.887 223.382 212.887C240.856 212.887 256.34 208.729 269.469 200.075C282.586 191.484 292.508 179.362 299.299 164.04C306.169 148.643 309.463 130.725 309.463 110.507V110.254C309.463 90.0428 306.172 72.1626 299.297 56.8427C292.51 41.4482 282.589 29.3146 269.452 20.8005C256.327 12.1538 240.848 8 223.382 8C205.909 8 190.397 12.1565 177.197 20.793C164.056 29.3061 154.091 41.4386 147.218 56.8334ZM234.707 64.7924L234.733 64.8176L234.759 64.8426C238.134 68.0971 241.101 73.2261 243.21 80.9115L243.22 80.9466L243.23 80.9816C245.409 88.6467 246.589 98.3492 246.589 110.254V110.507C246.589 122.408 245.41 132.162 243.225 139.925L243.217 139.95L243.21 139.975C241.101 147.661 238.134 152.79 234.759 156.044L234.733 156.069L234.707 156.094C231.612 159.134 227.998 160.625 223.382 160.625C218.775 160.625 215.098 159.138 211.904 156.069C208.577 152.791 205.603 147.625 203.41 139.916C201.226 132.155 200.048 122.403 200.048 110.507V110.254C200.048 98.3492 201.228 88.6466 203.407 80.9816C205.601 73.2659 208.576 68.0973 211.904 64.8177C215.098 61.7486 218.776 60.2612 223.382 60.2612C227.998 60.2612 231.612 61.753 234.707 64.7924Z" fill="#E3EDFF" stroke="#080520" stroke-width="16"/>
</svg>
