<svg width="65" height="27" viewBox="0 0 65 27" fill="none" xmlns="http://www.w3.org/2000/svg">
<path d="M57.0379 11.437H61.9594V0H56.6048V1.59268L55.5913 0H50.958V2.02704L50.0906 0H41.5493C41.2597 0 40.9701 0.146058 40.6818 0.146058C40.3923 0.146058 40.2462 0.290847 39.9579 0.434366C39.6683 0.580425 39.5223 0.580425 39.2339 0.723943V0H14.7659L14.042 1.88225L13.318 0H7.52775V2.02704L6.66028 0H2.02704L0 4.92282V11.437H3.32887L3.90803 9.84436H5.06634L5.64549 11.437H31.1232V9.98915L32.1368 11.437H39.2301V10.567C39.3749 10.7131 39.6645 10.7131 39.808 10.8566C39.9541 11.0027 40.2424 11.0027 40.3872 11.1462C40.6768 11.291 40.9651 11.291 41.2546 11.291H46.4708L47.0487 9.69958H48.207L48.7862 11.291H55.8796V9.84309L57.0379 11.437ZM65 25.9134V15.2003H25.1894L24.1759 16.6482L23.1624 15.2003H11.5818V26.6373H23.1624L24.1759 25.1894L25.1894 26.6373H32.4276V24.1759H32.138C33.1515 24.1759 34.0203 24.0311 34.743 23.7415V26.7808H39.9554V25.333L40.9676 26.7808H62.5386C63.4061 26.4913 64.2761 26.3477 65 25.9134Z" fill="white"/>
<path d="M62.5386 23.1625H58.6293V24.7552H62.3938C63.9852 24.7552 64.9987 23.7417 64.9987 22.2938C64.9987 20.8459 64.1287 20.1219 62.6821 20.1219H60.9459C60.5103 20.1219 60.222 19.8324 60.222 19.398C60.222 18.9636 60.5103 18.6741 60.9459 18.6741H64.2748L64.9987 17.0814H61.0894C59.498 17.0814 58.4845 18.0949 58.4845 19.398C58.4845 20.8459 59.352 21.5698 60.7999 21.5698H62.5373C62.9717 21.5698 63.2613 21.8594 63.2613 22.2938C63.4061 22.8729 63.1177 23.1625 62.5386 23.1625ZM55.4439 23.1625H51.5359V24.7552H55.2992C56.8906 24.7552 57.9041 23.7417 57.9041 22.2938C57.9041 20.8459 57.0366 20.1219 55.5887 20.1219H53.8513C53.4169 20.1219 53.1273 19.8324 53.1273 19.398C53.1273 18.9636 53.4169 18.6741 53.8513 18.6741H57.1801L57.9041 17.0814H53.9948C52.4034 17.0814 51.3899 18.0949 51.3899 19.398C51.3899 20.8459 52.2599 21.5698 53.7065 21.5698H55.4427C55.8783 21.5698 56.1666 21.8594 56.1666 22.2938C56.3139 22.8729 55.8796 23.1625 55.4439 23.1625ZM50.3776 18.5293V16.9379H44.299V24.6104H50.3776V23.019H46.0352V21.4263H50.2341V19.8349H46.0352V18.387H50.3776V18.5293ZM40.5345 18.5293C41.2585 18.5293 41.548 18.9649 41.548 19.3993C41.548 19.8336 41.2585 20.2667 40.5345 20.2667H38.3627V18.3845L40.5345 18.5293ZM38.3627 21.8607H39.2327L41.548 24.6104H43.7199L41.1149 21.7146C42.4168 21.425 43.1407 20.5563 43.1407 19.3993C43.1407 17.9514 42.1285 16.9379 40.5358 16.9379H36.483V24.6104H38.2204L38.3627 21.8607ZM33.7294 19.5428C33.7294 20.1219 33.4411 20.5563 32.7172 20.5563H30.4006V18.5293H32.5724C33.2963 18.5293 33.7294 18.9649 33.7294 19.5428ZM28.6631 16.9379V24.6104H30.4006V22.0055H32.7172C34.3086 22.0055 35.4669 20.9919 35.4669 19.4005C35.4669 17.9527 34.4534 16.7956 32.862 16.7956L28.6631 16.9379ZM26.0582 24.6104H28.23L25.1907 20.7011L28.23 16.9379H26.0582L24.1759 19.3993L22.2937 16.9379H20.1218L23.1611 20.7011L20.1218 24.4656H22.2937L24.1759 22.0042L26.0582 24.6104ZM19.5439 18.5293V16.9379H13.4641V24.6104H19.5439V23.019H15.2016V21.4263H19.4004V19.8349H15.2016V18.387H19.5439V18.5293ZM54.7213 4.92294L57.7618 9.55618H59.9337V1.88237H58.1962V6.94871L57.7618 6.22477L55.0108 1.88237H52.6955V9.55618H54.433V4.34378L54.7213 4.92294ZM47.1935 4.77688L47.7714 3.18547L48.3506 4.77688L49.0745 6.51434H46.4708L47.1935 4.77688ZM50.2341 9.55491H52.1163L48.7875 1.8811H46.4708L43.1407 9.55491H45.0242L45.7482 7.96223H49.5114L50.2341 9.55491ZM42.1272 9.55491L42.8511 7.96223H42.4155C41.1137 7.96223 40.3897 7.09477 40.3897 5.7904V5.64561C40.3897 4.34251 41.1137 3.47378 42.4155 3.47378H44.299V1.8811H42.272C39.9566 1.8811 38.6523 3.47378 38.6523 5.64561V5.7904C38.6523 8.10829 39.9553 9.55491 42.1272 9.55491ZM35.613 9.55491H37.3492V2.02716H35.613V9.55491ZM31.8484 3.47505C32.5724 3.47505 32.862 3.90942 32.862 4.34251C32.862 4.77561 32.5724 5.21251 31.8484 5.21251H29.6766V3.32899L31.8484 3.47505ZM29.6766 6.80392H30.5466L32.862 9.55491H35.0338L32.4289 6.65913C33.7307 6.36955 34.4547 5.49955 34.4547 4.34251C34.4547 2.89463 33.4424 1.8811 31.8497 1.8811H27.7969V9.55491H29.5344L29.6766 6.80392ZM26.4913 3.47505V1.88237H20.4127V9.55618H26.4913V7.9635H22.1489V6.3721H26.3477V4.77942H22.1489V3.33153H26.4913V3.47505ZM13.3193 9.55491H14.9107L17.0825 3.32899V9.55491H18.82V1.8811H15.9242L14.1868 7.0935L12.4506 1.8811H9.55479V9.55491H11.291V3.32899L13.3193 9.55491ZM3.9093 4.77688L4.48845 3.18547L5.06634 4.77688L5.79028 6.51434H3.18535L3.9093 4.77688ZM6.94859 9.55491H8.83212L5.50197 1.8811H3.33014L0 9.55491H1.88225L2.6062 7.96223H6.37071L6.94859 9.55491Z" fill="#006FCF"/>
</svg>
