<svg width="59" height="25" viewBox="0 0 59 25" fill="none" xmlns="http://www.w3.org/2000/svg">
<path d="M51.3165 10.7424H55.7444V0.452637H50.9268V1.88555L50.015 0.452637H45.8465V2.27635L45.066 0.452637H37.3815C37.121 0.452637 36.8605 0.584044 36.6011 0.584044C36.3406 0.584044 36.2092 0.71431 35.9498 0.843432C35.6892 0.97484 35.5578 0.97484 35.2984 1.10396V0.452637H13.2848L12.6334 2.14608L11.9821 0.452637H6.77265V2.27635L5.9922 0.452637H1.82371L0 4.88165V10.7424H2.99496L3.51602 9.30953H4.55814L5.0792 10.7424H28.0013V9.43979L28.9132 10.7424H35.295V9.95971C35.4253 10.0911 35.6858 10.0911 35.8149 10.2202C35.9463 10.3516 36.2057 10.3516 36.336 10.4808C36.5965 10.611 36.8559 10.611 37.1164 10.611H41.8094L42.3293 9.17926H43.3715L43.8925 10.611H50.2744V9.30838L51.3165 10.7424ZM58.4799 23.7667V14.1282H22.6627L21.7509 15.4308L20.839 14.1282H10.4201V24.418H20.839L21.7509 23.1154L22.6627 24.418H29.1748V22.2035H28.9143C29.8262 22.2035 30.6077 22.0732 31.2579 21.8127V24.5471H35.9475V23.2445L36.8582 24.5471H56.2654C57.0459 24.2866 57.8286 24.1575 58.4799 23.7667Z" fill="white"/>
<path d="M56.2654 21.2917H52.7483V22.7246H56.1352C57.5669 22.7246 58.4788 21.8128 58.4788 20.5101C58.4788 19.2075 57.6961 18.5561 56.3945 18.5561H54.8325C54.4406 18.5561 54.1812 18.2956 54.1812 17.9048C54.1812 17.514 54.4406 17.2535 54.8325 17.2535H57.8275L58.4788 15.8206H54.9616C53.5299 15.8206 52.618 16.7324 52.618 17.9048C52.618 19.2075 53.3984 19.8588 54.7011 19.8588H56.2643C56.6551 19.8588 56.9156 20.1193 56.9156 20.5101C57.0459 21.0312 56.7865 21.2917 56.2654 21.2917ZM49.8824 21.2917H46.3664V22.7246H49.7522C51.1839 22.7246 52.0958 21.8128 52.0958 20.5101C52.0958 19.2075 51.3153 18.5561 50.0127 18.5561H48.4495C48.0587 18.5561 47.7982 18.2956 47.7982 17.9048C47.7982 17.514 48.0587 17.2535 48.4495 17.2535H51.4445L52.0958 15.8206H48.5786C47.1469 15.8206 46.235 16.7324 46.235 17.9048C46.235 19.2075 47.0177 19.8588 48.3192 19.8588H49.8813C50.2732 19.8588 50.5326 20.1193 50.5326 20.5101C50.6652 21.0312 50.2744 21.2917 49.8824 21.2917ZM45.3243 17.1232V15.6915H39.8554V22.5944H45.3243V21.1626H41.4175V19.7297H45.1952V18.2979H41.4175V16.9953H45.3243V17.1232ZM36.4685 17.1232C37.1199 17.1232 37.3804 17.5152 37.3804 17.906C37.3804 18.2968 37.1199 18.6864 36.4685 18.6864H34.5146V16.993L36.4685 17.1232ZM34.5146 20.1205H35.2973L37.3804 22.5944H39.3344L36.9907 19.9891C38.162 19.7285 38.8133 18.9469 38.8133 17.906C38.8133 16.6033 37.9026 15.6915 36.4697 15.6915H32.8234V22.5944H34.3866L34.5146 20.1205ZM30.3461 18.0351C30.3461 18.5561 30.0867 18.9469 29.4354 18.9469H27.3511V17.1232H29.3051C29.9564 17.1232 30.3461 17.5152 30.3461 18.0351ZM25.7879 15.6915V22.5944H27.3511V20.2507H29.4354C30.8671 20.2507 31.9093 19.3389 31.9093 17.9071C31.9093 16.6045 30.9974 15.5635 29.5656 15.5635L25.7879 15.6915ZM23.4443 22.5944H25.3983L22.6639 19.0772L25.3983 15.6915H23.4443L21.7509 17.906L20.0574 15.6915H18.1034L20.8379 19.0772L18.1034 22.4641H20.0574L21.7509 20.2496L23.4443 22.5944ZM17.5835 17.1232V15.6915H12.1135V22.5944H17.5835V21.1626H13.6767V19.7297H17.4544V18.2979H13.6767V16.9953H17.5835V17.1232ZM49.2322 4.88173L51.9678 9.05022H53.9218V2.14616H52.3586V6.7043L51.9678 6.05297L49.4928 2.14616H47.4097V9.05022H48.9729V4.36067L49.2322 4.88173ZM42.4596 4.75032L42.9795 3.31855L43.5006 4.75032L44.1519 6.31351H41.8094L42.4596 4.75032ZM45.1952 9.04907H46.8886L43.8937 2.14502H41.8094L38.8133 9.04907H40.5079L41.1592 7.61616H44.545L45.1952 9.04907ZM37.9015 9.04907L38.5528 7.61616H38.1608C36.9896 7.61616 36.3383 6.83571 36.3383 5.66218V5.53191C36.3383 4.35953 36.9896 3.57794 38.1608 3.57794H39.8554V2.14502H38.0317C35.9486 2.14502 34.7751 3.57794 34.7751 5.53191V5.66218C34.7751 7.74757 35.9475 9.04907 37.9015 9.04907ZM32.0407 9.04907H33.6027V2.27643H32.0407V9.04907ZM28.6538 3.57908C29.3051 3.57908 29.5656 3.96988 29.5656 4.35953C29.5656 4.74918 29.3051 5.14226 28.6538 5.14226H26.6998V3.44767L28.6538 3.57908ZM26.6998 6.57404H27.4825L29.5656 9.04907H31.5196L29.176 6.44377C30.3472 6.18324 30.9985 5.40051 30.9985 4.35953C30.9985 3.05688 30.0878 2.14502 28.6549 2.14502H25.0086V9.04907H26.5718L26.6998 6.57404ZM23.834 3.57908V2.14616H18.3651V9.05022H23.834V7.6173H19.9271V6.18553H23.7048V4.75261H19.9271V3.44996H23.834V3.57908ZM11.9833 9.04907H13.415L15.369 3.44767V9.04907H16.9322V2.14502H14.3269L12.7637 6.83457L11.2017 2.14502H8.59636V9.04907H10.1584V3.44767L11.9833 9.04907ZM3.51716 4.75032L4.03822 3.31855L4.55814 4.75032L5.20947 6.31351H2.86583L3.51716 4.75032ZM6.25159 9.04907H7.94618L4.95008 2.14502H2.9961L0 9.04907H1.69345L2.34477 7.61616H5.73167L6.25159 9.04907Z" fill="#3474EE"/>
</svg>
