<svg width="60" height="25" viewBox="0 0 60 25" fill="none" xmlns="http://www.w3.org/2000/svg">
<g clip-path="url(#clip0_47_864)">
<path d="M11.205 3.58282C10.5171 4.39049 9.41641 5.02753 8.3157 4.93653C8.17812 3.84446 8.717 2.68414 9.34761 1.96747C10.0356 1.13704 11.2394 0.545503 12.214 0.5C12.3287 1.63757 11.8815 2.75239 11.205 3.58282ZM12.2026 5.15267C10.6088 5.06166 9.24442 6.05135 8.48769 6.05135C7.71949 6.05135 6.56146 5.19817 5.30024 5.22092C3.66065 5.24367 2.13571 6.1651 1.29872 7.63257C-0.421127 10.5675 0.851561 14.913 2.51408 17.3019C3.32814 18.485 4.30272 19.7818 5.58688 19.7363C6.80224 19.6908 7.28379 18.9514 8.7514 18.9514C10.2305 18.9514 10.6547 19.7363 11.9389 19.7136C13.2689 19.6908 14.1059 18.5305 14.9199 17.3474C15.8486 16.0051 16.227 14.6969 16.2499 14.6286C16.227 14.6059 13.6816 13.6389 13.6587 10.7268C13.6358 8.29236 15.6652 7.13204 15.7569 7.06379C14.6103 5.38018 12.8217 5.19817 12.2026 5.15267ZM21.4095 1.85371V19.5884H24.1842V13.5252H28.0252C31.5337 13.5252 33.9988 11.1363 33.9988 7.67807C33.9988 4.21986 31.5795 1.85371 28.1169 1.85371H21.4095ZM24.1842 4.17435H27.3831C29.7909 4.17435 31.1668 5.44843 31.1668 7.68945C31.1668 9.93046 29.7909 11.2159 27.3716 11.2159H24.1842V4.17435ZM39.0666 19.725C40.8094 19.725 42.426 18.849 43.1598 17.4612H43.2172V19.5884H45.7855V10.7609C45.7855 8.20136 43.7217 6.55188 40.5457 6.55188C37.599 6.55188 35.4205 8.22411 35.3403 10.522H37.8398C38.0462 9.42993 39.0666 8.71326 40.4654 8.71326C42.1623 8.71326 43.114 9.49819 43.114 10.9429V11.9212L39.6513 12.126C36.4295 12.3194 34.6867 13.6276 34.6867 15.9027C34.6867 18.2006 36.4868 19.725 39.0666 19.725ZM39.8119 17.6204C38.3328 17.6204 37.3926 16.9151 37.3926 15.8345C37.3926 14.7196 38.2984 14.0712 40.0297 13.9688L43.114 13.7755V14.7765C43.114 16.4374 41.6922 17.6204 39.8119 17.6204ZM49.2137 24.4117C51.9196 24.4117 53.1923 23.3879 54.3045 20.2824L59.1774 6.72251H56.3568L53.0891 17.1995H53.0318L49.7641 6.72251H46.8632L51.5642 19.6339L51.3119 20.4189C50.8877 21.7498 50.1997 22.2617 48.9729 22.2617C48.7551 22.2617 48.3308 22.239 48.1589 22.2162V24.3435C48.3194 24.389 49.0073 24.4117 49.2137 24.4117Z" fill="white"/>
</g>
<defs>
<clipPath id="clip0_47_864">
<rect width="59" height="24" fill="white" transform="translate(0.479919 0.5)"/>
</clipPath>
</defs>
</svg>
