<svg width="44" height="44" viewBox="0 0 44 44" fill="none" xmlns="http://www.w3.org/2000/svg">
<g clip-path="url(#clip0_716_18738)">
<path d="M36.4874 13.2026H24.5488L23.3346 14.6012L19.3946 19.1394L18.1804 20.538H6.39964L7.59508 19.1218L8.16087 18.4514L9.35622 17.0351H3.92798C2.93629 17.0351 2.12482 17.8864 2.12482 18.9268V22.9181C2.12482 23.9586 2.93629 24.8099 3.92798 24.8099H24.7098C25.7015 24.8099 27.0561 24.1776 27.7203 23.4049L30.8638 19.7468L36.4874 13.2026Z" fill="white"/>
<path d="M38.8861 8.93555C39.8778 8.93555 40.6893 9.78683 40.6893 10.8273V14.8185C40.6893 15.8588 39.8778 16.7102 38.8861 16.7102H33.4756L34.6822 15.3046L35.2807 14.6077L36.4874 13.2022H24.549L18.1806 20.543H6.32672L14.8278 10.709L15.1494 10.3368C15.8158 9.56609 17.1722 8.93555 18.164 8.93555H38.8861Z" fill="white"/>
<path fill-rule="evenodd" clip-rule="evenodd" d="M6.18848 31.5953C6.18848 31.3347 6.12839 31.1092 6.00848 30.9186C5.88839 30.7282 5.73041 30.5829 5.53454 30.4827C5.73041 30.3824 5.88225 30.2344 5.99015 30.039C6.09787 29.8435 6.15173 29.6231 6.15173 29.3776V29.2422C6.15173 28.9413 6.09541 28.6909 5.98287 28.4903C5.87006 28.2899 5.71199 28.1294 5.50875 28.0092C5.3055 27.8888 5.06164 27.8026 4.77769 27.7498C4.49339 27.6971 4.17753 27.6709 3.82962 27.6709C3.71213 27.6709 3.5896 27.6734 3.46233 27.6784C3.33477 27.6834 3.21118 27.6897 3.09124 27.6971C2.97115 27.7046 2.86083 27.7135 2.76057 27.7235C2.66002 27.7336 2.57792 27.7437 2.51429 27.7535C2.37223 27.7788 2.27183 27.8237 2.21308 27.8888C2.15433 27.9541 2.12488 28.072 2.12488 28.2423V32.8132C2.12488 32.9837 2.1554 33.1015 2.21674 33.1665C2.27793 33.2318 2.38199 33.2767 2.52909 33.3019C2.60249 33.3168 2.69068 33.3293 2.79354 33.3395C2.89638 33.3495 3.00777 33.3582 3.12786 33.3658C3.24795 33.3732 3.37154 33.3795 3.49896 33.3846C3.62637 33.3894 3.75119 33.3921 3.87372 33.3921C4.19218 33.3921 4.49218 33.367 4.77401 33.3168C5.0555 33.2669 5.30041 33.1777 5.50875 33.0499C5.71699 32.9222 5.88225 32.7492 6.0048 32.5313C6.12717 32.3132 6.18848 32.0388 6.18848 31.7079V31.5953ZM4.93927 29.4376C4.93927 29.5179 4.92708 29.5944 4.90252 29.667C4.87796 29.7396 4.83761 29.8021 4.78129 29.8551C4.72488 29.9075 4.64904 29.9501 4.55352 29.9826C4.45799 30.0153 4.33668 30.0315 4.18974 30.0315H3.36682V28.7309C3.39123 28.7309 3.42923 28.7298 3.48065 28.7272C3.53207 28.7247 3.58594 28.7234 3.64225 28.7234H3.92514C4.30235 28.7234 4.56572 28.7723 4.71511 28.87C4.86454 28.9677 4.93927 29.1194 4.93927 29.3248V29.4376ZM4.75188 32.1666C4.89638 32.0514 4.96875 31.8884 4.96875 31.6779V31.5953C4.96875 31.4148 4.91225 31.2582 4.79962 31.1254C4.68688 30.9927 4.48362 30.9262 4.18974 30.9262H3.36682V32.3319H3.4953C3.55161 32.3319 3.61035 32.3335 3.67169 32.3359C3.73288 32.3384 3.79163 32.3397 3.84809 32.3397H3.96925C4.34645 32.3397 4.60738 32.282 4.75188 32.1666ZM10.2154 30.4901C10.2154 30.2146 10.175 29.9801 10.0941 29.7871C10.0134 29.5944 9.89936 29.4364 9.75243 29.3135C9.6055 29.1908 9.42541 29.1008 9.21226 29.043C8.99927 28.9854 8.76041 28.9565 8.49585 28.9565C8.25076 28.9565 8.01199 28.9742 7.77945 29.0092C7.54655 29.0442 7.36164 29.0793 7.22462 29.1143C7.13155 29.1396 7.08497 29.1946 7.08497 29.2796V29.8886C7.08497 29.9389 7.09717 29.974 7.12173 29.9938C7.1462 30.014 7.17796 30.0242 7.21725 30.0242H7.25392C7.31278 30.019 7.3862 30.0128 7.47445 30.0052C7.56261 29.9978 7.66182 29.9917 7.77208 29.9864C7.88225 29.9815 7.99734 29.9778 8.11743 29.9752C8.23734 29.9726 8.3562 29.9714 8.47383 29.9714C8.64524 29.9714 8.77997 30.004 8.87796 30.0691C8.97594 30.1344 9.02489 30.2747 9.02489 30.4901V30.7609H8.62813C7.99611 30.7609 7.53682 30.8623 7.25024 31.0653C6.96366 31.2682 6.82041 31.5903 6.82041 32.0313V32.0992C6.82041 32.3446 6.85594 32.5501 6.9269 32.7154C6.99787 32.8809 7.09234 33.0137 7.2098 33.114C7.32743 33.2142 7.46085 33.2856 7.61032 33.3281C7.75971 33.3707 7.91541 33.3921 8.07699 33.3921C8.29752 33.3921 8.48734 33.362 8.64647 33.3019C8.80559 33.2417 8.9562 33.159 9.09839 33.0538V33.174C9.09839 33.2142 9.11304 33.2493 9.14252 33.2792C9.17199 33.3094 9.2062 33.3244 9.24541 33.3244H10.0685C10.1075 33.3244 10.1418 33.3094 10.1713 33.2792C10.2008 33.2493 10.2154 33.2142 10.2154 33.174V30.4901ZM8.7641 32.426C8.86436 32.3935 8.95883 32.3546 9.04699 32.3095V31.4826H8.62813C8.50076 31.4826 8.39541 31.4938 8.31217 31.5162C8.22883 31.5389 8.16261 31.5728 8.11375 31.6179C8.0648 31.6629 8.03041 31.7206 8.01094 31.7907C7.9912 31.8609 7.98147 31.9411 7.98147 32.0313V32.0992C7.98147 32.2594 8.01927 32.3621 8.09532 32.4072C8.17129 32.4523 8.28761 32.4748 8.44445 32.4748C8.55708 32.4748 8.66357 32.4587 8.7641 32.426ZM14.7125 33.1665V30.6629C14.7125 30.4277 14.6943 30.2057 14.6574 29.9978C14.6207 29.79 14.5546 29.6094 14.4591 29.4563C14.3636 29.3035 14.2313 29.1819 14.0622 29.0918C13.8933 29.0016 13.6765 28.9565 13.4119 28.9565C13.1767 28.9565 12.9684 28.9856 12.7873 29.0436C12.606 29.1017 12.415 29.2039 12.2142 29.3504V29.1682C12.2142 29.1279 12.1994 29.0924 12.1701 29.0622C12.1407 29.0319 12.1063 29.0166 12.0671 29.0166H11.2442C11.2048 29.0166 11.1706 29.0316 11.1413 29.0617C11.1119 29.0918 11.0973 29.127 11.0973 29.1669V33.1665C11.0973 33.2066 11.113 33.243 11.145 33.2755C11.1767 33.3081 11.2123 33.3244 11.2515 33.3244H12.1407C12.1799 33.3244 12.2142 33.3081 12.2435 33.2757C12.273 33.2432 12.2876 33.2069 12.2876 33.1668V30.2114C12.415 30.1414 12.5349 30.0839 12.6477 30.039C12.7603 29.9938 12.8705 29.9714 12.9784 29.9714C13.0909 29.9714 13.1829 29.9826 13.2539 30.0052C13.3249 30.0277 13.38 30.0664 13.4192 30.1217C13.4584 30.1765 13.4854 30.249 13.5001 30.3389C13.5147 30.4289 13.5222 30.539 13.5222 30.6691V33.1668C13.5222 33.2069 13.5368 33.2432 13.5663 33.2757C13.5956 33.3081 13.6298 33.3244 13.6691 33.3244H14.5583C14.5973 33.3244 14.6329 33.3081 14.6648 33.2755C14.6966 33.243 14.7125 33.2066 14.7125 33.1665ZM18.328 32.4375V33.1064C18.328 33.1615 18.3157 33.2004 18.2913 33.2229C18.2667 33.2455 18.2275 33.2643 18.1737 33.2792C18.0708 33.3044 17.9373 33.3293 17.7732 33.3546C17.609 33.3795 17.4167 33.3921 17.1963 33.3921C16.677 33.3921 16.2618 33.2293 15.9509 32.9033C15.6397 32.5776 15.4842 32.1066 15.4842 31.49V30.8586C15.4842 30.2421 15.6397 29.7709 15.9509 29.4453C16.2618 29.1194 16.677 28.9565 17.1963 28.9565C17.4167 28.9565 17.609 28.9689 17.7732 28.994C17.9373 29.0192 18.0708 29.0442 18.1737 29.0692C18.2275 29.0842 18.2667 29.1031 18.2913 29.1256C18.3157 29.1482 18.328 29.187 18.328 29.2422V29.9113C18.328 29.9514 18.3144 29.9826 18.2876 30.0052C18.2606 30.0277 18.2275 30.039 18.1884 30.039H18.1737C18.0365 30.0242 17.9055 30.0115 17.7805 30.0015C17.6556 29.9917 17.4877 29.9864 17.2772 29.9864C17.1938 29.9864 17.1156 30.0003 17.042 30.0277C16.9685 30.0554 16.9048 30.1029 16.8509 30.1706C16.7969 30.2383 16.7542 30.3284 16.7223 30.4413C16.6904 30.554 16.6745 30.6931 16.6745 30.8586V31.49C16.6745 31.6553 16.6904 31.7944 16.7223 31.9073C16.7542 32.0201 16.7969 32.1102 16.8509 32.1778C16.9048 32.2456 16.9685 32.2932 17.042 32.3207C17.1156 32.3483 17.1938 32.3621 17.2772 32.3621C17.4877 32.3621 17.6556 32.357 17.7805 32.3471C17.9055 32.3371 18.0365 32.3245 18.1737 32.3095H18.1884C18.2275 32.3095 18.2606 32.3207 18.2876 32.3433C18.3144 32.366 18.328 32.3972 18.328 32.4375ZM22.4065 30.9112C22.4065 30.6104 22.3659 30.3398 22.2849 30.0993C22.2038 29.8587 22.086 29.6545 21.9315 29.4865C21.7769 29.3187 21.5854 29.1883 21.3573 29.0956C21.129 29.0031 20.865 28.9565 20.5656 28.9565C20.2662 28.9565 20.0024 29.0031 19.7741 29.0956C19.5458 29.1883 19.3531 29.3187 19.1961 29.4865C19.0389 29.6545 18.92 29.8587 18.8391 30.0993C18.7579 30.3398 18.7174 30.6104 18.7174 30.9112V31.4374C18.7174 31.7381 18.7579 32.0088 18.8391 32.2493C18.92 32.49 19.0389 32.6941 19.1961 32.8621C19.3531 33.0301 19.5458 33.1602 19.7741 33.253C20.0024 33.3456 20.2662 33.3921 20.5656 33.3921C20.865 33.3921 21.129 33.3456 21.3573 33.253C21.5854 33.1602 21.7769 33.0301 21.9315 32.8621C22.086 32.6941 22.2038 32.49 22.2849 32.2493C22.3659 32.0088 22.4065 31.7381 22.4065 31.4374V30.9112ZM20.5656 32.3621C20.9991 32.3621 21.2159 32.0539 21.2159 31.4374V30.9112C21.2159 30.2997 20.9991 29.9938 20.5656 29.9938C20.3512 29.9938 20.1881 30.0704 20.0761 30.2232C19.9639 30.3762 19.908 30.6055 19.908 30.9112V31.4374C19.908 31.7431 19.9639 31.9737 20.0761 32.129C20.1881 32.2845 20.3512 32.3621 20.5656 32.3621ZM26.7787 33.1665V30.6629C26.7787 30.4277 26.7601 30.2057 26.7236 29.9978C26.6868 29.79 26.6206 29.6094 26.5249 29.4563C26.4294 29.3035 26.2973 29.1819 26.1283 29.0918C25.9593 29.0016 25.7424 28.9565 25.478 28.9565C25.2429 28.9565 25.0345 28.9856 24.8533 29.0436C24.672 29.1017 24.4809 29.2039 24.2801 29.3504V29.1682C24.2801 29.1279 24.2655 29.0924 24.2359 29.0622C24.2067 29.0319 24.1723 29.0166 24.1332 29.0166H23.3101C23.2709 29.0166 23.2367 29.0316 23.2073 29.0617C23.178 29.0918 23.1632 29.127 23.1632 29.1669V33.1665C23.1632 33.2066 23.179 33.243 23.2109 33.2755C23.2429 33.3081 23.2782 33.3244 23.3176 33.3244H24.2067C24.2459 33.3244 24.2801 33.3081 24.3096 33.2757C24.3389 33.2432 24.3537 33.2069 24.3537 33.1668V30.2114C24.4809 30.1414 24.601 30.0839 24.7137 30.039C24.8264 29.9938 24.9366 29.9714 25.0444 29.9714C25.1571 29.9714 25.2489 29.9826 25.3199 30.0052C25.3909 30.0277 25.4461 30.0664 25.4853 30.1217C25.5245 30.1765 25.5514 30.249 25.5662 30.3389C25.5809 30.4289 25.5881 30.539 25.5881 30.6691V33.1668C25.5881 33.2069 25.6028 33.2432 25.6323 33.2757C25.6617 33.3081 25.6958 33.3244 25.7351 33.3244H26.6243C26.6635 33.3244 26.699 33.3081 26.7309 33.2755C26.7626 33.243 26.7787 33.2066 26.7787 33.1665ZM29.9826 32.6016V33.1834C29.9826 33.2678 29.9361 33.3177 29.843 33.3323C29.7302 33.3523 29.6323 33.3671 29.5491 33.3772C29.4658 33.3871 29.3701 33.3921 29.2625 33.3921C29.0626 33.3921 28.8861 33.3757 28.7328 33.3432C28.5794 33.3107 28.4514 33.2468 28.3491 33.1515C28.2471 33.0563 28.1691 32.9247 28.1155 32.7568C28.0621 32.5889 28.0352 32.3724 28.0352 32.1066V29.9264L27.4474 29.8285C27.4081 29.8186 27.3727 29.7998 27.3408 29.7722C27.3089 29.7447 27.293 29.7109 27.293 29.6707V29.1745C27.293 29.1344 27.3089 29.0981 27.3408 29.0654C27.3727 29.033 27.4081 29.0166 27.4474 29.0166H28.0352V28.4001C28.0352 28.3599 28.0499 28.3276 28.079 28.3024C28.108 28.2774 28.1423 28.2599 28.1815 28.2497L29.0724 28.0921H29.0943C29.1331 28.0921 29.1649 28.1032 29.1893 28.1256C29.2136 28.1483 29.2258 28.1797 29.2258 28.2197V29.0166H29.8283C29.8674 29.0166 29.9017 29.0318 29.9312 29.062C29.9607 29.0923 29.9753 29.1279 29.9753 29.1682V29.7822C29.9753 29.8228 29.9607 29.858 29.9312 29.8883C29.9017 29.9186 29.8674 29.9338 29.8283 29.9338H29.2258V32.1216C29.2258 32.2719 29.238 32.3684 29.2625 32.411C29.287 32.4535 29.3555 32.4748 29.468 32.4748H29.8283C29.9312 32.4748 29.9826 32.5171 29.9826 32.6016ZM33.9065 30.4901C33.9065 30.2146 33.8662 29.9801 33.7851 29.7871C33.7044 29.5944 33.5906 29.4364 33.4437 29.3135C33.2967 29.1908 33.1166 29.1008 32.9035 29.043C32.6905 28.9854 32.4517 28.9565 32.1871 28.9565C31.9419 28.9565 31.7032 28.9742 31.4707 29.0092C31.2379 29.0442 31.0529 29.0793 30.9158 29.1143C30.8225 29.1396 30.7762 29.1946 30.7762 29.2796V29.8886C30.7762 29.9389 30.7883 29.974 30.8129 29.9938C30.8374 30.014 30.8692 30.0242 30.9084 30.0242H30.9451C31.0041 30.019 31.0774 30.0128 31.1657 30.0052C31.2538 29.9978 31.353 29.9917 31.4632 29.9864C31.5735 29.9815 31.6886 29.9778 31.8087 29.9752C31.9286 29.9726 32.0475 29.9714 32.165 29.9714C32.3365 29.9714 32.4712 30.004 32.5692 30.0691C32.6672 30.1344 32.7161 30.2747 32.7161 30.4901V30.7609H32.3194C31.6872 30.7609 31.228 30.8623 30.9415 31.0653C30.6549 31.2682 30.5116 31.5903 30.5116 32.0313V32.0992C30.5116 32.3446 30.5471 32.5501 30.6181 32.7154C30.6889 32.8809 30.7836 33.0137 30.901 33.114C31.0187 33.2142 31.1521 33.2856 31.3016 33.3281C31.451 33.3707 31.6065 33.3921 31.7682 33.3921C31.9887 33.3921 32.1784 33.362 32.3377 33.3019C32.4968 33.2417 32.6473 33.159 32.7897 33.0538V33.174C32.7897 33.2142 32.8044 33.2493 32.8337 33.2792C32.863 33.3094 32.8974 33.3244 32.9366 33.3244H33.7597C33.7987 33.3244 33.8331 33.3094 33.8625 33.2792C33.8918 33.2493 33.9065 33.2142 33.9065 33.174V30.4901ZM32.4553 32.426C32.5556 32.3935 32.6501 32.3546 32.7382 32.3095V31.4826H32.3194C32.192 31.4826 32.0867 31.4938 32.0034 31.5162C31.9201 31.5389 31.8538 31.5728 31.805 31.6179C31.7558 31.6629 31.7216 31.7206 31.7022 31.7907C31.6825 31.8609 31.6727 31.9411 31.6727 32.0313V32.0992C31.6727 32.2594 31.7106 32.3621 31.7865 32.4072C31.8625 32.4523 31.9788 32.4748 32.1357 32.4748C32.2483 32.4748 32.3546 32.4587 32.4553 32.426ZM37.522 33.1064V32.4375C37.522 32.3972 37.5084 32.366 37.4816 32.3433C37.4545 32.3207 37.4215 32.3095 37.3823 32.3095H37.3677C37.2305 32.3245 37.0994 32.3371 36.9744 32.3471C36.8496 32.357 36.6818 32.3621 36.4712 32.3621C36.3878 32.3621 36.3094 32.3483 36.2361 32.3207C36.1625 32.2932 36.0987 32.2456 36.0449 32.1778C35.991 32.1102 35.9481 32.0201 35.9164 31.9073C35.8844 31.7944 35.8687 31.6553 35.8687 31.49V30.8586C35.8687 30.6931 35.8844 30.554 35.9164 30.4413C35.9481 30.3284 35.991 30.2383 36.0449 30.1706C36.0987 30.1029 36.1625 30.0554 36.2361 30.0277C36.3094 30.0003 36.3878 29.9864 36.4712 29.9864C36.6818 29.9864 36.8496 29.9917 36.9744 30.0015C37.0994 30.0115 37.2305 30.0242 37.3677 30.039H37.3823C37.4215 30.039 37.4545 30.0277 37.4816 30.0052C37.5084 29.9826 37.522 29.9514 37.522 29.9113V29.2422C37.522 29.187 37.5098 29.1482 37.4852 29.1256C37.4605 29.1031 37.4215 29.0842 37.3677 29.0692C37.2649 29.0442 37.1312 29.0192 36.9672 28.994C36.803 28.9689 36.6108 28.9565 36.3903 28.9565C35.8708 28.9565 35.4558 29.1194 35.1448 29.4453C34.8337 29.7709 34.6781 30.2421 34.6781 30.8586V31.49C34.6781 32.1066 34.8337 32.5776 35.1448 32.9033C35.4558 33.2293 35.8708 33.3921 36.3903 33.3921C36.6108 33.3921 36.803 33.3795 36.9672 33.3546C37.1312 33.3293 37.2649 33.3044 37.3677 33.2792C37.4215 33.2643 37.4605 33.2455 37.4852 33.2229C37.5098 33.2004 37.522 33.1615 37.522 33.1064ZM40.6892 32.6016V33.1834C40.6892 33.2678 40.6424 33.3177 40.5495 33.3323C40.4367 33.3523 40.3388 33.3671 40.2557 33.3772C40.1722 33.3871 40.0766 33.3921 39.9691 33.3921C39.7692 33.3921 39.5926 33.3757 39.4393 33.3432C39.2858 33.3107 39.1579 33.2468 39.0558 33.1515C38.9536 33.0563 38.8756 32.9247 38.8221 32.7568C38.7687 32.5889 38.7418 32.3724 38.7418 32.1066V29.9264L38.154 29.8285C38.1146 29.8186 38.0793 29.7998 38.0473 29.7722C38.0154 29.7447 37.9996 29.7109 37.9996 29.6707V29.1745C37.9996 29.1344 38.0154 29.0981 38.0473 29.0654C38.0793 29.033 38.1146 29.0166 38.154 29.0166H38.7418V28.4001C38.7418 28.3599 38.7565 28.3276 38.7856 28.3024C38.8145 28.2774 38.8487 28.2599 38.8878 28.2497L39.7787 28.0921H39.8008C39.8397 28.0921 39.8714 28.1032 39.8955 28.1256C39.9201 28.1483 39.9322 28.1797 39.9322 28.2197V29.0166H40.5349C40.5739 29.0166 40.6083 29.0318 40.6377 29.062C40.667 29.0923 40.6818 29.1279 40.6818 29.1682V29.7822C40.6818 29.8228 40.667 29.858 40.6377 29.8883C40.6083 29.9186 40.5739 29.9338 40.5349 29.9338H39.9322V32.1216C39.9322 32.2719 39.9445 32.3684 39.9691 32.411C39.9935 32.4535 40.062 32.4748 40.1748 32.4748H40.5349C40.6377 32.4748 40.6892 32.5171 40.6892 32.6016Z" fill="white"/>
</g>
<defs>
<clipPath id="clip0_716_18738">
<rect width="44" height="44" fill="white"/>
</clipPath>
</defs>
</svg>
