<svg width="65" height="25" viewBox="0 0 65 25" fill="none" xmlns="http://www.w3.org/2000/svg">
<path fill-rule="evenodd" clip-rule="evenodd" d="M26.8423 5.50379V11.0075L29.1058 10.9719C31.3471 10.9367 31.3759 10.9332 32.0404 10.6143C32.8621 10.2199 33.571 9.44574 33.7629 8.73346C33.941 8.07222 33.8615 6.84176 33.6051 6.29081C33.493 6.04988 33.2198 5.66966 32.9981 5.446L32.5949 5.03931L32.8199 4.51072C33.0079 4.06894 33.0376 3.82447 33.0007 3.02261C32.9487 1.89158 32.6604 1.25792 31.9722 0.762214C31.2605 0.249458 30.6746 0.124452 28.6798 0.0596796L26.8423 0V5.50379ZM38.228 0.556159C38.1086 0.845366 37.1456 3.22457 36.0884 5.84316C35.0311 8.46175 34.1222 10.6914 34.0687 10.798C33.9791 10.9766 34.0578 10.9918 35.0706 10.9918H36.1697L36.7532 9.52468L37.3368 8.05761H39.0312H40.7256L41.308 9.52468L41.8903 10.9918H42.9524C43.7593 10.9918 44.0016 10.9585 43.9614 10.8534C43.5704 9.83371 39.7895 0.365827 39.7165 0.223992C39.6402 0.075513 39.4801 0.0302275 39.031 0.0302275H38.4452L38.228 0.556159ZM44.7372 5.51099V10.9918H45.6959H46.6545V7.38408C46.6545 5.39983 46.6935 3.79291 46.7412 3.81328C46.789 3.83354 48.2868 5.45596 50.0699 7.41863L53.3119 10.9871L53.9776 10.9894L54.6433 10.9918V5.51099V0.0302275H53.6847H52.726V3.62871C52.726 5.60787 52.6899 7.22719 52.6459 7.22719C52.6018 7.22719 51.0855 5.60787 49.2765 3.62871L45.9872 0.0302275H45.3623H44.7372V5.51099ZM56.3476 5.51099V10.9918H57.3037H58.2599L58.289 9.09674L58.3182 7.20172L60.2015 9.09995L62.0849 10.9983L63.464 10.9674L64.8431 10.9364L62.0852 8.17276C60.5682 6.65287 59.3399 5.38045 59.3553 5.34524C59.3707 5.31003 60.5337 4.1377 61.9398 2.73994C63.3458 1.34229 64.5122 0.16088 64.5316 0.114488C64.5512 0.0680948 63.9521 0.0313351 63.2002 0.0326638L61.8332 0.0349885L60.129 1.74344C59.1916 2.68314 58.3888 3.45432 58.3448 3.45731C58.3008 3.46019 58.2649 2.69034 58.2649 1.74643V0.0302275H57.3063H56.3476V5.51099ZM3.62159 1.61223C3.28393 1.78894 3.19701 2.33392 3.47299 2.54374C3.62478 2.659 5.47051 2.68757 12.7859 2.68757C21.7117 2.68757 21.9136 2.68292 22.0985 2.47055C22.3465 2.18577 22.2452 1.76901 21.8868 1.59928C21.4767 1.40507 3.99386 1.41747 3.62159 1.61223ZM30.6151 2.28398C31.1955 2.67926 31.153 3.91105 30.5485 4.21222C30.39 4.29116 29.9466 4.38627 29.5632 4.42347L28.8662 4.49113V3.24229V1.99345L29.6084 2.0487C30.0307 2.08003 30.4647 2.18146 30.6151 2.28398ZM39.5075 5.05326C39.7475 5.65415 39.944 6.16481 39.944 6.18817C39.944 6.21153 39.5365 6.23069 39.0386 6.23069C38.5406 6.23069 38.1332 6.20267 38.1332 6.16835C38.1332 6.06172 39.0127 3.89699 39.0427 3.92987C39.0583 3.94692 39.2674 4.45248 39.5075 5.05326ZM3.53882 4.63152C3.24419 4.84599 3.23589 5.16543 3.51731 5.45795C3.72959 5.67862 3.83068 5.68128 10.8224 5.65172C17.7 5.6226 17.9166 5.61529 18.0633 5.4068C18.2682 5.11538 18.2535 4.94265 18.0014 4.68057C17.7927 4.46367 17.6464 4.45913 10.782 4.45913C4.61294 4.45913 3.74717 4.47972 3.53882 4.63152ZM31.2344 6.59873C31.6911 6.79714 31.8602 7.08425 31.8679 7.67539C31.8804 8.60967 31.313 9.00661 29.852 9.086L28.8662 9.1397V7.72422V6.30886L29.8583 6.37042C30.4038 6.40419 31.0231 6.50694 31.2344 6.59873ZM3.52039 8.05097C3.31471 8.30851 3.42847 8.81008 3.7281 8.96686C3.93017 9.0726 5.13754 9.10626 8.73441 9.10626C13.8837 9.10626 13.9772 9.09585 14.0413 8.51888C14.1133 7.87159 14.2815 7.89152 8.73441 7.89152C4.43783 7.89152 3.62787 7.91633 3.52039 8.05097ZM38.9679 14.122C37.1103 15.1188 36.8194 17.7776 38.434 19.0026C38.7079 19.2105 39.4765 19.6635 40.1419 20.0095C41.4838 20.7071 41.8613 21.0258 41.8613 21.4609C41.8613 22.3234 40.9605 23.1423 40.1379 23.0276C39.5984 22.9523 39.0127 22.3912 38.6624 21.6138C38.5271 21.3133 38.3816 21.0675 38.3391 21.0675C38.2966 21.0675 37.9 21.2461 37.458 21.4643C36.7044 21.8362 36.66 21.8778 36.7505 22.1249C37.1709 23.2743 38.0565 24.3415 38.9105 24.7279C39.7848 25.1235 40.8643 25.086 41.8077 24.627C43.1468 23.9756 43.8142 22.9437 43.8235 21.5095C43.8282 20.7988 43.7871 20.6037 43.5396 20.1648C43.1401 19.4562 42.8087 19.1951 41.1637 18.2926C39.6274 17.4496 39.2503 17.1051 39.3593 16.6434C39.4709 16.1707 39.7053 15.8896 40.1006 15.7539C40.6134 15.578 41.1276 15.8466 41.7091 16.5943L42.1483 17.159L42.8569 16.5609C43.2466 16.2318 43.5655 15.9199 43.5655 15.8676C43.5655 15.6459 42.6568 14.6034 42.2024 14.3039C41.5757 13.8907 41.1221 13.7613 40.2994 13.7605C39.7659 13.7599 39.5167 13.8276 38.9679 14.122ZM0 14.867V15.8635H1.22495H2.4499V20.3478V24.8321H3.46181H4.47372V20.3478V15.8635H5.69867H6.92362V14.867V13.8705H3.46181H0V14.867ZM7.77576 19.3513V24.8321H8.73441H9.69307V22.8325C9.69307 21.6458 9.7328 20.8586 9.79096 20.8959C9.84475 20.9304 10.4706 21.8303 11.182 22.8954L12.4751 24.8321H13.6468C14.5558 24.8321 14.8005 24.8011 14.7384 24.6937C14.6943 24.6176 13.9909 23.5686 13.1753 22.3628C12.3596 21.157 11.7098 20.1566 11.7312 20.1398C11.7527 20.1229 11.9376 20.0398 12.1422 19.9548C12.6437 19.7467 13.2792 19.133 13.562 18.5838C13.8934 17.9405 13.8924 16.2368 13.5604 15.5867C12.9037 14.301 11.7964 13.8773 9.08059 13.8728L7.77576 13.8705V19.3513ZM17.1466 19.2492C15.9471 22.2127 14.9492 24.6829 14.9289 24.7386C14.9076 24.7972 15.354 24.8266 15.9845 24.8084L17.0768 24.7767L17.6575 23.3096L18.2381 21.8426H19.9205H21.6031L21.9446 22.7007C22.1324 23.1726 22.3961 23.8328 22.5305 24.1677L22.7752 24.7767L23.8457 24.8083L24.9162 24.8397L24.2897 23.2581C23.9451 22.3882 22.9709 19.9326 22.1248 17.8012L20.5865 13.9259L19.957 13.8936L19.3274 13.8612L17.1466 19.2492ZM25.5641 19.3513V24.8321H26.5746H27.5851L27.6131 21.211L27.6412 17.5898L30.9365 21.211L34.232 24.8321H34.9043H35.5768V19.3513V13.8705H34.5663H33.5558L33.5278 17.4831L33.4997 21.0956L30.2015 17.4831L26.9032 13.8705H26.2337H25.5641V19.3513ZM44.7372 19.3513V24.8321H45.6939H46.6505L46.6791 22.3685L46.7078 19.9049L48.2789 19.8742L49.8501 19.8437V18.9054V17.9673H48.2523H46.6545V16.9154V15.8635H48.3056H49.9566V14.867V13.8705H47.3469H44.7372V19.3513ZM50.9152 19.3513V24.8321H53.8977H56.8802V23.8934V22.9547L54.883 22.9245L52.8858 22.8944V21.3997V19.9049L54.8297 19.8747L56.7737 19.8446V18.9084V17.9723L54.8297 17.9421L52.8858 17.9119L52.8551 16.8877L52.8246 15.8635H54.8523H56.8802V14.867V13.8705H53.8977H50.9152V19.3513ZM57.9454 19.336V24.8321H58.904H59.8627V22.8391C59.8627 21.7429 59.8986 20.848 59.9426 20.8504C59.9866 20.8528 60.6163 21.7497 61.3421 22.8434L62.6617 24.8321H63.8309H65L64.8099 24.5276C64.7053 24.3602 64.0062 23.3138 63.2564 22.2025L61.8931 20.1819L62.4009 19.9145C62.9991 19.5994 63.506 19.0887 63.7723 18.5328C63.9164 18.2319 63.9633 17.8737 63.9622 17.0815C63.9606 15.8461 63.7724 15.3621 63.0399 14.7104C62.3695 14.1138 61.7833 13.9704 59.7295 13.9005L57.9454 13.8399V19.336ZM11.2448 16.0256C11.9253 16.3212 12.1071 17.3431 11.5845 17.935C11.3539 18.196 10.4543 18.4587 10.0126 18.3939C9.74867 18.3551 9.74601 18.3437 9.71618 17.1092L9.68604 15.8635H10.2788C10.6049 15.8635 11.0396 15.9365 11.2448 16.0256ZM61.4589 16.0575C61.6631 16.1639 61.8928 16.3756 61.9691 16.5279C62.1572 16.9029 62.0618 17.6 61.78 17.9119C61.5386 18.179 60.8493 18.4102 60.2948 18.4102H59.9692V17.1369V15.8635L60.5284 15.8638C60.8479 15.8638 61.2468 15.9469 61.4589 16.0575ZM20.3851 18.8254C20.5989 19.3583 20.7733 19.8565 20.7725 19.9326C20.7713 20.0317 20.5285 20.071 19.9187 20.071C19.3124 20.071 19.0666 20.0315 19.0666 19.9339C19.0666 19.735 19.8442 17.8565 19.9265 17.8565C19.9647 17.8565 20.1711 18.2926 20.3851 18.8254Z" fill="black"/>
</svg>
