<svg width="83" height="31" viewBox="0 0 83 31" fill="none" xmlns="http://www.w3.org/2000/svg">
<path fill-rule="evenodd" clip-rule="evenodd" d="M34.3426 7.10455V13.709L37.1981 13.6663C40.0255 13.6241 40.0619 13.6198 40.9002 13.2372C41.9367 12.7639 42.8311 11.8349 43.0731 10.9802C43.2978 10.1867 43.1976 8.71012 42.8741 8.04897C42.7326 7.75985 42.3881 7.30359 42.1083 7.0352L41.5997 6.54718L41.8835 5.91287C42.1207 5.38273 42.1582 5.08936 42.1117 4.12714C42.046 2.7699 41.6824 2.0095 40.8142 1.41466C39.9163 0.79935 39.1772 0.649343 36.6606 0.571616L34.3426 0.5V7.10455ZM48.706 1.16739C48.5554 1.51444 47.3406 4.36949 46.0068 7.51179C44.673 10.6541 43.5264 13.3296 43.4589 13.4576C43.3459 13.6719 43.4452 13.6901 44.7229 13.6901H46.1095L46.8456 11.9296L47.5818 10.1691H49.7194H51.8569L52.5916 11.9296L53.3263 13.6901H54.6661C55.684 13.6901 55.9897 13.6502 55.9389 13.524C55.4458 12.3004 50.676 0.938993 50.5839 0.76879C50.4876 0.590616 50.2856 0.536273 49.7191 0.536273H48.98L48.706 1.16739ZM56.9177 7.11319V13.6901H58.1271H59.3365V9.3609C59.3365 6.97979 59.3857 5.05149 59.4459 5.07594C59.5061 5.10025 61.3957 7.04715 63.6451 9.40236L67.735 13.6845L68.5748 13.6873L69.4146 13.6901V7.11319V0.536273H68.2053H66.9959V4.85445C66.9959 7.22945 66.9503 9.17263 66.8948 9.17263C66.8392 9.17263 64.9264 7.22945 62.6441 4.85445L58.4946 0.536273H57.7062H56.9177V7.11319ZM71.5647 7.11319V13.6901H72.7708H73.9771L74.0138 11.4161L74.0506 9.14207L76.4265 11.4199L78.8025 13.6979L80.5423 13.6609L82.2821 13.6237L78.8028 10.3073C76.8892 8.48345 75.3395 6.95654 75.359 6.91429C75.3784 6.87204 76.8456 5.46524 78.6194 3.78793C80.3931 2.11075 81.8645 0.693056 81.8891 0.637385C81.9139 0.581714 81.158 0.537602 80.2094 0.539197L78.485 0.541986L76.335 2.59212C75.1525 3.71977 74.1397 4.64519 74.0842 4.64877C74.0287 4.65223 73.9834 3.7284 73.9834 2.59571V0.536273H72.774H71.5647V7.11319ZM5.04875 2.43468C4.62278 2.64673 4.51313 3.3007 4.8613 3.55249C5.05278 3.6908 7.38124 3.72508 16.6099 3.72508C27.8702 3.72508 28.1248 3.7195 28.3581 3.46466C28.6709 3.12293 28.5431 2.62282 28.0911 2.41913C27.5737 2.18608 5.51839 2.20096 5.04875 2.43468ZM39.1021 3.24078C39.8343 3.71512 39.7807 5.19326 39.0181 5.55466C38.8181 5.64939 38.2587 5.76353 37.7751 5.80817L36.8958 5.88935V4.39074V2.89214L37.8321 2.95844C38.3649 2.99604 38.9123 3.11775 39.1021 3.24078ZM50.3201 6.56392C50.623 7.28499 50.8708 7.89777 50.8708 7.9258C50.8708 7.95384 50.3568 7.97682 49.7286 7.97682C49.1004 7.97682 48.5864 7.94321 48.5864 7.90202C48.5864 7.77407 49.696 5.17639 49.7339 5.21585C49.7535 5.23631 50.0173 5.84298 50.3201 6.56392ZM4.94434 6.05783C4.57266 6.31519 4.56218 6.69851 4.9172 7.04955C5.18501 7.31435 5.31253 7.31754 14.1328 7.28206C22.8092 7.24712 23.0825 7.23835 23.2675 6.98816C23.5261 6.63846 23.5075 6.43118 23.1895 6.11669C22.9262 5.8564 22.7416 5.85095 14.0819 5.85095C6.29938 5.85095 5.20718 5.87567 4.94434 6.05783ZM39.8833 8.41848C40.4595 8.65657 40.6728 9.0011 40.6826 9.71047C40.6983 10.8316 39.9825 11.3079 38.1394 11.4032L36.8958 11.4676V9.76907V8.07063L38.1473 8.1445C38.8356 8.18503 39.6169 8.30833 39.8833 8.41848ZM4.92109 10.1612C4.66161 10.4702 4.80513 11.0721 5.18313 11.2602C5.43804 11.3871 6.96118 11.4275 11.4988 11.4275C17.9948 11.4275 18.1127 11.415 18.1936 10.7227C18.2845 9.94591 18.4967 9.96983 11.4988 9.96983C6.07847 9.96983 5.05668 9.99959 4.92109 10.1612ZM49.6395 17.4464C47.296 18.6426 46.929 21.8331 48.9659 23.3032C49.3115 23.5526 50.281 24.0963 51.1205 24.5115C52.8134 25.3485 53.2896 25.7309 53.2896 26.2531C53.2896 27.2881 52.1532 28.2708 51.1155 28.1331C50.4349 28.0428 49.696 27.3694 49.2541 26.4366C49.0834 26.076 48.8998 25.781 48.8462 25.781C48.7926 25.781 48.2923 25.9953 47.7346 26.2572C46.7841 26.7035 46.728 26.7533 46.8421 27.0499C47.3725 28.4292 48.4897 29.7097 49.5671 30.1735C50.6701 30.6482 52.0318 30.6031 53.222 30.0524C54.9114 29.2708 55.7532 28.0324 55.765 26.3114C55.771 25.4585 55.7191 25.2244 55.4068 24.6977C54.9029 23.8474 54.4848 23.5341 52.4096 22.4511C50.4715 21.4396 49.9958 21.0261 50.1332 20.472C50.2741 19.9048 50.5697 19.5675 51.0685 19.4047C51.7154 19.1936 52.364 19.5159 53.0976 20.4132L53.6517 21.0908L54.5456 20.3731C55.0373 19.9782 55.4396 19.6039 55.4396 19.5412C55.4396 19.275 54.2932 18.0241 53.72 17.6647C52.9293 17.1688 52.3571 17.0135 51.3192 17.0126C50.6461 17.0119 50.3318 17.0931 49.6395 17.4464ZM0.47998 18.3405V19.5363H2.0253H3.57062V24.9174V30.2985H4.84719H6.12375V24.9174V19.5363H7.66907H9.21439V18.3405V17.1446H4.84719H0.47998V18.3405ZM10.2894 23.7216V30.2985H11.4988H12.7082V27.899C12.7082 26.475 12.7583 25.5303 12.8316 25.5751C12.8995 25.6165 13.6891 26.6963 14.5865 27.9745L16.2178 30.2985H17.6959C18.8427 30.2985 19.1513 30.2613 19.073 30.1324C19.0174 30.0411 18.1301 28.7823 17.1012 27.3354C16.0721 25.8884 15.2523 24.6879 15.2793 24.6677C15.3064 24.6475 15.5397 24.5477 15.7979 24.4458C16.4305 24.196 17.2322 23.4595 17.5889 22.8005C18.007 22.0286 18.0058 19.9841 17.5869 19.2041C16.7585 17.6612 15.3615 17.1528 11.9355 17.1473L10.2894 17.1446V23.7216ZM22.1111 23.5991C20.5979 27.1552 19.3389 30.1195 19.3134 30.1863C19.2865 30.2566 19.8497 30.292 20.6451 30.27L22.0231 30.232L22.7556 28.4716L23.488 26.7111H25.6105H27.7331L28.1639 27.7408C28.4008 28.3071 28.7335 29.0994 28.9031 29.5013L29.2118 30.232L30.5622 30.2699L31.9127 30.3076L31.1223 28.4098C30.6876 27.3658 29.4586 24.4191 28.3913 21.8614L26.4506 17.2111L25.6565 17.1723L24.8623 17.1335L22.1111 23.5991ZM32.7301 23.7216V30.2985H34.0048H35.2796L35.315 25.9532L35.3504 21.6078L39.5076 25.9532L43.6649 30.2985H44.5131H45.3614V23.7216V17.1446H44.0867H42.8119L42.7766 21.4797L42.7411 25.8148L38.5803 21.4797L34.4194 17.1446H33.5748H32.7301V23.7216ZM56.9177 23.7216V30.2985H58.1245H59.3314L59.3675 27.3422L59.4037 24.3859L61.3857 24.3491L63.3677 24.3124V23.1865V22.0607H61.3521H59.3365V20.7985V19.5363H61.4193H63.5021V18.3405V17.1446H60.2099H56.9177V23.7216ZM64.7115 23.7216V30.2985H68.474H72.2365V29.172V28.0456L69.717 28.0094L67.1974 27.9733V26.1796V24.3859L69.6498 24.3496L72.1022 24.3135V23.1901V22.0667L69.6498 22.0306L67.1974 21.9943L67.1587 20.7653L67.1202 19.5363H69.6783H72.2365V18.3405V17.1446H68.474H64.7115V23.7216ZM73.5803 23.7032V30.2985H74.7897H75.9991V27.9069C75.9991 26.5915 76.0443 25.5177 76.0998 25.5205C76.1553 25.5234 76.9498 26.5996 77.8654 27.9121L79.5302 30.2985H81.0051H82.48L82.2401 29.9331C82.1082 29.7322 81.2263 28.4766 80.2804 27.143L78.5605 24.7183L79.2011 24.3975C79.9557 24.0193 80.5952 23.4064 80.9312 22.7394C81.113 22.3783 81.1721 21.9485 81.1708 20.9978C81.1687 19.5153 80.9313 18.9345 80.0072 18.1524C79.1614 17.4366 78.422 17.2645 75.8311 17.1807L73.5803 17.1078V23.7032ZM14.6657 19.7308C15.5243 20.0854 15.7535 21.3118 15.0943 22.0221C14.8033 22.3352 13.6685 22.6504 13.1113 22.5727C12.7783 22.5262 12.7749 22.5125 12.7373 21.031L12.6993 19.5363H13.4471C13.8584 19.5363 14.4068 19.6238 14.6657 19.7308ZM78.0128 19.769C78.2704 19.8967 78.5601 20.1508 78.6563 20.3335C78.8936 20.7835 78.7734 21.62 78.4178 21.9943C78.1133 22.3148 77.2438 22.5922 76.5442 22.5922H76.1334V21.0642V19.5363L76.8389 19.5365C77.2419 19.5365 77.7451 19.6363 78.0128 19.769ZM26.1965 23.0904C26.4663 23.7299 26.6863 24.3278 26.6852 24.4191C26.6838 24.538 26.3775 24.5852 25.6082 24.5852C24.8433 24.5852 24.5332 24.5378 24.5332 24.4207C24.5332 24.1819 25.5141 21.9279 25.618 21.9279C25.6663 21.9279 25.9265 22.4511 26.1965 23.0904Z" fill="white"/>
</svg>
