<svg width="189" height="245" viewBox="0 0 189 245" fill="none" xmlns="http://www.w3.org/2000/svg">
<g clip-path="url(#clip0_47_1169)">
<path d="M174.401 93.3332L173.809 86.2344L173.612 84.7883L172.888 83.9995L168.219 79.267C168.351 78.9383 168.482 78.6754 168.548 78.4125L168.943 76.7035C169.074 75.9147 169.14 74.7973 169.074 74.2715L169.008 73.5484V73.4827L168.877 72.8911L168.811 72.7597L168.745 72.4968L168.548 72.0366C168.285 71.3793 168.022 70.985 167.759 70.4591C166.641 68.6187 165.457 67.1069 164.273 65.5951C161.84 62.5715 159.341 59.8108 156.711 57.0502L156.119 56.4586L155.264 56.2614L150.792 55.144L149.214 53.7637L149.28 53.6979L147.504 52.1204L147.438 52.1861L141.06 46.6648L140.007 34.2418L139.876 33.0587L139.021 32.2699L131.129 24.8424L129.551 16.166L129.683 16.2317L128.959 12.2222L128.828 12.1565C128.104 8.14691 127.118 4.13737 126.197 0.127827L125.342 -3.55306L122.186 -1.84408L120.673 -0.989586L120.542 -29.9109V-33.0659L118.437 -30.8311L117.451 -28.3991L117.056 -27.5446H116.53L116.991 -25.7041L117.254 -26.7558L117.648 -26.8873L115.347 3.34861L115.215 6.43792C114.557 7.35815 113.966 8.27837 113.637 9.33006C112.848 11.6306 112.913 14.0626 113.308 16.2975C113.703 18.5323 114.229 20.5042 114.82 22.6076L115.741 25.7626C116.004 26.5514 116.267 27.2744 116.596 28.0632L107.718 35.0306L107.258 35.3592L107.324 35.885L107.85 43.2468L104.035 43.9041L103.246 44.0356V44.8244L103.049 53.3693L92.7902 59.4165L92.2641 59.7451L92.3956 60.3367L93.6451 66.0552H90.357H89.8309L89.6336 66.5153L84.0438 80.2529L80.2296 79.9243L79.7036 79.8585L79.572 80.3844L76.7443 90.9669C74.2453 91.0327 71.8121 91.0984 69.2474 91.6242C68.9186 91.69 68.5898 91.7557 68.1952 91.9529C67.8664 92.1501 67.3403 92.2815 67.2088 93.0703L67.2745 95.0422L67.4061 98.5916C64.1837 99.3147 61.0271 100.103 57.8706 101.089C57.0814 101.352 56.2265 101.615 55.4374 101.944C55.0428 102.141 54.6482 102.273 54.2537 102.47C53.8591 102.733 53.4645 102.733 53.0699 103.521C52.9384 104.113 52.9384 104.31 52.8069 104.77C52.6754 105.165 52.5438 105.559 52.4123 105.953C52.1493 106.676 51.8205 107.399 51.4259 108.123L37.8789 110.883L37.6816 110.949V111.146L37.2871 122.78L28.2777 119.034L28.1461 118.968L28.0804 119.099L25.5814 126.527L20.1232 128.499H20.0574V128.565L21.4384 137.241L20.1889 128.63L25.6472 126.724H25.7129V126.658L28.2777 119.362L37.4186 123.306L37.6816 123.438V123.109L38.0762 111.54L51.6232 108.911H51.8205L51.8862 108.78C52.2808 107.925 52.6096 107.137 52.9384 106.348C53.1357 105.953 53.2672 105.559 53.3987 105.099C53.5303 104.705 53.596 104.047 53.6618 103.85C53.6618 103.784 54.1221 103.456 54.4509 103.324C54.7797 103.127 55.2401 102.996 55.5689 102.864C56.358 102.601 57.1472 102.338 58.0021 102.075C61.2902 101.155 64.5783 100.366 67.9322 99.6433L68.3267 99.5776V99.1832L68.1952 95.2394L68.1294 93.2675C68.1294 93.399 68.1952 93.2018 68.524 93.136C68.7871 93.0046 69.0501 92.9389 69.3789 92.8731C71.8121 92.413 74.5084 92.3473 77.0731 92.3473H77.5334L77.6649 91.9529L80.6242 81.5018L84.3727 81.8962L84.833 81.9619L85.0303 81.5018L90.7516 67.8957H94.5658H95.5522L95.3549 66.9097L94.1054 60.7968L104.364 54.8811L104.825 54.6181V54.0923L105.088 45.876L109.033 45.2187L109.954 45.0873L109.888 44.1671L109.428 36.4766L118.635 29.4435L119.358 28.9176L118.963 27.9974C118.635 27.2744 118.306 26.157 117.977 25.171L117.122 22.1474C116.596 20.1098 116.07 18.0064 115.741 15.9688C115.412 13.9969 115.412 11.9593 116.07 10.1845C116.662 8.40983 117.977 6.83231 119.49 6.10927L119.358 5.84635L121.199 5.05759C121.66 8.21264 122.12 11.3677 122.712 14.457L125.145 27.2744L125.342 28.2603L126.066 28.9176L133.826 36.2794L134.944 48.7682L135.075 50.017L135.996 50.8058L141.388 55.4726L141.323 55.5384L143.032 56.9844L143.098 56.9187L147.241 60.4681L147.767 60.9282L148.491 61.1254L152.765 62.2429C155.067 64.6749 157.368 67.2383 159.473 69.8018C160.591 71.1822 161.709 72.6282 162.498 74.0086C162.629 74.3372 162.892 74.6659 162.958 74.9288L163.024 75.0602L163.09 75.4546L162.695 76.9007C161.709 80.0557 160.13 83.5394 158.486 86.8259C156.777 90.1782 155.001 93.4647 153.094 96.6855L152.634 97.4742V98.3945L152.699 102.601L142.572 108.977L140.862 110.029L141.06 112.001L141.717 117.982L120.476 132.837L118.963 133.889L119.095 135.663L119.49 142.762L117.911 143.617L116.267 144.471L116.201 146.378L115.938 156.171L108.113 158.8L106.008 159.524L105.943 161.758L105.614 174.707L98.5115 185.355L77.2704 186.736H77.0731L76.9415 186.867L70.4311 193.9L77.4019 187.722L96.5386 188.379L95.4864 189.891L94.9603 190.68V191.6L94.5658 205.14L81.3476 213.882L79.9666 214.803L79.9008 216.051L69.8392 220.653L63.8549 216.38L63.1973 215.92L62.4739 216.051L47.5459 218.549L44.5866 215.986L40.4436 212.305L42.1534 217.563L44.0605 223.413L35.5115 226.634L34.9196 226.831L34.7881 227.423L30.5793 243.461L22.8852 239.714L21.7015 239.254L21.7672 240.306L22.4906 249.114L13.7443 256.476L8.41754 250.034L13.547 256.87L13.6785 257.001L13.81 256.87L23.214 249.64L23.4113 249.508V249.311L23.0167 241.292L30.5136 245.301L31.3685 245.762L31.6315 244.841L36.5637 228.606L45.9676 225.451L47.2171 225.056L46.8883 223.808L46.3622 221.967L47.0856 221.901L62.0136 219.995L68.1952 224.794L69.1159 225.517L70.2338 225.056L79.572 221.244L78.4541 243.855L60.4353 259.631L49.9134 273.368L51.1628 274.288L61.5532 260.682L78.3225 245.959L78.1253 250.1L77.2046 252.466L76.6785 253.912L76.4155 254.635L76.0866 255.49L74.2453 261.274L74.1138 261.668V262.128L73.9823 266.006L57.3445 269.359L56.1608 269.622L56.2923 270.805L57.2787 281.584L49.9791 287.5L35.5115 294.73L35.0511 294.993L35.1169 295.519L35.7745 300.252L17.69 312.412L2.95929 311.426H2.89353V311.492L0 316.947L2.95929 311.557L16.4405 312.872L16.309 331.605L18.8079 331.539L18.9395 312.675H18.2818L36.6952 301.041L37.024 300.843L36.9582 300.449L36.4322 295.848L50.7025 289.209L50.7683 289.143L50.9656 289.078L59.0543 282.899L59.5146 282.505L59.4489 281.847L58.857 271.593L73.7192 268.964L72.3382 305.51L71.4833 303.801L56.5553 311.952L55.6347 312.478L55.8977 313.464L57.739 320.497L54.3194 320.3L53.333 320.234L53.1357 321.154L52.0177 327.004L38.7996 333.577L20.9123 337.324L20.5177 337.389L20.5835 337.784L21.2411 343.239L12.3633 341.859H12.2317L12.166 341.991L7.23382 353.888L12.3633 342.319L21.5042 344.028L21.9645 344.094L21.8987 343.634L21.3727 338.178L39.0626 335.023H39.1284L39.2599 334.957L53.2672 328.516L53.7276 328.319L53.8591 327.793L55.1086 322.469L59.2516 322.863L60.8956 322.994L60.501 321.351L58.7912 313.727L72.3382 306.956V307.219V308.008L72.667 308.665L82.6628 329.765L81.0845 369.137V369.334V369.531L81.4791 374.987L74.048 376.302L75.429 383.401L64.8413 385.701L65.9593 393.654L67.6033 398.256L60.4353 404.566L61.4217 405.749L69.4447 398.716L67.4718 393.26L66.6169 386.884L77.2704 384.518L75.8894 377.485L81.5449 376.499L82.071 384.124C77.928 392.406 74.3768 401.016 70.6284 409.561L70.2338 410.481L70.4311 411.204L77.0073 433.75L77.0731 433.947L77.1388 434.013L93.0532 463L79.9008 432.83L75.3633 410.81C79.7036 402.528 84.2411 394.377 88.0553 385.898L88.4499 385.11L97.3935 390.631L100.024 403.383L100.419 413.111V413.636L100.879 413.571L108.507 412.585L110.02 419.421L108.836 412.322V412.125H108.639L101.273 412.651L101.405 403.251V403.185V403.12L99.4322 389.645L99.3664 389.185L98.9061 388.856L88.3841 381.429L88.0553 381.889L87.0689 368.94L88.1868 341.662L94.3027 346.723L96.1441 352.31L96.2756 352.639L96.5386 352.77L102.326 356.122L108.77 362.893L111.795 374.527L111.861 374.724H112.058L121.462 373.738L112.256 374.264L109.757 362.564V362.433L109.691 362.367L103.378 355.137L103.312 355.071L103.246 355.005L97.8539 351.521L96.2756 345.869L96.2098 345.606L96.0125 345.408L88.5157 338.638L88.9102 329.042V328.253L88.5814 327.596L78.5856 306.496L79.7693 276.589L89.3706 282.57L91.4092 299.003L98.8403 295.322L106.534 309.388L104.496 316.093L108.244 309.125L99.5637 293.219L92.7244 296.571L90.8831 281.519L79.9008 274.683L80.3612 262.523L82.071 257.133L82.2683 256.541L82.5313 255.818L83.0574 254.372L84.1096 251.546L84.3069 251.086V250.56L85.9509 218.089L99.1691 209.347L99.6952 209.018L104.43 214.474L104.759 219.732L101.339 222.23L100.945 222.493V222.887L100.616 231.564V231.827L100.747 231.958L109.362 241.883L107.85 246.945L109.691 241.883V241.818L109.625 241.752L101.8 231.432L102.654 223.479L106.403 221.113L106.863 220.784V220.192V213.882V213.488L106.6 213.159L100.813 205.469L100.682 205.6L101.01 192.454L111.006 177.336L111.532 176.548V175.627L111.861 163.993L119.687 161.298L121.791 160.575L121.857 158.34L122.12 148.152L123.896 147.232L125.737 146.246L125.605 144.208L125.145 136.847L146.518 121.926L148.096 120.808L147.899 118.902L147.307 113.052L157.04 106.939L158.684 99.1832V98.8546C160.459 95.7652 162.169 92.6759 163.813 89.4551C165.194 86.6945 166.444 83.9338 167.562 80.9102L172.362 86.563L172.691 95.1737H173.086L172.559 94.845L189 107.86L174.401 93.3332Z" fill="white" fill-opacity="0.5"/>
</g>
<defs>
<clipPath id="clip0_47_1169">
<rect width="189" height="496" fill="white" transform="translate(0 -33)"/>
</clipPath>
</defs>
</svg>
