<svg width="294" height="49" viewBox="0 0 294 49" fill="none" xmlns="http://www.w3.org/2000/svg">
<path d="M12.4044 16.6467L13.8158 8.4248H16.0732L14.6608 16.6467H12.4044ZM22.8168 8.60204C22.3696 8.43547 21.6688 8.25671 20.7936 8.25671C18.5629 8.25671 16.9917 9.37186 16.9782 10.9701C16.9657 12.1515 18.1 12.8106 18.9563 13.2039C19.8351 13.607 20.1304 13.8639 20.1262 14.2237C20.1206 14.7749 19.4245 15.0266 18.7756 15.0266C17.8721 15.0266 17.392 14.902 16.6506 14.5951L16.3597 14.4644L16.0429 16.305C16.5702 16.5346 17.5452 16.7333 18.5576 16.7437C20.9306 16.7437 22.4711 15.6412 22.4886 13.9345C22.4971 12.9991 21.8957 12.2875 20.5932 11.7006C19.8042 11.3202 19.3209 11.0664 19.3261 10.6813C19.3261 10.3395 19.7351 9.97409 20.619 9.97409C21.3571 9.96271 21.8919 10.1225 22.3086 10.2891L22.5109 10.384L22.8168 8.60204ZM28.6261 8.42467H26.8817C26.3414 8.42467 25.9369 8.57108 25.6996 9.1065L22.347 16.6413H24.7175C24.7175 16.6413 25.105 15.6282 25.1927 15.4057C25.4517 15.4057 27.7546 15.4093 28.0838 15.4093C28.1513 15.6971 28.3585 16.6413 28.3585 16.6413H30.4532L28.6261 8.42442V8.42467ZM25.8584 13.7339C26.0452 13.2602 26.7579 11.4355 26.7579 11.4355C26.7446 11.4574 26.9432 10.9595 27.0572 10.6508L27.2097 11.3596C27.2097 11.3596 27.642 13.3222 27.7323 13.7338H25.8584V13.7339ZM10.488 8.42467L8.27791 14.0317L8.04247 12.8923C7.63099 11.5787 6.3491 10.1557 4.91602 9.44321L6.93693 16.6336L9.32541 16.631L12.8794 8.42459L10.488 8.42455" fill="#A4A6A9"/>
<path d="M6.21592 8.42432H2.57573L2.54688 8.59538C5.37891 9.27595 7.25276 10.9206 8.0308 12.897L7.23926 9.1187C7.10265 8.59807 6.70631 8.44267 6.21601 8.42453" fill="#EDEDED"/>
<g clip-path="url(#clip0_53_1886)">
<path d="M58.35 21.9584V20.6975C58.35 20.2151 58.0618 19.8993 57.567 19.8993C57.3196 19.8993 57.0506 19.9825 56.8656 20.2567C56.7215 20.0266 56.5149 19.8993 56.2051 19.8993C55.9985 19.8993 55.792 19.9629 55.6286 20.1931V19.9409H55.1963V21.9584H55.6286V20.8444C55.6286 20.4869 55.8136 20.318 56.1018 20.318C56.39 20.318 56.5342 20.5065 56.5342 20.8444V21.9584H56.9665V20.8444C56.9665 20.4869 57.1731 20.318 57.4397 20.318C57.7279 20.318 57.872 20.5065 57.872 20.8444V21.9584H58.35ZM64.7631 19.9409H64.0618V19.3312H63.6294V19.9409H63.2379V20.34H63.6294V21.2655C63.6294 21.7283 63.8144 22 64.3092 22C64.4941 22 64.7007 21.9364 64.8448 21.8531L64.7199 21.4736C64.595 21.5569 64.4509 21.5789 64.3476 21.5789C64.141 21.5789 64.0594 21.4516 64.0594 21.2435V20.34H64.7607V19.9409H64.7631ZM68.4333 19.8968C68.1859 19.8968 68.0201 20.0241 67.9169 20.1906V19.9384H67.4845V21.956H67.9169V20.8199C67.9169 20.4845 68.061 20.2935 68.33 20.2935C68.4117 20.2935 68.5149 20.3155 68.599 20.3351L68.7239 19.914C68.6374 19.8968 68.5149 19.8968 68.4333 19.8968ZM62.8872 20.1074C62.6807 19.9605 62.3924 19.8968 62.0826 19.8968C61.5878 19.8968 61.2587 20.149 61.2587 20.5481C61.2587 20.8836 61.5061 21.0745 61.9385 21.1357L62.145 21.1578C62.3708 21.1994 62.4957 21.2631 62.4957 21.3683C62.4957 21.5153 62.33 21.6205 62.0418 21.6205C61.7535 21.6205 61.5254 21.5153 61.3812 21.41L61.1747 21.7454C61.4005 21.9143 61.7103 21.9976 62.0201 21.9976C62.5966 21.9976 62.9281 21.7234 62.9281 21.3463C62.9281 20.9888 62.6591 20.8003 62.2483 20.7366L62.0418 20.7146C61.8568 20.6926 61.7127 20.6509 61.7127 20.5261C61.7127 20.3792 61.8568 20.2959 62.085 20.2959C62.3324 20.2959 62.5798 20.4012 62.7047 20.4649L62.8872 20.1074ZM74.39 19.8968C74.1426 19.8968 73.9769 20.0241 73.8736 20.1906V19.9384H73.4413V21.956H73.8736V20.8199C73.8736 20.4845 74.0177 20.2935 74.2868 20.2935C74.3684 20.2935 74.4717 20.3155 74.5558 20.3351L74.6807 19.9189C74.5966 19.8968 74.4741 19.8968 74.39 19.8968ZM68.8656 20.9497C68.8656 21.5593 69.2788 22 69.9177 22C70.2059 22 70.4125 21.9364 70.619 21.7699L70.4125 21.4124C70.2467 21.5397 70.0834 21.6009 69.896 21.6009C69.5454 21.6009 69.298 21.3488 69.298 20.9497C69.298 20.5701 69.5454 20.318 69.896 20.2984C70.081 20.2984 70.2467 20.362 70.4125 20.4869L70.619 20.1294C70.4125 19.9605 70.2059 19.8993 69.9177 19.8993C69.2788 19.8968 68.8656 20.34 68.8656 20.9497ZM72.8648 20.9497V19.9409H72.4325V20.1931C72.2884 20.0046 72.0818 19.8993 71.8128 19.8993C71.2555 19.8993 70.8232 20.34 70.8232 20.9497C70.8232 21.5593 71.2555 22 71.8128 22C72.101 22 72.3076 21.8948 72.4325 21.7062V21.9584H72.8648V20.9497ZM71.2772 20.9497C71.2772 20.5922 71.5029 20.2984 71.8752 20.2984C72.2259 20.2984 72.4733 20.5726 72.4733 20.9497C72.4733 21.3071 72.2259 21.6009 71.8752 21.6009C71.5053 21.5789 71.2772 21.3047 71.2772 20.9497ZM66.1034 19.8968C65.527 19.8968 65.1138 20.318 65.1138 20.9472C65.1138 21.5789 65.527 21.9976 66.125 21.9976C66.4133 21.9976 66.7015 21.9144 66.9297 21.7234L66.7231 21.4075C66.5574 21.5348 66.3508 21.6181 66.1467 21.6181C65.8776 21.6181 65.611 21.4908 65.5486 21.1357H67.0113C67.0113 21.0721 67.0113 21.0305 67.0113 20.9668C67.0306 20.318 66.6583 19.8968 66.1034 19.8968ZM66.1034 20.2763C66.3724 20.2763 66.5574 20.4453 66.5982 20.7587H65.5678C65.6086 20.4869 65.7936 20.2763 66.1034 20.2763ZM76.8448 20.9497V19.1427H76.4125V20.1931C76.2683 20.0046 76.0618 19.8993 75.7928 19.8993C75.2355 19.8993 74.8032 20.34 74.8032 20.9497C74.8032 21.5593 75.2355 22 75.7928 22C76.081 22 76.2876 21.8948 76.4125 21.7062V21.9584H76.8448V20.9497ZM75.2571 20.9497C75.2571 20.5922 75.4829 20.2984 75.8552 20.2984C76.2059 20.2984 76.4533 20.5726 76.4533 20.9497C76.4533 21.3071 76.2059 21.6009 75.8552 21.6009C75.4829 21.5789 75.2571 21.3047 75.2571 20.9497ZM60.7832 20.9497V19.9409H60.3508V20.1931C60.2067 20.0046 60.0001 19.8993 59.7311 19.8993C59.1739 19.8993 58.7415 20.34 58.7415 20.9497C58.7415 21.5593 59.1739 22 59.7311 22C60.0193 22 60.2259 21.8948 60.3508 21.7062V21.9584H60.7832V20.9497ZM59.1763 20.9497C59.1763 20.5922 59.4021 20.2984 59.7744 20.2984C60.125 20.2984 60.3724 20.5726 60.3724 20.9497C60.3724 21.3071 60.125 21.6009 59.7744 21.6009C59.4021 21.5789 59.1763 21.3047 59.1763 20.9497Z" fill="#A4A6A9"/>
<path d="M69.238 4.61841H62.7432V16.513H69.238V4.61841Z" fill="#A4A6A9"/>
<path d="M63.1753 10.5657C63.1753 8.1491 64.2898 6.00425 66 4.61843C64.7414 3.60966 63.1537 3 61.4219 3C57.3195 3 54 6.38376 54 10.5657C54 14.7477 57.3195 18.1314 61.4219 18.1314C63.1537 18.1314 64.7414 17.5218 66 16.513C64.2874 15.1468 63.1753 12.9823 63.1753 10.5657Z" fill="#A4A6A9"/>
<path d="M78 10.5657C78 14.7477 74.6805 18.1314 70.5781 18.1314C68.8463 18.1314 67.2586 17.5218 66 16.513C67.7318 15.1247 68.8247 12.9823 68.8247 10.5657C68.8247 8.1491 67.7102 6.00425 66 4.61843C67.2562 3.60966 68.8439 3 70.5757 3C74.6805 3 78 6.4058 78 10.5657Z" fill="#A4A6A9"/>
</g>
<path d="M127.163 11.5355H129.593V5.88831H126.949V6.67471L126.449 5.88831H124.161V6.88918L123.733 5.88831H119.516C119.373 5.88831 119.23 5.96042 119.087 5.96042C118.944 5.96042 118.872 6.03192 118.73 6.10278C118.587 6.1749 118.515 6.1749 118.372 6.24576V5.88831H106.291L105.933 6.81769L105.576 5.88831H102.717V6.88918L102.289 5.88831H100.001L99 8.31901V11.5355H100.644L100.93 10.7491H101.502L101.788 11.5355H114.368V10.8206L114.868 11.5355H118.37V11.1059C118.442 11.178 118.585 11.178 118.656 11.2489C118.728 11.321 118.87 11.321 118.942 11.3919C119.085 11.4634 119.227 11.4634 119.37 11.4634H121.946L122.231 10.6776H122.803L123.089 11.4634H126.591V10.7485L127.163 11.5355ZM131.095 18.6834V13.3936H111.438L110.937 14.1086L110.437 13.3936H104.719V19.0408H110.437L110.937 18.3259L111.438 19.0408H115.012V17.8255H114.869C115.369 17.8255 115.798 17.754 116.155 17.611V19.1117H118.728V18.3968L119.228 19.1117H129.879C130.308 18.9687 130.737 18.8979 131.095 18.6834Z" fill="#A4A6A9"/>
<path d="M129.879 17.325H127.949V18.1114H129.808C130.594 18.1114 131.094 17.611 131.094 16.896C131.094 16.1811 130.664 15.8237 129.95 15.8237H129.093C128.878 15.8237 128.735 15.6807 128.735 15.4662C128.735 15.2517 128.878 15.1088 129.093 15.1088H130.737L131.094 14.3224H129.164C128.378 14.3224 127.878 14.8228 127.878 15.4662C127.878 16.1811 128.306 16.5386 129.021 16.5386H129.879C130.093 16.5386 130.236 16.6816 130.236 16.896C130.308 17.182 130.165 17.325 129.879 17.325ZM126.376 17.325H124.447V18.1114H126.305C127.09 18.1114 127.591 17.611 127.591 16.896C127.591 16.1811 127.163 15.8237 126.448 15.8237H125.59C125.375 15.8237 125.232 15.6807 125.232 15.4662C125.232 15.2517 125.375 15.1088 125.59 15.1088H127.233L127.591 14.3224H125.661C124.875 14.3224 124.374 14.8228 124.374 15.4662C124.374 16.1811 124.804 16.5386 125.518 16.5386H126.376C126.591 16.5386 126.733 16.6816 126.733 16.896C126.806 17.182 126.591 17.325 126.376 17.325ZM123.875 15.0373V14.2515H120.873V18.0399H123.875V17.2541H121.731V16.4677H123.804V15.6819H121.731V14.967H123.875V15.0373ZM119.014 15.0373C119.372 15.0373 119.515 15.2524 119.515 15.4668C119.515 15.6813 119.372 15.8952 119.014 15.8952H117.942V14.9658L119.014 15.0373ZM117.942 16.6822H118.372L119.515 18.0399H120.587L119.301 16.6101C119.944 16.4671 120.301 16.0382 120.301 15.4668C120.301 14.7519 119.801 14.2515 119.015 14.2515H117.014V18.0399H117.872L117.942 16.6822ZM115.654 15.5377C115.654 15.8237 115.512 16.0382 115.155 16.0382H114.011V15.0373H115.083C115.441 15.0373 115.654 15.2524 115.654 15.5377ZM113.153 14.2515V18.0399H114.011V16.7537H115.155C115.94 16.7537 116.512 16.2533 116.512 15.4675C116.512 14.7526 116.012 14.1813 115.226 14.1813L113.153 14.2515ZM111.867 18.0399H112.939L111.438 16.1096L112.939 14.2515H111.867L110.937 15.4668L110.008 14.2515H108.935L110.436 16.1096L108.935 17.9684H110.008L110.937 16.7531L111.867 18.0399ZM108.65 15.0373V14.2515H105.648V18.0399H108.65V17.2541H106.506V16.4677H108.579V15.6819H106.506V14.967H108.65V15.0373ZM126.019 8.31896L127.521 10.6067H128.593V6.81764H127.735V9.31921L127.521 8.96176L126.162 6.81764H125.019V10.6067H125.877V8.033L126.019 8.31896ZM122.302 8.24684L122.588 7.46107L122.874 8.24684L123.231 9.10474H121.946L122.302 8.24684ZM123.804 10.6061H124.733L123.089 6.81702H121.946L120.301 10.6061H121.231L121.589 9.81966H123.447L123.804 10.6061ZM119.801 10.6061L120.158 9.81966H119.943C119.3 9.81966 118.943 9.39133 118.943 8.74728V8.67579C118.943 8.03237 119.3 7.60342 119.943 7.60342H120.873V6.81702H119.872C118.729 6.81702 118.085 7.60342 118.085 8.67579V8.74728C118.085 9.89177 118.728 10.6061 119.801 10.6061ZM116.584 10.6061H117.442V6.88913H116.584V10.6061ZM114.726 7.60405C115.083 7.60405 115.226 7.81852 115.226 8.03237C115.226 8.24622 115.083 8.46195 114.726 8.46195H113.653V7.53193L114.726 7.60405ZM113.653 9.24772H114.083L115.226 10.6061H116.298L115.012 9.17623C115.655 9.03325 116.012 8.60367 116.012 8.03237C116.012 7.31746 115.513 6.81702 114.726 6.81702H112.725V10.6061H113.583L113.653 9.24772ZM112.08 7.60405V6.81764H109.079V10.6067H112.08V9.82028H109.936V9.0345H112.01V8.2481H109.936V7.53318H112.08V7.60405ZM105.577 10.6061H106.362L107.435 7.53193V10.6061H108.293V6.81702H106.863L106.005 9.39071L105.148 6.81702H103.718V10.6061H104.575V7.53193L105.577 10.6061ZM100.93 8.24684L101.216 7.46107L101.502 8.24684L101.859 9.10474H100.573L100.93 8.24684ZM102.431 10.6061H103.361L101.717 6.81702H100.644L99 10.6061H99.9294L100.287 9.81966H102.146L102.431 10.6061Z" fill="#E8E9EA"/>
<g clip-path="url(#clip1_53_1886)">
<path d="M156.223 7.5364C155.458 7.53645 154.707 7.74922 154.056 8.15095C153.405 8.55269 152.878 9.12757 152.534 9.8114C152.245 10.3866 152.095 11.0213 152.095 11.665C152.095 12.3087 152.245 12.9435 152.534 13.5187C152.878 14.2025 153.405 14.7774 154.056 15.1791C154.707 15.5809 155.458 15.7936 156.223 15.7937C157.337 15.7937 158.275 15.427 158.959 14.7968C159.738 14.0781 160.188 13.0156 160.188 11.7593C160.188 11.4779 160.164 11.197 160.116 10.9197H156.224V12.5093H158.453C158.408 12.7632 158.311 13.0053 158.17 13.2211C158.029 13.4368 157.845 13.6217 157.63 13.7645C157.259 14.0156 156.782 14.1593 156.224 14.1593C155.147 14.1593 154.233 13.4333 153.906 12.4551C153.733 11.9426 153.733 11.3875 153.906 10.8749C154.233 9.89577 155.147 9.17077 156.224 9.17077C156.812 9.16115 157.381 9.38339 157.807 9.78952L158.986 8.61244C158.239 7.91019 157.249 7.52455 156.224 7.5364H156.223ZM162.995 8.10931V15.2968H163.918V12.3854H165.444C166.072 12.3854 166.6 12.1812 167.029 11.7729C167.243 11.5813 167.412 11.3459 167.527 11.0827C167.641 10.8195 167.697 10.5347 167.691 10.2479C167.695 9.9625 167.638 9.67951 167.524 9.41791C167.41 9.15631 167.241 8.92216 167.029 8.73119C166.819 8.5278 166.571 8.36804 166.299 8.26112C166.027 8.15421 165.736 8.10226 165.444 8.10827L162.995 8.10931ZM165.523 8.99473C165.684 8.99754 165.843 9.03264 165.99 9.09795C166.137 9.16326 166.27 9.25744 166.38 9.37494C166.497 9.4891 166.591 9.62562 166.654 9.77645C166.718 9.92727 166.751 10.0893 166.751 10.2531C166.751 10.4168 166.718 10.5789 166.654 10.7297C166.591 10.8805 166.497 11.017 166.38 11.1312C166.262 11.2534 166.12 11.3495 165.963 11.4136C165.805 11.4776 165.636 11.5081 165.467 11.5031H163.918V8.99473H165.467C165.485 8.99429 165.504 8.99429 165.523 8.99473ZM169.819 10.2187C168.942 10.2187 168.28 10.5395 167.832 11.1822L168.646 11.6937C168.946 11.2593 169.354 11.0416 169.87 11.0416C170.199 11.0376 170.517 11.1577 170.761 11.3781C170.882 11.4775 170.978 11.6025 171.044 11.7439C171.11 11.8854 171.144 12.0397 171.143 12.1958V12.4062C170.788 12.2051 170.336 12.1051 169.788 12.1051C169.146 12.1051 168.632 12.2562 168.248 12.5572C167.862 12.8572 167.671 13.2624 167.671 13.7708C167.667 13.9995 167.713 14.2263 167.808 14.4347C167.903 14.643 168.043 14.8276 168.218 14.9749C168.582 15.2958 169.035 15.4572 169.577 15.4572C170.212 15.4572 170.721 15.176 171.103 14.6135H171.143V15.2958H172.026V12.2656C172.026 11.6301 171.828 11.1301 171.434 10.7656C171.038 10.401 170.501 10.2187 169.819 10.2187ZM172.176 10.3791L174.203 14.9854L173.059 17.4645H174.012L177.095 10.3781H176.09L174.665 13.9104H174.644L173.179 10.3791H172.176ZM169.941 12.8458C170.455 12.8458 170.857 12.9604 171.145 13.1895C171.145 13.577 170.992 13.9145 170.686 14.2031C170.411 14.4786 170.037 14.6337 169.648 14.6343C169.388 14.6393 169.134 14.5539 168.929 14.3926C168.834 14.3238 168.757 14.2333 168.704 14.1286C168.65 14.0239 168.623 13.908 168.624 13.7906C168.624 13.5229 168.749 13.301 169.002 13.1166C169.252 12.9364 169.565 12.8458 169.94 12.8458H169.941Z" fill="#A4A6A9"/>
</g>
<g clip-path="url(#clip2_53_1886)">
<path d="M203.912 7.66986C203.539 8.10735 202.942 8.45241 202.345 8.40312C202.27 7.81158 202.562 7.18307 202.904 6.79488C203.277 6.34506 203.93 6.02465 204.459 6C204.521 6.61618 204.279 7.22004 203.912 7.66986ZM204.453 8.52019C203.588 8.4709 202.848 9.00698 202.438 9.00698C202.021 9.00698 201.393 8.54484 200.709 8.55716C199.82 8.56949 198.993 9.0686 198.539 9.86348C197.606 11.4532 198.296 13.8071 199.198 15.101C199.64 15.7419 200.168 16.4443 200.865 16.4197C201.524 16.395 201.785 15.9945 202.581 15.9945C203.383 15.9945 203.613 16.4197 204.31 16.4074C205.031 16.395 205.485 15.7665 205.927 15.1257C206.43 14.3986 206.636 13.69 206.648 13.653C206.636 13.6407 205.255 13.1169 205.243 11.5395C205.23 10.2209 206.331 9.59235 206.381 9.55538C205.759 8.64343 204.789 8.54484 204.453 8.52019ZM209.446 6.73326V16.3396H210.951V13.0553H213.035C214.937 13.0553 216.274 11.7613 216.274 9.88812C216.274 8.01492 214.962 6.73326 213.084 6.73326H209.446ZM210.951 7.99028H212.686C213.992 7.99028 214.738 8.6804 214.738 9.89429C214.738 11.1082 213.992 11.8045 212.68 11.8045H210.951V7.99028ZM219.023 16.4135C219.968 16.4135 220.845 15.9391 221.243 15.1873H221.274V16.3396H222.667V11.558C222.667 10.1716 221.548 9.2781 219.825 9.2781C218.227 9.2781 217.046 10.1839 217.002 11.4286H218.358C218.47 10.837 219.023 10.4489 219.782 10.4489C220.702 10.4489 221.218 10.874 221.218 11.6566V12.1865L219.34 12.2974C217.593 12.4022 216.648 13.1108 216.648 14.3431C216.648 15.5878 217.624 16.4135 219.023 16.4135ZM219.427 15.2736C218.625 15.2736 218.115 14.8915 218.115 14.3062C218.115 13.7023 218.606 13.3511 219.545 13.2956L221.218 13.1909V13.7331C221.218 14.6327 220.447 15.2736 219.427 15.2736ZM224.527 18.9522C225.994 18.9522 226.684 18.3976 227.288 16.7154L229.931 9.37053H228.401L226.629 15.0456H226.597L224.825 9.37053H223.252L225.801 16.3642L225.665 16.7894C225.435 17.5103 225.061 17.7876 224.396 17.7876C224.278 17.7876 224.048 17.7753 223.954 17.763V18.9152C224.042 18.9399 224.415 18.9522 224.527 18.9522Z" fill="#A4A6A9"/>
</g>
<path d="M24.7822 37.1503C25.3829 37.1503 25.8693 36.6639 25.8693 36.0642C25.8693 35.4644 25.3826 34.9771 24.7822 34.9771C24.1818 34.9771 23.696 35.4641 23.696 36.0642C23.696 36.2068 23.724 36.3481 23.7786 36.4799C23.8332 36.6117 23.9132 36.7315 24.014 36.8324C24.1149 36.9333 24.2346 37.0133 24.3664 37.0679C24.4982 37.1225 24.6395 37.1507 24.7822 37.1507M16.4557 37.7362C16.4067 37.8628 16.0536 38.8572 15.1995 39.8905V35.4711L12.9243 35.9207V43.9324H15.1998V41.4561C15.8591 42.4441 16.1847 43.9324 16.1847 43.9324H18.9102C18.6411 42.8114 17.4615 40.7451 17.4615 40.7451C18.1623 39.8412 18.7025 38.8235 19.0584 37.7365L16.4557 37.7362ZM22.4376 37.6526C20.3998 37.7181 19.365 38.6323 19.365 40.45V43.9321H21.5886V41.0928C21.5886 40.0048 21.7311 39.5412 23.0225 39.4937V37.6855C22.8052 37.6393 22.4376 37.6538 22.4376 37.6538M9.10844 38.6197C8.82977 38.6016 8.1844 38.5595 8.1844 37.9787C8.1844 37.278 9.11319 37.278 9.46184 37.278C10.0746 37.278 10.8678 37.4585 11.4347 37.6285C11.6277 37.7088 11.8228 37.784 12.0199 37.854L12.0452 37.8609V35.9407L12.011 35.9305C11.3422 35.6962 10.5648 35.4714 9.123 35.4714C6.63717 35.4714 5.75684 36.9192 5.75684 38.1599C5.75684 38.8749 6.06337 40.558 8.90989 40.7521C9.15119 40.767 9.79149 40.8037 9.79149 41.4044C9.79149 41.9 9.26709 42.1923 8.38549 42.1923C7.41965 42.1923 6.48137 41.9459 5.91232 41.7122V43.6892C6.76479 43.9124 7.72555 44.0242 8.85194 44.0242C11.2824 44.0242 12.3707 42.6543 12.3707 41.2965C12.3707 39.7568 11.1528 38.7568 9.10907 38.6197M23.6808 43.9333H25.8861V37.7438H23.6802L23.6808 43.9333ZM30.0388 35.8663V43.9333H32.2447V35.472L30.0388 35.8663ZM26.8206 35.8663L29.0239 35.472V43.9333H26.8206V35.8656V35.8663Z" fill="#A4A6A9"/>
<path d="M52.2149 35H50.1962C50.1962 36.8101 49.4357 38.4619 48.114 39.55L47.3174 40.2028L50.4134 44.8121H52.9573L50.1056 40.5687C51.4545 39.1048 52.2149 37.1266 52.2149 35Z" fill="#A4A6A9"/>
<path d="M47.064 35H45V44.8121H47.064V35Z" fill="#A4A6A9"/>
<path d="M55.501 35H53.5547V44.8121H55.501V35Z" fill="#A4A6A9"/>
<path d="M72.5745 37.8387C71.8322 37.8387 71.1261 38.086 70.6554 38.7883V38.0267H68.8086V44.812H70.6825V41.2512C70.6825 40.2225 71.3162 39.7181 72.0766 39.7181C72.8914 39.7181 73.3621 40.2522 73.3621 41.2413V44.8219H75.218V40.4995C75.218 38.9169 74.0683 37.8387 72.5745 37.8387Z" fill="#A4A6A9"/>
<path d="M61.3856 38.0267V38.4619C60.8605 38.0662 60.2268 37.8387 59.5388 37.8387C57.7283 37.8387 56.2617 39.4411 56.2617 41.4194C56.2617 43.3976 57.7283 45 59.5388 45C60.2268 45 60.8605 44.7725 61.3856 44.3768V44.812H63.2414V38.0267H61.3856ZM59.6927 43.1602C58.7603 43.1602 58.0089 42.3788 58.0089 41.4194C58.0089 40.4599 58.7603 39.6785 59.6927 39.6785C60.6252 39.6785 61.3765 40.4599 61.3765 41.4194C61.3765 42.3788 60.6252 43.1602 59.6927 43.1602Z" fill="#A4A6A9"/>
<path d="M66.1203 38.907V38.0267H64.2192V44.8121H66.1294V41.6469C66.1294 40.5787 67.1885 40.005 67.9218 40.005C67.9309 40.005 67.9399 40.005 67.9399 40.005V38.0267C67.1885 38.0267 66.4915 38.3828 66.1203 38.907Z" fill="#A4A6A9"/>
<path d="M80.994 38.0267V38.4619C80.4689 38.0662 79.8352 37.8387 79.1472 37.8387C77.3367 37.8387 75.8701 39.4411 75.8701 41.4194C75.8701 43.3976 77.3367 45 79.1472 45C79.8352 45 80.4689 44.7725 80.994 44.3768V44.812H82.8498V38.0267H80.994ZM79.3011 43.1602C78.3687 43.1602 77.6173 42.3788 77.6173 41.4194C77.6173 40.4599 78.3687 39.6785 79.3011 39.6785C80.2336 39.6785 80.9849 40.4599 80.9849 41.4194C80.994 42.3788 80.2336 43.1602 79.3011 43.1602Z" fill="#A4A6A9"/>
<path d="M84.2891 38.2245C84.2891 38.1256 84.2257 38.0663 84.1261 38.0663H83.9541V38.5806H84.0356V38.3927H84.1261L84.1985 38.5806H84.2891L84.2076 38.3729C84.2619 38.3432 84.2891 38.2938 84.2891 38.2245ZM84.1261 38.3037H84.0356V38.1454H84.1261C84.1804 38.1454 84.2076 38.1751 84.2076 38.2245C84.2076 38.274 84.1895 38.3037 84.1261 38.3037Z" fill="#A4A6A9"/>
<path d="M84.0989 37.8486C83.8544 37.8486 83.6553 38.0662 83.6553 38.3333C83.6643 38.6004 83.8544 38.818 84.0989 38.818C84.3433 38.818 84.5424 38.6004 84.5424 38.3333C84.5424 38.0662 84.3433 37.8486 84.0989 37.8486ZM84.0989 38.7289C83.8997 38.7289 83.7458 38.5509 83.7458 38.3333C83.7458 38.1157 83.9088 37.9377 84.0989 37.9377C84.298 37.9377 84.4519 38.1157 84.4519 38.3333C84.4519 38.5509 84.289 38.7289 84.0989 38.7289Z" fill="#A4A6A9"/>
<path d="M84.8324 42.4084C84.1896 42.4084 83.6646 42.9821 83.6646 43.6844C83.6646 44.3867 84.1896 44.9604 84.8324 44.9604C85.4751 44.9604 86.0002 44.3867 86.0002 43.6844C86.0002 42.9722 85.4751 42.4084 84.8324 42.4084Z" fill="#A4A6A9"/>
<path d="M120.633 37.4542H117.876C117.687 37.4542 117.527 37.5779 117.497 37.7459L116.382 44.123C116.36 44.2488 116.468 44.3622 116.609 44.3622H117.926C118.114 44.3622 118.275 44.2386 118.304 44.0702L118.605 42.3502C118.634 42.1819 118.795 42.0582 118.983 42.0582H119.856C121.673 42.0582 122.721 41.2655 122.995 39.6946C123.118 39.0073 123 38.4673 122.643 38.0891C122.252 37.6739 121.556 37.4542 120.633 37.4542ZM120.952 39.7833C120.801 40.6757 120.045 40.6757 119.314 40.6757H118.898L119.189 39.0091C119.207 38.9084 119.304 38.8342 119.416 38.8342H119.607C120.105 38.8342 120.575 38.8342 120.818 39.0902C120.962 39.243 121.007 39.4699 120.952 39.7833Z" fill="#A4A6A9"/>
<path d="M128.877 39.7546H127.556C127.444 39.7546 127.347 39.8288 127.329 39.9295L127.271 40.2626L127.178 40.1419C126.893 39.7677 126.255 39.6426 125.619 39.6426C124.159 39.6426 122.913 40.6393 122.67 42.0375C122.544 42.7349 122.724 43.4019 123.162 43.8669C123.565 44.2946 124.141 44.4728 124.826 44.4728C126.001 44.4728 126.653 43.7909 126.653 43.7909L126.595 44.1219C126.572 44.2484 126.68 44.3619 126.821 44.3619H128.011C128.2 44.3619 128.359 44.2382 128.389 44.0699L129.103 39.9939C129.126 39.8684 129.018 39.7546 128.877 39.7546ZM127.036 42.0724C126.909 42.7528 126.31 43.2095 125.546 43.2095C125.163 43.2095 124.856 43.0986 124.659 42.8884C124.464 42.6797 124.39 42.3826 124.452 42.0517C124.571 41.3771 125.18 40.9055 125.932 40.9055C126.307 40.9055 126.612 41.0179 126.813 41.2299C127.014 41.444 127.094 41.7429 127.036 42.0724Z" fill="#A4A6A9"/>
<path d="M135.91 39.7545H134.582C134.456 39.7545 134.337 39.8112 134.265 39.9062L132.435 42.3374L131.659 40.0011C131.61 39.8549 131.461 39.7545 131.291 39.7545H129.987C129.829 39.7545 129.719 39.8942 129.769 40.0287L131.231 43.8971L129.857 45.6465C129.749 45.7843 129.857 45.9738 130.044 45.9738H131.37C131.495 45.9738 131.613 45.9185 131.685 45.8254L136.098 40.08C136.204 39.9425 136.095 39.7545 135.91 39.7545Z" fill="#A4A6A9"/>
<path d="M140.303 37.4542H137.545C137.357 37.4542 137.196 37.5779 137.167 37.7459L136.052 44.123C136.03 44.2488 136.138 44.3622 136.278 44.3622H137.694C137.825 44.3622 137.938 44.2757 137.958 44.1579L138.275 42.3502C138.304 42.1819 138.465 42.0582 138.653 42.0582H139.526C141.342 42.0582 142.39 41.2655 142.665 39.6946C142.788 39.0073 142.669 38.4673 142.313 38.0891C141.921 37.6739 141.226 37.4542 140.303 37.4542ZM140.621 39.7833C140.471 40.6757 139.715 40.6757 138.984 40.6757H138.568L138.86 39.0091C138.878 38.9084 138.973 38.8342 139.087 38.8342H139.278C139.775 38.8342 140.245 38.8342 140.488 39.0902C140.633 39.243 140.677 39.4699 140.621 39.7833Z" fill="#E8E9EA"/>
<path d="M148.546 39.7546H147.226C147.113 39.7546 147.017 39.8288 147 39.9295L146.941 40.2626L146.848 40.1419C146.563 39.7677 145.925 39.6426 145.289 39.6426C143.83 39.6426 142.584 40.6393 142.341 42.0375C142.215 42.7349 142.394 43.4019 142.833 43.8669C143.236 44.2946 143.811 44.4728 144.496 44.4728C145.672 44.4728 146.324 43.7909 146.324 43.7909L146.265 44.1219C146.243 44.2484 146.351 44.3619 146.492 44.3619H147.681C147.87 44.3619 148.03 44.2382 148.06 44.0699L148.774 39.9939C148.796 39.8684 148.688 39.7546 148.546 39.7546ZM146.705 42.0724C146.579 42.7528 145.979 43.2095 145.215 43.2095C144.833 43.2095 144.525 43.0986 144.329 42.8884C144.133 42.6797 144.06 42.3826 144.121 42.0517C144.241 41.3771 144.849 40.9055 145.601 40.9055C145.976 40.9055 146.281 41.0179 146.482 41.2299C146.684 41.444 146.764 41.7429 146.705 42.0724Z" fill="#E8E9EA"/>
<path d="M150.103 37.6291L148.971 44.1229C148.949 44.2488 149.057 44.3622 149.198 44.3622H150.336C150.525 44.3622 150.685 44.2386 150.714 44.0702L151.83 37.6935C151.853 37.5677 151.745 37.4539 151.604 37.4539H150.33C150.217 37.4542 150.12 37.5284 150.103 37.6291Z" fill="#E8E9EA"/>
<path d="M104.93 45.6014L105.141 44.3934L104.671 44.3836H102.428L103.987 35.4698C103.991 35.4429 104.007 35.4178 104.03 35.4C104.053 35.3821 104.083 35.3723 104.113 35.3723H107.895C109.151 35.3723 110.018 35.608 110.47 36.073C110.682 36.2912 110.817 36.5192 110.883 36.7701C110.951 37.0334 110.952 37.348 110.885 37.7316L110.881 37.7596V38.0054L111.093 38.1138C111.271 38.1992 111.413 38.297 111.522 38.409C111.704 38.5956 111.821 38.8327 111.87 39.1138C111.922 39.4029 111.905 39.7469 111.821 40.1363C111.724 40.5843 111.568 40.9745 111.356 41.2938C111.162 41.588 110.914 41.832 110.62 42.021C110.34 42.2007 110.006 42.337 109.629 42.4243C109.264 42.5101 108.847 42.5534 108.391 42.5534H108.096C107.886 42.5534 107.681 42.6218 107.521 42.7443C107.36 42.8694 107.254 43.0403 107.221 43.2272L107.199 43.336L106.826 45.465L106.809 45.5432C106.805 45.568 106.797 45.5803 106.786 45.5887C106.776 45.5963 106.761 45.6014 106.747 45.6014H104.93Z" fill="#A4A6A9"/>
<path d="M111.293 37.788C111.282 37.8531 111.269 37.9196 111.255 37.988C110.756 40.2974 109.049 41.0952 106.87 41.0952H105.76C105.494 41.0952 105.269 41.2698 105.228 41.5069L104.659 44.7563L104.499 45.6774C104.472 45.8331 104.605 45.9734 104.779 45.9734H106.747C106.98 45.9734 107.178 45.8207 107.215 45.6134L107.234 45.5232L107.605 43.4025L107.628 43.2861C107.665 43.0781 107.863 42.9254 108.096 42.9254H108.391C110.297 42.9254 111.79 42.2272 112.226 40.2069C112.409 39.3629 112.314 38.6581 111.832 38.1625C111.686 38.0131 111.505 37.8891 111.293 37.788Z" fill="#E8E9EA"/>
<path d="M110.772 37.6004C110.696 37.5804 110.617 37.5622 110.536 37.5459C110.455 37.5299 110.372 37.5157 110.287 37.5033C109.988 37.4597 109.66 37.439 109.309 37.439H106.344C106.271 37.439 106.202 37.4539 106.14 37.4808C106.003 37.5401 105.901 37.6568 105.877 37.7997L105.246 41.4019L105.228 41.507C105.27 41.2699 105.494 41.0953 105.761 41.0953H106.87C109.05 41.0953 110.756 40.2971 111.255 37.9881C111.27 37.9197 111.282 37.8531 111.294 37.7881C111.168 37.7277 111.031 37.6761 110.884 37.6321C110.847 37.6211 110.81 37.6106 110.772 37.6004Z" fill="#A4A6A9"/>
<path d="M105.877 37.7996C105.901 37.6567 106.003 37.54 106.14 37.4811C106.202 37.4542 106.271 37.4393 106.344 37.4393H109.308C109.66 37.4393 109.987 37.46 110.287 37.5036C110.372 37.516 110.455 37.5302 110.536 37.5462C110.617 37.5625 110.696 37.5807 110.772 37.6007C110.81 37.6109 110.847 37.6215 110.884 37.632C111.031 37.676 111.168 37.728 111.294 37.788C111.442 36.9345 111.293 36.3535 110.781 35.8273C110.217 35.248 109.199 35 107.896 35H104.114C103.848 35 103.621 35.1745 103.579 35.412L102.004 44.4175C101.973 44.5956 102.125 44.7564 102.325 44.7564H104.66L105.246 41.4018L105.877 37.7996Z" fill="#A4A6A9"/>
<path d="M180.945 40.8456C180.937 40.5946 180.814 40.465 180.575 40.4565H179.3C178.998 40.4743 178.842 40.6337 178.835 40.9334V43.141C178.842 43.4505 179.014 43.6083 179.35 43.6172H180.518C180.64 43.6172 180.741 43.5739 180.821 43.4853C180.905 43.4188 180.945 43.3333 180.945 43.2273V40.8456ZM177.197 40.5323C177.206 39.9799 177.334 39.5602 177.582 39.2732C177.711 39.1529 177.874 39.0523 178.071 38.9692C178.277 38.8806 178.476 38.8376 178.669 38.8376H181.01C182.042 38.8462 182.567 39.3896 182.584 40.4693V43.792C182.576 44.1754 182.42 44.5081 182.119 44.7862C181.82 45.0786 181.463 45.2275 181.048 45.2364H178.835V47.632H177.197V40.5323Z" fill="#A4A6A9"/>
<path d="M185.539 43.2965C185.539 43.389 185.583 43.4621 185.67 43.517C185.747 43.5828 185.844 43.6172 185.967 43.6172H187.225C187.509 43.6172 187.657 43.5112 187.665 43.2965V42.8447C187.665 42.5979 187.515 42.4734 187.213 42.4734H185.967C185.803 42.4734 185.69 42.4997 185.627 42.5492C185.569 42.6076 185.539 42.7233 185.539 42.8946V43.2965ZM187.665 40.8066C187.673 40.5644 187.527 40.4488 187.225 40.4565H183.927V38.8376H187.64C188.721 38.8547 189.27 39.3575 189.289 40.3505V43.7371C189.28 44.1653 189.143 44.5185 188.879 44.7993C188.602 45.0902 188.246 45.2364 187.809 45.2364H185.565C184.472 45.2275 183.918 44.7475 183.901 43.7932V42.4865C183.91 41.4893 184.439 40.9826 185.487 40.9652H187.665V40.8066Z" fill="#A4A6A9"/>
<path d="M193.888 46.0128C194.018 46.005 194.13 45.9602 194.221 45.8797C194.309 45.8047 194.353 45.7184 194.353 45.6205V45.2364H192.257C191.983 45.2364 191.765 45.2028 191.602 45.1359C191.429 45.0751 191.257 44.9618 191.085 44.8009C190.921 44.6303 190.803 44.452 190.732 44.2655C190.657 44.0949 190.62 43.8779 190.62 43.6172V38.8376H192.257V43.1043C192.257 43.4462 192.402 43.6172 192.696 43.6172H193.852C193.989 43.6172 194.108 43.5739 194.208 43.4853C194.305 43.4103 194.353 43.3213 194.353 43.2168V38.8376H195.977V45.8886C195.968 46.4104 195.829 46.8282 195.561 47.145C195.288 47.4618 194.916 47.6239 194.442 47.632H190.62V46.0128H193.888Z" fill="#A4A6A9"/>
<path d="M197.263 43.6172H200.18C200.447 43.6083 200.586 43.5054 200.594 43.3081V43.1627C200.594 43.1205 200.581 43.0737 200.555 43.0234C200.49 42.9012 200.41 42.8405 200.315 42.8405H198.868C198.439 42.8323 198.073 42.69 197.765 42.4154C197.454 42.1616 197.294 41.8494 197.285 41.4831V40.2758C197.302 39.3339 197.833 38.8547 198.881 38.8376H202.265V40.4565H199.398C199.061 40.4565 198.892 40.5559 198.892 40.754V40.9106C198.892 41.116 199.065 41.2189 199.41 41.2189H200.852C201.237 41.2274 201.564 41.369 201.837 41.6452C202.113 41.9233 202.256 42.254 202.265 42.6382V43.8191C202.256 44.151 202.096 44.4821 201.79 44.8125C201.64 44.9746 201.487 45.086 201.334 45.149C201.175 45.207 200.96 45.2364 200.686 45.2364H197.263V43.6172Z" fill="#A4A6A9"/>
<path d="M205.067 43.2965C205.067 43.389 205.111 43.4621 205.2 43.517C205.276 43.5828 205.374 43.6172 205.495 43.6172H206.755C207.039 43.6172 207.186 43.5112 207.194 43.2965V42.8447C207.194 42.5979 207.042 42.4734 206.741 42.4734H205.495C205.331 42.4734 205.218 42.4997 205.156 42.5492C205.097 42.6076 205.067 42.7233 205.067 42.8946V43.2965ZM207.194 40.8066C207.202 40.5644 207.055 40.4488 206.752 40.4565H203.455V38.8376H207.169C208.25 38.8547 208.799 39.3575 208.816 40.3505V43.7371C208.807 44.1653 208.67 44.5185 208.407 44.7993C208.132 45.0902 207.776 45.2364 207.338 45.2364H205.092C204 45.2275 203.446 44.7475 203.431 43.7932V42.4865C203.438 41.4893 203.967 40.9826 205.015 40.9652H207.194V40.8066Z" fill="#A4A6A9"/>
<path d="M210.147 37.9198C210.157 37.4827 210.324 37.1318 210.652 36.8688C210.971 36.6015 211.389 36.4642 211.905 36.4564H212.945V38.0203H212.315C211.969 38.0281 211.793 38.1874 211.785 38.4954V38.8381H212.945V40.4585H211.785V45.2373H210.147V37.9198Z" fill="#A4A6A9"/>
<path d="M217.602 40.7764V40.7389C217.602 40.6557 217.567 40.5849 217.497 40.5323C217.421 40.4812 217.327 40.4565 217.215 40.4565H216.075C215.929 40.4565 215.811 40.4959 215.72 40.5768C215.607 40.6514 215.549 40.7497 215.549 40.8708V41.5206L217.602 40.7764ZM215.575 43.0648V43.1658C215.575 43.2954 215.61 43.3983 215.682 43.4729C215.733 43.5685 215.802 43.6172 215.894 43.6172H219.258V45.2364H215.682C215.355 45.2364 215.101 45.207 214.921 45.1482C214.725 45.086 214.548 44.9842 214.394 44.8427C214.214 44.6713 214.091 44.4968 214.03 44.3173C213.962 44.1301 213.929 43.8818 213.929 43.5723L213.915 40.3319C213.933 39.3529 214.464 38.8547 215.509 38.8376H217.716C218.736 38.8547 219.252 39.3703 219.269 40.3873V41.6672L215.575 43.0648Z" fill="#A4A6A9"/>
<path d="M222.735 45.2365C222.487 45.2365 222.261 45.2144 222.055 45.1742C221.84 45.1405 221.626 45.0446 221.407 44.8825C221.182 44.6941 221.027 44.4829 220.941 44.2497C220.851 44.0203 220.808 43.7604 220.808 43.4679V40.4465C220.799 40.2001 220.824 39.9838 220.884 39.7962C220.939 39.609 221.055 39.4256 221.23 39.2462C221.429 39.0578 221.633 38.9324 221.847 38.8709C222.054 38.821 222.287 38.7959 222.548 38.7959H225.057V39.1746H222.606C222.173 39.1746 221.833 39.2601 221.584 39.4314C221.33 39.6183 221.2 39.9405 221.2 40.3946V43.418C221.2 43.6308 221.234 43.8377 221.301 44.0373C221.369 44.2334 221.484 44.4056 221.648 44.556C221.827 44.6864 222.005 44.7676 222.178 44.8009C222.358 44.8392 222.552 44.8574 222.757 44.8574H225.097V45.2365H222.735Z" fill="#A4A6A9"/>
<path d="M231.512 41.3164H228.221C227.827 41.3249 227.519 41.4421 227.297 41.668C227.067 41.8974 226.953 42.2119 226.953 42.6115V43.5758C226.953 43.7627 226.973 43.9337 227.015 44.0876C227.056 44.2497 227.159 44.3944 227.323 44.5185C227.607 44.7452 227.922 44.8574 228.266 44.8574H230.259C231.092 44.8489 231.512 44.4265 231.512 43.5878V41.3164ZM231.903 43.4934C231.903 43.7368 231.883 43.9503 231.851 44.1383C231.798 44.3425 231.689 44.5394 231.524 44.7266C231.18 45.0752 230.754 45.245 230.246 45.2365H228.289C227.781 45.2365 227.369 45.0902 227.05 44.7994C226.724 44.5119 226.559 44.1124 226.559 43.5998V42.6258C226.575 41.5269 227.144 40.964 228.264 40.9385H231.524V40.5122C231.524 40.161 231.418 39.8535 231.208 39.5889C231.074 39.4171 230.916 39.3022 230.737 39.2431C230.556 39.1974 230.352 39.1746 230.126 39.1746H226.57V38.7959H229.941C230.249 38.7959 230.528 38.8168 230.78 38.8578C230.91 38.8825 231.028 38.9313 231.137 39.0017C231.252 39.0686 231.36 39.1665 231.459 39.2949C231.762 39.6701 231.909 40.103 231.903 40.5904V43.4934Z" fill="#A4A6A9"/>
<path d="M235.582 39.1746C234.67 39.1908 234.22 39.6701 234.237 40.6132V45.2365H233.845V40.6147C233.827 39.4017 234.427 38.7959 235.645 38.7959H236.081V39.1746H235.582Z" fill="#A4A6A9"/>
<path d="M242.21 39.1766H239.109C238.885 39.1766 238.685 39.2006 238.505 39.2462C238.316 39.2872 238.133 39.3975 237.962 39.577C237.799 39.7406 237.696 39.9027 237.653 40.0648C237.595 40.2284 237.569 40.4245 237.579 40.6531V43.6007C237.579 44.0908 237.726 44.4242 238.025 44.6033C238.173 44.6865 238.335 44.7488 238.516 44.7905C238.697 44.837 238.899 44.8598 239.121 44.8598H240.477C240.984 44.8598 241.398 44.7476 241.716 44.5213C242.036 44.309 242.199 43.9426 242.21 43.4204V39.1766ZM242.602 43.4463C242.567 44.6664 241.896 45.2644 240.589 45.2393H239.136C238.829 45.2393 238.554 45.2133 238.311 45.1642C238.061 45.1019 237.822 44.9553 237.592 44.7267C237.419 44.5213 237.307 44.3136 237.263 44.1008C237.203 43.8885 237.177 43.6521 237.186 43.3941V40.6434C237.203 39.4045 237.851 38.7886 239.132 38.7979H242.21V36.7095H242.602V43.4463Z" fill="#A4A6A9"/>
<path d="M168.101 38.5944C168.23 38.5398 168.359 38.4973 168.487 38.4706C168.724 37.3844 169.723 36.5698 170.921 36.5698C172.12 36.5698 173.12 37.3856 173.356 38.4714C173.724 38.5387 174.028 38.6818 174.265 38.895C174.275 38.6865 174.266 38.4857 174.24 38.2965C174.089 36.6556 172.659 35.3679 170.916 35.3679C169.121 35.3679 167.66 36.7369 167.585 38.4482C167.574 38.5959 167.571 38.7499 167.576 38.9108C167.727 38.7886 167.899 38.6787 168.101 38.5944Z" fill="#A4A6A9"/>
<path d="M172.87 38.8376H168.87C168.678 38.8376 168.478 38.8806 168.273 38.9692C168.075 39.0523 167.913 39.1529 167.782 39.2732C167.534 39.5602 167.407 39.9799 167.398 40.5323V43.541C167.407 44.0945 167.534 44.5139 167.782 44.7993C167.913 44.9216 168.075 45.0221 168.273 45.1061C168.478 45.1927 168.678 45.2364 168.87 45.2364H172.87C173.902 45.2275 174.428 44.6821 174.444 43.6041V40.4693C174.428 39.3896 173.902 38.8462 172.87 38.8376Z" fill="#A4A6A9"/>
<path fill-rule="evenodd" clip-rule="evenodd" d="M261.17 6.30228V9.60449L262.702 9.58316C264.22 9.56204 264.239 9.55991 264.689 9.36858C265.245 9.13195 265.725 8.66744 265.855 8.24008C265.975 7.84333 265.922 7.10506 265.748 6.77449C265.672 6.62993 265.487 6.40179 265.337 6.2676L265.064 6.02359L265.217 5.70643C265.344 5.44137 265.364 5.29468 265.339 4.81357C265.304 4.13495 265.109 3.75475 264.643 3.45733C264.161 3.14967 263.764 3.07467 262.414 3.03581L261.17 3V6.30228ZM268.877 3.3337C268.797 3.50722 268.145 4.93474 267.429 6.5059C266.713 8.07705 266.098 9.41482 266.062 9.47879C266.001 9.58595 266.055 9.59505 266.74 9.59505H267.484L267.879 8.71481L268.274 7.83457H269.421H270.568L270.962 8.71481L271.357 9.59505H272.075C272.622 9.59505 272.786 9.57512 272.758 9.51201C272.494 8.90022 269.934 3.2195 269.885 3.1344C269.833 3.04531 269.725 3.01814 269.421 3.01814H269.024L268.877 3.3337ZM273.284 6.30659V9.59505H273.933H274.582V7.43045C274.582 6.2399 274.608 5.27575 274.64 5.28797C274.673 5.30013 275.686 6.27358 276.893 7.45118L279.088 9.59226L279.539 9.59366L279.989 9.59505V6.30659V3.01814H279.34H278.691V5.17723C278.691 6.36472 278.667 7.33631 278.637 7.33631C278.607 7.33631 277.581 6.36472 276.356 5.17723L274.13 3.01814H273.707H273.284V6.30659ZM281.143 6.30659V9.59505H281.79H282.437L282.457 8.45804L282.477 7.32103L283.752 8.45997L285.027 9.59897L285.96 9.58044L286.894 9.56184L285.027 7.90366C284 6.99172 283.169 6.22827 283.179 6.20714C283.189 6.18602 283.977 5.48262 284.928 4.64396C285.88 3.80537 286.67 3.09653 286.683 3.06869C286.696 3.04086 286.291 3.0188 285.782 3.0196L284.856 3.02099L283.703 4.04606C283.068 4.60988 282.525 5.07259 282.495 5.07439C282.465 5.07611 282.441 4.6142 282.441 4.04786V3.01814H281.792H281.143V6.30659ZM245.452 3.96734C245.223 4.07337 245.164 4.40035 245.351 4.52624C245.454 4.5954 246.703 4.61254 251.655 4.61254C257.697 4.61254 257.834 4.60975 257.959 4.48233C258.127 4.31146 258.058 4.06141 257.816 3.95957C257.538 3.84304 245.704 3.85048 245.452 3.96734ZM263.724 4.37039C264.117 4.60756 264.088 5.34663 263.679 5.52733C263.572 5.5747 263.272 5.63176 263.012 5.65408L262.54 5.69468V4.94537V4.19607L263.043 4.22922C263.328 4.24802 263.622 4.30887 263.724 4.37039ZM269.744 6.03196C269.906 6.39249 270.039 6.69888 270.039 6.7129C270.039 6.72692 269.763 6.73841 269.426 6.73841C269.089 6.73841 268.813 6.7216 268.813 6.70101C268.813 6.63703 269.409 5.33819 269.429 5.35792C269.439 5.36816 269.581 5.67149 269.744 6.03196ZM245.396 5.77891C245.196 5.9076 245.19 6.09926 245.381 6.27477C245.525 6.40717 245.593 6.40877 250.326 6.39103C254.982 6.37356 255.128 6.36918 255.227 6.24408C255.366 6.06923 255.356 5.96559 255.186 5.80834C255.044 5.6782 254.945 5.67548 250.299 5.67548C246.123 5.67548 245.537 5.68783 245.396 5.77891ZM264.143 6.95924C264.452 7.07829 264.567 7.25055 264.572 7.60524C264.581 8.1658 264.196 8.40397 263.207 8.4516L262.54 8.48382V7.63453V6.78531L263.212 6.82225C263.581 6.84251 264 6.90416 264.143 6.95924ZM245.383 7.83058C245.244 7.9851 245.321 8.28605 245.524 8.38012C245.66 8.44356 246.478 8.46376 248.913 8.46376C252.398 8.46376 252.461 8.45751 252.505 8.11133C252.554 7.72296 252.667 7.73491 248.913 7.73491C246.004 7.73491 245.456 7.7498 245.383 7.83058ZM269.378 11.4732C268.121 12.0713 267.924 13.6666 269.017 14.4016C269.202 14.5263 269.723 14.7981 270.173 15.0057C271.081 15.4243 271.337 15.6155 271.337 15.8765C271.337 16.3941 270.727 16.8854 270.17 16.8166C269.805 16.7714 269.409 16.4347 269.172 15.9683C269.08 15.788 268.981 15.6405 268.953 15.6405C268.924 15.6405 268.655 15.7477 268.356 15.8786C267.846 16.1018 267.816 16.1267 267.877 16.2749C268.162 16.9646 268.761 17.6049 269.339 17.8367C269.931 18.0741 270.662 18.0516 271.301 17.7762C272.207 17.3854 272.659 16.7662 272.665 15.9057C272.668 15.4793 272.64 15.3622 272.473 15.0989C272.203 14.6737 271.978 14.517 270.865 13.9755C269.825 13.4698 269.569 13.263 269.643 12.986C269.719 12.7024 269.877 12.5337 270.145 12.4524C270.492 12.3468 270.84 12.508 271.234 12.9566L271.531 13.2954L272.011 12.9365C272.275 12.7391 272.491 12.5519 272.491 12.5206C272.491 12.3875 271.875 11.762 271.568 11.5823C271.144 11.3344 270.837 11.2568 270.28 11.2563C269.918 11.256 269.75 11.2965 269.378 11.4732ZM243 11.9202V12.5181H243.829H244.658V15.2087V17.8992H245.343H246.028V15.2087V12.5181H246.858H247.687V11.9202V11.3223H245.343H243V11.9202ZM248.264 14.6108V17.8992H248.913H249.561V16.6995C249.561 15.9875 249.588 15.5151 249.628 15.5375C249.664 15.5583 250.088 16.0982 250.569 16.7373L251.445 17.8992H252.238C252.853 17.8992 253.019 17.8806 252.977 17.8162C252.947 17.7706 252.471 17.1412 251.919 16.4177C251.367 15.6942 250.927 15.094 250.941 15.0839C250.956 15.0738 251.081 15.0239 251.219 14.9729C251.559 14.848 251.989 14.4798 252.18 14.1503C252.405 13.7643 252.404 12.7421 252.179 12.352C251.735 11.5806 250.985 11.3264 249.147 11.3237L248.264 11.3223V14.6108ZM254.607 14.5495C253.795 16.3276 253.119 17.8098 253.106 17.8432C253.091 17.8783 253.393 17.896 253.82 17.885L254.56 17.866L254.953 16.9858L255.346 16.1055H256.485H257.624L257.855 16.6204C257.982 16.9035 258.16 17.2997 258.251 17.5006L258.417 17.866L259.142 17.885L259.866 17.9038L259.442 16.9549C259.209 16.4329 258.55 14.9596 257.977 13.6807L256.935 11.3555L256.509 11.3361L256.083 11.3167L254.607 14.5495ZM260.305 14.6108V17.8992H260.989H261.673L261.692 15.7266L261.711 13.5539L263.942 15.7266L266.172 17.8992H266.628H267.083V14.6108V11.3223H266.399H265.715L265.696 13.4898L265.677 15.6574L263.444 13.4898L261.211 11.3223H260.758H260.305V14.6108ZM273.284 14.6108V17.8992H273.931H274.579L274.598 16.4211L274.618 14.9429L275.681 14.9245L276.745 14.9062V14.3433V13.7804H275.663H274.582V13.1492V12.5181H275.699H276.817V11.9202V11.3223H275.05H273.284V14.6108ZM277.466 14.6108V17.8992H279.485H281.504V17.336V16.7728L280.152 16.7547L278.8 16.7367V15.8398V14.9429L280.116 14.9248L281.431 14.9067V14.345V13.7834L280.116 13.7653L278.8 13.7471L278.779 13.1326L278.758 12.5181H280.131H281.504V11.9202V11.3223H279.485H277.466V14.6108ZM282.225 14.6016V17.8992H282.873H283.522V16.7034C283.522 16.0457 283.547 15.5088 283.577 15.5102C283.606 15.5117 284.033 16.0498 284.524 16.706L285.417 17.8992H286.209H287L286.871 17.7165C286.8 17.6161 286.327 16.9883 285.82 16.3215L284.897 15.1092L285.241 14.9487C285.646 14.7597 285.989 14.4532 286.169 14.1197C286.266 13.9391 286.298 13.7242 286.297 13.2489C286.296 12.5076 286.169 12.2172 285.673 11.8262C285.219 11.4683 284.823 11.3822 283.432 11.3403L282.225 11.3039V14.6016ZM250.612 12.6154C251.073 12.7927 251.196 13.4059 250.842 13.761C250.686 13.9176 250.077 14.0752 249.778 14.0363C249.599 14.0131 249.597 14.0062 249.577 13.2655L249.557 12.5181H249.958C250.179 12.5181 250.473 12.5619 250.612 12.6154ZM284.603 12.6345C284.741 12.6984 284.897 12.8254 284.948 12.9167C285.076 13.1417 285.011 13.56 284.82 13.7471C284.657 13.9074 284.19 14.0461 283.815 14.0461H283.595V13.2821V12.5181L283.973 12.5183C284.189 12.5183 284.459 12.5682 284.603 12.6345ZM256.799 14.2952C256.944 14.615 257.062 14.9139 257.061 14.9596C257.061 15.019 256.896 15.0426 256.483 15.0426C256.073 15.0426 255.907 15.0189 255.907 14.9604C255.907 14.841 256.433 13.7139 256.489 13.7139C256.515 13.7139 256.654 13.9755 256.799 14.2952Z" fill="#A4A6A9"/>
<path d="M252 35.0483C252 33.3657 253.426 32 255.18 32H289.825C291.579 32 293.004 33.3657 293.004 35.0483V45.9472C293.004 47.6298 291.584 48.9955 289.825 48.9955H255.18C253.426 49 252 47.6343 252 45.9517V35.0483Z" fill="#1A1A2D" fill-opacity="0.25"/>
<path d="M253.111 45.9832V35.0168C253.111 33.9367 254.006 33.0625 255.111 33.0625H273.39V47.9375H255.111C254.006 47.9375 253.111 47.0633 253.111 45.9832Z" fill="#E8E9EA"/>
<path d="M278.133 40.4487C278.133 41.1316 277.786 41.5957 277.207 41.5957C276.698 41.5957 276.272 41.1271 276.272 40.5023C276.272 39.864 276.647 39.3865 277.207 39.3865C277.8 39.391 278.133 39.8819 278.133 40.4487ZM274.736 44.3539H276.268V42.0331H276.286C276.578 42.5419 277.156 42.7294 277.689 42.7294C279.008 42.7294 279.711 41.6805 279.711 40.4175C279.711 39.382 279.04 38.2618 277.814 38.2618C277.115 38.2618 276.471 38.534 276.161 39.1321H276.143V38.36H274.731V44.3539H274.736ZM281.803 41.2744C281.803 40.8638 282.211 40.7076 282.729 40.7076C282.96 40.7076 283.178 40.721 283.377 40.7299C283.377 41.2298 283.011 41.7386 282.433 41.7386C282.076 41.743 281.803 41.5734 281.803 41.2744ZM284.895 42.6312C284.826 42.2964 284.812 41.9572 284.812 41.6225V40.0292C284.812 38.726 283.835 38.2573 282.701 38.2573C282.049 38.2573 281.475 38.3466 280.933 38.5608L280.961 39.5606C281.387 39.3285 281.877 39.2392 282.373 39.2392C282.923 39.2392 283.377 39.3954 283.386 39.9801C283.192 39.9488 282.919 39.9221 282.673 39.9221C281.859 39.9221 280.387 40.0783 280.387 41.3815C280.387 42.3098 281.169 42.7249 282.044 42.7249C282.673 42.7249 283.099 42.4884 283.446 41.9528H283.465C283.465 42.1759 283.488 42.3946 283.497 42.6267H284.895V42.6312ZM285.58 44.3539C285.895 44.4209 286.21 44.4521 286.534 44.4521C287.936 44.4521 288.269 43.4078 288.704 42.3366L290.329 38.36H288.797L287.885 41.1494H287.871L286.918 38.36H285.27L287.066 42.7338C286.955 43.1132 286.668 43.323 286.293 43.323C286.08 43.323 285.895 43.2962 285.687 43.2337L285.58 44.3539Z" fill="#A4A6A9"/>
<path d="M257.046 40.4576C257.046 39.8729 257.342 39.3909 257.916 39.3909C258.605 39.3909 258.892 39.922 258.892 40.3996C258.892 41.0557 258.457 41.4975 257.916 41.4975C257.453 41.4975 257.046 41.1226 257.046 40.4576ZM260.374 38.3555H258.985V39.1276H258.971C258.647 38.601 258.119 38.2573 257.467 38.2573C256.088 38.2573 255.467 39.2079 255.467 40.4799C255.467 41.743 256.226 42.6312 257.439 42.6312C258.055 42.6312 258.564 42.3991 258.929 41.8992H258.948V42.1313C258.948 42.9659 258.471 43.3676 257.587 43.3676C256.948 43.3676 256.555 43.2381 256.088 43.015L256.009 44.1799C256.365 44.3048 256.972 44.4521 257.703 44.4521C259.489 44.4521 260.374 43.8853 260.374 42.1313V38.3555ZM262.961 36.5747H261.429V37.6592H262.961V36.5747ZM261.429 42.6312H262.961V38.3555H261.429V42.6312ZM267.224 38.3064C267.071 38.2841 266.881 38.2573 266.705 38.2573C266.043 38.2573 265.659 38.601 265.395 39.1455H265.377V38.36H263.984V42.6356H265.516V40.8325C265.516 39.9935 265.918 39.4936 266.631 39.4936C266.812 39.4936 266.978 39.4936 267.15 39.5427L267.224 38.3064ZM269.862 41.6939C269.154 41.6939 268.867 41.1271 268.867 40.4978C268.867 39.8596 269.154 39.2927 269.862 39.2927C270.57 39.2927 270.857 39.8596 270.857 40.4978C270.857 41.1271 270.565 41.6939 269.862 41.6939ZM269.862 42.7293C271.325 42.7293 272.44 41.9081 272.44 40.4978C272.44 39.0785 271.325 38.2573 269.862 38.2573C268.399 38.2573 267.284 39.0785 267.284 40.4978C267.284 41.9081 268.395 42.7293 269.862 42.7293Z" fill="#A4A6A9"/>
<defs>
<clipPath id="clip0_53_1886">
<rect width="24" height="19" fill="white" transform="translate(54 3)"/>
</clipPath>
<clipPath id="clip1_53_1886">
<rect width="25" height="25" fill="white" transform="translate(152.095)"/>
</clipPath>
<clipPath id="clip2_53_1886">
<rect width="32" height="13" fill="white" transform="translate(198.095 6)"/>
</clipPath>
</defs>
</svg>
