<svg width="296" height="59" viewBox="0 0 296 59" fill="none" xmlns="http://www.w3.org/2000/svg">
<path d="M127.907 8.46406C127.528 8.46399 127.157 8.57635 126.842 8.78694C126.526 8.99753 126.281 9.29689 126.135 9.64715C125.99 9.99742 125.952 10.3829 126.026 10.7547C126.1 11.1266 126.283 11.4681 126.551 11.7362C126.819 12.0043 127.161 12.1869 127.532 12.2608C127.904 12.3348 128.29 12.2968 128.64 12.1517C128.99 12.0065 129.29 11.7608 129.5 11.4455C129.711 11.1303 129.823 10.7596 129.823 10.3805C129.823 9.87227 129.621 9.38494 129.262 9.02559C128.902 8.66624 128.415 8.46427 127.907 8.46406ZM126.365 18.6344H129.449V13.1453H126.365V18.6344ZM132.282 10.3688C132.282 9.5875 131.891 9.48867 131.55 9.48867H131.001V11.2773H131.55C131.93 11.2773 132.282 11.1676 132.282 10.3688ZM140.16 12.1656V8.59883H141.049V11.2773H142.365C142.004 6.41719 138.18 5.3668 134.706 5.3668H131.002V8.60156H131.548C132.548 8.60156 133.17 9.2793 133.17 10.3695C133.17 11.4949 132.563 12.1664 131.548 12.1664H131.002V18.6359H134.706C140.355 18.6359 142.321 16.0125 142.39 12.1656H140.16ZM135.873 12.1656H133.676V8.60156H135.802V9.48945H134.562V9.90273H135.734V10.7891H134.562V11.2773H135.871L135.873 12.1656ZM138.789 12.1656L138.588 11.4754H137.426L137.224 12.1656H136.3L137.375 8.59844H138.639L139.714 12.1664L138.789 12.1656ZM134.705 3.25H124.25V20.75H134.705C141.027 20.75 144.51 17.6355 144.51 11.9797C144.509 8.71875 143.234 3.25 134.705 3.25ZM134.705 19.9266H125.073V4.07305H134.705C140.256 4.07305 143.686 6.59687 143.686 11.9797C143.686 17.2176 140.521 19.9266 134.705 19.9266ZM137.981 9.58086L137.688 10.5891H138.328L138.034 9.58086H137.981Z" fill="#A4A6A9"/>
<path d="M12.4044 17.6467L13.8158 9.4248H16.0732L14.6608 17.6467H12.4044V17.6467ZM22.8168 9.60204C22.3696 9.43547 21.6688 9.25671 20.7936 9.25671C18.5629 9.25671 16.9917 10.3719 16.9782 11.9701C16.9657 13.1515 18.1 13.8106 18.9563 14.2039C19.8351 14.607 20.1304 14.8639 20.1262 15.2237C20.1206 15.7749 19.4245 16.0266 18.7756 16.0266C17.8721 16.0266 17.392 15.902 16.6506 15.5951L16.3597 15.4644L16.0429 17.305C16.5702 17.5346 17.5452 17.7333 18.5576 17.7437C20.9306 17.7437 22.4711 16.6412 22.4886 14.9345C22.4971 13.9991 21.8957 13.2875 20.5932 12.7006C19.8042 12.3202 19.3209 12.0664 19.3261 11.6813C19.3261 11.3395 19.7351 10.9741 20.619 10.9741C21.3571 10.9627 21.8919 11.1225 22.3086 11.2891L22.5109 11.384L22.8168 9.60204M28.6261 9.42467H26.8817C26.3414 9.42467 25.9369 9.57108 25.6996 10.1065L22.347 17.6413H24.7175C24.7175 17.6413 25.105 16.6282 25.1927 16.4057C25.4517 16.4057 27.7546 16.4093 28.0838 16.4093C28.1513 16.6971 28.3585 17.6413 28.3585 17.6413H30.4532L28.6261 9.42442V9.42467ZM25.8584 14.7339C26.0452 14.2602 26.7579 12.4355 26.7579 12.4355C26.7446 12.4574 26.9432 11.9595 27.0572 11.6508L27.2097 12.3596C27.2097 12.3596 27.642 14.3222 27.7323 14.7338H25.8584V14.7339V14.7339ZM10.488 9.42467L8.27791 15.0317L8.04247 13.8923C7.63099 12.5787 6.3491 11.1557 4.91602 10.4432L6.93693 17.6336L9.32541 17.631L12.8794 9.42459L10.488 9.42455" fill="#A4A6A9"/>
<path d="M6.21593 9.42432H2.57573L2.54688 9.59538C5.37891 10.276 7.25276 11.9206 8.0308 13.897L7.23926 10.1187C7.10265 9.59807 6.70631 9.44267 6.21601 9.42453" fill="#EDEDED"/>
<g clip-path="url(#clip0_716_18601)">
<path d="M43.35 22.9584V21.6975C43.35 21.2151 43.0618 20.8993 42.567 20.8993C42.3196 20.8993 42.0506 20.9825 41.8656 21.2567C41.7215 21.0266 41.5149 20.8993 41.2051 20.8993C40.9985 20.8993 40.792 20.9629 40.6286 21.1931V20.9409H40.1963V22.9584H40.6286V21.8444C40.6286 21.4869 40.8136 21.318 41.1018 21.318C41.39 21.318 41.5342 21.5065 41.5342 21.8444V22.9584H41.9665V21.8444C41.9665 21.4869 42.1731 21.318 42.4397 21.318C42.7279 21.318 42.872 21.5065 42.872 21.8444V22.9584H43.35ZM49.7631 20.9409H49.0618V20.3312H48.6294V20.9409H48.2379V21.34H48.6294V22.2655C48.6294 22.7283 48.8144 23 49.3092 23C49.4941 23 49.7007 22.9364 49.8448 22.8531L49.7199 22.4736C49.595 22.5569 49.4509 22.5789 49.3476 22.5789C49.141 22.5789 49.0594 22.4516 49.0594 22.2435V21.34H49.7607V20.9409H49.7631ZM53.4333 20.8968C53.1859 20.8968 53.0201 21.0241 52.9169 21.1906V20.9384H52.4845V22.956H52.9169V21.8199C52.9169 21.4845 53.061 21.2935 53.33 21.2935C53.4117 21.2935 53.5149 21.3155 53.599 21.3351L53.7239 20.914C53.6374 20.8968 53.5149 20.8968 53.4333 20.8968ZM47.8872 21.1074C47.6807 20.9605 47.3924 20.8968 47.0826 20.8968C46.5878 20.8968 46.2587 21.149 46.2587 21.5481C46.2587 21.8836 46.5061 22.0745 46.9385 22.1357L47.145 22.1578C47.3708 22.1994 47.4957 22.2631 47.4957 22.3683C47.4957 22.5153 47.33 22.6205 47.0418 22.6205C46.7535 22.6205 46.5254 22.5153 46.3812 22.41L46.1747 22.7454C46.4005 22.9143 46.7103 22.9976 47.0201 22.9976C47.5966 22.9976 47.9281 22.7234 47.9281 22.3463C47.9281 21.9888 47.6591 21.8003 47.2483 21.7366L47.0418 21.7146C46.8568 21.6926 46.7127 21.6509 46.7127 21.5261C46.7127 21.3792 46.8568 21.2959 47.085 21.2959C47.3324 21.2959 47.5798 21.4012 47.7047 21.4649L47.8872 21.1074ZM59.39 20.8968C59.1426 20.8968 58.9769 21.0241 58.8736 21.1906V20.9384H58.4413V22.956H58.8736V21.8199C58.8736 21.4845 59.0177 21.2935 59.2868 21.2935C59.3684 21.2935 59.4717 21.3155 59.5558 21.3351L59.6807 20.9189C59.5966 20.8968 59.4741 20.8968 59.39 20.8968ZM53.8656 21.9497C53.8656 22.5593 54.2788 23 54.9177 23C55.2059 23 55.4125 22.9364 55.619 22.7699L55.4125 22.4124C55.2467 22.5397 55.0834 22.6009 54.896 22.6009C54.5454 22.6009 54.298 22.3488 54.298 21.9497C54.298 21.5701 54.5454 21.318 54.896 21.2984C55.081 21.2984 55.2467 21.362 55.4125 21.4869L55.619 21.1294C55.4125 20.9605 55.2059 20.8993 54.9177 20.8993C54.2788 20.8968 53.8656 21.34 53.8656 21.9497ZM57.8648 21.9497V20.9409H57.4325V21.1931C57.2884 21.0046 57.0818 20.8993 56.8128 20.8993C56.2555 20.8993 55.8232 21.34 55.8232 21.9497C55.8232 22.5593 56.2555 23 56.8128 23C57.101 23 57.3076 22.8948 57.4325 22.7062V22.9584H57.8648V21.9497ZM56.2772 21.9497C56.2772 21.5922 56.5029 21.2984 56.8752 21.2984C57.2259 21.2984 57.4733 21.5726 57.4733 21.9497C57.4733 22.3071 57.2259 22.6009 56.8752 22.6009C56.5053 22.5789 56.2772 22.3047 56.2772 21.9497ZM51.1034 20.8968C50.527 20.8968 50.1138 21.318 50.1138 21.9472C50.1138 22.5789 50.527 22.9976 51.125 22.9976C51.4133 22.9976 51.7015 22.9144 51.9297 22.7234L51.7231 22.4075C51.5574 22.5348 51.3508 22.6181 51.1466 22.6181C50.8776 22.6181 50.611 22.4908 50.5486 22.1357H52.0113C52.0113 22.0721 52.0113 22.0305 52.0113 21.9668C52.0306 21.318 51.6583 20.8968 51.1034 20.8968ZM51.1034 21.2763C51.3724 21.2763 51.5574 21.4453 51.5982 21.7587H50.5678C50.6086 21.4869 50.7936 21.2763 51.1034 21.2763ZM61.8448 21.9497V20.1427H61.4125V21.1931C61.2683 21.0046 61.0618 20.8993 60.7928 20.8993C60.2355 20.8993 59.8032 21.34 59.8032 21.9497C59.8032 22.5593 60.2355 23 60.7928 23C61.081 23 61.2876 22.8948 61.4125 22.7062V22.9584H61.8448V21.9497ZM60.2571 21.9497C60.2571 21.5922 60.4829 21.2984 60.8552 21.2984C61.2059 21.2984 61.4533 21.5726 61.4533 21.9497C61.4533 22.3071 61.2059 22.6009 60.8552 22.6009C60.4829 22.5789 60.2571 22.3047 60.2571 21.9497ZM45.7832 21.9497V20.9409H45.3508V21.1931C45.2067 21.0046 45.0001 20.8993 44.7311 20.8993C44.1739 20.8993 43.7415 21.34 43.7415 21.9497C43.7415 22.5593 44.1739 23 44.7311 23C45.0193 23 45.2259 22.8948 45.3508 22.7062V22.9584H45.7832V21.9497ZM44.1763 21.9497C44.1763 21.5922 44.4021 21.2984 44.7744 21.2984C45.125 21.2984 45.3724 21.5726 45.3724 21.9497C45.3724 22.3071 45.125 22.6009 44.7744 22.6009C44.4021 22.5789 44.1763 22.3047 44.1763 21.9497Z" fill="#A4A6A9"/>
<path d="M54.238 5.61841H47.7432V17.513H54.238V5.61841Z" fill="#A4A6A9"/>
<path d="M48.1753 11.5657C48.1753 9.1491 49.2898 7.00425 51 5.61843C49.7414 4.60966 48.1537 4 46.4219 4C42.3195 4 39 7.38376 39 11.5657C39 15.7477 42.3195 19.1314 46.4219 19.1314C48.1537 19.1314 49.7414 18.5218 51 17.513C49.2874 16.1468 48.1753 13.9823 48.1753 11.5657Z" fill="#A4A6A9"/>
<path d="M63 11.5657C63 15.7477 59.6805 19.1314 55.5781 19.1314C53.8463 19.1314 52.2586 18.5218 51 17.513C52.7318 16.1247 53.8247 13.9823 53.8247 11.5657C53.8247 9.1491 52.7102 7.00425 51 5.61843C52.2562 4.60966 53.8439 4 55.5757 4C59.6805 4 63 7.4058 63 11.5657Z" fill="#A4A6A9"/>
</g>
<path d="M104.163 10.6472H106.593V5H103.949V5.7864L103.449 5H101.161V6.00088L100.733 5H96.5155C96.3725 5 96.2296 5.07212 96.0872 5.07212C95.9442 5.07212 95.8721 5.14361 95.7297 5.21447C95.5868 5.28659 95.5146 5.28659 95.3723 5.35746V5H83.2909L82.9334 5.92939L82.576 5H79.7169V6.00088L79.2886 5H77.0009L76 7.43071V10.6472H77.6437L77.9296 9.86079H78.5016L78.7875 10.6472H91.3675V9.93228L91.868 10.6472H95.3704V10.2176C95.4419 10.2897 95.5849 10.2897 95.6557 10.3606C95.7279 10.4327 95.8702 10.4327 95.9417 10.5036C96.0847 10.5751 96.227 10.5751 96.37 10.5751H98.9456L99.2309 9.7893H99.8029L100.089 10.5751H103.591V9.86016L104.163 10.6472ZM108.095 17.7951V12.5053H88.4376L87.9372 13.2203L87.4367 12.5053H81.7187V18.1525H87.4367L87.9372 17.4376L88.4376 18.1525H92.0116V16.9372H91.8686C92.369 16.9372 92.798 16.8657 93.1548 16.7227V18.2234H95.7285V17.5085L96.2283 18.2234H106.879C107.308 18.0804 107.737 18.0096 108.095 17.7951Z" fill="#A4A6A9"/>
<path d="M106.879 16.4367H104.949V17.2231H106.808C107.594 17.2231 108.094 16.7227 108.094 16.0077C108.094 15.2928 107.664 14.9354 106.95 14.9354H106.093C105.878 14.9354 105.735 14.7924 105.735 14.5779C105.735 14.3634 105.878 14.2205 106.093 14.2205H107.737L108.094 13.4341H106.164C105.378 13.4341 104.878 13.9345 104.878 14.5779C104.878 15.2928 105.306 15.6503 106.021 15.6503H106.879C107.093 15.6503 107.236 15.7933 107.236 16.0077C107.308 16.2937 107.165 16.4367 106.879 16.4367ZM103.376 16.4367H101.447V17.2231H103.305C104.09 17.2231 104.591 16.7227 104.591 16.0077C104.591 15.2928 104.163 14.9354 103.448 14.9354H102.59C102.375 14.9354 102.232 14.7924 102.232 14.5779C102.232 14.3634 102.375 14.2205 102.59 14.2205H104.233L104.591 13.4341H102.661C101.875 13.4341 101.374 13.9345 101.374 14.5779C101.374 15.2928 101.804 15.6503 102.518 15.6503H103.376C103.591 15.6503 103.733 15.7933 103.733 16.0077C103.806 16.2937 103.591 16.4367 103.376 16.4367ZM100.875 14.149V13.3632H97.8732V17.1516H100.875V16.3658H98.7305V15.5794H100.804V14.7936H98.7305V14.0787H100.875V14.149ZM96.0145 14.149C96.3719 14.149 96.5149 14.3641 96.5149 14.5785C96.5149 14.793 96.3719 15.0069 96.0145 15.0069H94.9421V14.0775L96.0145 14.149ZM94.9421 15.7939H95.3717L96.5149 17.1516H97.5873L96.301 15.7218C96.9438 15.5788 97.3013 15.1498 97.3013 14.5785C97.3013 13.8636 96.8015 13.3632 96.0151 13.3632H94.0139V17.1516H94.8718L94.9421 15.7939ZM92.6544 14.6494C92.6544 14.9354 92.512 15.1498 92.1545 15.1498H91.0107V14.149H92.0831C92.4405 14.149 92.6544 14.3641 92.6544 14.6494ZM90.1528 13.3632V17.1516H91.0107V15.8654H92.1545C92.9403 15.8654 93.5123 15.3649 93.5123 14.5792C93.5123 13.8643 93.0118 13.293 92.226 13.293L90.1528 13.3632ZM88.8666 17.1516H89.9389L88.4382 15.2213L89.9389 13.3632H88.8666L87.9372 14.5785L87.0078 13.3632H85.9354L87.4361 15.2213L85.9354 17.0801H87.0078L87.9372 15.8648L88.8666 17.1516ZM85.6501 14.149V13.3632H82.6481V17.1516H85.6501V16.3658H83.506V15.5794H85.5792V14.7936H83.506V14.0787H85.6501V14.149ZM103.019 7.43066L104.521 9.71838H105.593V5.92934H104.735V8.43091L104.521 8.07345L103.162 5.92934H102.019V9.71838H102.877V7.14469L103.019 7.43066ZM99.3024 7.35854L99.5878 6.57276L99.8737 7.35854L100.231 8.21644H98.9456L99.3024 7.35854ZM100.804 9.71775H101.733L100.089 5.92871H98.9456L97.3013 9.71775H98.2313L98.5888 8.93135H100.447L100.804 9.71775ZM96.8009 9.71775L97.1583 8.93135H96.9432C96.3004 8.93135 95.943 8.50303 95.943 7.85898V7.78749C95.943 7.14406 96.3004 6.71512 96.9432 6.71512H97.8732V5.92871H96.8724C95.7291 5.92871 95.0851 6.71512 95.0851 7.78749V7.85898C95.0851 9.00347 95.7285 9.71775 96.8009 9.71775ZM93.5844 9.71775H94.4416V6.00083H93.5844V9.71775ZM91.7256 6.71574C92.0831 6.71574 92.226 6.93022 92.226 7.14406C92.226 7.35791 92.0831 7.57364 91.7256 7.57364H90.6532V6.64362L91.7256 6.71574ZM90.6532 8.35942H91.0828L92.226 9.71775H93.2984L92.0122 8.28793C92.655 8.14494 93.0124 7.71537 93.0124 7.14406C93.0124 6.42915 92.5126 5.92871 91.7262 5.92871H89.7251V9.71775H90.583L90.6532 8.35942ZM89.0804 6.71574V5.92934H86.079V9.71838H89.0804V8.93198H86.9363V8.1462H89.0096V7.35979H86.9363V6.64488H89.0804V6.71574ZM82.5766 9.71775H83.3624L84.4347 6.64362V9.71775H85.2926V5.92871H83.8628L83.0049 8.5024L82.1476 5.92871H80.7178V9.71775H81.5751V6.64362L82.5766 9.71775ZM77.9303 7.35854L78.2162 6.57276L78.5016 7.35854L78.859 8.21644H77.5728L77.9303 7.35854ZM79.431 9.71775H80.361L78.7167 5.92871H77.6443L76 9.71775H76.9294L77.2868 8.93135H79.1456L79.431 9.71775Z" fill="#E8E9EA"/>
<g clip-path="url(#clip1_716_18601)">
<path d="M165.128 7.5364C164.363 7.53645 163.613 7.74922 162.961 8.15095C162.31 8.55269 161.783 9.12757 161.44 9.8114C161.151 10.3866 161 11.0213 161 11.665C161 12.3087 161.151 12.9435 161.44 13.5187C161.783 14.2025 162.31 14.7774 162.961 15.1791C163.613 15.5809 164.363 15.7936 165.128 15.7937C166.243 15.7937 167.18 15.427 167.865 14.7968C168.644 14.0781 169.094 13.0156 169.094 11.7593C169.093 11.4779 169.069 11.197 169.021 10.9197H165.129V12.5093H167.358C167.313 12.7632 167.217 13.0053 167.075 13.2211C166.934 13.4368 166.75 13.6217 166.535 13.7645C166.165 14.0156 165.687 14.1593 165.129 14.1593C164.052 14.1593 163.139 13.4333 162.811 12.4551C162.639 11.9426 162.639 11.3875 162.811 10.8749C163.139 9.89577 164.052 9.17077 165.129 9.17077C165.718 9.16115 166.286 9.38339 166.712 9.78952L167.892 8.61244C167.145 7.91019 166.154 7.52455 165.129 7.5364H165.128ZM171.9 8.10931V15.2968H172.823V12.3854H174.349C174.977 12.3854 175.505 12.1812 175.934 11.7729C176.148 11.5813 176.318 11.3459 176.432 11.0827C176.546 10.8195 176.602 10.5347 176.596 10.2479C176.6 9.9625 176.543 9.67951 176.429 9.41791C176.315 9.15631 176.146 8.92216 175.934 8.73119C175.724 8.5278 175.476 8.36804 175.204 8.26112C174.932 8.15421 174.641 8.10226 174.349 8.10827L171.9 8.10931ZM174.428 8.99473C174.589 8.99754 174.748 9.03264 174.895 9.09795C175.043 9.16326 175.175 9.25744 175.285 9.37494C175.403 9.4891 175.496 9.62562 175.56 9.77645C175.623 9.92727 175.656 10.0893 175.656 10.2531C175.656 10.4168 175.623 10.5789 175.56 10.7297C175.496 10.8805 175.403 11.017 175.285 11.1312C175.167 11.2534 175.025 11.3495 174.868 11.4136C174.711 11.4776 174.542 11.5081 174.372 11.5031H172.823V8.99473H174.372C174.391 8.99429 174.409 8.99429 174.428 8.99473V8.99473ZM178.724 10.2187C177.847 10.2187 177.185 10.5395 176.737 11.1822L177.551 11.6937C177.851 11.2593 178.259 11.0416 178.775 11.0416C179.104 11.0376 179.422 11.1577 179.667 11.3781C179.787 11.4775 179.884 11.6025 179.949 11.7439C180.015 11.8854 180.049 12.0397 180.048 12.1958V12.4062C179.694 12.2051 179.242 12.1051 178.694 12.1051C178.051 12.1051 177.537 12.2562 177.153 12.5572C176.768 12.8572 176.576 13.2624 176.576 13.7708C176.572 13.9995 176.619 14.2263 176.713 14.4347C176.808 14.643 176.948 14.8276 177.123 14.9749C177.487 15.2958 177.941 15.4572 178.482 15.4572C179.118 15.4572 179.626 15.176 180.008 14.6135H180.048V15.2958H180.931V12.2656C180.931 11.6301 180.733 11.1301 180.34 10.7656C179.944 10.401 179.406 10.2187 178.724 10.2187V10.2187ZM181.081 10.3791L183.108 14.9854L181.965 17.4645H182.918L186 10.3781H184.995L183.57 13.9104H183.549L182.084 10.3791H181.081ZM178.846 12.8458C179.36 12.8458 179.762 12.9604 180.05 13.1895C180.05 13.577 179.897 13.9145 179.592 14.2031C179.316 14.4786 178.943 14.6337 178.553 14.6343C178.293 14.6393 178.039 14.5539 177.834 14.3926C177.739 14.3238 177.662 14.2333 177.609 14.1286C177.556 14.0239 177.528 13.908 177.529 13.7906C177.529 13.5229 177.654 13.301 177.907 13.1166C178.157 12.9364 178.47 12.8458 178.845 12.8458H178.846Z" fill="#A4A6A9"/>
</g>
<g clip-path="url(#clip2_716_18601)">
<path d="M205.817 7.66986C205.444 8.10735 204.847 8.45241 204.25 8.40312C204.175 7.81158 204.468 7.18307 204.81 6.79488C205.183 6.34506 205.836 6.02465 206.364 6C206.426 6.61618 206.184 7.22004 205.817 7.66986ZM206.358 8.52019C205.494 8.4709 204.754 9.00698 204.343 9.00698C203.927 9.00698 203.298 8.54484 202.614 8.55716C201.725 8.56949 200.898 9.0686 200.444 9.86348C199.511 11.4532 200.202 13.8071 201.103 15.101C201.545 15.7419 202.073 16.4443 202.77 16.4197C203.429 16.395 203.69 15.9945 204.486 15.9945C205.288 15.9945 205.519 16.4197 206.215 16.4074C206.936 16.395 207.39 15.7665 207.832 15.1257C208.336 14.3986 208.541 13.69 208.553 13.653C208.541 13.6407 207.16 13.1169 207.148 11.5395C207.135 10.2209 208.236 9.59235 208.286 9.55538C207.664 8.64343 206.694 8.54484 206.358 8.52019ZM211.352 6.73326V16.3396H212.857V13.0553H214.94C216.843 13.0553 218.18 11.7613 218.18 9.88812C218.18 8.01492 216.868 6.73326 214.99 6.73326H211.352ZM212.857 7.99028H214.592C215.897 7.99028 216.644 8.6804 216.644 9.89429C216.644 11.1082 215.897 11.8045 214.585 11.8045H212.857V7.99028ZM220.928 16.4135C221.874 16.4135 222.75 15.9391 223.148 15.1873H223.18V16.3396H224.573V11.558C224.573 10.1716 223.453 9.2781 221.731 9.2781C220.132 9.2781 218.951 10.1839 218.907 11.4286H220.263C220.375 10.837 220.928 10.4489 221.687 10.4489C222.607 10.4489 223.124 10.874 223.124 11.6566V12.1865L221.246 12.2974C219.498 12.4022 218.553 13.1108 218.553 14.3431C218.553 15.5878 219.529 16.4135 220.928 16.4135ZM221.333 15.2736C220.53 15.2736 220.02 14.8915 220.02 14.3062C220.02 13.7023 220.512 13.3511 221.451 13.2956L223.124 13.1909V13.7331C223.124 14.6327 222.352 15.2736 221.333 15.2736ZM226.432 18.9522C227.899 18.9522 228.59 18.3976 229.193 16.7154L231.836 9.37053H230.306L228.534 15.0456H228.503L226.73 9.37053H225.157L227.707 16.3642L227.57 16.7894C227.34 17.5103 226.967 17.7876 226.301 17.7876C226.183 17.7876 225.953 17.7753 225.86 17.763V18.9152C225.947 18.9399 226.32 18.9522 226.432 18.9522Z" fill="#A4A6A9"/>
</g>
<path d="M21.0836 42.6815C21.5598 42.6815 21.9454 42.3052 21.9454 41.8411C21.9454 41.3771 21.5596 41 21.0836 41C20.6076 41 20.2224 41.3768 20.2224 41.8411C20.2224 41.9515 20.2447 42.0608 20.2879 42.1628C20.3312 42.2648 20.3946 42.3575 20.4746 42.4355C20.5545 42.5136 20.6495 42.5755 20.754 42.6178C20.8585 42.66 20.9705 42.6818 21.0836 42.6818M14.4822 43.1348C14.4433 43.2328 14.1634 44.0021 13.4863 44.8016V41.3822L11.6824 41.7301V47.9289H13.4866V46.013C14.0093 46.7774 14.2673 47.9289 14.2673 47.9289H16.4282C16.2148 47.0616 15.2796 45.4629 15.2796 45.4629C15.8352 44.7635 16.2635 43.9761 16.5457 43.135L14.4822 43.1348ZM19.2247 43.0701C17.6092 43.1208 16.7887 43.8282 16.7887 45.2345V47.9287H18.5516V45.7319C18.5516 44.8901 18.6646 44.5314 19.6884 44.4946V43.0956C19.5162 43.0598 19.2247 43.0711 19.2247 43.0711M8.6572 43.8184C8.43627 43.8044 7.92461 43.7718 7.92461 43.3225C7.92461 42.7803 8.66096 42.7803 8.93738 42.7803C9.42318 42.7803 10.0521 42.9199 10.5015 43.0515C10.6545 43.1136 10.8092 43.1718 10.9654 43.2259L10.9855 43.2313V41.7456L10.9584 41.7377C10.4282 41.5564 9.81181 41.3825 8.66875 41.3825C6.69794 41.3825 6 42.5027 6 43.4626C6 44.0159 6.24302 45.3181 8.49978 45.4683C8.69109 45.4798 9.19873 45.5082 9.19873 45.973C9.19873 46.3565 8.78298 46.5826 8.08403 46.5826C7.31831 46.5826 6.57442 46.392 6.12327 46.2112V47.7408C6.79912 47.9135 7.56083 48 8.45384 48C10.3807 48 11.2436 46.9401 11.2436 45.8895C11.2436 44.6982 10.278 43.9245 8.6577 43.8184M20.2104 47.9297H21.9588V43.1407H20.2099L20.2104 47.9297ZM25.2511 41.688V47.9297H27V41.383L25.2511 41.688ZM22.6996 41.688L24.4465 41.383V47.9297H22.6996V41.6875V41.688Z" fill="#A4A6A9"/>
<path d="M43.3419 39H41.5522C41.5522 40.6603 40.878 42.1754 39.7063 43.1734L39 43.7722L41.7448 48H44L41.4719 44.1079C42.6677 42.7651 43.3419 40.9506 43.3419 39Z" fill="#A4A6A9"/>
<path d="M39 39H37V48H39V39Z" fill="#A4A6A9"/>
<path d="M46 39H44V48H46V39Z" fill="#A4A6A9"/>
<path d="M61.5254 42C60.8305 42 60.1695 42.2125 59.7288 42.8159V42.1615H58V47.9915H59.7542V44.932C59.7542 44.0482 60.3475 43.6147 61.0593 43.6147C61.822 43.6147 62.2627 44.0737 62.2627 44.9235V48H64V44.2861C64 42.9263 62.9237 42 61.5254 42Z" fill="#A4A6A9"/>
<path d="M50.4047 42.1575V42.5221C49.9533 42.1906 49.4086 42 48.8171 42C47.2607 42 46 43.3425 46 45C46 46.6575 47.2607 48 48.8171 48C49.4086 48 49.9533 47.8094 50.4047 47.4779V47.8425H52V42.1575H50.4047ZM48.9494 46.4586C48.1479 46.4586 47.5019 45.8039 47.5019 45C47.5019 44.1961 48.1479 43.5414 48.9494 43.5414C49.751 43.5414 50.3969 44.1961 50.3969 45C50.3969 45.8039 49.751 46.4586 48.9494 46.4586Z" fill="#A4A6A9"/>
<path d="M55.0438 42.7784V42H53V48H55.0535V45.2012C55.0535 44.2566 56.1922 43.7493 56.9805 43.7493C56.9903 43.7493 57 43.7493 57 43.7493V42C56.1922 42 55.4428 42.3149 55.0438 42.7784Z" fill="#A4A6A9"/>
<path d="M69.4047 42.1575V42.5221C68.9533 42.1906 68.4086 42 67.8171 42C66.2607 42 65 43.3425 65 45C65 46.6575 66.2607 48 67.8171 48C68.4086 48 68.9533 47.8094 69.4047 47.4779V47.8425H71V42.1575H69.4047ZM67.9494 46.4586C67.1479 46.4586 66.5019 45.8039 66.5019 45C66.5019 44.1961 67.1479 43.5414 67.9494 43.5414C68.751 43.5414 69.3969 44.1961 69.3969 45C69.4047 45.8039 68.751 46.4586 67.9494 46.4586Z" fill="#A4A6A9"/>
<path d="M72.5394 42.3209C72.5394 42.2365 72.4853 42.1858 72.4003 42.1858H72.2534V42.6249H72.323V42.4644H72.4003L72.4621 42.6249H72.5394L72.4698 42.4475C72.5162 42.4222 72.5394 42.38 72.5394 42.3209ZM72.4003 42.3884H72.323V42.2533H72.4003C72.4466 42.2533 72.4698 42.2787 72.4698 42.3209C72.4698 42.3631 72.4543 42.3884 72.4003 42.3884Z" fill="#A4A6A9"/>
<path d="M72.3772 42C72.1686 42 71.9985 42.1858 71.9985 42.4137C72.0063 42.6417 72.1686 42.8275 72.3772 42.8275C72.5859 42.8275 72.7559 42.6417 72.7559 42.4137C72.7559 42.1858 72.5859 42 72.3772 42ZM72.3772 42.7515C72.2072 42.7515 72.0758 42.5995 72.0758 42.4137C72.0758 42.228 72.2149 42.076 72.3772 42.076C72.5472 42.076 72.6786 42.228 72.6786 42.4137C72.6786 42.5995 72.5395 42.7515 72.3772 42.7515Z" fill="#A4A6A9"/>
<path d="M73 46.1049C72.4496 46.1049 72 46.5545 72 47.1049C72 47.6552 72.4496 48.1049 73 48.1049C73.5504 48.1049 74 47.6552 74 47.1049C74 46.5467 73.5504 46.1049 73 46.1049Z" fill="#A4A6A9"/>
<path d="M203.783 42.5983C203.777 42.3985 203.686 42.2953 203.508 42.2885H202.561C202.337 42.3027 202.221 42.4296 202.216 42.6682V44.4253C202.221 44.6717 202.349 44.7973 202.598 44.8044H203.466C203.557 44.8044 203.631 44.7699 203.691 44.6994C203.754 44.6464 203.783 44.5784 203.783 44.494V42.5983ZM201 42.3489C201.006 41.9092 201.101 41.5751 201.285 41.3467C201.382 41.2509 201.502 41.1709 201.649 41.1047C201.802 41.0342 201.949 41 202.093 41H203.831C204.598 41.0068 204.988 41.4394 205 42.2987V44.9435C204.994 45.2486 204.879 45.5134 204.655 45.7348C204.433 45.9676 204.168 46.0861 203.86 46.0932H202.216V48H201V42.3489Z" fill="#A4A6A9"/>
<path d="M207.216 44.4842C207.216 44.5564 207.249 44.6135 207.313 44.6564C207.37 44.7078 207.443 44.7347 207.534 44.7347H208.468C208.679 44.7347 208.788 44.6519 208.794 44.4842V44.1311C208.794 43.9383 208.683 43.841 208.459 43.841H207.534C207.412 43.841 207.328 43.8615 207.281 43.9002C207.238 43.9458 207.216 44.0362 207.216 44.1701V44.4842ZM208.794 42.5385C208.801 42.3493 208.692 42.2589 208.467 42.265H206.019V41H208.776C209.579 41.0133 209.986 41.4062 210 42.1821V44.8284C209.993 45.163 209.892 45.439 209.696 45.6584C209.49 45.8857 209.226 46 208.901 46H207.235C206.424 45.993 206.013 45.6179 206 44.8723V43.8512C206.006 43.072 206.399 42.676 207.177 42.6624H208.794V42.5385Z" fill="#A4A6A9"/>
<path d="M214.05 46.7112C214.171 46.705 214.276 46.6693 214.361 46.6052C214.443 46.5455 214.485 46.4768 214.485 46.3989V46.0932H212.528C212.273 46.0932 212.069 46.0664 211.916 46.0132C211.755 45.9648 211.595 45.8746 211.434 45.7465C211.281 45.6107 211.171 45.4688 211.105 45.3204C211.035 45.1846 211 45.0119 211 44.8044V41H212.528V44.3961C212.528 44.6683 212.663 44.8044 212.938 44.8044H214.016C214.145 44.8044 214.256 44.7699 214.349 44.6994C214.439 44.6396 214.485 44.5688 214.485 44.4857V41H216V46.6123C215.991 47.0277 215.862 47.3602 215.611 47.6124C215.357 47.8645 215.01 47.9935 214.567 48H211V46.7112H214.05Z" fill="#A4A6A9"/>
<path d="M217 44.7347H219.333C219.547 44.7278 219.657 44.6474 219.664 44.4932V44.3796C219.664 44.3466 219.654 44.3101 219.633 44.2708C219.581 44.1753 219.517 44.1278 219.441 44.1278H218.284C217.941 44.1214 217.648 44.0102 217.402 43.7956C217.153 43.5973 217.025 43.3534 217.018 43.0672V42.1238C217.031 41.3878 217.456 41.0133 218.294 41H221V42.265H218.707C218.438 42.265 218.303 42.3426 218.303 42.4974V42.6198C218.303 42.7803 218.441 42.8607 218.717 42.8607H219.871C220.178 42.8674 220.44 42.978 220.658 43.1938C220.879 43.4111 220.993 43.6696 221 43.9697V44.8925C220.993 45.1519 220.865 45.4106 220.62 45.6687C220.501 45.7954 220.378 45.8824 220.256 45.9317C220.129 45.977 219.957 46 219.737 46H217V44.7347Z" fill="#A4A6A9"/>
<path d="M223.215 44.4842C223.215 44.5564 223.248 44.6135 223.314 44.6564C223.371 44.7078 223.443 44.7347 223.533 44.7347H224.469C224.68 44.7347 224.789 44.6519 224.795 44.4842V44.1311C224.795 43.9383 224.683 43.841 224.459 43.841H223.533C223.412 43.841 223.328 43.8615 223.281 43.9002C223.238 43.9458 223.215 44.0362 223.215 44.1701V44.4842ZM224.795 42.5385C224.801 42.3493 224.692 42.2589 224.467 42.265H222.018V41H224.777C225.579 41.0133 225.987 41.4062 226 42.1821V44.8284C225.993 45.163 225.891 45.439 225.696 45.6584C225.492 45.8857 225.227 46 224.902 46H223.234C222.423 45.993 222.011 45.6179 222 44.8723V43.8512C222.005 43.072 222.398 42.676 223.177 42.6624H224.795V42.5385Z" fill="#A4A6A9"/>
<path d="M227 40.1666C227.007 39.8181 227.127 39.5384 227.361 39.3287C227.589 39.1156 227.887 39.0062 228.257 39H229V40.2467H228.55C228.302 40.2529 228.176 40.38 228.171 40.6254V40.8986H229V42.1904H228.171V46H227V40.1666Z" fill="#A4A6A9"/>
<path d="M232.755 42.5149V42.4856C232.755 42.4206 232.729 42.3653 232.676 42.3242C232.619 42.2843 232.55 42.265 232.466 42.265H231.614C231.505 42.265 231.417 42.2958 231.349 42.359C231.264 42.4173 231.221 42.4941 231.221 42.5887V43.0965L232.755 42.5149ZM231.241 44.3031V44.382C231.241 44.4833 231.267 44.5637 231.32 44.622C231.358 44.6967 231.41 44.7347 231.479 44.7347H233.992V46H231.32C231.076 46 230.886 45.977 230.752 45.9311C230.605 45.8824 230.473 45.8029 230.358 45.6923C230.223 45.5584 230.132 45.4221 230.086 45.2818C230.035 45.1355 230.011 44.9415 230.011 44.6997L230 42.1676C230.014 41.4026 230.411 41.0133 231.191 41H232.84C233.602 41.0133 233.988 41.4162 234 42.2109V43.211L231.241 44.3031Z" fill="#A4A6A9"/>
<path d="M236.798 46C236.567 46 236.356 45.9829 236.164 45.9517C235.964 45.9255 235.764 45.8511 235.56 45.7252C235.351 45.579 235.206 45.415 235.126 45.2339C235.042 45.0559 235.002 44.8541 235.002 44.627V42.2814C234.993 42.0901 235.017 41.9222 235.073 41.7766C235.124 41.6312 235.232 41.4889 235.395 41.3495C235.581 41.2033 235.771 41.106 235.971 41.0583C236.163 41.0195 236.38 41 236.624 41H238.963V41.294H236.678C236.274 41.294 235.957 41.3604 235.725 41.4934C235.488 41.6384 235.367 41.8886 235.367 42.2411V44.5883C235.367 44.7535 235.399 44.9141 235.461 45.0691C235.525 45.2213 235.632 45.355 235.785 45.4718C235.952 45.573 236.117 45.636 236.279 45.6619C236.447 45.6916 236.628 45.7057 236.819 45.7057H239V46H236.798Z" fill="#A4A6A9"/>
<path d="M243.707 42.9567H241.245C240.95 42.9633 240.719 43.0543 240.552 43.2296C240.38 43.4077 240.295 43.6518 240.295 43.962V44.7106C240.295 44.8557 240.31 44.9884 240.341 45.1079C240.372 45.2337 240.45 45.346 240.572 45.4424C240.785 45.6184 241.02 45.7055 241.278 45.7055H242.77C243.393 45.6989 243.707 45.371 243.707 44.7199V42.9567ZM244 44.6467C244 44.8356 243.985 45.0013 243.961 45.1473C243.921 45.3058 243.84 45.4586 243.716 45.604C243.459 45.8745 243.14 46.0064 242.76 45.9998H241.295C240.915 45.9998 240.606 45.8863 240.368 45.6604C240.124 45.4373 240 45.1271 240 44.7293V43.9731C240.012 43.12 240.438 42.6831 241.277 42.6633H243.716V42.3324C243.716 42.0597 243.637 41.821 243.48 41.6156C243.38 41.4823 243.262 41.3931 243.127 41.3471C242.992 41.3117 242.84 41.294 242.67 41.294H240.009V41H242.531C242.762 41 242.971 41.0162 243.16 41.048C243.257 41.0673 243.345 41.1051 243.426 41.1598C243.513 41.2117 243.593 41.2877 243.668 41.3874C243.894 41.6786 244.005 42.0147 244 42.393V44.6467Z" fill="#A4A6A9"/>
<path d="M246.777 41.294C246.369 41.3066 246.168 41.6787 246.175 42.4108V46H246V42.412C245.992 41.4703 246.26 41 246.805 41H247V41.294H246.777Z" fill="#A4A6A9"/>
<path d="M252.639 41.0245H249.776C249.57 41.0245 249.385 41.0442 249.219 41.0816C249.044 41.1153 248.876 41.2057 248.718 41.353C248.567 41.4873 248.472 41.6203 248.433 41.7533C248.38 41.8875 248.356 42.0485 248.364 42.2361V44.6548C248.364 45.057 248.5 45.3306 248.776 45.4775C248.912 45.5458 249.062 45.5969 249.23 45.6312C249.396 45.6693 249.583 45.688 249.788 45.688H251.039C251.507 45.688 251.889 45.5959 252.183 45.4102C252.478 45.236 252.629 44.9354 252.639 44.5069V41.0245ZM253 44.5281C252.968 45.5293 252.349 46.02 251.143 45.9994H249.801C249.518 45.9994 249.264 45.9781 249.04 45.9378C248.81 45.8867 248.589 45.7664 248.376 45.5788C248.216 45.4102 248.114 45.2398 248.073 45.0652C248.017 44.891 247.993 44.697 248.002 44.4853V42.2281C248.017 41.2114 248.616 40.7061 249.798 40.7137H252.639V39H253V44.5281Z" fill="#A4A6A9"/>
<path d="M193.394 40.7321C193.49 40.6859 193.586 40.6499 193.682 40.6273C193.859 39.7075 194.605 39.0177 195.5 39.0177C196.395 39.0177 197.142 39.7085 197.318 40.6279C197.593 40.6849 197.82 40.8061 197.997 40.9866C198.004 40.81 197.998 40.64 197.979 40.4799C197.865 39.0904 196.798 38 195.496 38C194.156 38 193.065 39.1592 193.008 40.6083C193 40.7334 192.998 40.8637 193.002 41C193.115 40.8965 193.243 40.8035 193.394 40.7321Z" fill="#A4A6A9"/>
<path d="M197.435 41H193.462C193.271 41 193.073 41.0403 192.869 41.1233C192.672 41.2013 192.511 41.2956 192.381 41.4084C192.135 41.6775 192.009 42.0711 192 42.589V45.4102C192.009 45.9293 192.135 46.3225 192.381 46.5901C192.511 46.7048 192.672 46.7991 192.869 46.8778C193.073 46.959 193.271 47 193.462 47H197.435C198.462 46.9917 198.984 46.4802 199 45.4694V42.5299C198.984 41.5176 198.462 41.008 197.435 41Z" fill="#A4A6A9"/>
<path fill-rule="evenodd" clip-rule="evenodd" d="M263.17 7.30228V10.6045L264.702 10.5832C266.22 10.562 266.239 10.5599 266.689 10.3686C267.245 10.1319 267.725 9.66744 267.855 9.24008C267.975 8.84333 267.922 8.10506 267.748 7.77449C267.672 7.62993 267.487 7.40179 267.337 7.2676L267.064 7.02359L267.217 6.70643C267.344 6.44136 267.364 6.29468 267.339 5.81357C267.304 5.13495 267.109 4.75475 266.643 4.45733C266.161 4.14967 265.764 4.07467 264.414 4.03581L263.17 4V7.30228ZM270.877 4.3337C270.797 4.50722 270.145 5.93474 269.429 7.5059C268.713 9.07705 268.098 10.4148 268.062 10.4788C268.001 10.586 268.055 10.5951 268.74 10.5951H269.484L269.879 9.71481L270.274 8.83457H271.421H272.568L272.962 9.71481L273.357 10.5951H274.075C274.622 10.5951 274.786 10.5751 274.758 10.512C274.494 9.90022 271.934 4.2195 271.885 4.1344C271.833 4.04531 271.725 4.01814 271.421 4.01814H271.024L270.877 4.3337ZM275.284 7.30659V10.5951H275.933H276.582V8.43045C276.582 7.2399 276.608 6.27575 276.64 6.28797C276.673 6.30013 277.686 7.27358 278.893 8.45118L281.088 10.5923L281.539 10.5937L281.989 10.5951V7.30659V4.01814H281.34H280.691V6.17723C280.691 7.36472 280.667 8.33631 280.637 8.33631C280.607 8.33631 279.581 7.36472 278.356 6.17723L276.13 4.01814H275.707H275.284V7.30659ZM283.143 7.30659V10.5951H283.79H284.437L284.457 9.45804L284.477 8.32103L285.752 9.45997L287.027 10.599L287.96 10.5804L288.894 10.5618L287.027 8.90366C286 7.99172 285.169 7.22827 285.179 7.20714C285.189 7.18602 285.977 6.48262 286.928 5.64396C287.88 4.80537 288.67 4.09653 288.683 4.06869C288.696 4.04086 288.291 4.0188 287.782 4.0196L286.856 4.02099L285.703 5.04606C285.068 5.60988 284.525 6.07259 284.495 6.07439C284.465 6.07611 284.441 5.6142 284.441 5.04786V4.01814H283.792H283.143V7.30659ZM247.452 4.96734C247.223 5.07337 247.164 5.40035 247.351 5.52624C247.454 5.5954 248.703 5.61254 253.655 5.61254C259.697 5.61254 259.834 5.60975 259.959 5.48233C260.127 5.31146 260.058 5.06141 259.816 4.95957C259.538 4.84304 247.704 4.85048 247.452 4.96734ZM265.724 5.37039C266.117 5.60756 266.088 6.34663 265.679 6.52733C265.572 6.5747 265.272 6.63176 265.012 6.65408L264.54 6.69468V5.94537V5.19607L265.043 5.22922C265.328 5.24802 265.622 5.30887 265.724 5.37039ZM271.744 7.03196C271.906 7.39249 272.039 7.69888 272.039 7.7129C272.039 7.72692 271.763 7.73841 271.426 7.73841C271.089 7.73841 270.813 7.7216 270.813 7.70101C270.813 7.63703 271.409 6.33819 271.429 6.35792C271.439 6.36816 271.581 6.67149 271.744 7.03196ZM247.396 6.77891C247.196 6.9076 247.19 7.09926 247.381 7.27477C247.525 7.40717 247.593 7.40877 252.326 7.39103C256.982 7.37356 257.128 7.36918 257.227 7.24408C257.366 7.06923 257.356 6.96559 257.186 6.80834C257.044 6.6782 256.945 6.67548 252.299 6.67548C248.123 6.67548 247.537 6.68783 247.396 6.77891ZM266.143 7.95924C266.452 8.07829 266.567 8.25055 266.572 8.60524C266.581 9.1658 266.196 9.40397 265.207 9.4516L264.54 9.48382V8.63453V7.78531L265.212 7.82225C265.581 7.84251 266 7.90416 266.143 7.95924ZM247.383 8.83058C247.244 8.9851 247.321 9.28605 247.524 9.38012C247.66 9.44356 248.478 9.46376 250.913 9.46376C254.398 9.46376 254.461 9.45751 254.505 9.11133C254.554 8.72296 254.667 8.73491 250.913 8.73491C248.004 8.73491 247.456 8.7498 247.383 8.83058ZM271.378 12.4732C270.121 13.0713 269.924 14.6666 271.017 15.4016C271.202 15.5263 271.723 15.7981 272.173 16.0057C273.081 16.4243 273.337 16.6155 273.337 16.8765C273.337 17.3941 272.727 17.8854 272.17 17.8166C271.805 17.7714 271.409 17.4347 271.172 16.9683C271.08 16.788 270.981 16.6405 270.953 16.6405C270.924 16.6405 270.655 16.7477 270.356 16.8786C269.846 17.1018 269.816 17.1267 269.877 17.2749C270.162 17.9646 270.761 18.6049 271.339 18.8367C271.931 19.0741 272.662 19.0516 273.301 18.7762C274.207 18.3854 274.659 17.7662 274.665 16.9057C274.668 16.4793 274.64 16.3622 274.473 16.0989C274.203 15.6737 273.978 15.517 272.865 14.9755C271.825 14.4698 271.569 14.263 271.643 13.986C271.719 13.7024 271.877 13.5337 272.145 13.4524C272.492 13.3468 272.84 13.508 273.234 13.9566L273.531 14.2954L274.011 13.9365C274.275 13.7391 274.491 13.5519 274.491 13.5206C274.491 13.3875 273.875 12.762 273.568 12.5823C273.144 12.3344 272.837 12.2568 272.28 12.2563C271.918 12.256 271.75 12.2965 271.378 12.4732ZM245 12.9202V13.5181H245.829H246.658V16.2087V18.8992H247.343H248.028V16.2087V13.5181H248.858H249.687V12.9202V12.3223H247.343H245V12.9202ZM250.264 15.6108V18.8992H250.913H251.561V17.6995C251.561 16.9875 251.588 16.5151 251.628 16.5375C251.664 16.5583 252.088 17.0982 252.569 17.7373L253.445 18.8992H254.238C254.853 18.8992 255.019 18.8806 254.977 18.8162C254.947 18.7706 254.471 18.1412 253.919 17.4177C253.367 16.6942 252.927 16.094 252.941 16.0839C252.956 16.0738 253.081 16.0239 253.219 15.9729C253.559 15.848 253.989 15.4798 254.18 15.1503C254.405 14.7643 254.404 13.7421 254.179 13.352C253.735 12.5806 252.985 12.3264 251.147 12.3237L250.264 12.3223V15.6108ZM256.607 15.5495C255.795 17.3276 255.119 18.8098 255.106 18.8432C255.091 18.8783 255.393 18.896 255.82 18.885L256.56 18.866L256.953 17.9858L257.346 17.1055H258.485H259.624L259.855 17.6204C259.982 17.9035 260.16 18.2997 260.251 18.5006L260.417 18.866L261.142 18.885L261.866 18.9038L261.442 17.9549C261.209 17.4329 260.55 15.9596 259.977 14.6807L258.935 12.3555L258.509 12.3361L258.083 12.3167L256.607 15.5495ZM262.305 15.6108V18.8992H262.989H263.673L263.692 16.7266L263.711 14.5539L265.942 16.7266L268.172 18.8992H268.628H269.083V15.6108V12.3223H268.399H267.715L267.696 14.4898L267.677 16.6574L265.444 14.4898L263.211 12.3223H262.758H262.305V15.6108ZM275.284 15.6108V18.8992H275.931H276.579L276.598 17.4211L276.618 15.9429L277.681 15.9245L278.745 15.9062V15.3433V14.7804H277.663H276.582V14.1492V13.5181H277.699H278.817V12.9202V12.3223H277.05H275.284V15.6108ZM279.466 15.6108V18.8992H281.485H283.504V18.336V17.7728L282.152 17.7547L280.8 17.7367V16.8398V15.9429L282.116 15.9248L283.431 15.9067V15.345V14.7834L282.116 14.7653L280.8 14.7471L280.779 14.1326L280.758 13.5181H282.131H283.504V12.9202V12.3223H281.485H279.466V15.6108ZM284.225 15.6016V18.8992H284.873H285.522V17.7034C285.522 17.0457 285.547 16.5088 285.577 16.5102C285.606 16.5117 286.033 17.0498 286.524 17.706L287.417 18.8992H288.209H289L288.871 18.7165C288.8 18.6161 288.327 17.9883 287.82 17.3215L286.897 16.1092L287.241 15.9487C287.646 15.7597 287.989 15.4532 288.169 15.1197C288.266 14.9391 288.298 14.7242 288.297 14.2489C288.296 13.5076 288.169 13.2172 287.673 12.8262C287.219 12.4683 286.823 12.3822 285.432 12.3403L284.225 12.3039V15.6016ZM252.612 13.6154C253.073 13.7927 253.196 14.4059 252.842 14.761C252.686 14.9176 252.077 15.0752 251.778 15.0363C251.599 15.0131 251.597 15.0062 251.577 14.2655L251.557 13.5181H251.958C252.179 13.5181 252.473 13.5619 252.612 13.6154ZM286.603 13.6345C286.741 13.6984 286.897 13.8254 286.948 13.9167C287.076 14.1417 287.011 14.56 286.82 14.7471C286.657 14.9074 286.19 15.0461 285.815 15.0461H285.595V14.2821V13.5181L285.973 13.5183C286.189 13.5183 286.459 13.5682 286.603 13.6345ZM258.799 15.2952C258.944 15.615 259.062 15.9139 259.061 15.9596C259.061 16.019 258.896 16.0426 258.483 16.0426C258.073 16.0426 257.907 16.0189 257.907 15.9604C257.907 15.841 258.433 14.7139 258.489 14.7139C258.515 14.7139 258.654 14.9755 258.799 15.2952Z" fill="#A4A6A9"/>
<path d="M261 38.3793C261 37.066 262.113 36 263.482 36H290.523C291.892 36 293.004 37.066 293.004 38.3793V46.8861C293.004 48.1994 291.895 49.2654 290.523 49.2654H263.482C262.113 49.2689 261 48.2029 261 46.8896V38.3793Z" fill="#1A1A2D" fill-opacity="0.25"/>
<path d="M261.867 46.9142V38.3548C261.867 37.5117 262.565 36.8293 263.428 36.8293H277.695V48.4396H263.428C262.565 48.4396 261.867 47.7573 261.867 46.9142Z" fill="#E8E9EA"/>
<path d="M281.397 42.5945C281.397 43.1274 281.126 43.4897 280.674 43.4897C280.277 43.4897 279.945 43.124 279.945 42.6363C279.945 42.1381 280.237 41.7654 280.674 41.7654C281.137 41.7689 281.397 42.152 281.397 42.5945ZM278.745 45.6426H279.941V43.8311H279.956C280.183 44.2282 280.635 44.3746 281.05 44.3746C282.08 44.3746 282.629 43.5559 282.629 42.5701C282.629 41.7619 282.105 40.8875 281.148 40.8875C280.602 40.8875 280.1 41.1 279.858 41.5668H279.844V40.9642H278.742V45.6426H278.745ZM284.262 43.2389C284.262 42.9184 284.58 42.7965 284.984 42.7965C285.165 42.7965 285.335 42.807 285.49 42.8139C285.49 43.2041 285.205 43.6012 284.753 43.6012C284.475 43.6047 284.262 43.4723 284.262 43.2389ZM286.675 44.2979C286.621 44.0366 286.61 43.7719 286.61 43.5106V42.267C286.61 41.2498 285.848 40.884 284.963 40.884C284.453 40.884 284.005 40.9537 283.583 41.1209L283.604 41.9012C283.937 41.7201 284.32 41.6504 284.706 41.6504C285.136 41.6504 285.49 41.7723 285.497 42.2287C285.346 42.2043 285.132 42.1834 284.941 42.1834C284.305 42.1834 283.156 42.3053 283.156 43.3225C283.156 44.0471 283.767 44.3711 284.45 44.3711C284.941 44.3711 285.273 44.1864 285.544 43.7684H285.559C285.559 43.9426 285.577 44.1133 285.584 44.2944H286.675V44.2979ZM287.21 45.6426C287.455 45.6948 287.701 45.7192 287.954 45.7192C289.049 45.7192 289.309 44.9041 289.648 44.068L290.916 40.9642H289.721L289.009 43.1414H288.998L288.254 40.9642H286.968L288.369 44.378C288.283 44.6741 288.059 44.8379 287.766 44.8379C287.6 44.8379 287.455 44.817 287.293 44.7682L287.21 45.6426Z" fill="#A4A6A9"/>
<path d="M264.938 42.6014C264.938 42.145 265.169 41.7688 265.617 41.7688C266.155 41.7688 266.379 42.1833 266.379 42.5561C266.379 43.0682 266.04 43.413 265.617 43.413C265.256 43.413 264.938 43.1204 264.938 42.6014V42.6014ZM267.535 40.9606H266.452V41.5633H266.441C266.188 41.1522 265.776 40.884 265.267 40.884C264.19 40.884 263.706 41.626 263.706 42.6188C263.706 43.6046 264.299 44.2979 265.245 44.2979C265.726 44.2979 266.123 44.1167 266.408 43.7266H266.423V43.9077C266.423 44.5591 266.051 44.8726 265.361 44.8726C264.862 44.8726 264.555 44.7716 264.19 44.5974L264.129 45.5067C264.407 45.6042 264.88 45.7192 265.451 45.7192C266.845 45.7192 267.535 45.2767 267.535 43.9077V40.9606V40.9606ZM269.555 39.5707H268.359V40.4172H269.555V39.5707ZM268.359 44.2979H269.555V40.9606H268.359V44.2979ZM272.882 40.9223C272.763 40.9049 272.615 40.884 272.478 40.884C271.961 40.884 271.661 41.1522 271.455 41.5772H271.441V40.9641H270.353V44.3013H271.549V42.894C271.549 42.2391 271.863 41.8489 272.42 41.8489C272.561 41.8489 272.691 41.8489 272.824 41.8872L272.882 40.9223V40.9223ZM274.941 43.5663C274.389 43.5663 274.165 43.1239 274.165 42.6327C274.165 42.1346 274.389 41.6922 274.941 41.6922C275.494 41.6922 275.718 42.1346 275.718 42.6327C275.718 43.1239 275.491 43.5663 274.941 43.5663ZM274.941 44.3745C276.083 44.3745 276.954 43.7335 276.954 42.6327C276.954 41.525 276.083 40.884 274.941 40.884C273.8 40.884 272.929 41.525 272.929 42.6327C272.929 43.7335 273.796 44.3745 274.941 44.3745Z" fill="#A4A6A9"/>
<path d="M95.8248 40.486C95.7475 40.5577 95.6464 40.5983 95.541 40.5998C95.4356 40.6014 95.3333 40.5637 95.254 40.4942C94.4863 39.8462 93.5144 39.4903 92.5098 39.4892C91.6833 39.4892 90.856 39.7615 90.856 40.5197C90.856 41.287 91.7425 41.5427 92.7655 41.926C94.555 42.523 96.0378 43.273 96.0378 45.0287C96.0378 46.9375 94.555 48.25 92.1348 48.3947L91.9135 49.4177C91.8939 49.5117 91.8424 49.5961 91.7678 49.6566C91.6932 49.7171 91.6001 49.7501 91.504 49.75H89.9785L89.902 49.7417C89.7929 49.7173 89.6977 49.6509 89.6371 49.5569C89.5764 49.4628 89.5552 49.3487 89.578 49.2392L89.8165 48.1562C88.8979 47.926 88.0531 47.4655 87.3618 46.8182V46.81C87.3236 46.772 87.2932 46.7268 87.2726 46.6771C87.2519 46.6273 87.2412 46.574 87.2412 46.5201C87.2412 46.4662 87.2519 46.4129 87.2726 46.3631C87.2932 46.3134 87.3236 46.2682 87.3618 46.2302L88.2145 45.4037C88.375 45.2537 88.6248 45.2537 88.7853 45.4037C89.5651 46.1405 90.6016 46.544 91.6743 46.5287C92.7828 46.5287 93.5238 46.06 93.5238 45.3182C93.5238 44.5765 92.7738 44.3807 91.3593 43.8527C89.8593 43.3157 88.4358 42.5567 88.4358 40.7845C88.4358 38.722 90.1488 37.7162 92.1775 37.6225L92.3905 36.574C92.4103 36.4808 92.4619 36.3975 92.5365 36.3383C92.6111 36.2792 92.7041 36.2479 92.7993 36.25H94.3165L94.402 36.259C94.4546 36.27 94.5046 36.2914 94.5489 36.3218C94.5932 36.3522 94.6311 36.391 94.6604 36.4361C94.6897 36.4812 94.7097 36.5316 94.7195 36.5845C94.7292 36.6374 94.7284 36.6917 94.717 36.7442L94.4868 37.912C95.2603 38.1687 95.9777 38.5709 96.6003 39.097L96.6175 39.1135C96.7795 39.2845 96.7795 39.5402 96.6175 39.6932L95.8248 40.486Z" stroke="#A4A6A9" stroke-width="1.66667" stroke-linecap="round" stroke-linejoin="round"/>
<g clip-path="url(#clip3_716_18601)">
<path d="M137.862 33.0776H111.138C110.105 33.0776 109.267 33.9152 109.267 34.9483V52.0518C109.267 53.0849 110.105 53.9225 111.138 53.9225H137.862C138.895 53.9225 139.733 53.0849 139.733 52.0518V34.9483C139.733 33.9152 138.895 33.0776 137.862 33.0776Z" fill="white" stroke="#F3F3F3"/>
<path d="M133.679 38.5583H126.404L125.665 39.3913L123.264 42.0941L122.524 42.9271H115.346L116.074 42.0836L116.419 41.6843L117.147 40.8409H113.84C113.236 40.8409 112.741 41.3479 112.741 41.9674V44.3446C112.741 44.9642 113.236 45.4712 113.84 45.4712H126.502C127.107 45.4712 127.932 45.0947 128.337 44.6345L130.252 42.4559L133.679 38.5583Z" fill="#A4A6A9"/>
<path d="M135.14 36.0173C135.744 36.0173 136.239 36.5243 136.239 37.144V39.521C136.239 40.1406 135.744 40.6477 135.14 40.6477H131.843L132.579 39.8106L132.943 39.3955L133.678 38.5584H126.404L122.524 42.9303H115.301L120.481 37.0735L120.677 36.8519C121.083 36.3929 121.91 36.0173 122.514 36.0173H135.14Z" fill="#A4A6A9"/>
<path fill-rule="evenodd" clip-rule="evenodd" d="M115.217 49.5122C115.217 49.357 115.181 49.2226 115.108 49.1092C115.034 48.9957 114.938 48.9092 114.819 48.8495C114.938 48.7898 115.031 48.7017 115.096 48.5853C115.162 48.4689 115.195 48.3376 115.195 48.1914V48.1108C115.195 47.9315 115.16 47.7824 115.092 47.663C115.023 47.5436 114.927 47.448 114.803 47.3764C114.679 47.3047 114.531 47.2533 114.358 47.2219C114.184 47.1905 113.992 47.1749 113.78 47.1749C113.708 47.1749 113.634 47.1764 113.556 47.1794C113.478 47.1824 113.403 47.1861 113.33 47.1905C113.257 47.195 113.19 47.2003 113.129 47.2062C113.067 47.2123 113.017 47.2183 112.978 47.2241C112.892 47.2392 112.831 47.2659 112.795 47.3047C112.759 47.3436 112.741 47.4138 112.741 47.5152V50.2375C112.741 50.3391 112.76 50.4092 112.797 50.4479C112.834 50.4868 112.898 50.5136 112.988 50.5285C113.032 50.5375 113.086 50.5449 113.149 50.5509C113.211 50.5569 113.279 50.5621 113.352 50.5666C113.426 50.571 113.501 50.5748 113.578 50.5778C113.656 50.5807 113.732 50.5823 113.807 50.5823C114.001 50.5823 114.184 50.5673 114.355 50.5375C114.527 50.5077 114.676 50.4546 114.803 50.3785C114.93 50.3025 115.031 50.1994 115.105 50.0696C115.18 49.9398 115.217 49.7763 115.217 49.5792V49.5122ZM114.456 48.2271C114.456 48.2749 114.449 48.3205 114.434 48.3637C114.419 48.407 114.394 48.4442 114.36 48.4758C114.325 48.507 114.279 48.5324 114.221 48.5517C114.163 48.5712 114.089 48.5808 113.999 48.5808H113.498V47.8063C113.513 47.8063 113.536 47.8056 113.567 47.804C113.599 47.8025 113.631 47.8018 113.666 47.8018H113.838C114.068 47.8018 114.228 47.8309 114.319 47.889C114.411 47.9473 114.456 48.0376 114.456 48.1599V48.2271ZM114.342 49.8524C114.43 49.7838 114.474 49.6867 114.474 49.5614V49.5122C114.474 49.4047 114.44 49.3114 114.371 49.2323C114.302 49.1533 114.178 49.1137 113.999 49.1137H113.498V49.9509H113.576C113.611 49.9509 113.646 49.9518 113.684 49.9532C113.721 49.9547 113.757 49.9555 113.791 49.9555H113.865C114.095 49.9555 114.254 49.9212 114.342 49.8524ZM117.671 48.854C117.671 48.6899 117.646 48.5502 117.597 48.4353C117.548 48.3205 117.478 48.2264 117.389 48.1532C117.299 48.0801 117.19 48.0265 117.06 47.9921C116.93 47.9578 116.784 47.9406 116.623 47.9406C116.474 47.9406 116.328 47.9511 116.187 47.972C116.045 47.9928 115.932 48.0137 115.849 48.0346C115.792 48.0497 115.763 48.0824 115.763 48.133V48.4957C115.763 48.5257 115.771 48.5466 115.786 48.5584C115.801 48.5704 115.82 48.5764 115.844 48.5764H115.866C115.902 48.5733 115.947 48.5697 116.001 48.5652C116.054 48.5607 116.115 48.5571 116.182 48.5539C116.249 48.5511 116.319 48.5488 116.393 48.5473C116.466 48.5458 116.538 48.545 116.61 48.545C116.714 48.545 116.796 48.5644 116.856 48.6032C116.916 48.6421 116.945 48.7257 116.945 48.854V49.0152H116.704C116.319 49.0152 116.039 49.0756 115.864 49.1965C115.69 49.3173 115.602 49.5092 115.602 49.7718V49.8123C115.602 49.9584 115.624 50.0808 115.667 50.1793C115.71 50.2778 115.768 50.3569 115.84 50.4167C115.911 50.4763 115.992 50.5189 116.084 50.5441C116.175 50.5695 116.269 50.5823 116.368 50.5823C116.502 50.5823 116.618 50.5643 116.715 50.5285C116.812 50.4927 116.904 50.4434 116.99 50.3808V50.4524C116.99 50.4763 116.999 50.4972 117.017 50.5151C117.035 50.533 117.056 50.542 117.08 50.542H117.581C117.605 50.542 117.626 50.533 117.644 50.5151C117.662 50.4972 117.671 50.4763 117.671 50.4524V48.854ZM116.787 50.0069C116.848 49.9875 116.905 49.9644 116.959 49.9375V49.445H116.704C116.626 49.445 116.562 49.4517 116.511 49.4651C116.46 49.4786 116.42 49.4988 116.39 49.5256C116.36 49.5524 116.34 49.5868 116.328 49.6285C116.316 49.6704 116.31 49.7181 116.31 49.7718V49.8123C116.31 49.9077 116.333 49.9688 116.379 49.9957C116.425 50.0226 116.496 50.036 116.592 50.036C116.66 50.036 116.725 50.0264 116.787 50.0069ZM120.411 50.4479V48.9569C120.411 48.8168 120.4 48.6846 120.377 48.5607C120.355 48.437 120.315 48.3294 120.257 48.2383C120.198 48.1473 120.118 48.0748 120.015 48.0212C119.912 47.9675 119.78 47.9406 119.619 47.9406C119.475 47.9406 119.348 47.9579 119.238 47.9925C119.127 48.0271 119.011 48.0879 118.889 48.1752V48.0667C118.889 48.0427 118.88 48.0215 118.862 48.0035C118.844 47.9855 118.823 47.9764 118.799 47.9764H118.298C118.274 47.9764 118.253 47.9853 118.235 48.0033C118.217 48.0212 118.208 48.0421 118.208 48.0659V50.4479C118.208 50.4718 118.218 50.4935 118.237 50.5128C118.257 50.5323 118.278 50.542 118.302 50.542H118.844C118.868 50.542 118.889 50.5323 118.907 50.5129C118.925 50.4936 118.933 50.472 118.933 50.4481V48.6879C119.011 48.6463 119.084 48.612 119.153 48.5853C119.221 48.5584 119.289 48.545 119.354 48.545C119.423 48.545 119.479 48.5517 119.522 48.5652C119.565 48.5786 119.599 48.6016 119.623 48.6345C119.647 48.6672 119.663 48.7103 119.672 48.7639C119.681 48.8175 119.686 48.8831 119.686 48.9605V50.4481C119.686 50.472 119.695 50.4936 119.713 50.5129C119.73 50.5323 119.751 50.542 119.775 50.542H120.317C120.341 50.542 120.362 50.5323 120.382 50.5128C120.401 50.4935 120.411 50.4718 120.411 50.4479ZM122.614 50.0137V50.4121C122.614 50.4449 122.606 50.4681 122.592 50.4815C122.577 50.495 122.553 50.5061 122.52 50.5151C122.457 50.53 122.376 50.5449 122.276 50.56C122.176 50.5748 122.059 50.5823 121.924 50.5823C121.608 50.5823 121.355 50.4853 121.166 50.2912C120.976 50.0972 120.881 49.8167 120.881 49.4495V49.0734C120.881 48.7062 120.976 48.4256 121.166 48.2317C121.355 48.0376 121.608 47.9406 121.924 47.9406C122.059 47.9406 122.176 47.948 122.276 47.9629C122.376 47.9779 122.457 47.9928 122.52 48.0077C122.553 48.0166 122.577 48.0279 122.592 48.0413C122.606 48.0547 122.614 48.0779 122.614 48.1108V48.5092C122.614 48.5331 122.606 48.5517 122.589 48.5652C122.573 48.5786 122.553 48.5853 122.529 48.5853H122.52C122.436 48.5764 122.357 48.5689 122.28 48.563C122.204 48.5571 122.102 48.5539 121.974 48.5539C121.923 48.5539 121.875 48.5622 121.83 48.5786C121.786 48.595 121.747 48.6234 121.714 48.6637C121.681 48.704 121.655 48.7576 121.636 48.8249C121.616 48.892 121.606 48.9749 121.606 49.0734V49.4495C121.606 49.5479 121.616 49.6308 121.636 49.698C121.655 49.7651 121.681 49.8189 121.714 49.8591C121.747 49.8995 121.786 49.9278 121.83 49.9442C121.875 49.9607 121.923 49.9688 121.974 49.9688C122.102 49.9688 122.204 49.9658 122.28 49.9599C122.357 49.954 122.436 49.9464 122.52 49.9375H122.529C122.553 49.9375 122.573 49.9442 122.589 49.9577C122.606 49.9712 122.614 49.9898 122.614 50.0137ZM125.099 49.1047C125.099 48.9256 125.074 48.7644 125.025 48.6212C124.976 48.4779 124.904 48.3563 124.81 48.2562C124.715 48.1563 124.599 48.0786 124.46 48.0234C124.321 47.9683 124.16 47.9406 123.977 47.9406C123.795 47.9406 123.634 47.9683 123.495 48.0234C123.356 48.0786 123.239 48.1563 123.143 48.2562C123.047 48.3563 122.975 48.4779 122.925 48.6212C122.876 48.7644 122.851 48.9256 122.851 49.1047V49.4181C122.851 49.5972 122.876 49.7585 122.925 49.9017C122.975 50.045 123.047 50.1666 123.143 50.2666C123.239 50.3667 123.356 50.4442 123.495 50.4995C123.634 50.5546 123.795 50.5823 123.977 50.5823C124.16 50.5823 124.321 50.5546 124.46 50.4995C124.599 50.4442 124.715 50.3667 124.81 50.2666C124.904 50.1666 124.976 50.045 125.025 49.9017C125.074 49.7585 125.099 49.5972 125.099 49.4181V49.1047ZM123.977 49.9688C124.241 49.9688 124.374 49.7853 124.374 49.4181V49.1047C124.374 48.7405 124.241 48.5584 123.977 48.5584C123.847 48.5584 123.747 48.604 123.679 48.695C123.611 48.7861 123.577 48.9227 123.577 49.1047V49.4181C123.577 49.6002 123.611 49.7375 123.679 49.83C123.747 49.9226 123.847 49.9688 123.977 49.9688ZM127.763 50.4479V48.9569C127.763 48.8168 127.752 48.6846 127.729 48.5607C127.707 48.437 127.667 48.3294 127.608 48.2383C127.55 48.1473 127.47 48.0748 127.367 48.0212C127.264 47.9675 127.132 47.9406 126.97 47.9406C126.827 47.9406 126.7 47.9579 126.59 47.9925C126.479 48.0271 126.363 48.0879 126.241 48.1752V48.0667C126.241 48.0427 126.232 48.0215 126.214 48.0035C126.196 47.9855 126.175 47.9764 126.151 47.9764H125.65C125.626 47.9764 125.605 47.9853 125.587 48.0033C125.569 48.0212 125.56 48.0421 125.56 48.0659V50.4479C125.56 50.4718 125.57 50.4935 125.589 50.5128C125.609 50.5323 125.63 50.542 125.654 50.542H126.196C126.22 50.542 126.241 50.5323 126.259 50.5129C126.276 50.4936 126.285 50.472 126.285 50.4481V48.6879C126.363 48.6463 126.436 48.612 126.505 48.5853C126.573 48.5584 126.641 48.545 126.706 48.545C126.775 48.545 126.831 48.5517 126.874 48.5652C126.917 48.5786 126.951 48.6016 126.975 48.6345C126.999 48.6672 127.015 48.7103 127.024 48.7639C127.033 48.8175 127.038 48.8831 127.038 48.9605V50.4481C127.038 50.472 127.047 50.4936 127.064 50.5129C127.082 50.5323 127.103 50.542 127.127 50.542H127.669C127.693 50.542 127.714 50.5323 127.734 50.5128C127.753 50.4935 127.763 50.4718 127.763 50.4479ZM129.715 50.1115V50.458C129.715 50.5083 129.687 50.5379 129.63 50.5467C129.561 50.5586 129.502 50.5674 129.451 50.5734C129.4 50.5793 129.342 50.5823 129.276 50.5823C129.155 50.5823 129.047 50.5725 128.954 50.5532C128.86 50.5338 128.782 50.4957 128.72 50.439C128.658 50.3823 128.61 50.3039 128.578 50.2039C128.545 50.1039 128.529 49.975 128.529 49.8167V48.5182L128.171 48.4599C128.147 48.454 128.125 48.4428 128.106 48.4264C128.086 48.41 128.076 48.3899 128.076 48.366V48.0704C128.076 48.0466 128.086 48.0249 128.106 48.0055C128.125 47.9862 128.147 47.9764 128.171 47.9764H128.529V47.6092C128.529 47.5853 128.538 47.566 128.555 47.551C128.573 47.5361 128.594 47.5257 128.618 47.5197L129.161 47.4258H129.174C129.198 47.4258 129.217 47.4324 129.232 47.4457C129.247 47.4593 129.254 47.4779 129.254 47.5018V47.9764H129.621C129.645 47.9764 129.666 47.9854 129.684 48.0034C129.702 48.0215 129.711 48.0427 129.711 48.0667V48.4324C129.711 48.4565 129.702 48.4775 129.684 48.4955C129.666 48.5136 129.645 48.5226 129.621 48.5226H129.254V49.8256C129.254 49.9151 129.261 49.9726 129.276 49.998C129.291 50.0233 129.333 50.036 129.402 50.036H129.621C129.684 50.036 129.715 50.0611 129.715 50.1115ZM132.106 48.854C132.106 48.6899 132.082 48.5502 132.032 48.4353C131.983 48.3205 131.914 48.2264 131.824 48.1532C131.735 48.0801 131.625 48.0265 131.495 47.9921C131.365 47.9578 131.22 47.9406 131.058 47.9406C130.909 47.9406 130.764 47.9511 130.622 47.972C130.48 47.9928 130.367 48.0137 130.284 48.0346C130.227 48.0497 130.199 48.0824 130.199 48.133V48.4957C130.199 48.5257 130.206 48.5466 130.221 48.5584C130.236 48.5704 130.255 48.5764 130.279 48.5764H130.302C130.338 48.5733 130.382 48.5697 130.436 48.5652C130.49 48.5607 130.55 48.5571 130.617 48.5539C130.685 48.5511 130.755 48.5488 130.828 48.5473C130.901 48.5458 130.973 48.545 131.045 48.545C131.149 48.545 131.232 48.5644 131.291 48.6032C131.351 48.6421 131.381 48.7257 131.381 48.854V49.0152H131.139C130.754 49.0152 130.474 49.0756 130.299 49.1965C130.125 49.3173 130.038 49.5092 130.038 49.7718V49.8123C130.038 49.9584 130.059 50.0808 130.102 50.1793C130.146 50.2778 130.203 50.3569 130.275 50.4167C130.347 50.4763 130.428 50.5189 130.519 50.5441C130.61 50.5695 130.705 50.5823 130.803 50.5823C130.938 50.5823 131.053 50.5643 131.15 50.5285C131.247 50.4927 131.339 50.4434 131.426 50.3808V50.4524C131.426 50.4763 131.435 50.4972 131.452 50.5151C131.47 50.533 131.491 50.542 131.515 50.542H132.017C132.04 50.542 132.061 50.533 132.079 50.5151C132.097 50.4972 132.106 50.4763 132.106 50.4524V48.854ZM131.222 50.0069C131.283 49.9875 131.341 49.9644 131.394 49.9375V49.445H131.139C131.061 49.445 130.997 49.4517 130.947 49.4651C130.896 49.4786 130.855 49.4988 130.826 49.5256C130.796 49.5524 130.775 49.5868 130.763 49.6285C130.751 49.6704 130.745 49.7181 130.745 49.7718V49.8123C130.745 49.9077 130.768 49.9688 130.814 49.9957C130.861 50.0226 130.932 50.036 131.027 50.036C131.096 50.036 131.161 50.0264 131.222 50.0069ZM134.309 50.4121V50.0137C134.309 49.9898 134.301 49.9712 134.284 49.9577C134.268 49.9442 134.248 49.9375 134.224 49.9375H134.215C134.131 49.9464 134.052 49.954 133.975 49.9599C133.899 49.9658 133.797 49.9688 133.669 49.9688C133.618 49.9688 133.57 49.9607 133.526 49.9442C133.481 49.9278 133.442 49.8995 133.409 49.8591C133.376 49.8189 133.35 49.7651 133.331 49.698C133.311 49.6308 133.302 49.5479 133.302 49.4495V49.0734C133.302 48.9749 133.311 48.892 133.331 48.8249C133.35 48.7576 133.376 48.704 133.409 48.6637C133.442 48.6234 133.481 48.595 133.526 48.5786C133.57 48.5622 133.618 48.5539 133.669 48.5539C133.797 48.5539 133.899 48.5571 133.975 48.563C134.052 48.5689 134.131 48.5764 134.215 48.5853H134.224C134.248 48.5853 134.268 48.5786 134.284 48.5652C134.301 48.5517 134.309 48.5331 134.309 48.5092V48.1108C134.309 48.0779 134.302 48.0547 134.287 48.0413C134.272 48.0279 134.248 48.0166 134.215 48.0077C134.152 47.9928 134.071 47.9779 133.971 47.9629C133.871 47.948 133.754 47.9406 133.62 47.9406C133.303 47.9406 133.05 48.0376 132.861 48.2317C132.671 48.4256 132.576 48.7062 132.576 49.0734V49.4495C132.576 49.8167 132.671 50.0972 132.861 50.2912C133.05 50.4853 133.303 50.5823 133.62 50.5823C133.754 50.5823 133.871 50.5748 133.971 50.56C134.071 50.5449 134.152 50.53 134.215 50.5151C134.248 50.5061 134.272 50.495 134.287 50.4815C134.302 50.4681 134.309 50.4449 134.309 50.4121ZM136.239 50.1115V50.458C136.239 50.5083 136.21 50.5379 136.154 50.5467C136.085 50.5586 136.025 50.5674 135.975 50.5734C135.924 50.5793 135.866 50.5823 135.8 50.5823C135.678 50.5823 135.571 50.5725 135.477 50.5532C135.384 50.5338 135.306 50.4957 135.244 50.439C135.181 50.3823 135.134 50.3039 135.101 50.2039C135.069 50.1039 135.052 49.975 135.052 49.8167V48.5182L134.694 48.4599C134.67 48.454 134.649 48.4428 134.629 48.4264C134.61 48.41 134.6 48.3899 134.6 48.366V48.0704C134.6 48.0466 134.61 48.0249 134.629 48.0055C134.649 47.9862 134.67 47.9764 134.694 47.9764H135.052V47.6092C135.052 47.5853 135.061 47.566 135.079 47.551C135.097 47.5361 135.117 47.5257 135.141 47.5197L135.684 47.4258H135.698C135.721 47.4258 135.741 47.4324 135.755 47.4457C135.77 47.4593 135.778 47.4779 135.778 47.5018V47.9764H136.145C136.169 47.9764 136.19 47.9854 136.207 48.0034C136.225 48.0215 136.234 48.0427 136.234 48.0667V48.4324C136.234 48.4565 136.225 48.4775 136.207 48.4955C136.19 48.5136 136.169 48.5226 136.145 48.5226H135.778V49.8256C135.778 49.9151 135.785 49.9726 135.8 49.998C135.815 50.0233 135.857 50.036 135.925 50.036H136.145C136.207 50.036 136.239 50.0611 136.239 50.1115Z" fill="#A4A6A9"/>
</g>
<g clip-path="url(#clip4_716_18601)">
<path fill-rule="evenodd" clip-rule="evenodd" d="M182.378 49.7752H147.075L149.428 36.1902H184.731L182.378 49.7752Z" fill="#A4A6A9"/>
<path fill-rule="evenodd" clip-rule="evenodd" d="M158.334 44.1045C157.731 44.1045 157.308 43.7239 157.308 43.1297C157.308 42.4721 157.834 41.855 158.591 41.855C159.193 41.855 159.617 42.253 159.617 42.8472C159.617 43.5049 159.09 44.1045 158.334 44.1045ZM158.687 40.7186C157.103 40.7186 155.904 41.8434 155.904 43.1874C155.904 44.4045 156.891 45.247 158.238 45.247C159.822 45.247 161.021 44.0872 161.021 42.7432C161.021 41.5263 160.034 40.7186 158.687 40.7186Z" fill="#E5E5E0"/>
<path fill-rule="evenodd" clip-rule="evenodd" d="M167.88 44.1045C167.277 44.1045 166.855 43.7239 166.855 43.1297C166.855 42.4721 167.38 41.855 168.137 41.855C168.739 41.855 169.163 42.253 169.163 42.8472C169.163 43.5049 168.637 44.1045 167.88 44.1045ZM168.233 40.7186C166.649 40.7186 165.45 41.8434 165.45 43.1874C165.45 44.4045 166.437 45.247 167.784 45.247C169.368 45.247 170.568 44.0872 170.568 42.7432C170.568 41.5263 169.58 40.7186 168.233 40.7186Z" fill="#E5E5E0"/>
<path fill-rule="evenodd" clip-rule="evenodd" d="M172.974 42.8636H172.767L172.922 41.9567H173.11C173.549 41.9567 173.781 42.0846 173.781 42.3636C173.781 42.695 173.452 42.8636 172.974 42.8636ZM175.229 42.1486C175.229 41.3347 174.57 40.8115 173.381 40.8115H171.701L170.964 45.1539H172.379L172.612 43.7878H172.676L173.426 45.1539H175.048L174.007 43.6366C174.77 43.3808 175.229 42.8287 175.229 42.1486Z" fill="#E5E5E0"/>
<path fill-rule="evenodd" clip-rule="evenodd" d="M154.283 42.5439C153.746 42.2822 153.624 42.2125 153.624 42.073C153.624 41.8986 153.837 41.8113 154.134 41.8113C154.475 41.8113 154.991 41.8482 155.496 42.3129C155.621 41.9406 155.824 41.6016 156.091 41.3096C155.375 40.9215 154.716 40.7186 154.108 40.7186C152.9 40.7186 152.209 41.3406 152.209 42.0904C152.209 42.7356 152.712 43.0728 153.314 43.3691C153.85 43.6366 153.985 43.7181 153.985 43.881C153.985 44.0553 153.759 44.154 153.462 44.154C152.945 44.154 152.344 43.8401 151.988 43.5204L151.782 44.7295C152.15 44.9851 152.68 45.2466 153.481 45.2466C154.728 45.2466 155.401 44.6424 155.401 43.8635C155.401 43.2296 154.968 42.881 154.283 42.5439Z" fill="#E5E5E0"/>
<path fill-rule="evenodd" clip-rule="evenodd" d="M164.744 42.7181H163.087L163.217 41.9567H164.994C165.224 41.4987 165.58 41.107 166.024 40.8115H163.116C162.471 40.8115 161.923 41.2352 161.826 41.8086L161.258 45.1539H162.674L162.906 43.7878H164.587L164.708 43.0454C164.714 42.9344 164.726 42.8253 164.744 42.7181Z" fill="#E5E5E0"/>
<path fill-rule="evenodd" clip-rule="evenodd" d="M175.259 40.8115C175.637 41.0913 175.87 41.4823 175.92 41.9567H177.103L176.56 45.1539H177.975L178.519 41.9567H179.83L180.024 40.8115H175.259Z" fill="#E5E5E0"/>
</g>
<defs>
<clipPath id="clip0_716_18601">
<rect width="24" height="19" fill="white" transform="translate(39 4)"/>
</clipPath>
<clipPath id="clip1_716_18601">
<rect width="25" height="25" fill="white" transform="translate(161)"/>
</clipPath>
<clipPath id="clip2_716_18601">
<rect width="32" height="13" fill="white" transform="translate(200 6)"/>
</clipPath>
<clipPath id="clip3_716_18601">
<rect width="31" height="31" fill="white" transform="translate(109 28)"/>
</clipPath>
<clipPath id="clip4_716_18601">
<rect width="38" height="14" fill="white" transform="translate(147 36)"/>
</clipPath>
</defs>
</svg>
