<svg width="44" height="44" viewBox="0 0 44 44" fill="none" xmlns="http://www.w3.org/2000/svg">
<path d="M31.35 15.8549C31.1611 16.0303 30.914 16.1295 30.6563 16.1332C30.3986 16.1369 30.1486 16.045 29.9548 15.8751C28.0782 14.2911 25.7024 13.421 23.2466 13.4184C21.2263 13.4184 19.2041 14.0839 19.2041 15.9374C19.2041 17.8129 21.3711 18.4381 23.8718 19.3749C28.2461 20.8342 31.8706 22.6676 31.8706 26.9594C31.8706 31.6252 28.2461 34.8336 22.33 35.1874L21.7891 37.6881C21.7411 37.9179 21.6153 38.1241 21.433 38.2721C21.2507 38.42 21.0229 38.5006 20.7881 38.5002H17.0591L16.8721 38.4801C16.6053 38.4203 16.3726 38.258 16.2245 38.0282C16.0763 37.7984 16.0244 37.5195 16.0801 37.2517L16.6631 34.6044C14.4176 34.0416 12.3525 32.916 10.6626 31.3337V31.3136C10.5692 31.2207 10.4951 31.1103 10.4445 30.9887C10.394 30.8671 10.3679 30.7367 10.3679 30.605C10.3679 30.4733 10.394 30.3429 10.4445 30.2213C10.4951 30.0997 10.5692 29.9893 10.6626 29.8964L12.7471 27.8761C13.1395 27.5094 13.75 27.5094 14.1423 27.8761C16.0486 29.677 18.5821 30.6635 21.2043 30.6261C23.914 30.6261 25.7253 29.4802 25.7253 27.6671C25.7253 25.8539 23.892 25.3754 20.4343 24.0847C16.7676 22.7721 13.288 20.9167 13.288 16.5846C13.288 11.5429 17.4753 9.0844 22.4345 8.85523L22.9551 6.29223C23.0034 6.0645 23.1296 5.86075 23.312 5.71615C23.4944 5.57156 23.7216 5.49519 23.9543 5.50024H27.6631L27.8721 5.52224C28.0008 5.54924 28.1228 5.6014 28.2311 5.67571C28.3395 5.75002 28.4322 5.84502 28.5037 5.95525C28.5753 6.06548 28.6243 6.18876 28.6481 6.31801C28.6719 6.44726 28.6698 6.57993 28.6421 6.7084L28.0793 9.5629C29.9703 10.1905 31.7238 11.1737 33.2456 12.4596L33.2878 12.4999C33.6838 12.9179 33.6838 13.5431 33.2878 13.9171L31.35 15.8549Z" stroke="white" stroke-width="1.66667" stroke-linecap="round" stroke-linejoin="round"/>
</svg>
