<svg width="998" height="295" viewBox="0 0 998 295" fill="none" xmlns="http://www.w3.org/2000/svg">
<path d="M402.942 122.916C402.129 123.41 401.16 123.581 400.227 123.397C399.294 123.213 398.464 122.687 397.899 121.922C395.121 117.934 391.394 114.701 387.053 112.515C382.713 110.328 377.897 109.257 373.039 109.398C354.099 109.398 342.473 124.384 342.473 145.787C342.473 167.19 354.312 182.462 373.252 182.462C378.175 182.579 383.046 181.438 387.405 179.147C391.763 176.856 395.465 173.49 398.159 169.369C398.698 168.594 399.507 168.049 400.428 167.843C401.349 167.637 402.314 167.785 403.131 168.256L412.128 173.465C412.62 173.714 413.052 174.066 413.395 174.497C413.738 174.928 413.984 175.428 414.116 175.963C414.249 176.497 414.265 177.054 414.163 177.596C414.06 178.137 413.843 178.65 413.525 179.1C409.126 185.692 403.126 191.06 396.086 194.7C389.047 198.34 381.198 200.133 373.276 199.91C342.994 199.91 322.467 177.94 322.467 145.907C322.467 113.873 342.994 92.1851 372.826 92.1851C380.616 91.9689 388.34 93.6642 395.324 97.1229C402.307 100.582 408.337 105.698 412.886 112.026C413.199 112.452 413.421 112.937 413.538 113.453C413.655 113.968 413.666 114.502 413.568 115.022C413.47 115.541 413.267 116.035 412.97 116.473C412.674 116.91 412.29 117.282 411.844 117.566L402.942 122.916Z" fill="black"/>
<path fill-rule="evenodd" clip-rule="evenodd" d="M469.139 189.753V194.109C469.139 194.621 469.243 195.127 469.443 195.598C469.644 196.069 469.938 196.494 470.308 196.848C470.677 197.202 471.114 197.477 471.593 197.658C472.072 197.838 472.582 197.92 473.093 197.898H482.99C483.487 197.898 483.98 197.8 484.44 197.609C484.899 197.419 485.317 197.14 485.669 196.788C486.02 196.436 486.3 196.019 486.49 195.559C486.68 195.099 486.778 194.607 486.778 194.109V144.627C486.778 126.704 474.041 119.294 456 119.294C445.859 119.317 435.877 121.821 426.926 126.586C426.071 127.062 425.432 127.849 425.141 128.783C424.85 129.717 424.929 130.728 425.363 131.605L428.606 138.376C428.829 138.831 429.142 139.235 429.525 139.566C429.908 139.896 430.355 140.145 430.837 140.298C431.32 140.451 431.828 140.504 432.332 140.454C432.836 140.405 433.324 140.254 433.768 140.01C440.159 136.689 447.235 134.898 454.437 134.778C460.711 134.778 468.122 136.507 468.122 142.922C468.122 149.634 460.015 150.778 450.013 152.19C449.207 152.303 448.401 152.418 447.595 152.535C437.272 153.979 420.533 157.199 420.533 175.974C420.533 191.056 431.448 199.65 447.169 199.65C457.799 199.65 464.405 195.862 469.139 189.753ZM453.624 164.237C459.602 163.188 465.025 162.237 468.122 159.898V168.706C468.122 180.212 459.835 185.16 450.956 185.16C443.806 185.16 438.858 181.964 438.858 175.122C438.858 167.687 444.54 165.864 451.383 164.633C452.136 164.498 452.884 164.367 453.624 164.237Z" fill="black"/>
<path d="M503.043 178.294C503.682 177.551 504.584 177.083 505.56 176.991C506.535 176.898 507.509 177.187 508.276 177.797C514.606 182.577 522.365 185.08 530.295 184.9C538.462 184.9 544.5 182.272 544.5 175.879C544.5 170.055 538.96 168.895 525.56 166.551C511.354 164.183 497.764 159.448 497.764 143.254C497.764 126.373 512.325 119.248 528.921 119.248C539.329 119.093 549.489 122.427 557.782 128.717C558.187 129.034 558.523 129.429 558.769 129.88C559.016 130.331 559.169 130.828 559.217 131.339C559.266 131.851 559.21 132.367 559.053 132.857C558.896 133.346 558.641 133.798 558.303 134.186L553.568 139.75C552.94 140.496 552.05 140.973 551.081 141.084C550.112 141.194 549.138 140.928 548.359 140.342C542.525 136.074 535.463 133.815 528.235 133.902C521.25 133.902 515.142 135.939 515.142 141.455C515.142 147.587 523.713 148.747 532.307 150.215C550.656 153.411 562.304 158.643 562.304 173.891C562.304 189.895 549.496 199.792 529.158 199.792C518.043 200.132 507.157 196.582 498.38 189.753C497.986 189.431 497.66 189.033 497.422 188.584C497.183 188.134 497.036 187.642 496.99 187.135C496.944 186.628 496.999 186.117 497.152 185.632C497.305 185.147 497.553 184.697 497.882 184.308L503.043 178.294ZM573.55 194.109V97.7483C573.55 97.2508 573.648 96.7582 573.839 96.2986C574.029 95.839 574.308 95.4214 574.66 95.0696C575.011 94.7178 575.429 94.4387 575.888 94.2483C576.348 94.058 576.841 93.96 577.338 93.96H588.253C590.345 93.96 592.041 95.6561 592.041 97.7483V130.658C594.759 127.032 598.304 124.108 602.382 122.131C606.459 120.154 610.95 119.181 615.48 119.293C631.627 119.293 641.097 130.799 641.097 147.231V194.109C641.097 194.607 640.999 195.099 640.809 195.559C640.619 196.019 640.34 196.436 639.988 196.788C639.636 197.14 639.219 197.419 638.759 197.609C638.3 197.8 637.807 197.898 637.31 197.898H626.395C625.39 197.898 624.426 197.498 623.716 196.788C623.005 196.078 622.606 195.114 622.606 194.109V151.493C622.606 143.324 619.979 135.914 609.514 135.914C599.594 135.914 592.041 142.899 592.041 154.546V194.133C592.041 195.137 591.642 196.101 590.932 196.811C590.221 197.522 589.258 197.921 588.253 197.921H577.338C576.838 197.924 576.342 197.827 575.879 197.637C575.417 197.446 574.997 197.165 574.644 196.81C574.292 196.455 574.013 196.033 573.826 195.57C573.638 195.106 573.544 194.609 573.55 194.109Z" fill="black"/>
<path fill-rule="evenodd" clip-rule="evenodd" d="M753.347 172.138L761.207 195.341C761.444 196.096 761.912 196.757 762.544 197.233C763.177 197.709 763.942 197.974 764.733 197.993H778.256C778.866 197.995 779.468 197.85 780.01 197.569C780.552 197.289 781.017 196.881 781.368 196.381C781.72 195.882 781.946 195.304 782.026 194.698C782.106 194.092 782.038 193.476 781.828 192.902L746.195 96.5411C745.922 95.8135 745.434 95.1862 744.796 94.7422C744.158 94.2982 743.4 94.0586 742.623 94.055H725.127C724.365 94.046 723.619 94.2672 722.985 94.6897C722.351 95.1123 721.859 95.7163 721.574 96.4229L685.798 192.807C685.589 193.379 685.52 193.993 685.599 194.597C685.677 195.201 685.9 195.777 686.249 196.277C686.597 196.776 687.061 197.184 687.601 197.466C688.14 197.749 688.74 197.897 689.349 197.898H702.155C702.945 197.9 703.715 197.655 704.357 197.196C704.999 196.737 705.481 196.088 705.735 195.341L713.614 172.138H753.347ZM718.402 155.968L733.695 110.842L748.399 155.968H718.402ZM809.267 130.8V124.834C809.294 124.32 809.216 123.807 809.037 123.325C808.858 122.843 808.582 122.403 808.226 122.032C807.872 121.661 807.446 121.365 806.974 121.163C806.502 120.96 805.994 120.857 805.481 120.857H794.563C792.473 120.857 790.777 122.553 790.777 124.645V219.348C790.777 221.44 792.473 223.137 794.563 223.137H805.481C807.571 223.137 809.267 221.44 809.267 219.348V187.93C811.939 191.683 815.502 194.713 819.636 196.746C823.769 198.78 828.344 199.753 832.947 199.579C853.895 199.579 867.438 182.036 867.438 159.33C867.438 136.625 853.895 119.294 832.947 119.294C828.357 119.108 823.792 120.062 819.66 122.069C815.528 124.077 811.958 127.077 809.267 130.8ZM847.999 159.33C847.999 172.565 841.869 183.504 829.061 183.504C816.019 183.504 809.267 172.588 809.267 159.33C809.267 146.071 816.373 135.441 829.061 135.441C841.748 135.441 847.999 146.095 847.999 159.33ZM897.341 130.8V124.833C897.371 124.319 897.295 123.805 897.118 123.322C896.941 122.839 896.667 122.397 896.313 122.024C895.957 121.651 895.529 121.355 895.055 121.154C894.58 120.953 894.07 120.852 893.555 120.856H882.637C881.632 120.856 880.669 121.255 879.959 121.966C879.249 122.676 878.85 123.639 878.85 124.643V219.348C878.85 221.44 880.547 223.135 882.637 223.135H893.555C895.645 223.135 897.341 221.44 897.341 219.348V187.929C900.016 191.679 903.58 194.706 907.712 196.739C911.845 198.772 916.418 199.747 921.021 199.578C941.996 199.578 955.538 182.034 955.538 159.329C955.538 136.624 941.996 119.293 921.021 119.293C916.431 119.111 911.868 120.067 907.737 122.074C903.606 124.082 900.034 127.079 897.341 130.8ZM936.099 159.329C936.099 172.564 929.969 183.502 917.161 183.502C904.186 183.502 897.341 172.587 897.341 159.329C897.341 146.07 904.467 135.44 917.161 135.44C929.849 135.44 936.099 146.094 936.099 159.329Z" fill="black"/>
<path fill-rule="evenodd" clip-rule="evenodd" d="M165.709 43.6729C186.355 43.6729 196.512 43.6729 207.663 47.1767C213.648 49.3438 219.083 52.8 223.583 57.3005C228.084 61.801 231.54 67.2358 233.707 73.2202C237.211 84.2773 237.211 94.5291 237.211 115.079V176.921C237.211 197.448 237.211 207.699 233.707 218.78C231.54 224.764 228.083 230.199 223.583 234.7C219.082 239.2 213.648 242.656 207.663 244.823C196.606 248.327 186.355 248.327 165.804 248.327H103.773C83.2462 248.327 72.9951 248.327 61.9139 244.823C55.9296 242.656 50.4947 239.2 45.9942 234.7C41.4937 230.199 38.0376 224.764 35.8705 218.78C32.4614 207.723 32.4614 197.566 32.4614 176.921V114.985C32.4614 94.4577 32.4614 84.2072 35.9653 73.1254C38.1323 67.1409 41.5884 61.7061 46.0889 57.2055C50.5895 52.705 56.0243 49.2489 62.0088 47.0819C72.9711 43.6729 83.2462 43.6729 103.774 43.6729H165.709Z" fill="#00D54B"/>
<path d="M139.95 110.747C150.008 110.763 159.737 114.336 167.414 120.833C168.207 121.551 169.245 121.939 170.314 121.917C171.384 121.895 172.405 121.465 173.167 120.715L181.075 112.784C181.472 112.39 181.783 111.919 181.988 111.399C182.194 110.88 182.29 110.324 182.27 109.765C182.25 109.207 182.114 108.659 181.872 108.155C181.63 107.652 181.286 107.204 180.862 106.84C174.651 101.557 167.47 97.5364 159.719 95.0032L162.087 83.3304C162.21 82.7305 162.198 82.1108 162.051 81.5163C161.904 80.9219 161.627 80.3675 161.239 79.8936C160.852 79.4197 160.363 79.0382 159.809 78.7767C159.256 78.5153 158.651 78.3805 158.039 78.3821H142.815C141.872 78.3812 140.956 78.7022 140.22 79.2921C139.484 79.8819 138.971 80.7053 138.766 81.6262L136.635 92.067C116.369 93.0619 99.1802 103.1 99.1802 123.674C99.1802 141.455 113.386 149.102 128.396 154.453C142.601 159.733 150.131 161.699 150.131 169.132C150.131 176.566 142.625 181.254 131.569 181.254C120.839 181.425 110.472 177.369 102.708 169.962C101.938 169.204 100.9 168.779 99.8196 168.779C98.739 168.779 97.7016 169.204 96.9311 169.962L88.455 178.247C88.059 178.629 87.744 179.087 87.5289 179.593C87.3138 180.1 87.2029 180.644 87.2029 181.194C87.2029 181.745 87.3138 182.289 87.5289 182.796C87.744 183.302 88.059 183.76 88.455 184.142C95.3611 190.611 103.79 195.228 112.959 197.566L110.592 208.387C110.467 208.991 110.476 209.616 110.619 210.216C110.762 210.817 111.035 211.379 111.419 211.862C111.802 212.345 112.288 212.738 112.841 213.014C113.393 213.289 114 213.439 114.617 213.454H129.888C130.838 213.459 131.762 213.137 132.503 212.542C133.245 211.947 133.759 211.115 133.96 210.186L136.162 199.934C160.453 198.443 175.298 185.374 175.298 166.244C175.298 148.629 160.501 141.195 142.531 135.134C132.255 131.274 123.377 128.741 123.377 121.117C123.377 113.494 131.663 110.747 139.95 110.747Z" fill="white"/>
</svg>
