<?xml version="1.0" encoding="UTF-8" standalone="no"?>
<!DOCTYPE svg PUBLIC "-//W3C//DTD SVG 1.1//EN" "http://www.w3.org/Graphics/SVG/1.1/DTD/svg11.dtd">
<svg width="70" height="50" viewBox="0 0 769 473" version="1.1" xmlns="http://www.w3.org/2000/svg" xmlns:xlink="http://www.w3.org/1999/xlink" xml:space="preserve" xmlns:serif="http://www.serif.com/" style="fill-rule:evenodd;clip-rule:evenodd;stroke-linejoin:round;stroke-miterlimit:2;">
    <g transform="matrix(1,0,0,1,-575.597,-279.5)">
        <g transform="matrix(1,0,0,1,515.597,221)">
            <path d="M663,295L601.748,295C594.935,295 589.393,289.572 589.393,282.777C589.393,275.982 594.936,270 601.748,270L695,270L695,224L601.748,224C569.201,224 542.72,250.534 542.72,283C542.72,315.466 569.201,342 601.748,342L662.168,342C668.981,342 674.524,347.406 674.524,354.201C674.524,360.996 668.98,366 662.168,366L532.605,366C521.605,387 510.91,405 489.197,414L663,414C695,413.539 721.176,386.458 721.176,354.279C721.176,322.102 695,295.461 663,295" style="fill:rgb(113,112,111);fill-rule:nonzero;"/>
            <path d="M428.197,224C376.283,224 334,266.535 334,318.8L334,516L381,516L381,414L428.099,414C480.014,414 522.148,370.899 522.148,318.634C522.147,266.369 480.113,224 428.197,224M428.197,366L381,366L381,318.634C381,292.166 402.073,270.632 428.197,270.632C454.322,270.632 475.574,292.166 475.574,318.634C475.574,345.103 454.322,366 428.197,366" style="fill:rgb(113,112,111);fill-rule:nonzero;"/>
            <path d="M185.203,414C140.763,414 103.401,382.333 93.291,340.963C93.291,340.963 90.37,327.285 90.37,318.278C90.37,309.271 93.135,295.452 93.135,295.452C103.318,254.184 140.634,223.454 185.001,223.454C237.182,223.454 280,265.872 280,318.052L280,341L141.365,341C149.552,357 166.109,366 185.203,366L309.829,366L310,230.681C310,210.506 293.495,194 273.32,194L96.682,194C76.507,194 60,210.006 60,230.181L60,406.819C60,426.994 76.507,444 96.682,444L273.32,444C291.425,444 306.528,431 309.446,414L185.203,414Z" style="fill:rgb(200,3,111);fill-rule:nonzero;"/>
            <path d="M185,268.356C165.98,268.356 149.439,280 141.219,295L228.783,295C220.563,280 204.023,268.356 185,268.356" style="fill:rgb(200,3,111);fill-rule:nonzero;"/>
            <path d="M265,136.559C265,93.448 229.172,58.5 184.977,58.5C141.514,58.5 106.165,92.305 105.004,134.428C104.985,134.606 105,134.779 105,134.962L105,158.42C105,161.226 107.285,164 110.161,164L139.602,164C142.478,164 145,161.226 145,158.42L145,136.559C145,115.031 162.93,97.516 185,97.516C207.07,97.516 225,115.031 225,136.559L225,158.42C225,161.226 227.333,164 230.209,164L259.651,164C262.527,164 265,161.226 265,158.42L265,136.559Z" style="fill:rgb(200,3,111);fill-rule:nonzero;"/>
            <path d="M480.928,475.001L476.672,499.099C474.544,511.279 466.563,516.857 455.745,516.857C446.583,516.857 439.489,510.885 441.558,499.119L445.813,475.002L452.376,475.002L448.118,499.1C446.817,506.611 450.187,510.887 456.572,510.887C463.134,510.887 468.75,506.984 470.108,499.119L474.365,475.002L480.928,475.002L480.928,475.001ZM455.153,467.455C455.153,469.465 456.691,470.409 458.346,470.409C460.415,470.409 462.662,468.932 462.662,466.154C462.662,464.204 461.359,463.2 459.645,463.2C457.52,463.2 455.153,464.559 455.153,467.455M469.342,467.396C469.342,469.464 470.938,470.409 472.653,470.409C474.485,470.409 476.91,468.932 476.91,466.214C476.91,464.265 475.489,463.2 473.894,463.2C471.766,463.2 469.342,464.559 469.342,467.396" style="fill:rgb(113,112,111);fill-rule:nonzero;"/>
            <path d="M496.787,475L493.831,491.651C496.372,488.224 501.456,486.413 505.003,486.413C512.333,486.413 517.417,490.708 517.417,498.686C517.417,509.977 509.555,516.767 499.507,516.767C495.605,516.767 492.293,515.317 490.284,511.653L489.161,516L483.427,516L490.698,475L496.787,475ZM492.177,503.102C491.941,507.949 495.073,511.082 499.624,511.082C505.358,511.082 510.914,506.646 511.27,499.91C511.506,495.003 508.315,492.105 503.879,492.105C498.204,492.105 492.529,496.658 492.177,503.102" style="fill:rgb(113,112,111);fill-rule:nonzero;"/>
            <path d="M529.371,504C529.134,508 532.267,511.266 537.588,511.266C540.544,511.266 544.444,510.111 546.572,508.101L549.883,511.927C546.279,515.236 540.957,516.882 536.465,516.882C528.072,516.882 523.164,511.856 523.164,504.17C523.164,493.943 531.203,486.322 541.488,486.322C550.888,486.322 556.209,492 553.016,504L529.371,504ZM548.051,499C548.524,494 545.569,491.965 540.661,491.965C536.228,491.965 532.15,494 530.375,499L548.051,499Z" style="fill:rgb(113,112,111);fill-rule:nonzero;"/>
            <path d="M569.283,487L568.986,490.855C571.826,487.126 575.254,486.367 578.385,486.367C581.222,486.367 583.763,487.374 585.124,488.85L581.46,494.171C580.159,492.992 578.858,492.401 576.611,492.401C572.414,492.401 568.277,494.918 567.331,500.297L564.555,516L558.465,516L563.608,487L569.283,487Z" style="fill:rgb(113,112,111);fill-rule:nonzero;"/>
            <path d="M614.455,487L617.528,509.934L628.642,487L635.439,487L620.188,516L613.036,516L610.14,496.869L605.469,506.373L600.386,516L593.292,516L588.148,487L595.006,487L598.021,509.934L609.193,487L614.455,487Z" style="fill:rgb(113,112,111);fill-rule:nonzero;"/>
            <path d="M643.259,504C643.022,508 646.155,511.266 651.476,511.266C654.432,511.266 658.332,510.111 660.459,508.101L663.771,511.927C660.167,515.236 654.845,516.882 650.353,516.882C641.959,516.882 637.052,511.856 637.052,504.17C637.052,493.943 645.091,486.322 655.377,486.322C664.776,486.322 670.097,492 666.904,504L643.259,504ZM661.938,499C662.411,494 659.456,491.965 654.548,491.965C650.116,491.965 646.037,494 644.262,499L661.938,499Z" style="fill:rgb(113,112,111);fill-rule:nonzero;"/>
            <path d="M683.585,487L678.443,516L672.353,516L677.497,487L683.585,487ZM678.206,479.1C678.206,481.168 679.744,482.237 681.399,482.237C683.763,482.237 685.951,480.697 685.951,477.802C685.951,475.849 684.472,474.725 682.877,474.725C680.688,474.725 678.206,476.146 678.206,479.1" style="fill:rgb(113,112,111);fill-rule:nonzero;"/>
            <path d="M710.605,494.174C708.712,492.046 706.291,491.455 703.394,491.455C699.372,491.455 696.536,492.815 696.536,495.356C696.536,497.484 698.841,498.374 702.27,498.668C707.59,499.14 714.388,500.915 712.969,508.422C711.965,513.86 706.526,517.052 698.958,517.052C694.23,517.052 689.678,515.987 686.604,511.673L690.564,507.358C692.751,510.371 696.594,511.614 700.022,511.673C702.918,511.673 706.348,510.609 706.879,507.89C707.411,505.289 705.106,504.285 700.85,503.869C695.884,503.396 690.447,501.566 690.447,496.067C690.447,488.796 698.307,486.254 704.22,486.254C708.711,486.254 712.023,487.258 714.742,490.155L710.605,494.174Z" style="fill:rgb(113,112,111);fill-rule:nonzero;"/>
            <path d="M729.824,487L727.048,502.617C726.161,507.584 728.408,511.015 733.49,511.015C738.278,511.015 742.357,507.048 743.183,502.202L745.843,487L751.932,487L746.791,516L741.293,516L741.706,511.798C738.277,515.049 734.907,516.582 730.83,516.582C723.677,516.582 719.421,511.454 720.957,502.649L723.736,487L729.824,487Z" style="fill:rgb(113,112,111);fill-rule:nonzero;"/>
            <path d="M778.665,516L781.443,500.478C782.329,495.453 780.617,492.124 775.059,492.124C770.212,492.124 766.131,496.023 765.305,500.811L762.645,516L756.557,516L761.702,487L767.257,487L766.844,491.238C770.214,488.105 773.7,486.559 777.482,486.559C784.578,486.559 789.189,491.495 787.594,500.422L784.813,516L778.665,516Z" style="fill:rgb(113,112,111);fill-rule:nonzero;"/>
            <path d="M799.303,520C798.89,524 801.963,525.618 807.109,525.618C811.602,525.618 816.45,523.109 817.573,516.726L818.458,511.746C815.799,515.47 810.951,516.94 807.347,516.94C799.897,516.94 794.696,512.504 794.696,504.462C794.696,492.996 803.207,486.373 812.842,486.373C816.923,486.373 820.588,488.311 821.889,491.621L822.895,486.999L828.805,486.999L823.72,516.861C821.83,527.917 813.613,531.347 806.106,531.347C797.119,531.347 792.156,526.998 793.395,519.998L799.303,519.998L799.303,520ZM801.018,503.28C801.018,508.243 804.27,511.259 808.943,511.259C821.531,511.259 824.902,491.929 812.309,491.929C806.338,491.93 801.018,496.361 801.018,503.28" style="fill:rgb(113,112,111);fill-rule:nonzero;"/>
        </g>
    </g>
</svg>
