<svg width="94" height="41" viewBox="0 0 94 41" fill="none" xmlns="http://www.w3.org/2000/svg">
<g clip-path="url(#clip0_47_907)">
<path d="M0.480713 7.67249C0.480713 3.71344 3.71435 0.5 7.6934 0.5H86.2771C90.2561 0.5 93.4897 3.71344 93.4897 7.67249V33.317C93.4897 37.2761 90.2666 40.4895 86.2771 40.4895H7.6934C3.71435 40.5 0.480713 37.2866 0.480713 33.3275V7.67249Z" fill="#1A1A2D" fill-opacity="0.25"/>
<path d="M3 33.4015V7.59846C3 5.05692 5.03034 3 7.53655 3H49V38H7.53655C5.03034 38 3 35.9431 3 33.4015Z" fill="#3474EE"/>
<path d="M59.757 20.3794C59.757 21.9861 58.9696 23.0782 57.6573 23.0782C56.5024 23.0782 55.5365 21.9756 55.5365 20.5054C55.5365 19.0037 56.3869 17.88 57.6573 17.88C59.0011 17.8905 59.757 19.0457 59.757 20.3794ZM52.0509 29.5681H55.526V24.1074H55.568C56.2294 25.3045 57.5418 25.7456 58.7492 25.7456C61.7413 25.7456 63.3371 23.2778 63.3371 20.3058C63.3371 17.8695 61.8148 15.2336 59.0326 15.2336C57.4473 15.2336 55.988 15.8742 55.2845 17.2814H55.2425V15.4647H52.0404V29.5681H52.0509ZM68.0826 22.3221C68.0826 21.356 69.0065 20.9884 70.1824 20.9884C70.7073 20.9884 71.2008 21.0199 71.6522 21.0409C71.6522 22.2171 70.8228 23.4143 69.5104 23.4143C68.702 23.4248 68.0826 23.0257 68.0826 22.3221ZM75.0958 25.5146C74.9383 24.727 74.9068 23.9288 74.9068 23.1412V19.3922C74.9068 16.3258 72.6916 15.2231 70.1194 15.2231C68.639 15.2231 67.3372 15.4332 66.1088 15.9372L66.1718 18.2896C67.1377 17.7435 68.2506 17.5335 69.374 17.5335C70.6233 17.5335 71.6522 17.901 71.6732 19.2767C71.2322 19.2032 70.6128 19.1402 70.0564 19.1402C68.2086 19.1402 64.87 19.5077 64.87 22.5742C64.87 24.7585 66.6443 25.7351 68.6285 25.7351C70.0564 25.7351 71.0223 25.1785 71.8097 23.9183H71.8517C71.8517 24.4434 71.9042 24.958 71.9252 25.5041H75.0958V25.5146ZM76.6496 29.5681C77.3636 29.7256 78.0775 29.7991 78.8124 29.7991C81.9935 29.7991 82.7495 27.3418 83.7363 24.8215L87.4214 15.4647H83.9463L81.8781 22.0281H81.8465L79.6838 15.4647H75.9462L80.0198 25.7561C79.7678 26.6487 79.1169 27.1423 78.2665 27.1423C77.7835 27.1423 77.3636 27.0793 76.8911 26.9323L76.6496 29.5681Z" fill="white"/>
<path d="M11.9245 20.4004C11.9245 19.0247 12.5964 17.8906 13.8982 17.8906C15.4626 17.8906 16.1135 19.1402 16.1135 20.2639C16.1135 21.8076 15.1266 22.8473 13.8982 22.8473C12.8484 22.8473 11.9245 21.9651 11.9245 20.4004ZM19.4731 15.4542H16.3235V17.271H16.292C15.557 16.0318 14.3602 15.2232 12.8798 15.2232C9.7512 15.2232 8.34436 17.46 8.34436 20.4529C8.34436 23.4248 10.0662 25.5146 12.8169 25.5146C14.2132 25.5146 15.3681 24.9685 16.1975 23.7924H16.2395V24.3385C16.2395 26.3022 15.1581 27.2474 13.1528 27.2474C11.704 27.2474 10.8116 26.9428 9.7512 26.4177L9.57272 29.1586C10.3811 29.4527 11.7565 29.7992 13.4153 29.7992C17.4678 29.7992 19.4731 28.4655 19.4731 24.3385V15.4542ZM25.3419 11.2642H21.8668V13.816H25.3419V11.2642ZM21.8668 25.5146H25.3419V15.4542H21.8668V25.5146ZM35.0114 15.3387C34.6649 15.2862 34.2344 15.2232 33.8355 15.2232C32.3342 15.2232 31.4628 16.0318 30.8643 17.313H30.8223V15.4647H27.6622V25.5251H31.1373V21.2825C31.1373 19.3083 32.0507 18.1321 33.6675 18.1321C34.077 18.1321 34.4549 18.1321 34.8434 18.2476L35.0114 15.3387ZM40.9957 23.3093C39.3894 23.3093 38.7384 21.9756 38.7384 20.4949C38.7384 18.9932 39.3894 17.6595 40.9957 17.6595C42.602 17.6595 43.2529 18.9932 43.2529 20.4949C43.2529 21.9756 42.5915 23.3093 40.9957 23.3093ZM40.9957 25.7457C44.3133 25.7457 46.8435 23.8134 46.8435 20.4949C46.8435 17.1555 44.3133 15.2232 40.9957 15.2232C37.6781 15.2232 35.1478 17.1555 35.1478 20.4949C35.1478 23.8134 37.6676 25.7457 40.9957 25.7457Z" fill="white"/>
</g>
<defs>
<clipPath id="clip0_47_907">
<rect width="93" height="40" fill="white" transform="translate(0.47998 0.5)"/>
</clipPath>
</defs>
</svg>
