<svg width="74" height="31" viewBox="0 0 74 31" fill="none" xmlns="http://www.w3.org/2000/svg">
<g clip-path="url(#clip0_70_2267)">
<path d="M0.000976562 5.55868C0.000976562 2.49042 2.57398 0 5.7401 0H68.269C71.4352 0 74.0082 2.49042 74.0082 5.55868V25.4332C74.0082 28.5014 71.4435 30.9919 68.269 30.9919H5.7401C2.57398 31 0.000976562 28.5096 0.000976562 25.4413V5.55868Z" fill="#000268"/>
<path d="M2.35645 5.754V25.2541C2.35645 27.1748 3.96039 28.7293 5.94027 28.7293H38.6959V2.27881H5.94027C3.96039 2.27881 2.35645 3.83328 2.35645 5.754ZM47.1668 15.4064C47.1668 16.6516 46.5402 17.498 45.496 17.498C44.577 17.498 43.8085 16.6435 43.8085 15.5041C43.8085 14.3402 44.4852 13.4694 45.496 13.4694C46.5653 13.4775 47.1668 14.3728 47.1668 15.4064ZM41.035 22.5277H43.8001V18.2956H43.8336C44.3598 19.2234 45.4041 19.5652 46.3648 19.5652C48.7456 19.5652 50.0154 17.6527 50.0154 15.3494C50.0154 13.4613 48.8041 11.4185 46.5903 11.4185C45.3289 11.4185 44.1677 11.9149 43.608 13.0055H43.5746V11.5975H41.0266V22.5277H41.035ZM53.7914 16.912C53.7914 16.1633 54.5265 15.8784 55.4622 15.8784C55.8799 15.8784 56.2725 15.9029 56.6317 15.9191C56.6317 16.8307 55.9718 17.7585 54.9275 17.7585C54.2843 17.7666 53.7914 17.4573 53.7914 16.912ZM59.3718 19.3862C59.2465 18.7758 59.2214 18.1573 59.2214 17.5469V14.6414C59.2214 12.2649 57.4588 11.4103 55.4121 11.4103C54.2342 11.4103 53.1983 11.5731 52.2209 11.9638L52.271 13.7868C53.0395 13.3636 53.9251 13.2008 54.8189 13.2008C55.813 13.2008 56.6317 13.4857 56.6484 14.5518C56.2976 14.4949 55.8047 14.446 55.3619 14.446C53.8916 14.446 51.2351 14.7309 51.2351 17.1074C51.2351 18.8002 52.6469 19.5571 54.2258 19.5571C55.3619 19.5571 56.1305 19.1257 56.757 18.1491H56.7904C56.7904 18.556 56.8322 18.9548 56.8489 19.378H59.3718V19.3862ZM60.6082 22.5277C61.1762 22.6498 61.7443 22.7067 62.3291 22.7067C64.8603 22.7067 65.4618 20.8023 66.2471 18.849L69.1793 11.5975H66.4141L64.7684 16.6842H64.7434L63.0225 11.5975H60.0485L63.2898 19.5734C63.0893 20.2652 62.5713 20.6477 61.8947 20.6477C61.5104 20.6477 61.1762 20.5988 60.8003 20.4849L60.6082 22.5277Z" fill="white"/>
<path d="M9.10649 15.4226C9.10649 14.3565 9.64114 13.4775 10.677 13.4775C11.9218 13.4775 12.4397 14.446 12.4397 15.3168C12.4397 16.5132 11.6544 17.3189 10.677 17.3189C9.84163 17.3189 9.10649 16.6353 9.10649 15.4226ZM15.1129 11.5893H12.6068V12.9973H12.5817C11.9969 12.037 11.0446 11.4103 9.8667 11.4103C7.37723 11.4103 6.25781 13.1438 6.25781 15.4633C6.25781 17.7666 7.62785 19.3861 9.81657 19.3861C10.9276 19.3861 11.8466 18.9629 12.5065 18.0514H12.5399V18.4746C12.5399 19.9965 11.6795 20.729 10.0839 20.729C8.93106 20.729 8.22098 20.493 7.37723 20.0861L7.23522 22.2102C7.87847 22.4381 8.97283 22.7067 10.2927 22.7067C13.5173 22.7067 15.1129 21.6731 15.1129 18.4746V11.5893ZM19.7828 8.34204H17.0176V10.3197H19.7828V8.34204ZM17.0176 19.3861H19.7828V11.5893H17.0176V19.3861ZM27.4767 11.4998C27.201 11.4591 26.8585 11.4103 26.5411 11.4103C25.3465 11.4103 24.6531 12.037 24.1769 13.0299H24.1435V11.5975H21.629V19.3943H24.3941V16.1063C24.3941 14.5762 25.1209 13.6647 26.4074 13.6647C26.7332 13.6647 27.034 13.6647 27.3431 13.7542L27.4767 11.4998ZM32.2384 17.677C30.9603 17.677 30.4423 16.6434 30.4423 15.4959C30.4423 14.3321 30.9603 13.2985 32.2384 13.2985C33.5166 13.2985 34.0345 14.3321 34.0345 15.4959C34.0345 16.6434 33.5082 17.677 32.2384 17.677ZM32.2384 19.5652C34.8783 19.5652 36.8916 18.0677 36.8916 15.4959C36.8916 12.9078 34.8783 11.4103 32.2384 11.4103C29.5986 11.4103 27.5853 12.9078 27.5853 15.4959C27.5853 18.0677 29.5903 19.5652 32.2384 19.5652Z" fill="#FF0007"/>
</g>
<defs>
<clipPath id="clip0_70_2267">
<rect width="74" height="31" fill="white"/>
</clipPath>
</defs>
</svg>
