<svg width="48" height="47" viewBox="0 0 48 47" fill="none" xmlns="http://www.w3.org/2000/svg">
<g clip-path="url(#clip0_47_862)">
<path d="M8.24081 14.1685C6.8021 14.1686 5.39173 14.5686 4.1672 15.3238C2.94267 16.0791 1.95219 17.1599 1.30635 18.4455C0.762951 19.5268 0.47995 20.7202 0.47995 21.9303C0.47995 23.1405 0.762951 24.3339 1.30635 25.4152C1.95219 26.7008 2.94267 27.7816 4.1672 28.5368C5.39173 29.2921 6.8021 29.6921 8.24081 29.6922C10.3362 29.6922 12.0987 29.0028 13.3853 27.8181C14.8502 26.4668 15.6962 24.4693 15.6962 22.1075C15.6957 21.5785 15.6499 21.0504 15.5591 20.5291H8.24276V23.5176H12.4336C12.3483 23.9949 12.1672 24.4501 11.9014 24.8556C11.6355 25.2612 11.2903 25.6087 10.8865 25.8773C10.1893 26.3493 9.29243 26.6196 8.24276 26.6196C6.21785 26.6196 4.50039 25.2546 3.88547 23.4157C3.56071 22.4521 3.56071 21.4086 3.88547 20.4449C4.50039 18.6041 6.21785 17.2411 8.24276 17.2411C9.34923 17.223 10.4184 17.6408 11.2194 18.4043L13.4363 16.1914C12.0316 14.8712 10.1703 14.1462 8.24276 14.1685H8.24081ZM20.9719 15.2456V28.7581H22.707V23.2845H25.576C26.7568 23.2845 27.7497 22.9007 28.5566 22.133C28.9582 21.773 29.2773 21.3304 29.4919 20.8355C29.7065 20.3407 29.8117 19.8053 29.8001 19.266C29.8083 18.7295 29.7015 18.1975 29.487 17.7057C29.2725 17.2139 28.9553 16.7737 28.5566 16.4147C28.1617 16.0323 27.695 15.7319 27.1834 15.5309C26.6718 15.3299 26.1255 15.2323 25.576 15.2436L20.9719 15.2456ZM25.7248 16.9101C26.0276 16.9154 26.3263 16.9814 26.6031 17.1042C26.8799 17.227 27.1293 17.404 27.3365 17.6249C27.5572 17.8395 27.7325 18.0962 27.8523 18.3798C27.9721 18.6633 28.0338 18.968 28.0338 19.2758C28.0338 19.5836 27.9721 19.8883 27.8523 20.1718C27.7325 20.4554 27.5572 20.7121 27.3365 20.9267C27.1147 21.1564 26.8473 21.3372 26.5516 21.4576C26.2559 21.578 25.9382 21.6353 25.6191 21.6258H22.707V16.9101H25.6191C25.6543 16.9093 25.6896 16.9093 25.7248 16.9101ZM33.801 19.2112C32.1521 19.2112 30.9085 19.8143 30.0664 21.0226L31.5959 21.9842C32.1599 21.1676 32.9276 20.7583 33.8969 20.7583C34.5154 20.7507 35.114 20.9765 35.5733 21.3908C35.7994 21.5778 35.981 21.8127 36.105 22.0786C36.229 22.3445 36.2922 22.6347 36.29 22.9281V23.3237C35.6242 22.9457 34.7743 22.7577 33.7442 22.7577C32.5359 22.7577 31.5704 23.0417 30.8478 23.6076C30.1232 24.1716 29.7629 24.9334 29.7629 25.8891C29.755 26.3192 29.8432 26.7456 30.0211 27.1372C30.199 27.5288 30.462 27.8759 30.791 28.1529C31.4764 28.7561 32.3283 29.0596 33.3466 29.0596C34.5412 29.0596 35.4969 28.5309 36.2156 27.4734H36.29V28.7561H37.9507V23.0593C37.9507 21.8647 37.5786 20.9247 36.8383 20.2393C36.0942 19.5539 35.0837 19.2112 33.801 19.2112ZM38.2327 19.5128L42.0436 28.1725L39.8933 32.8333H41.6852L47.4799 19.5108H45.5901L42.9111 26.1515H42.872L40.1186 19.5128H38.2327ZM34.0301 24.1501C34.9975 24.1501 35.7534 24.3655 36.2939 24.7963C36.2939 25.5248 36.0061 26.1593 35.4323 26.7018C34.9144 27.2198 34.2123 27.5114 33.4798 27.5126C32.9904 27.5219 32.5129 27.3613 32.1286 27.0582C31.9497 26.9288 31.8044 26.7586 31.7046 26.5618C31.6048 26.3649 31.5534 26.147 31.5548 25.9263C31.5548 25.423 31.7898 25.0059 32.2656 24.6593C32.7356 24.3205 33.3231 24.1501 34.0281 24.1501H34.0301Z" fill="white"/>
</g>
<defs>
<clipPath id="clip0_47_862">
<rect width="47" height="47" fill="white" transform="translate(0.479919)"/>
</clipPath>
</defs>
</svg>
