<svg width="90" height="37" viewBox="0 0 90 37" fill="none" xmlns="http://www.w3.org/2000/svg">
<g clip-path="url(#clip0_370_4219)">
<path d="M6.10961 11.154C4.97701 11.154 3.86672 11.4689 2.90273 12.0635C1.93874 12.6581 1.159 13.5089 0.650569 14.521C0.222788 15.3722 0 16.3117 0 17.2644C0 18.217 0.222788 19.1565 0.650569 20.0077C1.159 21.0198 1.93874 21.8706 2.90273 22.4652C3.86672 23.0598 4.97701 23.3747 6.10961 23.3747C7.75919 23.3747 9.14669 22.8321 10.1596 21.8994C11.3127 20.8356 11.9787 19.2631 11.9787 17.4039C11.9784 16.9874 11.9423 16.5716 11.8708 16.1613H6.11115V18.5139H9.41032C9.34316 18.8897 9.20064 19.248 8.99133 19.5673C8.78202 19.8865 8.51025 20.1601 8.1924 20.3716C7.64357 20.7431 6.93749 20.9559 6.11115 20.9559C4.51707 20.9559 3.16503 19.8813 2.68094 18.4337C2.42528 17.6751 2.42528 16.8536 2.68094 16.095C3.16503 14.6458 4.51707 13.5728 6.11115 13.5728C6.9822 13.5586 7.8239 13.8875 8.45449 14.4886L10.1997 12.7465C9.09388 11.7072 7.62859 11.1364 6.11115 11.154H6.10961ZM16.132 12.0019V22.6394H17.4979V18.3304H19.7564C20.6861 18.3304 21.4677 18.0282 22.1029 17.4239C22.4191 17.1405 22.6702 16.7921 22.8392 16.4025C23.0082 16.0129 23.0909 15.5914 23.0818 15.1669C23.0882 14.7446 23.0042 14.3258 22.8354 13.9386C22.6665 13.5514 22.4167 13.2049 22.1029 12.9222C21.792 12.6212 21.4246 12.3848 21.0219 12.2265C20.6192 12.0683 20.1891 11.9914 19.7564 12.0003L16.132 12.0019ZM19.8736 13.3123C20.112 13.3164 20.3471 13.3684 20.565 13.4651C20.783 13.5617 20.9793 13.7011 21.1424 13.875C21.3161 14.044 21.4542 14.246 21.5485 14.4692C21.6427 14.6925 21.6913 14.9323 21.6913 15.1746C21.6913 15.4169 21.6427 15.6568 21.5485 15.88C21.4542 16.1032 21.3161 16.3053 21.1424 16.4742C20.9678 16.6551 20.7573 16.7974 20.5245 16.8922C20.2917 16.987 20.0416 17.0321 19.7904 17.0246H17.4979V13.3123H19.7904C19.8181 13.3116 19.8459 13.3116 19.8736 13.3123ZM26.2314 15.1237C24.9334 15.1237 23.9544 15.5986 23.2915 16.5498L24.4955 17.3067C24.9395 16.6639 25.5439 16.3417 26.307 16.3417C26.7939 16.3357 27.2651 16.5135 27.6267 16.8396C27.8047 16.9868 27.9476 17.1718 28.0452 17.3811C28.1428 17.5904 28.1926 17.8189 28.1909 18.0498V18.3612C27.6667 18.0637 26.9977 17.9157 26.1867 17.9157C25.2355 17.9157 24.4755 18.1392 23.9066 18.5848C23.3362 19.0288 23.0525 19.6285 23.0525 20.3808C23.0463 20.7194 23.1158 21.0551 23.2558 21.3634C23.3958 21.6717 23.6029 21.9449 23.8619 22.163C24.4015 22.6378 25.0721 22.8768 25.8738 22.8768C26.8142 22.8768 27.5665 22.4605 28.1323 21.628H28.1909V22.6378H29.4982V18.1531C29.4982 17.2127 29.2053 16.4727 28.6226 15.9331C28.0367 15.3935 27.2412 15.1237 26.2314 15.1237ZM29.7202 15.3612L32.7203 22.1784L31.0276 25.8476H32.4382L37 15.3596H35.5123L33.4033 20.5874H33.3724L31.2049 15.3612H29.7202ZM26.4118 19.0118C27.1734 19.0118 27.7685 19.1814 28.194 19.5206C28.194 20.0941 27.9674 20.5936 27.5157 21.0206C27.108 21.4284 26.5552 21.6579 25.9786 21.6589C25.5933 21.6662 25.2174 21.5398 24.9149 21.3012C24.7741 21.1994 24.6596 21.0654 24.5811 20.9104C24.5025 20.7554 24.4621 20.5839 24.4632 20.4101C24.4632 20.0139 24.6482 19.6855 25.0228 19.4127C25.3928 19.146 25.8553 19.0118 26.4103 19.0118H26.4118Z" fill="black"/>
</g>
<g clip-path="url(#clip1_370_4219)">
<path d="M53.1802 11.3121C52.6555 11.9179 51.816 12.3956 50.9764 12.3274C50.8715 11.5083 51.2825 10.6381 51.7635 10.1006C52.2882 9.47778 53.2064 9.03413 53.9497 9C54.0372 9.85318 53.6961 10.6893 53.1802 11.3121ZM53.941 12.4895C52.7254 12.4212 51.6848 13.1635 51.1076 13.1635C50.5217 13.1635 49.6385 12.5236 48.6765 12.5407C47.426 12.5578 46.2629 13.2488 45.6245 14.3494C44.3128 16.5506 45.2835 19.8098 46.5515 21.6014C47.1724 22.4887 47.9157 23.4614 48.8951 23.4272C49.8221 23.3931 50.1894 22.8386 51.3088 22.8386C52.4369 22.8386 52.7604 23.4272 53.7399 23.4102C54.7543 23.3931 55.3927 22.5229 56.0136 21.6356C56.7219 20.6288 57.0105 19.6477 57.028 19.5965C57.0105 19.5794 55.0691 18.8542 55.0516 16.6701C55.0341 14.8443 56.582 13.974 56.6519 13.9228C55.7774 12.6601 54.4132 12.5236 53.941 12.4895ZM60.9632 10.0153V23.3163H63.0795V18.7689H66.0091C68.6851 18.7689 70.5652 16.9772 70.5652 14.3836C70.5652 11.7899 68.72 10.0153 66.079 10.0153H60.9632ZM63.0795 11.7558H65.5194C67.3558 11.7558 68.4052 12.7113 68.4052 14.3921C68.4052 16.0728 67.3558 17.0369 65.5106 17.0369H63.0795V11.7558ZM74.4305 23.4187C75.7598 23.4187 76.9928 22.7618 77.5525 21.7209H77.5962V23.3163H79.5551V16.6957C79.5551 14.776 77.981 13.5389 75.5586 13.5389C73.3112 13.5389 71.6496 14.7931 71.5884 16.5165H73.4948C73.6522 15.6974 74.4305 15.1599 75.4974 15.1599C76.7917 15.1599 77.5175 15.7486 77.5175 16.8322V17.5659L74.8765 17.7195C72.4192 17.8645 71.0899 18.8457 71.0899 20.552C71.0899 22.2755 72.4629 23.4187 74.4305 23.4187ZM74.9989 21.8403C73.8708 21.8403 73.1537 21.3114 73.1537 20.5008C73.1537 19.6647 73.8446 19.1784 75.1651 19.1016L77.5175 18.9566V19.7074C77.5175 20.953 76.4331 21.8403 74.9989 21.8403ZM82.1698 26.9338C84.2337 26.9338 85.2043 26.1659 86.0526 23.8368L89.7692 13.6669H87.618L85.1256 21.5247H85.0819L82.5896 13.6669H80.3771L83.9626 23.3505L83.7702 23.9392C83.4466 24.9374 82.9219 25.3213 81.9862 25.3213C81.82 25.3213 81.4965 25.3042 81.3653 25.2872V26.8826C81.4877 26.9167 82.0124 26.9338 82.1698 26.9338Z" fill="black"/>
</g>
<defs>
<clipPath id="clip0_370_4219">
<rect width="37" height="37" fill="white"/>
</clipPath>
<clipPath id="clip1_370_4219">
<rect width="45" height="18" fill="white" transform="translate(45 9)"/>
</clipPath>
</defs>
</svg>
