<svg width="64" height="64" viewBox="0 0 64 64" fill="none" xmlns="http://www.w3.org/2000/svg">
<path d="M44.76 62.4802H40.12C39.424 62.4802 38.96 62.0162 38.96 61.3202C38.96 60.6242 39.424 60.1602 40.12 60.1602H44.76C51.72 60.1602 57.52 54.3602 57.52 47.4002V45.0802C57.52 44.3842 57.984 43.9202 58.68 43.9202C59.376 43.9202 59.84 44.3842 59.84 45.0802V47.4002C59.84 55.7522 53.112 62.4802 44.76 62.4802Z" fill="#004463"/>
<path d="M41.28 61.32C41.28 62.712 40.352 63.64 38.96 63.64H36.64C35.248 63.64 34.32 62.712 34.32 61.32C34.32 59.928 35.248 59 36.64 59H38.96C40.352 59 41.28 59.928 41.28 61.32Z" fill="#607D95"/>
<path d="M56.36 34.6401C55.664 34.6401 55.2 34.1761 55.2 33.4801V26.5201C55.2 25.8241 55.664 25.3601 56.36 25.3601C57.056 25.3601 57.52 25.8241 57.52 26.5201V33.4801C57.52 34.1761 57.056 34.6401 56.36 34.6401ZM7.63998 34.6401C6.94398 34.6401 6.47998 34.1761 6.47998 33.4801V26.5201C6.47998 25.8241 6.94398 25.3601 7.63998 25.3601C8.33598 25.3601 8.79998 25.8241 8.79998 26.5201V33.4801C8.79998 34.1761 8.33598 34.6401 7.63998 34.6401Z" fill="#004463"/>
<path d="M54.04 33.48H58.68C60.072 33.48 61 34.408 61 35.8V45.08C61 46.472 60.072 47.4 58.68 47.4H54.04V33.48Z" fill="#607D95"/>
<path d="M56.128 27.68C57.52 27.68 58.68 26.52 58.448 25.128C57.288 11.672 45.92 1 32 1C18.08 1 6.71199 11.672 5.55199 25.128C5.31999 26.52 6.47999 27.68 7.87199 27.68C9.03199 27.68 9.95999 26.752 10.192 25.592C11.12 14.456 20.632 5.64 32.232 5.64C43.832 5.64 53.112 14.456 54.272 25.592C54.04 26.752 54.968 27.68 56.128 27.68Z" fill="#99B5CE"/>
<path d="M10.192 25.128C11.352 12.368 21.56 2.16 34.32 1H32C18.08 1 6.71199 11.672 5.55199 25.128C5.31999 26.52 6.47999 27.68 7.87199 27.68C9.03199 27.68 9.95999 26.752 10.192 25.592C9.95999 25.592 10.192 25.36 10.192 25.128C10.192 25.128 9.95999 25.128 10.192 25.128ZM36.64 5.64C35.944 5.64 35.016 5.64 34.32 5.872C44.76 7.032 52.88 15.384 54.04 25.824C54.04 26.984 55.2 27.912 56.36 27.912C57.752 27.912 58.68 26.752 58.68 25.592C57.288 14.224 48.008 5.64 36.64 5.64Z" fill="#D5E5F2"/>
<path d="M40.12 40.4402H23.88C22.488 40.4402 21.56 41.3682 21.56 42.7602V52.0402C21.56 53.4322 22.488 54.3602 23.88 54.3602H26.2V59.0002L33.16 54.3602H40.12C41.512 54.3602 42.44 53.4322 42.44 52.0402V42.7602C42.44 41.3682 41.512 40.4402 40.12 40.4402Z" fill="#EEF2FA"/>
<path d="M30.84 55.9842V54.3602H28.52C27.128 54.3602 26.2 53.4322 26.2 52.0402V42.7602C26.2 41.3682 27.128 40.4402 28.52 40.4402H23.88C22.488 40.4402 21.56 41.3682 21.56 42.7602V52.0402C21.56 53.4322 22.488 54.3602 23.88 54.3602H26.2V59.0002L30.84 55.9842Z" fill="#D5E5F2"/>
<path d="M12.28 49.7202C10.888 49.7202 9.96002 48.7922 9.96002 47.4002V33.4802C9.96002 32.0882 10.888 31.1602 12.28 31.1602C13.672 31.1602 14.6 32.0882 14.6 33.4802V47.4002C14.6 48.7922 13.672 49.7202 12.28 49.7202ZM51.72 31.1602C53.112 31.1602 54.04 32.0882 54.04 33.4802V47.4002C54.04 48.7922 53.112 49.7202 51.72 49.7202C50.328 49.7202 49.4 48.7922 49.4 47.4002V33.4802C49.4 32.0882 50.328 31.1602 51.72 31.1602Z" fill="#4B6C85"/>
<path d="M12.28 45.08C10.888 45.08 9.96002 44.152 9.96002 42.76V47.4C9.96002 48.792 10.888 49.72 12.28 49.72C13.672 49.72 14.6 48.792 14.6 47.4V42.76C14.6 44.152 13.672 45.08 12.28 45.08ZM51.72 45.08C50.328 45.08 49.4 44.152 49.4 42.76V47.4C49.4 48.792 50.328 49.72 51.72 49.72C53.112 49.72 54.04 48.792 54.04 47.4V42.76C54.04 44.152 53.112 45.08 51.72 45.08Z" fill="#40657C"/>
<path d="M9.96 47.4H5.32C3.928 47.4 3 46.472 3 45.08V35.8C3 34.408 3.928 33.48 5.32 33.48H9.96V47.4Z" fill="#607D95"/>
<path d="M6.48 33.48V41.6C6.48 42.992 5.552 43.92 4.16 43.92H3V45.08C3 46.472 3.928 47.4 5.32 47.4H9.96V33.48H6.48ZM57.52 33.48V41.6C57.52 42.992 58.448 43.92 59.84 43.92H61V45.08C61 46.472 60.072 47.4 58.68 47.4H54.04V33.48H57.52Z" fill="#4B6C85"/>
<path d="M38.032 46.2402H25.968C25.272 46.2402 24.808 45.7762 24.808 45.0802C24.808 44.3842 25.272 43.9202 25.968 43.9202H38.032C38.728 43.9202 39.192 44.3842 39.192 45.0802C39.192 45.7762 38.728 46.2402 38.032 46.2402ZM33.392 50.8802H25.968C25.272 50.8802 24.808 50.4162 24.808 49.7202C24.808 49.0242 25.272 48.5602 25.968 48.5602H33.392C34.088 48.5602 34.552 49.0242 34.552 49.7202C34.552 50.4162 34.088 50.8802 33.392 50.8802Z" fill="#99B5CE"/>
</svg>
