<svg width="64" height="64" viewBox="0 0 64 64" fill="none" xmlns="http://www.w3.org/2000/svg">
<path d="M43.7333 9.59961H52.2667C53.1154 9.59961 53.9293 9.93675 54.5294 10.5369C55.1295 11.137 55.4667 11.9509 55.4667 12.7996V59.7329C55.4667 60.5816 55.1295 61.3956 54.5294 61.9957C53.9293 62.5958 53.1154 62.9329 52.2667 62.9329H11.7333C10.8846 62.9329 10.0707 62.5958 9.47058 61.9957C8.87047 61.3956 8.53333 60.5816 8.53333 59.7329V12.7996C8.53333 11.9509 8.87047 11.137 9.47058 10.5369C10.0707 9.93675 10.8846 9.59961 11.7333 9.59961H43.7333Z" fill="#A4A6A9"/>
<path d="M43.7333 13.8672H50.1333C50.4162 13.8672 50.6875 13.9796 50.8876 14.1796C51.0876 14.3796 51.2 14.651 51.2 14.9339V57.6005C51.2 57.8834 51.0876 58.1547 50.8876 58.3548C50.6875 58.5548 50.4162 58.6672 50.1333 58.6672H13.8667C13.5838 58.6672 13.3124 58.5548 13.1124 58.3548C12.9124 58.1547 12.8 57.8834 12.8 57.6005V14.9339C12.8 14.651 12.9124 14.3796 13.1124 14.1796C13.3124 13.9796 13.5838 13.8672 13.8667 13.8672H43.7333Z" fill="#E8E9EA"/>
<path d="M41.6 7.46641H40.4907C39.9537 7.45672 39.4343 7.27396 39.0095 6.94532C38.5848 6.61669 38.2775 6.15972 38.1333 5.64241C37.7284 4.32779 36.916 3.17597 35.8135 2.3534C34.711 1.53083 33.3755 1.08012 32 1.06641C30.6347 1.06839 29.3058 1.50603 28.2065 2.31563C27.1072 3.12524 26.2949 4.26455 25.888 5.56774C25.7365 6.10535 25.4164 6.58007 24.9746 6.92192C24.5329 7.26376 23.9931 7.45464 23.4347 7.46641H22.4C21.8347 7.46809 21.2931 7.6934 20.8934 8.09311C20.4937 8.49282 20.2684 9.03446 20.2667 9.59974V13.8664C20.2684 14.4317 20.4937 14.9733 20.8934 15.373C21.2931 15.7727 21.8347 15.9981 22.4 15.9997H41.6C42.1653 15.9981 42.7069 15.7727 43.1066 15.373C43.5063 14.9733 43.7316 14.4317 43.7333 13.8664V9.59974C43.7316 9.03446 43.5063 8.49282 43.1066 8.09311C42.7069 7.6934 42.1653 7.46809 41.6 7.46641ZM32 9.59974C31.5781 9.59974 31.1656 9.47462 30.8148 9.24021C30.464 9.00579 30.1905 8.67261 30.0291 8.2828C29.8676 7.89298 29.8253 7.46404 29.9077 7.05021C29.99 6.63639 30.1932 6.25626 30.4915 5.95791C30.7899 5.65956 31.17 5.45638 31.5838 5.37406C31.9976 5.29175 32.4266 5.334 32.8164 5.49546C33.2062 5.65693 33.5394 5.93037 33.7738 6.28119C34.0082 6.63202 34.1333 7.04447 34.1333 7.46641C34.1316 8.03168 33.9063 8.57332 33.5066 8.97304C33.1069 9.37275 32.5653 9.59805 32 9.59974Z" fill="#3474EE"/>
<path d="M30.4416 45.8665C30.129 45.8662 29.8197 45.8035 29.5316 45.6823C29.2435 45.561 28.9825 45.3836 28.7637 45.1604L23.9147 40.2345C23.6275 39.9409 23.4667 39.5465 23.4667 39.1359C23.4667 38.7252 23.6275 38.3308 23.9147 38.0372L25.1061 36.8265C25.247 36.6824 25.4152 36.5679 25.601 36.4897C25.7867 36.4116 25.9862 36.3713 26.1877 36.3713C26.3893 36.3713 26.5887 36.4116 26.7745 36.4897C26.9602 36.5679 27.1285 36.6824 27.2693 36.8265L30.1024 39.7065L40.5984 25.2649C40.7194 25.0838 40.8753 24.9286 41.0571 24.8085C41.2388 24.6884 41.4427 24.6057 41.6567 24.5654C41.8708 24.5251 42.0908 24.5279 42.3038 24.5736C42.5167 24.6194 42.7184 24.7072 42.8971 24.8319L44.0832 25.6607C44.4456 25.9167 44.6933 26.3045 44.7731 26.741C44.8528 27.1776 44.7583 27.6279 44.5099 27.9956L32.3968 44.8223C32.2014 45.1124 31.9441 45.3556 31.6435 45.5345C31.3429 45.7134 31.0064 45.8235 30.6581 45.8569C30.5867 45.8665 30.5131 45.8665 30.4416 45.8665Z" fill="#31C967"/>
<path d="M42.6667 51.2001H21.3334C20.4847 51.2001 19.6707 50.863 19.0706 50.2629C18.4705 49.6628 18.1334 48.8488 18.1334 48.0001V26.6668C18.1334 25.8181 18.4705 25.0042 19.0706 24.4041C19.6707 23.8039 20.4847 23.4668 21.3334 23.4668H34.1334C34.4163 23.4668 34.6876 23.5792 34.8876 23.7792C35.0877 23.9793 35.2 24.2506 35.2 24.5335C35.2 24.8164 35.0877 25.0877 34.8876 25.2877C34.6876 25.4878 34.4163 25.6001 34.1334 25.6001H21.3334C21.0505 25.6001 20.7792 25.7125 20.5791 25.9125C20.3791 26.1126 20.2667 26.3839 20.2667 26.6668V48.0001C20.2667 48.283 20.3791 48.5543 20.5791 48.7544C20.7792 48.9544 21.0505 49.0668 21.3334 49.0668H42.6667C42.9496 49.0668 43.2209 48.9544 43.4209 48.7544C43.621 48.5543 43.7334 48.283 43.7334 48.0001V35.2001C43.7334 34.9172 43.8457 34.6459 44.0458 34.4459C44.2458 34.2458 44.5171 34.1335 44.8 34.1335C45.0829 34.1335 45.3542 34.2458 45.5543 34.4459C45.7543 34.6459 45.8667 34.9172 45.8667 35.2001V48.0001C45.8667 48.8488 45.5296 49.6628 44.9294 50.2629C44.3293 50.863 43.5154 51.2001 42.6667 51.2001Z" fill="#00B654"/>
</svg>
