<svg width="16" height="16" viewBox="0 0 16 16" fill="none" xmlns="http://www.w3.org/2000/svg">
<path d="M14.6666 14.6667L13.6666 13.6667M14.6666 6.66671H1.33325M14.6666 8.00004V5.46671C14.6666 4.71997 14.6666 4.3466 14.5213 4.06139C14.3934 3.81051 14.1895 3.60653 13.9386 3.4787C13.6534 3.33337 13.28 3.33337 12.5333 3.33337H3.46659C2.71985 3.33337 2.34648 3.33337 2.06126 3.4787C1.81038 3.60653 1.60641 3.8105 1.47858 4.06139C1.33325 4.3466 1.33325 4.71997 1.33325 5.46671V10.5334C1.33325 11.2801 1.33325 11.6535 1.47858 11.9387C1.60641 12.1896 1.81038 12.3936 2.06126 12.5214C2.34648 12.6667 2.71985 12.6667 3.46659 12.6667H6.99992M14.3333 12C14.3333 13.2887 13.2886 14.3334 11.9999 14.3334C10.7113 14.3334 9.66659 13.2887 9.66659 12C9.66659 10.7114 10.7113 9.66671 11.9999 9.66671C13.2886 9.66671 14.3333 10.7114 14.3333 12Z" stroke="white" stroke-width="1.33333" stroke-linecap="round" stroke-linejoin="round"/>
</svg>
