<svg width="24" height="24" viewBox="0 0 24 24" fill="none" xmlns="http://www.w3.org/2000/svg">
<g clip-path="url(#clip0_220_21933)">
<path d="M23.9991 17.9333C23.9991 18.0647 23.9951 18.3497 23.9872 18.5698C23.9679 19.1085 23.9252 19.8036 23.8606 20.1203C23.7635 20.5962 23.617 21.0454 23.426 21.4193C23.2 21.8616 22.9117 22.2578 22.5692 22.5997C22.2274 22.9409 21.8315 23.2281 21.3899 23.4532C21.0141 23.6447 20.562 23.7913 20.0834 23.8879C19.7699 23.9512 19.08 23.9931 18.5448 24.0121C18.3244 24.02 18.0394 24.024 17.9085 24.024L6.09066 24.0221C5.95924 24.0221 5.67429 24.0181 5.45414 24.0102C4.91548 23.9908 4.22041 23.9481 3.9037 23.8836C3.42778 23.7865 2.97855 23.64 2.60468 23.449C2.16237 23.223 1.7662 22.9347 1.42427 22.5921C1.08302 22.2503 0.795867 21.8545 0.570797 21.4129C0.379219 21.037 0.232641 20.585 0.136008 20.1064C0.0727266 19.7929 0.0308438 19.103 0.0117891 18.5678C0.00396094 18.3474 0 18.0624 0 17.9315L0.001875 6.11363C0.001875 5.98221 0.00588281 5.69724 0.0137812 5.47709C0.0331172 4.93843 0.0757969 4.24336 0.140367 3.92668C0.237422 3.45075 0.383906 3.00153 0.574945 2.62763C0.800953 2.18534 1.08926 1.78915 1.4318 1.44722C1.77361 1.106 2.16942 0.818816 2.61105 0.593723C2.98692 0.402191 3.43896 0.255613 3.91758 0.15898C4.2311 0.0956758 4.92098 0.053793 5.4562 0.0347617C5.67656 0.0269102 5.96163 0.0229492 6.09251 0.0229492L17.9103 0.0248477C18.0418 0.0248477 18.3267 0.0288555 18.5469 0.0367539C19.0855 0.0560898 19.7806 0.0987695 20.0973 0.16334C20.5732 0.260395 21.0224 0.406879 21.3963 0.597918C21.8386 0.823926 22.2348 1.11223 22.5767 1.45477C22.9179 1.79658 23.2051 2.19237 23.4302 2.63403C23.6218 3.00989 23.7683 3.46191 23.865 3.94053C23.9283 4.25407 23.9701 4.94393 23.9892 5.47918C23.997 5.69953 24.001 5.98458 24.001 6.1155L23.9991 17.9333Z" fill="url(#paint0_linear_220_21933)"/>
<path d="M18.3587 5.70097C16.7338 4.07471 14.5729 3.17865 12.2705 3.17773C7.52674 3.17773 3.66586 7.03714 3.66396 11.781C3.66335 13.2974 4.05966 14.7776 4.8128 16.0823L3.5918 20.5408L8.15426 19.3444C9.41135 20.0298 10.8266 20.391 12.2671 20.3916H12.2707C17.014 20.3916 20.8752 16.5317 20.8771 11.7878C20.8781 9.48891 19.9837 7.32723 18.3587 5.70097ZM12.2707 18.9385H12.2677C10.9841 18.938 9.72516 18.5933 8.62685 17.9417L8.36562 17.7867L5.65819 18.4967L6.38086 15.8579L6.21073 15.5873C5.49466 14.4487 5.11648 13.1327 5.11704 11.7815C5.11859 7.83868 8.32762 4.63086 12.2734 4.63086C14.1841 4.63159 15.9802 5.37643 17.3307 6.72809C18.6813 8.07976 19.4247 9.8765 19.424 11.7873C19.4224 15.7305 16.2134 18.9385 12.2707 18.9385ZM16.1944 13.5827C15.9794 13.4751 14.9221 12.955 14.725 12.8832C14.5279 12.8115 14.3845 12.7756 14.2411 12.9909C14.0978 13.2061 13.6857 13.6903 13.5602 13.8338C13.4348 13.9772 13.3093 13.9952 13.0943 13.8876C12.8792 13.78 12.1863 13.553 11.3649 12.8206C10.7257 12.2506 10.294 11.5465 10.1686 11.3313C10.0432 11.116 10.1553 10.9997 10.2629 10.8925C10.3596 10.7962 10.4779 10.6414 10.5855 10.5159C10.693 10.3904 10.7288 10.3007 10.8005 10.1572C10.8722 10.0137 10.8364 9.88817 10.7826 9.78057C10.7288 9.67297 10.2987 8.61481 10.1195 8.18438C9.945 7.76518 9.76767 7.8219 9.63567 7.81531C9.51038 7.80908 9.36687 7.80777 9.22352 7.80777C9.08018 7.80777 8.84719 7.86155 8.65008 8.07678C8.45297 8.29201 7.89743 8.81211 7.89743 9.87024C7.89743 10.9284 8.66798 11.9506 8.77552 12.0941C8.88305 12.2376 10.2919 14.4091 12.4491 15.3402C12.9622 15.5617 13.3628 15.694 13.6751 15.7931C14.1903 15.9567 14.6591 15.9336 15.0296 15.8783C15.4428 15.8166 16.3019 15.3582 16.4812 14.8561C16.6604 14.3539 16.6604 13.9235 16.6066 13.8338C16.5528 13.7441 16.4095 13.6903 16.1944 13.5827Z" fill="white"/>
</g>
<defs>
<linearGradient id="paint0_linear_220_21933" x1="12.0005" y1="0.0229492" x2="12.0005" y2="24.024" gradientUnits="userSpaceOnUse">
<stop stop-color="#61FD7D"/>
<stop offset="1" stop-color="#2BB826"/>
</linearGradient>
<clipPath id="clip0_220_21933">
<rect width="24" height="24" fill="white"/>
</clipPath>
</defs>
</svg>
