<svg width="64" height="64" viewBox="0 0 64 64" fill="none" xmlns="http://www.w3.org/2000/svg">
<path d="M57.04 10.6666H12.9307L11.8827 7.22392C11.7164 6.67723 11.3789 6.1984 10.9199 5.85801C10.4609 5.51762 9.90475 5.33367 9.33332 5.33325H3.99999C3.64637 5.33325 3.30723 5.47373 3.05718 5.72378C2.80713 5.97383 2.66666 6.31296 2.66666 6.66659V9.33325C2.66666 9.68687 2.80713 10.026 3.05718 10.2761C3.30723 10.5261 3.64637 10.6666 3.99999 10.6666H7.35999L15.688 38.0426L12.5787 41.6719C11.3467 43.1066 10.792 45.0853 11.36 46.8879C11.6884 47.9846 12.3631 48.9454 13.2832 49.6266C14.2033 50.3078 15.3192 50.6726 16.464 50.6666H54.6667C55.0203 50.6666 55.3594 50.5261 55.6095 50.2761C55.8595 50.026 56 49.6869 56 49.3333V46.6666C56 46.313 55.8595 45.9738 55.6095 45.7238C55.3594 45.4737 55.0203 45.3333 54.6667 45.3333H17.192L21.8373 39.9999H46.7947C48.848 39.9999 50.744 38.7999 51.6213 36.9386L60.928 17.1653C61.1947 16.5973 61.3333 15.9653 61.3333 15.3386V14.9599C61.3333 12.5919 59.408 10.6666 57.04 10.6666Z" fill="#C6CCD0"/>
<path opacity="0.2" d="M57.04 11.3333C59.3547 11.3333 61.2373 13.1786 61.3173 15.4773C61.3173 15.4293 61.3333 15.3839 61.3333 15.3386V14.9599C61.3333 12.5919 59.408 10.6666 57.04 10.6666H12.9307L57.0373 11.3333H57.04ZM12.9307 10.6666L11.8827 7.22392C11.7164 6.67723 11.3789 6.1984 10.9199 5.85801C10.4609 5.51762 9.90475 5.33367 9.33332 5.33325H3.99999C3.64637 5.33325 3.30723 5.47373 3.05718 5.72378C2.80713 5.97383 2.66666 6.31296 2.66666 6.66659V7.33325C2.66666 6.97963 2.80713 6.64049 3.05718 6.39044C3.30723 6.14039 3.64637 5.99992 3.99999 5.99992H9.33332C9.90475 6.00033 10.4609 6.18429 10.9199 6.52468C11.3789 6.86507 11.7164 7.34389 11.8827 7.89059L12.9333 10.6666H12.9307Z" fill="white"/>
<path opacity="0.1" d="M54.6667 50.0001H16.464C14.1173 50.0001 12.0827 48.5254 11.36 46.2214C11.259 45.8632 11.1999 45.4946 11.184 45.1228C11.1343 45.717 11.194 46.3153 11.36 46.8881C11.6884 47.9848 12.3631 48.9456 13.2832 49.6268C14.2033 50.3079 15.3192 50.6728 16.464 50.6668H54.6667C55.0203 50.6668 55.3594 50.5263 55.6095 50.2762C55.8595 50.0262 56 49.687 56 49.3334V48.6668C56 49.0204 55.8595 49.3595 55.6095 49.6096C55.3594 49.8596 55.0203 50.0001 54.6667 50.0001ZM51.6213 36.2668C51.1878 37.1806 50.5045 37.9531 49.6503 38.4949C48.7962 39.0366 47.8061 39.3255 46.7947 39.3281L21.8347 39.9948H46.7947C48.848 39.9948 50.744 38.7948 51.6213 36.9308L60.928 17.1601C61.1947 16.5921 61.3333 15.9601 61.3333 15.3334V14.9548C61.3333 14.9014 61.32 14.8561 61.3173 14.8054C61.3019 15.3888 61.1686 15.963 60.9253 16.4934L51.6187 36.2641L51.6213 36.2668Z" fill="#010101"/>
<path d="M18.6667 63.9999C21.6122 63.9999 24 61.6121 24 58.6666C24 55.7211 21.6122 53.3333 18.6667 53.3333C15.7212 53.3333 13.3333 55.7211 13.3333 58.6666C13.3333 61.6121 15.7212 63.9999 18.6667 63.9999Z" fill="#C6CCD0"/>
<path opacity="0.1" d="M18.6667 63.3333C17.4688 63.3295 16.3051 62.9336 15.3535 62.2059C14.4019 61.4783 13.7149 60.459 13.3973 59.304C13.7173 61.944 15.9467 64 18.6667 64C21.3867 64 23.616 61.9413 23.936 59.304C23.6185 60.459 22.9314 61.4783 21.9798 62.2059C21.0283 62.9336 19.8646 63.3295 18.6667 63.3333Z" fill="#010101"/>
<path d="M42.264 40.0001L12.9307 10.6667L12.9227 10.7094L21.84 40.0001H42.264Z" fill="url(#paint0_linear_45_1278)"/>
<path d="M50.6666 63.9999C53.6122 63.9999 56 61.6121 56 58.6666C56 55.7211 53.6122 53.3333 50.6666 53.3333C47.7211 53.3333 45.3333 55.7211 45.3333 58.6666C45.3333 61.6121 47.7211 63.9999 50.6666 63.9999Z" fill="#C6CCD0"/>
<path opacity="0.1" d="M50.6667 63.3333C49.4688 63.3295 48.3051 62.9336 47.3535 62.2059C46.4019 61.4783 45.7149 60.459 45.3973 59.304C45.7173 61.944 47.944 64 50.6667 64C53.3893 64 55.616 61.9413 55.936 59.304C55.6185 60.459 54.9314 61.4783 53.9798 62.2059C53.0283 62.9336 51.8646 63.3295 50.6667 63.3333Z" fill="#010101"/>
<path d="M36 29.3333C44.1002 29.3333 50.6667 22.7668 50.6667 14.6667C50.6667 6.56649 44.1002 0 36 0C27.8998 0 21.3333 6.56649 21.3333 14.6667C21.3333 22.7668 27.8998 29.3333 36 29.3333Z" fill="#00B654"/>
<path opacity="0.1" d="M36 28.6666C32.9467 28.6648 29.9668 27.7308 27.4588 25.9895C24.9507 24.2482 23.0341 21.7827 21.9653 18.9226C22.879 21.9333 24.7365 24.5704 27.2637 26.4444C29.7909 28.3185 32.8538 29.3303 36 29.3303C39.1462 29.3303 42.2091 28.3185 44.7363 26.4444C47.2635 24.5704 49.121 21.9333 50.0347 18.9226C48.9659 21.7827 47.0493 24.2482 44.5412 25.9895C42.0332 27.7308 39.0533 28.6648 36 28.6666Z" fill="#010101"/>
<path opacity="0.2" d="M36 0.666577C39.0533 0.668367 42.0332 1.60236 44.5412 3.34365C47.0493 5.08494 48.9659 7.5505 50.0347 10.4106C49.121 7.39991 47.2635 4.76283 44.7363 2.88875C42.2091 1.01467 39.1462 0.00292969 36 0.00292969C32.8538 0.00292969 29.7909 1.01467 27.2637 2.88875C24.7365 4.76283 22.879 7.39991 21.9653 10.4106C23.0341 7.5505 24.9507 5.08494 27.4588 3.34365C29.9668 1.60236 32.9467 0.668367 36 0.666577Z" fill="white"/>
<path d="M33.3333 21.3333L28.3893 16.3893L30.2773 14.504L33.3333 17.5627L41.7227 9.17065L43.6107 11.056L33.3333 21.3333Z" fill="white"/>
<path d="M43.6107 11.0559L33.3333 21.3332L40.5893 28.5892C43.0125 27.7888 45.1851 26.3705 46.8929 24.4742C48.6007 22.578 49.7846 20.2693 50.328 17.7759L43.608 11.0559H43.6107Z" fill="url(#paint1_linear_45_1278)"/>
<path d="M57.04 10.6667H50.1013C48.3573 4.51467 42.712 0 36 0C29.288 0 23.6427 4.51467 21.8987 10.6667H12.9333L11.8853 7.224C11.7189 6.67687 11.381 6.19773 10.9215 5.8573C10.462 5.51687 9.9052 5.33318 9.33332 5.33333H3.99999C3.64637 5.33333 3.30723 5.47381 3.05718 5.72386C2.80713 5.97391 2.66666 6.31305 2.66666 6.66667V9.33333C2.66666 9.68696 2.80713 10.0261 3.05718 10.2761C3.30723 10.5262 3.64637 10.6667 3.99999 10.6667H7.35999L15.688 38.0427L12.5787 41.672C11.3467 43.1067 10.792 45.0853 11.36 46.888C11.6884 47.9847 12.3631 48.9455 13.2832 49.6267C14.2033 50.3079 15.3192 50.6727 16.464 50.6667H54.6667C55.0203 50.6667 55.3594 50.5262 55.6095 50.2761C55.8595 50.0261 56 49.687 56 49.3333V46.6667C56 46.313 55.8595 45.9739 55.6095 45.7239C55.3594 45.4738 55.0203 45.3333 54.6667 45.3333H17.192L21.8373 40H46.7947C48.848 40 50.744 38.8 51.6213 36.9387L60.928 17.1653C61.1947 16.5973 61.3333 15.9653 61.3333 15.3387V14.96C61.3333 12.592 59.408 10.6667 57.04 10.6667ZM18.6667 53.3333C15.7253 53.3333 13.3333 55.7253 13.3333 58.6667C13.3333 61.608 15.7253 64 18.6667 64C21.608 64 24 61.608 24 58.6667C24 55.7253 21.608 53.3333 18.6667 53.3333ZM50.6667 53.3333C47.7253 53.3333 45.3333 55.7253 45.3333 58.6667C45.3333 61.608 47.7253 64 50.6667 64C53.608 64 56 61.608 56 58.6667C56 55.7253 53.608 53.3333 50.6667 53.3333Z" fill="url(#paint2_linear_45_1278)"/>
<defs>
<linearGradient id="paint0_linear_45_1278" x1="9.37333" y1="17.3227" x2="32.5947" y2="40.5441" gradientUnits="userSpaceOnUse">
<stop stop-color="#010101" stop-opacity="0.1"/>
<stop offset="1" stop-color="#010101" stop-opacity="0"/>
</linearGradient>
<linearGradient id="paint1_linear_45_1278" x1="38.912" y1="16.6372" x2="45.536" y2="23.2586" gradientUnits="userSpaceOnUse">
<stop stop-color="#010101" stop-opacity="0.1"/>
<stop offset="1" stop-color="#010101" stop-opacity="0"/>
</linearGradient>
<linearGradient id="paint2_linear_45_1278" x1="-2.56001" y1="17.5787" x2="61.7307" y2="47.5573" gradientUnits="userSpaceOnUse">
<stop stop-color="white" stop-opacity="0.2"/>
<stop offset="1" stop-color="white" stop-opacity="0"/>
</linearGradient>
</defs>
</svg>
