<svg width="65" height="65" viewBox="0 0 65 65" fill="none" xmlns="http://www.w3.org/2000/svg">
<path d="M60.3 20.4C56.5 8.90002 47.8 10.3 45.3 12.6C42.7 14.9 39.7 16.2 37.5 16.5C36.3 16.7 32.6 16.5 32.6 16.5C32.6 16.5 28.9 16.7 27.7 16.5C25.5 16.2 22.5 14.9 19.9 12.6C17.3 10.3 8.6 8.80002 4.9 20.4C1 32 -2.5 54.8 4.7 57.8C8.3 59.3 13 56.8 18.6 50.4C21 47.7 23.1 46.8 32.5 46.8C41.8 46.8 44 47.7 46.4 50.4C52 56.8 56.6 59.3 60.3 57.8C67.5 54.8 64 32 60.3 20.4Z" fill="#EFF3F5"/>
<path d="M60.3 56.5999C56.7 58.0999 52 55.5999 46.4 49.1999C44 46.4999 41.9 45.5999 32.5 45.5999C23.2 45.5999 21 46.4999 18.6 49.1999C13 55.5999 8.40001 58.0999 4.70001 56.5999C1.70001 55.3999 0.500007 50.6999 0.500007 44.8999C0.400007 51.2999 1.50001 56.3999 4.70001 57.7999C8.30001 59.2999 13 56.7999 18.6 50.3999C21 47.6999 23.1 46.7999 32.5 46.7999C41.8 46.7999 44 47.6999 46.4 50.3999C52 56.7999 56.6 59.2999 60.3 57.7999C63.5 56.4999 64.6 51.2999 64.5 44.8999C64.4 50.7999 63.3 55.3999 60.3 56.5999Z" fill="#DEE1E2"/>
<path d="M22.5 44.3001C26.9735 44.3001 30.6 40.6736 30.6 36.2001C30.6 31.7266 26.9735 28.1001 22.5 28.1001C18.0265 28.1001 14.4 31.7266 14.4 36.2001C14.4 40.6736 18.0265 44.3001 22.5 44.3001Z" fill="#DBDFE0"/>
<path d="M43.1 42.4C46.5242 42.4 49.3 39.6242 49.3 36.2C49.3 32.7758 46.5242 30 43.1 30C39.6758 30 36.9 32.7758 36.9 36.2C36.9 39.6242 39.6758 42.4 43.1 42.4Z" fill="#DBDFE0"/>
<path d="M12.9 30.6C16.3242 30.6 19.1 27.8241 19.1 24.4C19.1 20.9758 16.3242 18.2 12.9 18.2C9.47583 18.2 6.7 20.9758 6.7 24.4C6.7 27.8241 9.47583 30.6 12.9 30.6Z" fill="#DBDFE0"/>
<path d="M22.5 42.3001C25.8689 42.3001 28.6 39.569 28.6 36.2001C28.6 32.8312 25.8689 30.1001 22.5 30.1001C19.1311 30.1001 16.4 32.8312 16.4 36.2001C16.4 39.569 19.1311 42.3001 22.5 42.3001Z" fill="#788D9A"/>
<path d="M43.1 40.8001C45.6405 40.8001 47.7 38.7406 47.7 36.2001C47.7 33.6596 45.6405 31.6001 43.1 31.6001C40.5595 31.6001 38.5 33.6596 38.5 36.2001C38.5 38.7406 40.5595 40.8001 43.1 40.8001Z" fill="#788D9A"/>
<path d="M12.9 29C15.4405 29 17.5 26.9406 17.5 24.4C17.5 21.8595 15.4405 19.8 12.9 19.8C10.3595 19.8 8.3 21.8595 8.3 24.4C8.3 26.9406 10.3595 29 12.9 29Z" fill="#788D9A"/>
<path d="M22.5 30.8C25.8 30.8 28.4 33.3 28.6 36.6C28.6 36.5 28.6 36.3001 28.6 36.2001C28.6 32.8001 25.8 30.1 22.5 30.1C19.1 30.1 16.4 32.9001 16.4 36.2001C16.4 36.3001 16.4 36.5 16.4 36.6C16.5 33.3 19.2 30.8 22.5 30.8ZM43.1 32.4001C45.5 32.4001 47.4 34.2 47.6 36.6C47.6 36.5 47.6 36.3001 47.6 36.2001C47.6 33.7001 45.6 31.6 43 31.6C40.5 31.6 38.4 33.6 38.4 36.2001C38.4 36.3001 38.4 36.5 38.4 36.6C38.8 34.2 40.7 32.4001 43.1 32.4001ZM12.9 20.6C15.3 20.6 17.2 22.4 17.4 24.8C17.4 24.7 17.4 24.5 17.4 24.4C17.4 21.9 15.4 19.8 12.8 19.8C10.2 19.8 8.2 21.8 8.2 24.4C8.2 24.5 8.2 24.7 8.2 24.8C8.6 22.4 10.5 20.6 12.9 20.6Z" fill="#8DA1AA"/>
<path d="M52.3 21.3999C53.6807 21.3999 54.8 20.2806 54.8 18.8999C54.8 17.5192 53.6807 16.3999 52.3 16.3999C50.9193 16.3999 49.8 17.5192 49.8 18.8999C49.8 20.2806 50.9193 21.3999 52.3 21.3999Z" fill="#FDC77C"/>
<path d="M57.3 26.8999C58.6807 26.8999 59.8 25.7806 59.8 24.3999C59.8 23.0192 58.6807 21.8999 57.3 21.8999C55.9193 21.8999 54.8 23.0192 54.8 24.3999C54.8 25.7806 55.9193 26.8999 57.3 26.8999Z" fill="#F1786B"/>
<path d="M47.4 26.8999C48.7807 26.8999 49.9 25.7806 49.9 24.3999C49.9 23.0192 48.7807 21.8999 47.4 21.8999C46.0193 21.8999 44.9 23.0192 44.9 24.3999C44.9 25.7806 46.0193 26.8999 47.4 26.8999Z" fill="#379FC8"/>
<path d="M52.3 31.8C53.6807 31.8 54.8 30.6808 54.8 29.3C54.8 27.9193 53.6807 26.8 52.3 26.8C50.9193 26.8 49.8 27.9193 49.8 29.3C49.8 30.6808 50.9193 31.8 52.3 31.8Z" fill="#5AC8AE"/>
<path d="M32.5 28.5C34.433 28.5 36 26.933 36 25C36 23.067 34.433 21.5 32.5 21.5C30.567 21.5 29 23.067 29 25C29 26.933 30.567 28.5 32.5 28.5Z" fill="#DBDFE0"/>
<path d="M25.3 26.3999C26.3493 26.3999 27.2 25.7283 27.2 24.8999C27.2 24.0715 26.3493 23.3999 25.3 23.3999C24.2507 23.3999 23.4 24.0715 23.4 24.8999C23.4 25.7283 24.2507 26.3999 25.3 26.3999Z" fill="#DBDFE0"/>
<path d="M39.7 26.3999C40.7493 26.3999 41.6 25.7283 41.6 24.8999C41.6 24.0715 40.7493 23.3999 39.7 23.3999C38.6507 23.3999 37.8 24.0715 37.8 24.8999C37.8 25.7283 38.6507 26.3999 39.7 26.3999Z" fill="#DBDFE0"/>
<path d="M33.9 6.80005H31.1V16.6H33.9V6.80005Z" fill="#788D9A"/>
</svg>
