<svg width="24" height="24" viewBox="0 0 24 24" fill="none" xmlns="http://www.w3.org/2000/svg">
<g clip-path="url(#clip0_70_2015)">
<path d="M23.574 12.1245C23.574 5.89201 18.45 0.838507 12.1275 0.838507C11.4615 0.838507 10.8075 0.895507 10.17 1.00351C9.10982 0.345805 7.88662 -0.00182391 6.639 7.19669e-06C2.9715 7.19669e-06 1.22879e-06 2.92951 1.22879e-06 6.54601C-0.000718166 7.71164 0.314451 8.85569 0.912001 9.85651C0.757529 10.6026 0.679625 11.3626 0.679501 12.1245C0.679501 18.3585 5.805 23.412 12.126 23.412C12.8292 23.4118 13.531 23.3485 14.223 23.223C15.1902 23.7349 16.2682 24.0017 17.3625 24C21.0285 24 24 21.069 24 17.4555C24 16.4115 23.751 15.4245 23.31 14.5485C23.4864 13.7526 23.5749 12.9397 23.574 12.1245Z" fill="#03A9F4"/>
<path d="M17.9989 17.5186C17.4694 18.2581 16.6879 18.8431 15.6724 19.2571C14.6689 19.6681 13.4674 19.8796 12.0964 19.8796C10.4524 19.8796 9.07386 19.5946 7.99686 19.0306C7.24652 18.6383 6.60063 18.0726 6.11286 17.3806C5.62536 16.6906 5.38086 16.0051 5.38086 15.3406C5.38086 14.9296 5.54136 14.5696 5.85786 14.2771C6.17136 13.9846 6.57336 13.8391 7.05336 13.8391C7.44636 13.8391 7.78536 13.9546 8.06136 14.1841C8.32386 14.4061 8.55036 14.7331 8.73186 15.1516C8.93436 15.6106 9.15486 15.9976 9.38736 16.2991C9.61386 16.5946 9.93636 16.8406 10.3489 17.0341C10.7644 17.2261 11.3239 17.3266 12.0109 17.3266C12.9574 17.3266 13.7344 17.1256 14.3164 16.7341C14.8879 16.3516 15.1639 15.8896 15.1639 15.3256C15.1639 14.8816 15.0184 14.5306 14.7229 14.2561C14.3704 13.946 13.9533 13.7185 13.5019 13.5901C12.8098 13.388 12.1091 13.2168 11.4019 13.0771C10.2124 12.8266 9.20286 12.5311 8.40186 12.1921C7.58136 11.8471 6.91836 11.3701 6.43536 10.7746C5.94336 10.1656 5.69436 9.40506 5.69436 8.51106C5.69436 7.65906 5.95536 6.89106 6.47136 6.22806C6.98286 5.56956 7.72986 5.05506 8.69436 4.70556C9.64386 4.35906 10.7734 4.18506 12.0529 4.18506C13.0744 4.18506 13.9729 4.30206 14.7244 4.53306C15.4789 4.76406 16.1149 5.07606 16.6144 5.46156C17.1184 5.85156 17.4934 6.26406 17.7274 6.69606C17.9644 7.13106 18.0859 7.56456 18.0859 7.98306C18.0859 8.38656 17.9284 8.75406 17.6164 9.07206C17.3014 9.39306 16.9054 9.55506 16.4404 9.55506C16.0174 9.55506 15.6844 9.45156 15.4549 9.25206C15.2404 9.06456 15.0169 8.77206 14.7709 8.35506C14.5236 7.86732 14.173 7.43938 13.7434 7.10106C13.3579 6.81156 12.7159 6.66756 11.8309 6.66756C11.0119 6.66756 10.3429 6.82956 9.84786 7.15056C9.37086 7.45806 9.13836 7.81206 9.13836 8.23206C9.13836 8.48856 9.21336 8.70306 9.36786 8.88756C9.52986 9.08556 9.75936 9.25506 10.0504 9.39906C10.3504 9.54756 10.6609 9.66756 10.9714 9.75156C11.2894 9.83856 11.8219 9.96906 12.5554 10.1356C13.4824 10.3306 14.3329 10.5511 15.0859 10.7896C15.8494 11.0281 16.5064 11.3236 17.0464 11.6701C17.5939 12.0226 18.0274 12.4726 18.3364 13.0126C18.6454 13.5571 18.8014 14.2246 18.8014 15.0016C18.8081 15.9045 18.527 16.7861 17.9989 17.5186Z" fill="#FAFAFA"/>
</g>
<defs>
<clipPath id="clip0_70_2015">
<rect width="24" height="24" fill="white"/>
</clipPath>
</defs>
</svg>
