<svg width="49" height="48" viewBox="0 0 49 48" fill="none" xmlns="http://www.w3.org/2000/svg">
<path d="M31.792 36.0305C32.6496 39.2313 30.7501 42.5214 27.5493 43.379C24.3485 44.2367 21.0585 42.3372 20.2008 39.1364M4.61379 23.2276C3.8348 20.4312 4.64489 17.408 6.71769 15.3757M24.7927 11.4827C25.4012 10.3881 25.6016 9.06507 25.2519 7.75988C24.5371 5.09255 21.7955 3.50964 19.1281 4.22435C16.4608 4.93906 14.8779 7.68074 15.5926 10.3481C15.9423 11.6533 16.7774 12.6988 17.8516 13.3426M41.1382 13.441C40.4146 10.6298 38.2014 8.41656 35.3902 7.69301M35.4814 18.8915C34.7675 16.2273 32.8616 13.9993 30.1831 12.6979C27.5045 11.3964 24.2727 11.128 21.1986 11.9517C18.1244 12.7755 15.4598 14.6238 13.7908 17.0902C12.1218 19.5566 11.5853 22.4389 12.2992 25.1032C13.4803 29.5113 13.251 33.028 12.5051 35.7004C11.6549 38.7461 11.2299 40.2689 11.3447 40.5747C11.4761 40.9246 11.5711 41.0206 11.9196 41.1556C12.2242 41.2736 13.5037 40.9308 16.0628 40.245L39.7929 33.8866C42.352 33.2009 43.6315 32.858 43.8363 32.6035C44.0706 32.3124 44.1049 32.1817 44.0437 31.813C43.9903 31.4908 42.8607 30.3845 40.6017 28.1719C38.6195 26.2306 36.6625 23.2996 35.4814 18.8915Z" stroke="#3474EE" stroke-width="4" stroke-linecap="round" stroke-linejoin="round"/>
</svg>
