<svg width="64" height="64" viewBox="0 0 64 64" fill="none" xmlns="http://www.w3.org/2000/svg">
<g clip-path="url(#clip0_45_1260)">
<path d="M11.8725 27.2423C11.8725 27.2423 0.415044 37.1841 0.387794 37.2094C-0.131706 37.7309 -0.131706 38.5747 0.387794 39.0962C0.51695 39.2243 0.670818 39.3249 0.840043 39.3917C1.00927 39.4585 1.19031 39.4902 1.37217 39.4848L14.5328 38.1528L28.5879 24.0703L11.8725 27.2423ZM36.7563 52.1278C36.7563 52.1278 26.8147 63.5834 26.7873 63.6088C26.2678 64.1303 25.4239 64.1303 24.9044 63.6088C24.6349 63.3393 24.5059 62.9818 24.5138 62.6283L25.8459 49.4657L39.9284 35.4106L36.7563 52.1278Z" fill="#CCD1D9"/>
<path d="M20.1894 51.3525L12.6461 43.8094V36.2661L27.7325 51.3525H20.1894Z" fill="#434A54"/>
<path d="M63.2767 0.723887C56.1592 -1.17661 48.2489 0.665262 42.6666 6.24739L12.6461 36.2661L27.7325 51.3525L57.7531 21.3339C63.3354 15.7498 65.1792 7.84126 63.2767 0.723887Z" fill="#E6E9ED"/>
<path d="M62.2337 14.7653C64.1673 10.3218 64.5151 5.35477 63.2767 0.723773C58.6438 -0.512603 53.6788 -0.164978 49.2372 1.76677L62.2337 14.7653ZM31.5022 34.3811C32.0257 33.8596 32.0217 33.0158 31.5022 32.4963C30.9827 31.9749 30.1349 31.9768 29.6153 32.4983L12.6461 49.4658C12.1264 49.9873 12.1264 50.831 12.6461 51.3525C13.1656 51.872 14.0133 51.872 14.5328 51.3525L31.5022 34.3811Z" fill="#CCD1D9"/>
<path d="M45.6472 25.8966C43.5612 27.9788 40.1862 27.9788 38.104 25.8966C36.0218 23.8126 36.0218 20.4355 38.104 18.3534C40.1861 16.2693 43.5611 16.2693 45.6472 18.3534C47.7293 20.4355 47.7293 23.8125 45.6472 25.8966Z" fill="#434A54"/>
<path d="M41.8736 28.7912C40.0924 28.7912 38.4204 28.0978 37.1585 26.838C35.9007 25.5802 35.2092 23.9043 35.2092 22.1249C35.2092 20.3437 35.9006 18.6697 37.1585 17.4099C38.4204 16.15 40.0924 15.4568 41.8736 15.4568C43.6549 15.4568 45.3307 16.1502 46.5887 17.4099C47.8465 18.6698 48.5419 20.3437 48.5419 22.1249C48.5419 23.9043 47.8466 25.5802 46.5887 26.838C45.3307 28.0978 43.6549 28.7912 41.8736 28.7912ZM41.8736 18.1248C40.8072 18.1248 39.7994 18.5409 39.0454 19.2967C38.2915 20.0507 37.8735 21.0565 37.8735 22.1249C37.8735 23.1933 38.2915 24.1973 39.0454 24.953C39.7994 25.7089 40.8072 26.1249 41.8736 26.1249C42.9439 26.1249 43.9479 25.7089 44.7019 24.953C45.4596 24.1972 45.8739 23.1932 45.8739 22.1249C45.8739 21.0565 45.4597 20.0507 44.7019 19.2967C43.9479 18.5408 42.944 18.1248 41.8736 18.1248Z" fill="#CCD1D9"/>
</g>
<defs>
<clipPath id="clip0_45_1260">
<rect width="64" height="64" fill="white"/>
</clipPath>
</defs>
</svg>
