<svg width="25" height="24" viewBox="0 0 25 24" fill="none" xmlns="http://www.w3.org/2000/svg">
<path d="M16.5 8.00032V4.50097C16.5 3.66923 16.5 3.25336 16.3248 2.99779C16.1717 2.7745 15.9346 2.62281 15.6678 2.5774C15.3623 2.52542 14.9847 2.69969 14.2295 3.04824L5.35901 7.14231C4.68551 7.45316 4.34875 7.60858 4.10211 7.84963C3.88406 8.06273 3.71762 8.32287 3.6155 8.61015C3.5 8.9351 3.5 9.306 3.5 10.0478V15.0003M17 14.5003H17.01M3.5 11.2003L3.5 17.8003C3.5 18.9204 3.5 19.4805 3.71799 19.9083C3.90973 20.2846 4.21569 20.5906 4.59202 20.7823C5.01984 21.0003 5.57989 21.0003 6.7 21.0003H18.3C19.4201 21.0003 19.9802 21.0003 20.408 20.7823C20.7843 20.5906 21.0903 20.2846 21.282 19.9083C21.5 19.4805 21.5 18.9204 21.5 17.8003V11.2003C21.5 10.0802 21.5 9.52016 21.282 9.09234C21.0903 8.71601 20.7843 8.41005 20.408 8.2183C19.9802 8.00032 19.4201 8.00032 18.3 8.00032L6.7 8.00032C5.5799 8.00032 5.01984 8.00032 4.59202 8.2183C4.2157 8.41005 3.90973 8.71601 3.71799 9.09234C3.5 9.52016 3.5 10.0802 3.5 11.2003ZM17.5 14.5003C17.5 14.7765 17.2761 15.0003 17 15.0003C16.7239 15.0003 16.5 14.7765 16.5 14.5003C16.5 14.2242 16.7239 14.0003 17 14.0003C17.2761 14.0003 17.5 14.2242 17.5 14.5003Z" stroke="#A4A6A9" stroke-width="2" stroke-linecap="round" stroke-linejoin="round"/>
</svg>
