<svg width="24" height="24" viewBox="0 0 24 24" fill="none" xmlns="http://www.w3.org/2000/svg">
<path d="M11.67 18.795C11.459 19.0057 11.1731 19.124 10.875 19.124C10.5769 19.124 10.2909 19.0057 10.08 18.795L3.70499 12.42C3.49431 12.209 3.37598 11.9231 3.37598 11.625C3.37598 11.3269 3.49431 11.0409 3.70499 10.83L10.08 4.45498C10.2934 4.25636 10.5755 4.14821 10.8669 4.15324C11.1584 4.15828 11.4366 4.27611 11.643 4.48198C11.8489 4.68838 11.9667 4.96656 11.9717 5.25803C11.9768 5.54951 11.8686 5.83159 11.67 6.04498L7.21499 10.5H18.375C18.6734 10.5 18.9595 10.6185 19.1705 10.8295C19.3815 11.0405 19.5 11.3266 19.5 11.625C19.5 11.9233 19.3815 12.2095 19.1705 12.4205C18.9595 12.6315 18.6734 12.75 18.375 12.75H7.21499L11.67 17.205C11.8807 17.4159 11.999 17.7019 11.999 18C11.999 18.2981 11.8807 18.584 11.67 18.795Z" fill="white"/>
</svg>
