<svg width="64" height="64" viewBox="0 0 64 64" fill="none" xmlns="http://www.w3.org/2000/svg">
<path d="M60 18H50V10C50 6.68625 52.6862 4 56 4C59.3138 4 62 6.68625 62 10V16C62 17.1046 61.1046 18 60 18Z" fill="#3474EE"/>
<path d="M14 54C14 57.3138 11.3138 60 8 60H44C47.3138 60 50 57.3138 50 54V10C50 6.68625 52.6862 4 56 4H20C16.6862 4 14 6.68625 14 10V54Z" fill="#E3EDFF"/>
<path d="M2 54C2 57.3138 4.68625 60 8 60H44C40.6862 60 38 57.3138 38 54V52C38 50.8954 37.1046 50 36 50H4C2.89538 50 2 50.8954 2 52V54ZM44 14H20C18.8954 14 18 13.1046 18 12C18 10.8954 18.8954 10 20 10H44C45.1046 10 46 10.8954 46 12C46 13.1046 45.1046 14 44 14ZM44 24H20C18.8954 24 18 23.1046 18 22C18 20.8954 18.8954 20 20 20H44C45.1046 20 46 20.8954 46 22C46 23.1046 45.1046 24 44 24ZM44 34H20C18.8954 34 18 33.1046 18 32C18 30.8954 18.8954 30 20 30H44C45.1046 30 46 30.8954 46 32C46 33.1046 45.1046 34 44 34ZM44 44H20C18.8954 44 18 43.1046 18 42C18 40.8954 18.8954 40 20 40H44C45.1046 40 46 40.8954 46 42C46 43.1046 45.1046 44 44 44Z" fill="#73A3FF"/>
<path d="M16 44C23.732 44 30 37.732 30 30C30 22.268 23.732 16 16 16C8.26801 16 2 22.268 2 30C2 37.732 8.26801 44 16 44Z" fill="#1B1930"/>
<path d="M19.8334 23.832C18.1125 23.832 16.6356 24.8754 16 26.3638C15.3644 24.8754 13.8875 23.832 12.1666 23.832C9.8655 23.832 8 25.6974 8 27.9987C8 34.9987 16 38.3319 16 38.3319C16 38.3319 24 34.9987 24 27.9987C24 25.6974 22.1345 23.832 19.8334 23.832Z" fill="#D7E6F0"/>
</svg>
