<svg width="16" height="16" viewBox="0 0 16 16" fill="none" xmlns="http://www.w3.org/2000/svg">
<path d="M2.00008 8.66667V8C2.00008 6.4087 2.63222 4.88258 3.75744 3.75736C4.88266 2.63214 6.40878 2 8.00008 2V2C9.59138 2 11.1175 2.63214 12.2427 3.75736C13.3679 4.88258 14.0001 6.4087 14.0001 8V8.66667M2.00008 8.66667H3.33341V14H2.00008C1.64646 14 1.30732 13.8595 1.05727 13.6095C0.807224 13.3594 0.666748 13.0203 0.666748 12.6667V10C0.666748 9.64638 0.807224 9.30724 1.05727 9.05719C1.30732 8.80714 1.64646 8.66667 2.00008 8.66667V8.66667ZM12.6667 8.66667H14.0001C14.3537 8.66667 14.6928 8.80714 14.9429 9.05719C15.1929 9.30724 15.3334 9.64638 15.3334 10V12.6667C15.3334 13.0203 15.1929 13.3594 14.9429 13.6095C14.6928 13.8595 14.3537 14 14.0001 14H12.6667V8.66667Z" stroke="white" stroke-width="1.33333" stroke-linecap="round" stroke-linejoin="round"/>
</svg>
