<svg width="50" height="44" viewBox="0 0 50 44" fill="none" xmlns="http://www.w3.org/2000/svg">
<path d="M10.9036 14.2209C10.0611 14.2208 9.23745 14.468 8.53683 14.9313C7.83622 15.3946 7.29013 16.0532 6.96763 16.8237C6.64512 17.5943 6.5607 18.4423 6.72503 19.2604C6.88935 20.0785 7.29505 20.8299 7.89081 21.4197C8.48658 22.0095 9.24563 22.4112 10.072 22.5739C10.8983 22.7365 11.7549 22.653 12.5332 22.3337C13.3116 22.0144 13.9768 21.4738 14.4448 20.7802C14.9128 20.0866 15.1625 19.2711 15.1623 18.437C15.1619 17.319 14.713 16.2469 13.9145 15.4563C13.1159 14.6657 12.033 14.2214 10.9036 14.2209ZM7.47829 36.5956H14.3307V24.5197H7.47829V36.5956ZM20.6259 18.4113C20.6259 16.6925 19.7578 16.4751 18.9991 16.4751H17.7795V20.4102H18.9991C19.8455 20.4102 20.6259 20.1687 20.6259 18.4113ZM38.1337 22.3644V14.5174H40.1085V20.4102H43.033C42.2309 9.71781 33.7335 7.40695 26.013 7.40695H17.7812V14.5234H18.9965C21.2187 14.5234 22.599 16.0145 22.599 18.413C22.599 20.8888 21.2517 22.3661 18.9965 22.3661H17.7812V36.5991H26.013C38.566 36.5991 42.9349 30.8275 43.0894 22.3644H38.1337ZM28.6068 22.3644H23.7239V14.5234H28.4488V16.4768H25.6944V17.386H28.2986V19.3359H25.6944V20.4102H28.6033L28.6068 22.3644ZM35.0877 22.3644L34.6397 20.8459H32.0582L31.6085 22.3644H29.5547L31.9444 14.5166H34.7526L37.1424 22.3661L35.0877 22.3644ZM26.0113 2.75H2.77777V41.25H26.0113C40.0608 41.25 47.7995 34.3982 47.7995 21.9553C47.7969 14.7812 44.9653 2.75 26.0113 2.75ZM26.0113 39.4384H4.60676V4.5607H26.0113C38.3463 4.5607 45.9679 10.1131 45.9679 21.9553C45.9679 33.4787 38.9366 39.4384 26.0113 39.4384ZM33.2908 16.6779L32.6389 18.8959H34.0625L33.4097 16.6779H33.2908Z" fill="white"/>
</svg>
