<svg width="84" height="19" viewBox="0 0 84 19" fill="none" xmlns="http://www.w3.org/2000/svg">
<g clip-path="url(#clip0_47_870)">
<path d="M15.086 0H10.9992C10.9992 3.43917 9.45981 6.57765 6.78417 8.64491L5.17145 9.88526L11.4391 18.6429H16.5888L10.816 10.5806C13.5466 7.79921 15.086 4.04055 15.086 0Z" fill="white"/>
<path d="M4.65833 0H0.479919V18.6429H4.65833V0Z" fill="white"/>
<path d="M21.7385 0H17.7983V18.6429H21.7385V0Z" fill="white"/>
<path d="M56.302 5.39355C54.7992 5.39355 53.3698 5.86339 52.4168 7.19771V5.75063H48.6782V18.6428H52.4718V11.8772C52.4718 9.92273 53.7546 8.96428 55.294 8.96428C56.9434 8.96428 57.8964 9.97911 57.8964 11.8584V18.6616H61.6533V10.4489C61.6533 7.44202 59.3258 5.39355 56.302 5.39355Z" fill="white"/>
<path d="M33.6506 5.75063V6.57753C32.5877 5.8258 31.3048 5.39355 29.912 5.39355C26.2468 5.39355 23.2779 8.43807 23.2779 12.1967C23.2779 15.9554 26.2468 18.9999 29.912 18.9999C31.3048 18.9999 32.5877 18.5676 33.6506 17.8159V18.6428H37.4075V5.75063H33.6506ZM30.2236 15.5043C28.336 15.5043 26.8149 14.0197 26.8149 12.1967C26.8149 10.3738 28.336 8.8891 30.2236 8.8891C32.1112 8.8891 33.6323 10.3738 33.6323 12.1967C33.6323 14.0197 32.1112 15.5043 30.2236 15.5043Z" fill="white"/>
<path d="M43.2353 7.42358V5.75098H39.3867V18.6432H43.2536V12.6293C43.2536 10.5996 45.3978 9.50963 46.8822 9.50963C46.9005 9.50963 46.9188 9.50963 46.9188 9.50963V5.75098C45.3978 5.75098 43.9866 6.42753 43.2353 7.42358Z" fill="white"/>
<path d="M73.3454 5.75063V6.57753C72.2825 5.8258 70.9997 5.39355 69.6069 5.39355C65.9416 5.39355 62.9727 8.43807 62.9727 12.1967C62.9727 15.9554 65.9416 18.9999 69.6069 18.9999C70.9997 18.9999 72.2825 18.5676 73.3454 17.8159V18.6428H77.1023V5.75063H73.3454ZM69.9184 15.5043C68.0308 15.5043 66.5097 14.0197 66.5097 12.1967C66.5097 10.3738 68.0308 8.8891 69.9184 8.8891C71.806 8.8891 73.3271 10.3738 73.3271 12.1967C73.3454 14.0197 71.806 15.5043 69.9184 15.5043Z" fill="white"/>
<path d="M80.0162 6.12686C80.0162 5.93893 79.8879 5.82617 79.6863 5.82617H79.3381V6.80342H79.5031V6.44635H79.6863L79.8329 6.80342H80.0162L79.8513 6.40876C79.9612 6.35238 80.0162 6.25842 80.0162 6.12686ZM79.6863 6.27721H79.5031V5.97652H79.6863C79.7963 5.97652 79.8513 6.0329 79.8513 6.12686C79.8513 6.22083 79.8146 6.27721 79.6863 6.27721Z" fill="white"/>
<path d="M79.6314 5.4126C79.1366 5.4126 78.7334 5.82605 78.7334 6.33347C78.7517 6.84089 79.1366 7.25434 79.6314 7.25434C80.1262 7.25434 80.5294 6.84089 80.5294 6.33347C80.5294 5.82605 80.1262 5.4126 79.6314 5.4126ZM79.6314 7.0852C79.2282 7.0852 78.9167 6.74692 78.9167 6.33347C78.9167 5.92002 79.2465 5.58174 79.6314 5.58174C80.0346 5.58174 80.3461 5.92002 80.3461 6.33347C80.3461 6.74692 80.0162 7.0852 79.6314 7.0852Z" fill="white"/>
<path d="M81.1158 14.0762C79.8146 14.0762 78.7517 15.1662 78.7517 16.5005C78.7517 17.8348 79.8146 18.9248 81.1158 18.9248C82.417 18.9248 83.4799 17.8348 83.4799 16.5005C83.4799 15.1474 82.417 14.0762 81.1158 14.0762Z" fill="white"/>
</g>
<defs>
<clipPath id="clip0_47_870">
<rect width="83" height="19" fill="white" transform="translate(0.479919)"/>
</clipPath>
</defs>
</svg>
