<svg width="76" height="17" viewBox="0 0 76 17" fill="none" xmlns="http://www.w3.org/2000/svg">
<g clip-path="url(#clip0_70_2199)">
<path d="M13.3743 0H9.63218C9.63218 3.07715 8.22259 5.88526 5.7726 7.73492L4.2959 8.84471L10.0349 16.6805H14.7503L9.46437 9.46687C11.9647 6.97824 13.3743 3.61523 13.3743 0Z" fill="black"/>
<path d="M3.82601 0H0V16.6805H3.82601V0Z" fill="black"/>
<path d="M19.4653 0H15.8574V16.6805H19.4653V0Z" fill="black"/>
<path d="M51.1146 4.82593C49.7386 4.82593 48.4297 5.2463 47.5571 6.44017V5.14541H44.1338V16.6805H47.6074V10.6271C47.6074 8.87835 48.7821 8.02078 50.1916 8.02078C51.7019 8.02078 52.5745 8.9288 52.5745 10.6103V16.6973H56.0146V9.34917C56.0146 6.65877 53.8834 4.82593 51.1146 4.82593Z" fill="black"/>
<path d="M30.3729 5.14541V5.88527C29.3996 5.21267 28.225 4.82593 26.9496 4.82593C23.5935 4.82593 20.875 7.54996 20.875 10.913C20.875 14.276 23.5935 17 26.9496 17C28.225 17 29.3996 16.6133 30.3729 15.9407V16.6805H33.813V5.14541H30.3729ZM27.2349 13.8724C25.5065 13.8724 24.1137 12.544 24.1137 10.913C24.1137 9.28191 25.5065 7.95352 27.2349 7.95352C28.9633 7.95352 30.3561 9.28191 30.3561 10.913C30.3561 12.544 28.9633 13.8724 27.2349 13.8724Z" fill="black"/>
<path d="M39.1499 6.64205V5.14551H35.626V16.6806H39.1667V11.2998C39.1667 9.48379 41.1301 8.50851 42.4893 8.50851C42.5061 8.50851 42.5229 8.50851 42.5229 8.50851V5.14551C41.1301 5.14551 39.8379 5.75085 39.1499 6.64205Z" fill="black"/>
<path d="M66.7206 5.14541V5.88527C65.7473 5.21267 64.5726 4.82593 63.2973 4.82593C59.9411 4.82593 57.2227 7.54996 57.2227 10.913C57.2227 14.276 59.9411 17 63.2973 17C64.5726 17 65.7473 16.6133 66.7206 15.9407V16.6805H70.1606V5.14541H66.7206ZM63.5826 13.8724C61.8541 13.8724 60.4613 12.544 60.4613 10.913C60.4613 9.28191 61.8541 7.95352 63.5826 7.95352C65.311 7.95352 66.7038 9.28191 66.7038 10.913C66.7206 12.544 65.311 13.8724 63.5826 13.8724Z" fill="black"/>
<path d="M72.8279 5.48169C72.8279 5.31354 72.7105 5.21265 72.5259 5.21265H72.207V6.08703H72.3581V5.76754H72.5259L72.6601 6.08703H72.8279L72.6769 5.73391C72.7776 5.68347 72.8279 5.59939 72.8279 5.48169ZM72.5259 5.61621H72.3581V5.34717H72.5259C72.6266 5.34717 72.6769 5.39761 72.6769 5.48169C72.6769 5.56576 72.6433 5.61621 72.5259 5.61621Z" fill="black"/>
<path d="M72.4756 4.84277C72.0225 4.84277 71.6533 5.2127 71.6533 5.66671C71.6701 6.12072 72.0225 6.49065 72.4756 6.49065C72.9287 6.49065 73.2978 6.12072 73.2978 5.66671C73.2978 5.2127 72.9287 4.84277 72.4756 4.84277ZM72.4756 6.33931C72.1064 6.33931 71.8211 6.03664 71.8211 5.66671C71.8211 5.29678 72.1232 4.99411 72.4756 4.99411C72.8448 4.99411 73.13 5.29678 73.13 5.66671C73.13 6.03664 72.828 6.33931 72.4756 6.33931Z" fill="black"/>
<path d="M73.8356 12.5945C72.6442 12.5945 71.6709 13.5698 71.6709 14.7636C71.6709 15.9575 72.6442 16.9328 73.8356 16.9328C75.027 16.9328 76.0003 15.9575 76.0003 14.7636C76.0003 13.5529 75.027 12.5945 73.8356 12.5945Z" fill="black"/>
</g>
<defs>
<clipPath id="clip0_70_2199">
<rect width="76" height="17" fill="white"/>
</clipPath>
</defs>
</svg>
