<svg width="176" height="28" viewBox="0 0 176 28" fill="none" xmlns="http://www.w3.org/2000/svg">
<path d="M25.6129 23.5831C26.4987 23.5831 27.1999 22.845 27.1999 21.9961V13.9875V7.18035L17.6043 13.9875H21.5902V17.9734H5.60975V5.57285H19.9704L27.1999 0H1.58697C0.701219 0 0 0.701221 0 1.58697V21.9961C0 22.845 0.701219 23.5831 1.58697 23.5831H25.6129Z" fill="url(#paint0_linear_213_3073)"/>
<path d="M5.60975 11.8833V5.57285H19.9704L27.1999 0H1.58697C0.701219 0 0 0.701221 0 1.58697V18.5472C1.06948 14.7336 3.36144 12.7773 5.60975 11.8833Z" fill="#D9D9D9"/>
<path d="M5.60975 11.8833V5.57285H19.9704L27.1999 0H1.58697C0.701219 0 0 0.701221 0 1.58697V18.5472C1.06948 14.7336 3.36144 12.7773 5.60975 11.8833Z" fill="url(#paint1_linear_213_3073)"/>
<path d="M48.041 8.31552C47.6473 7.59379 47.106 7.0443 46.4171 6.66704C45.7282 6.28977 44.9245 6.10114 44.0059 6.10114C42.9889 6.10114 42.0868 6.33078 41.2994 6.79006C40.5121 7.24934 39.897 7.90545 39.4541 8.75839C39.0112 9.61134 38.7898 10.5955 38.7898 11.7109C38.7898 12.8591 39.0112 13.8597 39.4541 14.7126C39.9134 15.5655 40.5449 16.2217 41.3486 16.6809C42.1524 17.1402 43.0873 17.3699 44.1535 17.3699C45.4657 17.3699 46.5401 17.0254 47.3767 16.3365C48.2132 15.6312 48.7627 14.6552 49.0251 13.4086H43.1201V10.7759H52.4205V13.7776C52.1909 14.975 51.6988 16.0822 50.9443 17.0992C50.1897 18.1162 49.2138 18.9363 48.0164 19.5596C46.8354 20.1665 45.5068 20.47 44.0305 20.47C42.3738 20.47 40.873 20.1009 39.5279 19.3628C38.1993 18.6083 37.1495 17.5667 36.3786 16.2381C35.6241 14.9094 35.2468 13.4004 35.2468 11.7109C35.2468 10.0214 35.6241 8.51235 36.3786 7.18372C37.1495 5.8387 38.1993 4.79712 39.5279 4.05899C40.873 3.30447 42.3656 2.9272 44.0059 2.9272C45.9414 2.9272 47.6227 3.40288 49.0498 4.35424C50.4768 5.2892 51.461 6.60963 52.0023 8.31552H48.041Z" fill="#181D30"/>
<path d="M66.5329 13.2117C66.5329 13.7038 66.5001 14.1467 66.4345 14.5404H56.4698C56.5518 15.5245 56.8963 16.2955 57.5032 16.8532C58.1101 17.4109 58.8564 17.6897 59.7422 17.6897C61.0216 17.6897 61.932 17.1402 62.4732 16.0412H66.1885C65.7948 17.3534 65.0403 18.436 63.9249 19.289C62.8095 20.1255 61.4399 20.5438 59.816 20.5438C58.5038 20.5438 57.3228 20.2567 56.273 19.6826C55.2396 19.0921 54.4277 18.2638 53.8372 17.1976C53.2631 16.1314 52.976 14.9012 52.976 13.507C52.976 12.0964 53.2631 10.8579 53.8372 9.79177C54.4113 8.72558 55.215 7.90545 56.2484 7.33135C57.2818 6.75725 58.471 6.4702 59.816 6.4702C61.1118 6.4702 62.2682 6.74905 63.2852 7.30674C64.3186 7.86444 65.1141 8.65997 65.6718 9.69335C66.2459 10.7103 66.5329 11.8831 66.5329 13.2117ZM62.9653 12.2276C62.9489 11.3418 62.6291 10.6365 62.0058 10.1116C61.3825 9.57033 60.6197 9.29968 59.7176 9.29968C58.8646 9.29968 58.1429 9.56213 57.5524 10.087C56.9783 10.5955 56.6257 11.309 56.4944 12.2276H62.9653Z" fill="#181D30"/>
<path d="M71.9505 9.52112V16.115C71.9505 16.5743 72.0571 16.9106 72.2703 17.1238C72.5 17.3206 72.8772 17.4191 73.4021 17.4191H75.0014V20.3224H72.8362C69.9329 20.3224 68.4813 18.9117 68.4813 16.0904V9.52112H66.8574V6.69164H68.4813V3.32087H71.9505V6.69164H75.0014V9.52112H71.9505Z" fill="#181D30"/>
<path d="M79.8163 8.68458C80.2592 8.02847 80.8661 7.49538 81.637 7.08531C82.4243 6.67524 83.3183 6.4702 84.3189 6.4702C85.4835 6.4702 86.5332 6.75725 87.4682 7.33135C88.4196 7.90545 89.1659 8.72558 89.7072 9.79177C90.2649 10.8415 90.5437 12.0636 90.5437 13.4578C90.5437 14.852 90.2649 16.0904 89.7072 17.173C89.1659 18.2392 88.4196 19.0675 87.4682 19.658C86.5332 20.2485 85.4835 20.5438 84.3189 20.5438C83.3019 20.5438 82.4079 20.347 81.637 19.9533C80.8825 19.5432 80.2756 19.0183 79.8163 18.3786V20.3224H76.3717V2.11526H79.8163V8.68458ZM87.0253 13.4578C87.0253 12.6376 86.8531 11.9323 86.5086 11.3418C86.1806 10.7349 85.7377 10.2756 85.18 9.964C84.6387 9.65234 84.0482 9.49652 83.4085 9.49652C82.7852 9.49652 82.1947 9.66054 81.637 9.9886C81.0957 10.3003 80.6528 10.7595 80.3084 11.3664C79.9803 11.9733 79.8163 12.6869 79.8163 13.507C79.8163 14.3271 79.9803 15.0407 80.3084 15.6476C80.6528 16.2545 81.0957 16.7219 81.637 17.05C82.1947 17.3617 82.7852 17.5175 83.4085 17.5175C84.0482 17.5175 84.6387 17.3534 85.18 17.0254C85.7377 16.6973 86.1806 16.2299 86.5086 15.623C86.8531 15.0161 87.0253 14.2943 87.0253 13.4578Z" fill="#181D30"/>
<path d="M97.9923 20.5438C96.68 20.5438 95.499 20.2567 94.4493 19.6826C93.3995 19.0921 92.5711 18.2638 91.9642 17.1976C91.3737 16.1314 91.0785 14.9012 91.0785 13.507C91.0785 12.1128 91.3819 10.8826 91.9888 9.81637C92.6121 8.75019 93.4569 7.93005 94.5231 7.35595C95.5892 6.76545 96.7785 6.4702 98.0907 6.4702C99.4029 6.4702 100.592 6.76545 101.658 7.35595C102.724 7.93005 103.561 8.75019 104.168 9.81637C104.791 10.8826 105.103 12.1128 105.103 13.507C105.103 14.9012 104.783 16.1314 104.143 17.1976C103.52 18.2638 102.667 19.0921 101.584 19.6826C100.518 20.2567 99.3209 20.5438 97.9923 20.5438ZM97.9923 17.5421C98.6156 17.5421 99.1979 17.3945 99.7392 17.0992C100.297 16.7876 100.74 16.3283 101.068 15.7214C101.396 15.1145 101.56 14.3763 101.56 13.507C101.56 12.2112 101.215 11.2188 100.526 10.5299C99.854 9.82457 99.0256 9.47191 98.0415 9.47191C97.0573 9.47191 96.229 9.82457 95.5564 10.5299C94.9003 11.2188 94.5723 12.2112 94.5723 13.507C94.5723 14.8028 94.8921 15.8034 95.5318 16.5087C96.188 17.1976 97.0081 17.5421 97.9923 17.5421Z" fill="#181D30"/>
<path d="M112.575 20.5438C111.263 20.5438 110.082 20.2567 109.032 19.6826C107.982 19.0921 107.154 18.2638 106.547 17.1976C105.957 16.1314 105.661 14.9012 105.661 13.507C105.661 12.1128 105.965 10.8826 106.572 9.81637C107.195 8.75019 108.04 7.93005 109.106 7.35595C110.172 6.76545 111.361 6.4702 112.673 6.4702C113.986 6.4702 115.175 6.76545 116.241 7.35595C117.307 7.93005 118.144 8.75019 118.751 9.81637C119.374 10.8826 119.686 12.1128 119.686 13.507C119.686 14.9012 119.366 16.1314 118.726 17.1976C118.103 18.2638 117.25 19.0921 116.167 19.6826C115.101 20.2567 113.904 20.5438 112.575 20.5438ZM112.575 17.5421C113.198 17.5421 113.781 17.3945 114.322 17.0992C114.88 16.7876 115.323 16.3283 115.651 15.7214C115.979 15.1145 116.143 14.3763 116.143 13.507C116.143 12.2112 115.798 11.2188 115.109 10.5299C114.437 9.82457 113.608 9.47191 112.624 9.47191C111.64 9.47191 110.812 9.82457 110.139 10.5299C109.483 11.2188 109.155 12.2112 109.155 13.507C109.155 14.8028 109.475 15.8034 110.115 16.5087C110.771 17.1976 111.591 17.5421 112.575 17.5421Z" fill="#181D30"/>
<path d="M126.321 20.5438C125.206 20.5438 124.205 20.347 123.32 19.9533C122.434 19.5432 121.729 18.9937 121.204 18.3048C120.695 17.6159 120.416 16.8532 120.367 16.0166H123.836C123.902 16.5415 124.156 16.9762 124.599 17.3206C125.058 17.6651 125.624 17.8373 126.297 17.8373C126.953 17.8373 127.461 17.7061 127.822 17.4437C128.199 17.1812 128.388 16.845 128.388 16.4349C128.388 15.992 128.158 15.664 127.699 15.4507C127.256 15.2211 126.543 14.975 125.559 14.7126C124.542 14.4666 123.705 14.2123 123.049 13.9499C122.409 13.6874 121.852 13.2856 121.376 12.7443C120.917 12.203 120.687 11.4731 120.687 10.5545C120.687 9.79997 120.9 9.11105 121.327 8.48774C121.77 7.86444 122.393 7.37236 123.197 7.0115C124.017 6.65063 124.976 6.4702 126.075 6.4702C127.699 6.4702 128.995 6.88027 129.963 7.70041C130.93 8.50415 131.464 9.59493 131.562 10.9728H128.265C128.216 10.4315 127.986 10.005 127.576 9.69335C127.182 9.36529 126.649 9.20127 125.977 9.20127C125.354 9.20127 124.87 9.31609 124.525 9.54572C124.197 9.77536 124.033 10.0952 124.033 10.5053C124.033 10.9646 124.263 11.3172 124.722 11.5633C125.181 11.7929 125.895 12.0307 126.863 12.2768C127.847 12.5228 128.659 12.7771 129.298 13.0395C129.938 13.302 130.488 13.712 130.947 14.2697C131.423 14.811 131.669 15.5327 131.685 16.4349C131.685 17.2222 131.464 17.9275 131.021 18.5509C130.594 19.1742 129.971 19.6662 129.151 20.0271C128.347 20.3716 127.404 20.5438 126.321 20.5438Z" fill="#181D30"/>
<path d="M137.416 9.52112V16.115C137.416 16.5743 137.522 16.9106 137.736 17.1238C137.965 17.3206 138.343 17.4191 138.867 17.4191H140.467V20.3224H138.302C135.398 20.3224 133.947 18.9117 133.947 16.0904V9.52112H132.323V6.69164H133.947V3.32087H137.416V6.69164H140.467V9.52112H137.416Z" fill="#181D30"/>
<path d="M143.363 20.4946C142.739 20.4946 142.223 20.306 141.812 19.9287C141.419 19.535 141.222 19.0511 141.222 18.477C141.222 17.9029 141.419 17.4273 141.812 17.05C142.223 16.6563 142.739 16.4595 143.363 16.4595C143.969 16.4595 144.47 16.6563 144.863 17.05C145.257 17.4273 145.454 17.9029 145.454 18.477C145.454 19.0511 145.257 19.535 144.863 19.9287C144.47 20.306 143.969 20.4946 143.363 20.4946Z" fill="#181D30"/>
<path d="M152.46 6.4702C153.477 6.4702 154.371 6.67524 155.142 7.08531C155.913 7.47897 156.52 7.99566 156.963 8.63537V6.69164H160.432V20.4208C160.432 21.6838 160.178 22.8074 159.669 23.7915C159.161 24.7921 158.398 25.5794 157.381 26.1535C156.364 26.744 155.134 27.0393 153.691 27.0393C151.755 27.0393 150.164 26.5882 148.917 25.6861C147.687 24.7839 146.99 23.5537 146.826 21.9954H150.246C150.426 22.6187 150.812 23.1108 151.402 23.4717C152.009 23.8489 152.739 24.0376 153.592 24.0376C154.593 24.0376 155.405 23.7341 156.028 23.1272C156.651 22.5367 156.963 21.6346 156.963 20.4208V18.3048C156.52 18.9445 155.905 19.4776 155.118 19.9041C154.347 20.3306 153.461 20.5438 152.46 20.5438C151.312 20.5438 150.262 20.2485 149.311 19.658C148.36 19.0675 147.605 18.2392 147.047 17.173C146.506 16.0904 146.235 14.852 146.235 13.4578C146.235 12.08 146.506 10.8579 147.047 9.79177C147.605 8.72558 148.351 7.90545 149.286 7.33135C150.238 6.75725 151.296 6.4702 152.46 6.4702ZM156.963 13.507C156.963 12.6705 156.799 11.9569 156.471 11.3664C156.143 10.7595 155.7 10.3003 155.142 9.9886C154.584 9.66054 153.986 9.49652 153.346 9.49652C152.706 9.49652 152.116 9.65234 151.575 9.964C151.033 10.2756 150.59 10.7349 150.246 11.3418C149.918 11.9323 149.754 12.6376 149.754 13.4578C149.754 14.2779 149.918 14.9996 150.246 15.623C150.59 16.2299 151.033 16.6973 151.575 17.0254C152.132 17.3534 152.723 17.5175 153.346 17.5175C153.986 17.5175 154.584 17.3617 155.142 17.05C155.7 16.7219 156.143 16.2627 156.471 15.6722C156.799 15.0653 156.963 14.3435 156.963 13.507Z" fill="#181D30"/>
<path d="M168.028 6.4702C169.045 6.4702 169.939 6.67524 170.71 7.08531C171.481 7.47897 172.088 7.99566 172.531 8.63537V6.69164H176V20.4208C176 21.6838 175.746 22.8074 175.237 23.7915C174.729 24.7921 173.966 25.5794 172.949 26.1535C171.932 26.744 170.702 27.0393 169.258 27.0393C167.323 27.0393 165.732 26.5882 164.485 25.6861C163.255 24.7839 162.558 23.5537 162.394 21.9954H165.814C165.994 22.6187 166.38 23.1108 166.97 23.4717C167.577 23.8489 168.307 24.0376 169.16 24.0376C170.161 24.0376 170.973 23.7341 171.596 23.1272C172.219 22.5367 172.531 21.6346 172.531 20.4208V18.3048C172.088 18.9445 171.473 19.4776 170.685 19.9041C169.915 20.3306 169.029 20.5438 168.028 20.5438C166.88 20.5438 165.83 20.2485 164.879 19.658C163.928 19.0675 163.173 18.2392 162.615 17.173C162.074 16.0904 161.803 14.852 161.803 13.4578C161.803 12.08 162.074 10.8579 162.615 9.79177C163.173 8.72558 163.919 7.90545 164.854 7.33135C165.806 6.75725 166.864 6.4702 168.028 6.4702ZM172.531 13.507C172.531 12.6705 172.367 11.9569 172.039 11.3664C171.711 10.7595 171.268 10.3003 170.71 9.9886C170.152 9.66054 169.554 9.49652 168.914 9.49652C168.274 9.49652 167.684 9.65234 167.142 9.964C166.601 10.2756 166.158 10.7349 165.814 11.3418C165.486 11.9323 165.322 12.6376 165.322 13.4578C165.322 14.2779 165.486 14.9996 165.814 15.623C166.158 16.2299 166.601 16.6973 167.142 17.0254C167.7 17.3534 168.291 17.5175 168.914 17.5175C169.554 17.5175 170.152 17.3617 170.71 17.05C171.268 16.7219 171.711 16.2627 172.039 15.6722C172.367 15.0653 172.531 14.3435 172.531 13.507Z" fill="#181D30"/>
<defs>
<linearGradient id="paint0_linear_213_3073" x1="13.6" y1="0" x2="13.6" y2="23.5831" gradientUnits="userSpaceOnUse">
<stop stop-color="#1777FB"/>
<stop offset="1" stop-color="#1365D5"/>
</linearGradient>
<linearGradient id="paint1_linear_213_3073" x1="13.6" y1="0" x2="13.6" y2="18.5472" gradientUnits="userSpaceOnUse">
<stop stop-color="#1777FB"/>
<stop offset="1" stop-color="#023C8B"/>
</linearGradient>
</defs>
</svg>
