<svg width="44" height="35" viewBox="0 0 44 35" fill="none" xmlns="http://www.w3.org/2000/svg">
<g clip-path="url(#clip0_47_853)">
<path d="M7.97477 34.9232V32.6004C7.97477 31.7118 7.44635 31.13 6.53922 31.13C6.08566 31.13 5.59247 31.2834 5.2534 31.7885C4.98918 31.3645 4.61048 31.13 4.04243 31.13C3.66372 31.13 3.28502 31.2473 2.98558 31.6713V31.2067H2.19295V34.9232H2.98558V32.871C2.98558 32.2125 3.32465 31.9013 3.85308 31.9013C4.3815 31.9013 4.64571 32.2486 4.64571 32.871V34.9232H5.43834V32.871C5.43834 32.2125 5.81705 31.9013 6.30584 31.9013C6.83426 31.9013 7.09847 32.2486 7.09847 32.871V34.9232H7.97477ZM19.7322 31.2067H18.4464V30.0836H17.6537V31.2067H16.9359V31.9419H17.6537V33.6468C17.6537 34.4992 17.9928 34.9999 18.8999 34.9999C19.239 34.9999 19.6177 34.8826 19.8819 34.7292L19.6529 34.0301C19.4239 34.1835 19.1597 34.2241 18.9704 34.2241C18.5917 34.2241 18.4419 33.9895 18.4419 33.6062V31.9419H19.7278V31.2067H19.7322ZM26.4608 31.1255C26.0072 31.1255 25.7034 31.36 25.514 31.6667V31.2022H24.7214V34.9187H25.514V32.8259C25.514 32.208 25.7782 31.8562 26.2714 31.8562C26.4211 31.8562 26.6105 31.8968 26.7646 31.9328L26.9936 31.1571C26.8351 31.1255 26.6105 31.1255 26.4608 31.1255ZM16.293 31.5134C15.9143 31.2428 15.3859 31.1255 14.8178 31.1255C13.9107 31.1255 13.3074 31.5901 13.3074 32.3252C13.3074 32.9432 13.761 33.295 14.5536 33.4077L14.9323 33.4483C15.3463 33.525 15.5753 33.6423 15.5753 33.8362C15.5753 34.1068 15.2714 34.3008 14.743 34.3008C14.2146 34.3008 13.7962 34.1068 13.532 33.9129L13.1533 34.5308C13.5672 34.842 14.1353 34.9954 14.7034 34.9954C15.7602 34.9954 16.3679 34.4902 16.3679 33.7956C16.3679 33.1371 15.8747 32.7898 15.1217 32.6725L14.743 32.6319C14.4039 32.5914 14.1397 32.5147 14.1397 32.2847C14.1397 32.014 14.4039 31.8607 14.8223 31.8607C15.2758 31.8607 15.7294 32.0546 15.9584 32.1719L16.293 31.5134ZM37.3815 31.1255C36.9279 31.1255 36.6241 31.36 36.4347 31.6667V31.2022H35.6421V34.9187H36.4347V32.8259C36.4347 32.208 36.699 31.8562 37.1921 31.8562C37.3419 31.8562 37.5312 31.8968 37.6853 31.9328L37.9143 31.1661C37.7602 31.1255 37.5356 31.1255 37.3815 31.1255ZM27.2534 33.0649C27.2534 34.188 28.0108 34.9999 29.1821 34.9999C29.7106 34.9999 30.0893 34.8826 30.468 34.5759L30.0893 33.9174C29.7854 34.1519 29.486 34.2647 29.1425 34.2647C28.4996 34.2647 28.046 33.8001 28.046 33.0649C28.046 32.3658 28.4996 31.9013 29.1425 31.8652C29.4816 31.8652 29.7854 31.9825 30.0893 32.2125L30.468 31.554C30.0893 31.2428 29.7106 31.13 29.1821 31.13C28.0108 31.1255 27.2534 31.9419 27.2534 33.0649ZM34.5853 33.0649V31.2067H33.7926V31.6713C33.5284 31.324 33.1497 31.13 32.6565 31.13C31.6349 31.13 30.8423 31.9419 30.8423 33.0649C30.8423 34.188 31.6349 34.9999 32.6565 34.9999C33.1849 34.9999 33.5636 34.8059 33.7926 34.4586V34.9232H34.5853V33.0649ZM31.6745 33.0649C31.6745 32.4064 32.0885 31.8652 32.771 31.8652C33.4139 31.8652 33.8675 32.3703 33.8675 33.0649C33.8675 33.7234 33.4139 34.2647 32.771 34.2647C32.0929 34.2241 31.6745 33.7189 31.6745 33.0649ZM22.1893 31.1255C21.1325 31.1255 20.3751 31.9013 20.3751 33.0604C20.3751 34.2241 21.1325 34.9954 22.229 34.9954C22.7574 34.9954 23.2858 34.842 23.7042 34.4902L23.3255 33.9084C23.0216 34.1429 22.6429 34.2963 22.2686 34.2963C21.7754 34.2963 21.2866 34.0617 21.1721 33.4077H23.8539C23.8539 33.2905 23.8539 33.2138 23.8539 33.0965C23.8891 31.9013 23.2066 31.1255 22.1893 31.1255ZM22.1893 31.8246C22.6825 31.8246 23.0216 32.1358 23.0965 32.7131H21.2074C21.2822 32.2125 21.6213 31.8246 22.1893 31.8246ZM41.8819 33.0649V29.7363H41.0893V31.6713C40.8251 31.324 40.4464 31.13 39.9532 31.13C38.9315 31.13 38.1389 31.9419 38.1389 33.0649C38.1389 34.188 38.9315 34.9999 39.9532 34.9999C40.4816 34.9999 40.8603 34.8059 41.0893 34.4586V34.9232H41.8819V33.0649ZM38.9712 33.0649C38.9712 32.4064 39.3851 31.8652 40.0676 31.8652C40.7106 31.8652 41.1641 32.3703 41.1641 33.0649C41.1641 33.7234 40.7106 34.2647 40.0676 34.2647C39.3851 34.2241 38.9712 33.7189 38.9712 33.0649ZM12.4355 33.0649V31.2067H11.6429V31.6713C11.3787 31.324 11 31.13 10.5068 31.13C9.48518 31.13 8.69255 31.9419 8.69255 33.0649C8.69255 34.188 9.48518 34.9999 10.5068 34.9999C11.0352 34.9999 11.4139 34.8059 11.6429 34.4586V34.9232H12.4355V33.0649ZM9.48958 33.0649C9.48958 32.4064 9.90351 31.8652 10.5861 31.8652C11.229 31.8652 11.6825 32.3703 11.6825 33.0649C11.6825 33.7234 11.229 34.2647 10.5861 34.2647C9.90351 34.2241 9.48958 33.7189 9.48958 33.0649Z" fill="white"/>
<path d="M27.9359 2.98145H16.0288V24.8925H27.9359V2.98145Z" fill="#D3E3FF"/>
<path d="M16.8215 13.9369C16.8215 9.48518 18.8647 5.53415 22 2.98131C19.6926 1.12307 16.7818 0 13.6069 0C6.08567 0 0 6.23325 0 13.9369C0 21.6405 6.08567 27.8737 13.6069 27.8737C16.7818 27.8737 19.6926 26.7506 22 24.8924C18.8603 22.3756 16.8215 18.3885 16.8215 13.9369Z" fill="white"/>
<path d="M44 13.9369C44 21.6405 37.9143 27.8737 30.3931 27.8737C27.2182 27.8737 24.3074 26.7506 22 24.8924C25.1749 22.3351 27.1785 18.3885 27.1785 13.9369C27.1785 9.48518 25.1353 5.53415 22 2.98131C24.303 1.12307 27.2138 0 30.3887 0C37.9143 0 44 6.27384 44 13.9369Z" fill="#AAC5F8"/>
</g>
<defs>
<clipPath id="clip0_47_853">
<rect width="44" height="35" fill="white"/>
</clipPath>
</defs>
</svg>
