<svg width="97" height="27" viewBox="0 0 97 27" fill="none" xmlns="http://www.w3.org/2000/svg">
<g clip-path="url(#clip0_47_882)">
<path d="M36.2562 5.81738H30.9615C30.5991 5.81738 30.291 6.08526 30.2345 6.44926L28.0931 20.2663C28.0505 20.5389 28.258 20.7847 28.5297 20.7847H31.0575C31.4198 20.7847 31.7279 20.5168 31.7844 20.152L32.362 16.4254C32.4177 16.0606 32.7266 15.7927 33.0882 15.7927H34.7643C38.2521 15.7927 40.265 14.0751 40.7906 10.6715C41.0275 9.18241 40.8007 8.01241 40.1155 7.19302C39.363 6.29326 38.0283 5.81738 36.2562 5.81738ZM36.867 10.8637C36.5775 12.7972 35.1259 12.7972 33.7222 12.7972H32.9233L33.4838 9.18635C33.5171 8.96811 33.7029 8.80738 33.9197 8.80738H34.2859C35.242 8.80738 36.1439 8.80738 36.61 9.36205C36.8879 9.69296 36.9731 10.1846 36.867 10.8637Z" fill="white"/>
<path d="M52.083 10.8017H49.5475C49.3315 10.8017 49.1449 10.9625 49.1116 11.1807L48.9994 11.9024L48.8221 11.6408C48.2732 10.8301 47.0492 10.5591 45.8275 10.5591C43.0257 10.5591 40.6327 12.7187 40.1666 15.7481C39.9243 17.2592 40.2688 18.7042 41.1111 19.7119C41.8838 20.6384 42.9893 21.0245 44.3047 21.0245C46.5622 21.0245 47.8141 19.5472 47.8141 19.5472L47.7011 20.2642C47.6585 20.5384 47.866 20.7842 48.1362 20.7842H50.42C50.7831 20.7842 51.0897 20.5163 51.147 20.1515L52.5173 11.3202C52.5607 11.0484 52.354 10.8017 52.083 10.8017ZM48.5488 15.8237C48.3042 17.2978 47.1545 18.2874 45.6882 18.2874C44.9519 18.2874 44.3635 18.0471 43.9857 17.5917C43.611 17.1394 43.4685 16.4957 43.5878 15.7788C43.8162 14.3173 44.9852 13.2954 46.4291 13.2954C47.1491 13.2954 47.7343 13.5388 48.1199 13.9982C48.5062 14.4622 48.6595 15.1099 48.5488 15.8237Z" fill="white"/>
<path d="M65.5865 10.8018H63.0386C62.7955 10.8018 62.5671 10.9247 62.4293 11.1303L58.9153 16.3981L57.4257 11.3359C57.3321 11.0192 57.0448 10.8018 56.7197 10.8018H54.2159C53.9117 10.8018 53.7003 11.1043 53.7971 11.3958L56.6035 19.7773L53.9651 23.5678C53.7576 23.8664 53.9666 24.2768 54.3251 24.2768H56.8699C57.1114 24.2768 57.3375 24.1571 57.4745 23.9554L65.9488 11.5069C66.1517 11.2091 65.9434 10.8018 65.5865 10.8018Z" fill="white"/>
<path d="M74.0221 5.81738H68.7266C68.3651 5.81738 68.0569 6.08526 68.0004 6.44926L65.859 20.2663C65.8164 20.5389 66.0239 20.7847 66.2941 20.7847H69.0115C69.2639 20.7847 69.4799 20.5972 69.5194 20.3419L70.1271 16.4254C70.1829 16.0606 70.4918 15.7927 70.8533 15.7927H72.5287C76.0172 15.7927 78.0293 14.0751 78.5558 10.6715C78.7935 9.18241 78.5651 8.01241 77.8799 7.19302C77.1282 6.29326 75.7942 5.81738 74.0221 5.81738ZM74.6329 10.8637C74.3442 12.7972 72.8926 12.7972 71.4882 12.7972H70.69L71.2513 9.18635C71.2846 8.96811 71.4688 8.80738 71.6864 8.80738H72.0526C73.0079 8.80738 73.9106 8.80738 74.3767 9.36205C74.6546 9.69296 74.739 10.1846 74.6329 10.8637Z" fill="white" fill-opacity="0.69"/>
<path d="M89.8482 10.8017H87.3142C87.0967 10.8017 86.9117 10.9625 86.8791 11.1807L86.7669 11.9024L86.5888 11.6408C86.0399 10.8301 84.8167 10.5591 83.595 10.5591C80.7932 10.5591 78.401 12.7187 77.9349 15.7481C77.6933 17.2592 78.0363 18.7042 78.8786 19.7119C79.6528 20.6384 80.7568 21.0245 82.0722 21.0245C84.3297 21.0245 85.5816 19.5472 85.5816 19.5472L85.4686 20.2642C85.426 20.5384 85.6335 20.7842 85.9052 20.7842H88.1883C88.5499 20.7842 88.858 20.5163 88.9145 20.1515L90.2856 11.3202C90.3274 11.0484 90.1199 10.8017 89.8482 10.8017ZM86.314 15.8237C86.0709 17.2978 84.9197 18.2874 83.4533 18.2874C82.7186 18.2874 82.1287 18.0471 81.7509 17.5917C81.3762 17.1394 81.2353 16.4957 81.353 15.7788C81.5829 14.3173 82.7504 13.2954 84.1942 13.2954C84.9142 13.2954 85.4995 13.5388 85.8851 13.9982C86.273 14.4622 86.4262 15.1099 86.314 15.8237Z" fill="white" fill-opacity="0.69"/>
<path d="M92.8374 6.19616L90.6642 20.2661C90.6216 20.5387 90.8291 20.7845 91.0993 20.7845H93.2841C93.6472 20.7845 93.9553 20.5166 94.011 20.1519L96.154 6.33562C96.1966 6.06301 95.9891 5.81641 95.7189 5.81641H93.2725C93.0565 5.81719 92.8706 5.97792 92.8374 6.19616Z" fill="white" fill-opacity="0.69"/>
<path d="M6.1052 23.4697L6.5101 20.8523L5.60817 20.8311H1.30133L4.29436 1.51779C4.30365 1.45949 4.33385 1.40513 4.37798 1.36652C4.4221 1.32791 4.47862 1.30664 4.53746 1.30664H11.7994C14.2102 1.30664 15.874 1.81719 16.7426 2.82488C17.1498 3.29761 17.4092 3.79161 17.5346 4.33525C17.6662 4.90567 17.6686 5.58719 17.54 6.4184L17.5307 6.47906V7.01167L17.938 7.24646C18.2809 7.43161 18.5535 7.64355 18.7625 7.88622C19.1109 8.2904 19.3362 8.80409 19.4314 9.41313C19.5297 10.0395 19.4972 10.7848 19.3362 11.6286C19.1504 12.5993 18.85 13.4447 18.4443 14.1365C18.0711 14.7739 17.5958 15.3025 17.0314 15.7122C16.4926 16.1014 15.8523 16.3969 15.1284 16.586C14.427 16.7719 13.6273 16.8657 12.7501 16.8657H12.1849C11.7808 16.8657 11.3883 17.0138 11.0802 17.2793C10.7713 17.5503 10.5669 17.9206 10.5042 18.3256L10.4616 18.5612L9.74623 23.1742L9.71372 23.3436C9.7052 23.3972 9.69049 23.424 9.66881 23.4421C9.64946 23.4586 9.62159 23.4697 9.59449 23.4697H6.1052Z" fill="white"/>
<path d="M18.3235 6.54053C18.3018 6.68156 18.2771 6.82574 18.2492 6.97386C17.2915 11.9777 14.0151 13.7063 9.83062 13.7063H7.70004C7.18829 13.7063 6.75707 14.0845 6.67733 14.5982L5.58649 21.6386L5.27758 23.6343C5.22571 23.9716 5.4812 24.2757 5.81565 24.2757H9.59449C10.042 24.2757 10.4221 23.9448 10.4926 23.4957L10.5297 23.3003L11.2412 18.7054L11.2869 18.4533C11.3566 18.0026 11.7375 17.6717 12.1849 17.6717H12.7501C16.4113 17.6717 19.2773 16.159 20.115 11.7815C20.4649 9.95283 20.2838 8.42592 19.3578 7.35204C19.0776 7.02822 18.73 6.75956 18.3235 6.54053Z" fill="white" fill-opacity="0.69"/>
<path d="M17.3218 6.134C17.1754 6.09066 17.0245 6.05127 16.8696 6.01582C16.714 5.98115 16.5545 5.95042 16.3904 5.92363C15.8159 5.82909 15.1865 5.78418 14.5122 5.78418H8.82034C8.68021 5.78418 8.54705 5.81648 8.42782 5.87479C8.16537 6.00321 7.97027 6.25612 7.92305 6.56576L6.71221 14.3705L6.67737 14.5982C6.75711 14.0845 7.18834 13.7063 7.70008 13.7063H9.83066C14.0152 13.7063 17.2916 11.9769 18.2492 6.97388C18.2779 6.82576 18.3019 6.68157 18.3236 6.54054C18.0812 6.40976 17.8188 6.29788 17.5362 6.20254C17.4665 6.17891 17.3945 6.15606 17.3218 6.134Z" fill="#C0D4FA"/>
<path d="M7.92301 6.56588C7.97023 6.25624 8.16533 6.00333 8.42778 5.8757C8.54778 5.81739 8.68017 5.78509 8.8203 5.78509H14.5122C15.1865 5.78509 15.8159 5.83 16.3904 5.92455C16.5545 5.95133 16.714 5.98206 16.8696 6.01673C17.0244 6.05218 17.1754 6.09158 17.3217 6.13491C17.3945 6.15697 17.4665 6.17982 17.5369 6.20267C17.8195 6.298 18.082 6.41067 18.3243 6.54067C18.6092 4.69152 18.322 3.43249 17.3395 2.29242C16.2564 1.03733 14.3016 0.5 11.8002 0.5H4.53823C4.02727 0.5 3.59139 0.878182 3.51243 1.39267L0.487653 20.9045C0.42804 21.2905 0.720685 21.6388 1.10314 21.6388H5.58649L6.71217 14.3706L7.92301 6.56588Z" fill="white"/>
</g>
<defs>
<clipPath id="clip0_47_882">
<rect width="96" height="26" fill="white" transform="translate(0.479919 0.5)"/>
</clipPath>
</defs>
</svg>
