<svg width="83" height="22" viewBox="0 0 83 22" fill="none" xmlns="http://www.w3.org/2000/svg">
<path d="M30.9316 4.49927H26.3539C26.0406 4.49927 25.7742 4.72593 25.7254 5.03393L23.8739 16.7253C23.8371 16.9559 24.0165 17.1639 24.2515 17.1639H26.4369C26.7502 17.1639 27.0166 16.9373 27.0654 16.6286L27.5648 13.4753C27.613 13.1666 27.88 12.9399 28.1926 12.9399H29.6418C32.6572 12.9399 34.3975 11.4866 34.852 8.6066C35.0569 7.3466 34.8607 6.3566 34.2684 5.66327C33.6177 4.90193 32.4638 4.49927 30.9316 4.49927ZM31.4597 8.76927C31.2094 10.4053 29.9544 10.4053 28.7408 10.4053H28.0501L28.5347 7.34993C28.5634 7.16527 28.7241 7.02927 28.9115 7.02927H29.2281C30.0548 7.02927 30.8346 7.02927 31.2375 7.4986C31.4778 7.7786 31.5514 8.1946 31.4597 8.76927Z" fill="#253B80"/>
<path d="M44.6154 8.71656H42.4232C42.2365 8.71656 42.0752 8.85256 42.0464 9.03723L41.9493 9.6479L41.796 9.42656C41.3215 8.74056 40.2632 8.51123 39.207 8.51123C36.7846 8.51123 34.7156 10.3386 34.3126 12.9019C34.1031 14.1806 34.401 15.4032 35.1293 16.2559C35.7973 17.0399 36.7531 17.3666 37.8903 17.3666C39.8422 17.3666 40.9245 16.1166 40.9245 16.1166L40.8268 16.7232C40.79 16.9552 40.9694 17.1632 41.203 17.1632H43.1776C43.4915 17.1632 43.7566 16.9366 43.8061 16.6279L44.9909 9.15523C45.0283 8.92523 44.8496 8.71656 44.6154 8.71656ZM41.5598 12.9659C41.3482 14.2132 40.3542 15.0506 39.0865 15.0506C38.4499 15.0506 37.9412 14.8472 37.6146 14.4619C37.2906 14.0792 37.1674 13.5346 37.2705 12.9279C37.468 11.6912 38.4787 10.8266 39.7271 10.8266C40.3496 10.8266 40.8556 11.0326 41.1889 11.4212C41.5229 11.8139 41.6555 12.3619 41.5598 12.9659Z" fill="#253B80"/>
<path d="M56.2896 8.71655H54.0868C53.8766 8.71655 53.6791 8.82055 53.56 8.99455L50.5218 13.4519L49.2339 9.16855C49.1529 8.90055 48.9046 8.71655 48.6235 8.71655H46.4588C46.1957 8.71655 46.013 8.97255 46.0967 9.21922L48.5231 16.3112L46.2419 19.5186C46.0625 19.7712 46.2433 20.1186 46.5532 20.1186H48.7533C48.9622 20.1186 49.1576 20.0172 49.2761 19.8466L56.6029 9.31322C56.7782 9.06122 56.5982 8.71655 56.2896 8.71655Z" fill="#253B80"/>
<path d="M63.583 4.49927H59.0046C58.692 4.49927 58.4256 4.72593 58.3767 5.03393L56.5253 16.7253C56.4885 16.9559 56.6679 17.1639 56.9015 17.1639H59.2509C59.4691 17.1639 59.6559 17.0053 59.69 16.7893L60.2155 13.4753C60.2637 13.1666 60.5307 12.9399 60.8433 12.9399H62.2918C65.3079 12.9399 67.0476 11.4866 67.5027 8.6066C67.7082 7.3466 67.5108 6.3566 66.9184 5.66327C66.2684 4.90193 65.1151 4.49927 63.583 4.49927ZM64.1111 8.76927C63.8614 10.4053 62.6064 10.4053 61.3922 10.4053H60.7021L61.1874 7.34993C61.2162 7.16527 61.3755 7.02927 61.5635 7.02927H61.8802C62.7061 7.02927 63.4866 7.02927 63.8896 7.4986C64.1299 7.7786 64.2028 8.1946 64.1111 8.76927Z" fill="#179BD7"/>
<path d="M77.2658 8.71656H75.075C74.8869 8.71656 74.727 8.85256 74.6988 9.03723L74.6018 9.6479L74.4478 9.42656C73.9733 8.74056 72.9157 8.51123 71.8594 8.51123C69.437 8.51123 67.3687 10.3386 66.9658 12.9019C66.7569 14.1806 67.0535 15.4032 67.7817 16.2559C68.4511 17.0399 69.4056 17.3666 70.5428 17.3666C72.4947 17.3666 73.577 16.1166 73.577 16.1166L73.4793 16.7232C73.4425 16.9552 73.6218 17.1632 73.8568 17.1632H75.8307C76.1433 17.1632 76.4097 16.9366 76.4586 16.6279L77.644 9.15523C77.6801 8.92523 77.5008 8.71656 77.2658 8.71656ZM74.2102 12.9659C74 14.2132 73.0047 15.0506 71.7369 15.0506C71.1017 15.0506 70.5917 14.8472 70.265 14.4619C69.9411 14.0792 69.8192 13.5346 69.921 12.9279C70.1198 11.6912 71.1292 10.8266 72.3775 10.8266C73 10.8266 73.5061 11.0326 73.8394 11.4212C74.1747 11.8139 74.3073 12.3619 74.2102 12.9659Z" fill="#179BD7"/>
<path d="M79.8505 4.82011L77.9716 16.7254C77.9348 16.9561 78.1142 17.1641 78.3478 17.1641H80.2367C80.5506 17.1641 80.817 16.9374 80.8652 16.6288L82.718 4.93811C82.7548 4.70745 82.5754 4.49878 82.3418 4.49878H80.2267C80.0399 4.49945 79.8793 4.63545 79.8505 4.82011Z" fill="#179BD7"/>
<path d="M4.86331 19.4359L5.21338 17.2213L4.43358 17.2033H0.709961L3.29769 0.861284C3.30572 0.811951 3.33182 0.765951 3.36998 0.733284C3.40813 0.700617 3.45699 0.682617 3.50786 0.682617H9.78641C11.8708 0.682617 13.3092 1.11462 14.0602 1.96728C14.4123 2.36728 14.6366 2.78528 14.745 3.24528C14.8588 3.72795 14.8608 4.30462 14.7497 5.00795L14.7416 5.05928V5.50995L15.0937 5.70862C15.3902 5.86528 15.6259 6.04462 15.8066 6.24995C16.1078 6.59195 16.3026 7.02662 16.3849 7.54195C16.4699 8.07195 16.4418 8.70262 16.3026 9.41662C16.1419 10.2379 15.8822 10.9533 15.5315 11.5386C15.2089 12.078 14.7979 12.5253 14.3099 12.872C13.844 13.2013 13.2905 13.4513 12.6646 13.6113C12.0582 13.7686 11.3668 13.8479 10.6084 13.8479H10.1198C9.77035 13.8479 9.43098 13.9733 9.16458 14.198C8.89751 14.4273 8.7208 14.7406 8.66658 15.0833L8.62977 15.2826L8.01128 19.1859L7.98317 19.3293C7.97581 19.3746 7.96309 19.3973 7.94435 19.4126C7.92761 19.4266 7.90352 19.4359 7.88009 19.4359H4.86331Z" fill="#253B80"/>
<path d="M15.4277 5.11133C15.4089 5.23066 15.3875 5.35266 15.3634 5.47799C14.5354 9.71199 11.7027 11.1747 8.08486 11.1747H6.24279C5.80035 11.1747 5.42752 11.4947 5.35857 11.9293L4.41545 17.8867L4.14838 19.5753C4.10353 19.8607 4.32442 20.118 4.61358 20.118H7.8807C8.26759 20.118 8.59624 19.838 8.65715 19.458L8.68928 19.2927L9.30442 15.4047L9.34391 15.1913C9.40415 14.81 9.73348 14.53 10.1204 14.53H10.609C13.7744 14.53 16.2523 13.25 16.9766 9.54599C17.2791 7.99866 17.1225 6.70666 16.3219 5.79799C16.0796 5.52399 15.7791 5.29666 15.4277 5.11133Z" fill="#179BD7"/>
<path d="M14.5614 4.76744C14.4348 4.73077 14.3043 4.69744 14.1705 4.66744C14.0359 4.6381 13.898 4.6121 13.7561 4.58944C13.2595 4.50944 12.7153 4.47144 12.1323 4.47144H7.21117C7.09002 4.47144 6.97489 4.49877 6.87181 4.5481C6.6449 4.65677 6.47622 4.87077 6.43539 5.13277L5.38852 11.7368L5.3584 11.9294C5.42734 11.4948 5.80017 11.1748 6.24262 11.1748H8.08468C11.7025 11.1748 14.5353 9.71144 15.3632 5.4781C15.388 5.35277 15.4088 5.23077 15.4275 5.11144C15.218 5.00077 14.9911 4.9061 14.7468 4.82544C14.6865 4.80544 14.6243 4.7861 14.5614 4.76744Z" fill="#222D65"/>
<path d="M6.43517 5.13267C6.476 4.87067 6.64468 4.65667 6.87159 4.54867C6.97534 4.49933 7.0898 4.472 7.21095 4.472H12.1321C12.7151 4.472 13.2592 4.51 13.7559 4.59C13.8978 4.61267 14.0357 4.63867 14.1702 4.668C14.3041 4.698 14.4346 4.73133 14.5611 4.768C14.6241 4.78667 14.6863 4.806 14.7472 4.82533C14.9915 4.906 15.2184 5.00133 15.428 5.11133C15.6743 3.54667 15.4259 2.48133 14.5765 1.51667C13.6401 0.454667 11.95 0 9.7873 0H3.50875C3.06698 0 2.69013 0.32 2.62186 0.755333L0.00668607 17.2653C-0.0448543 17.592 0.208162 17.8867 0.538823 17.8867H4.41506L5.3883 11.7367L6.43517 5.13267Z" fill="#253B80"/>
</svg>
