<svg width="192" height="35" viewBox="0 0 192 35" fill="none" xmlns="http://www.w3.org/2000/svg">
<path d="M35.5265 15.7888C35.5053 15.1322 35.1962 14.7933 34.5962 14.771H31.3911C30.6325 14.8175 30.2406 15.2344 30.2224 16.0184V21.7921C30.2406 22.6015 30.6739 23.0142 31.5163 23.0375H34.4538C34.7588 23.0375 35.0124 22.9242 35.2144 22.6925C35.4255 22.5185 35.5265 22.2949 35.5265 22.0177V15.7888ZM26.1072 14.9693C26.1284 13.5246 26.4496 12.4269 27.0728 11.6763C27.3991 11.3616 27.8072 11.0986 28.3042 10.8811C28.8203 10.6494 29.3204 10.5371 29.8052 10.5371H35.6881C38.2831 10.5594 39.6023 11.9808 39.6437 14.8044V23.4948C39.6245 24.4974 39.2326 25.3674 38.475 26.0948C37.7245 26.8596 36.8285 27.2491 35.7851 27.2724H30.2224V33.5378H26.1072V14.9693Z" fill="white"/>
<path d="M47.0722 22.1988C47.0722 22.4406 47.1833 22.6318 47.4004 22.7755C47.5944 22.9474 47.8388 23.0375 48.1479 23.0375H51.3086C52.0227 23.0375 52.3934 22.7603 52.4147 22.1988V21.0172C52.4147 20.3717 52.0379 20.0459 51.2783 20.0459H48.1479C47.7358 20.0459 47.4509 20.1147 47.2924 20.2442C47.1459 20.397 47.0722 20.6995 47.0722 21.1477V22.1988ZM52.4147 15.6866C52.4359 15.0533 52.0672 14.7508 51.3076 14.771H43.0196V10.5371H52.351C55.0692 10.5816 56.4491 11.8968 56.4955 14.4938V23.3511C56.4723 24.471 56.1299 25.3947 55.4652 26.1292C54.7702 26.89 53.8743 27.2724 52.7763 27.2724H47.1358C44.3903 27.2491 42.9984 25.9936 42.9559 23.4978V20.0803C42.9771 17.4722 44.3075 16.1469 46.9408 16.1014H52.4147V15.6866Z" fill="white"/>
<path d="M68.0532 29.3029C68.3795 29.2826 68.6623 29.1653 68.8916 28.9548C69.1118 28.7586 69.2229 28.533 69.2229 28.277V27.2724H63.9542C63.2673 27.2724 62.7178 27.1844 62.3077 27.0094C61.8743 26.8505 61.443 26.5541 61.0087 26.1332C60.5975 25.6871 60.3016 25.2207 60.1218 24.7331C59.9349 24.2869 59.84 23.7194 59.84 23.0375V10.5371H63.9542V21.696C63.9542 22.5903 64.3188 23.0375 65.0572 23.0375H67.9623C68.3078 23.0375 68.6078 22.9242 68.8593 22.6925C69.1017 22.4962 69.2229 22.2635 69.2229 21.9904V10.5371H73.3038V28.9781C73.2806 30.3429 72.9311 31.4355 72.2573 32.2641C71.5735 33.0926 70.6381 33.5165 69.4452 33.5378H59.84V29.3029H68.0532Z" fill="white"/>
<path d="M76.5352 23.0375H83.8676C84.5384 23.0142 84.8869 22.7451 84.9081 22.2292V21.8488C84.9081 21.7385 84.8747 21.6161 84.8101 21.4846C84.6464 21.1649 84.4454 21.006 84.206 21.006H80.5706C79.4918 20.9848 78.5716 20.6125 77.7979 19.8942C77.015 19.2305 76.614 18.4141 76.5908 17.456V14.2986C76.6332 11.8351 77.9696 10.5816 80.6019 10.5371H89.1061V14.771H81.901C81.0555 14.771 80.6292 15.031 80.6292 15.549V15.9587C80.6292 16.4959 81.0646 16.765 81.9323 16.765H85.5566C86.5222 16.7873 87.3455 17.1576 88.0313 17.8799C88.7243 18.6073 89.0839 19.4723 89.1061 20.4769V23.5656C89.0839 24.4336 88.6829 25.2996 87.9122 26.1636C87.5364 26.5875 87.1515 26.8789 86.7667 27.0438C86.3687 27.1955 85.8283 27.2724 85.1384 27.2724H76.5352V23.0375Z" fill="white"/>
<path d="M96.1476 22.1988C96.1476 22.4406 96.2587 22.6318 96.4809 22.7755C96.6728 22.9474 96.9183 23.0375 97.2234 23.0375H100.39C101.104 23.0375 101.473 22.7603 101.494 22.1988V21.0172C101.494 20.3717 101.112 20.0459 100.356 20.0459H97.2234C96.8122 20.0459 96.5284 20.1147 96.3708 20.2442C96.2243 20.397 96.1476 20.6995 96.1476 21.1477V22.1988ZM101.494 15.6866C101.512 15.0533 101.144 14.7508 100.383 14.771H92.097V10.5371H101.431C104.147 10.5816 105.528 11.8968 105.57 14.4938V23.3511C105.548 24.471 105.202 25.3947 104.542 26.1292C103.852 26.89 102.955 27.2724 101.856 27.2724H96.2102C93.4667 27.2491 92.0738 25.9936 92.0354 23.4978V20.0803C92.0536 17.4722 93.3829 16.1469 96.0183 16.1014H101.494V15.6866Z" fill="white"/>
<path d="M108.915 8.13629C108.941 6.99308 109.361 6.07548 110.185 5.38754C110.985 4.68846 112.036 4.32931 113.335 4.30908H115.948V8.39932H114.365C113.495 8.41956 113.052 8.83637 113.033 9.64167V10.538H115.948V14.776H113.033V27.2743H108.915V8.13629Z" fill="white"/>
<path d="M127.651 15.6077V15.5095C127.651 15.292 127.563 15.1069 127.386 14.9693C127.195 14.8358 126.96 14.771 126.678 14.771H123.814C123.446 14.771 123.15 14.8742 122.921 15.0856C122.636 15.2809 122.491 15.5379 122.491 15.8545V17.5542L127.651 15.6077ZM122.557 21.5928V21.8569C122.557 22.1958 122.645 22.4649 122.824 22.6601C122.953 22.91 123.127 23.0375 123.358 23.0375H131.812V27.2724H122.824C122.004 27.2724 121.364 27.1955 120.913 27.0417C120.419 26.8789 119.975 26.6128 119.588 26.2425C119.136 25.7943 118.828 25.3381 118.673 24.8686C118.503 24.379 118.42 23.7295 118.42 22.9201L118.384 14.4452C118.43 11.8847 119.765 10.5816 122.389 10.5371H127.937C130.5 10.5816 131.798 11.9302 131.839 14.5899V17.9376L122.557 21.5928Z" fill="white"/>
<path d="M140.55 27.2723C139.927 27.2723 139.358 27.2146 138.842 27.1094C138.302 27.0214 137.763 26.7705 137.213 26.3466C136.648 25.8539 136.257 25.3015 136.043 24.6915C135.817 24.0916 135.708 23.4117 135.708 22.6469V14.7446C135.685 14.1002 135.749 13.5346 135.9 13.044C136.038 12.5543 136.329 12.0748 136.768 11.6053C137.269 11.1126 137.781 10.7849 138.32 10.624C138.839 10.4935 139.424 10.4277 140.08 10.4277H146.387V11.4182H140.226C139.138 11.4182 138.284 11.6418 137.658 12.0899C137.019 12.5786 136.693 13.4213 136.693 14.609V22.5164C136.693 23.0728 136.778 23.614 136.946 24.1361C137.119 24.649 137.407 25.0992 137.82 25.4927C138.268 25.8337 138.715 26.0461 139.15 26.1331C139.604 26.2333 140.091 26.2808 140.607 26.2808H146.486V27.2723H140.55Z" fill="white"/>
<path d="M162.608 17.0199H154.339C153.349 17.0421 152.574 17.3487 152.015 17.9395C151.437 18.5394 151.151 19.3619 151.151 20.407V22.9291C151.151 23.4178 151.202 23.8649 151.307 24.2676C151.411 24.6915 151.671 25.0698 152.081 25.3946C152.795 25.9874 153.586 26.2808 154.45 26.2808H159.461C161.555 26.2586 162.608 25.1538 162.608 22.9605V17.0199ZM163.591 22.7136C163.591 23.35 163.543 23.9084 163.461 24.4001C163.327 24.9343 163.054 25.4492 162.638 25.9389C161.775 26.8504 160.704 27.2945 159.426 27.2723H154.51C153.232 27.2723 152.197 26.8899 151.395 26.1291C150.576 25.3774 150.161 24.3323 150.161 22.9918V20.4444C150.202 17.5702 151.631 16.0982 154.447 16.0315H162.638V14.9166C162.638 13.998 162.373 13.1937 161.845 12.5017C161.509 12.0525 161.112 11.752 160.662 11.5972C160.206 11.4779 159.695 11.4182 159.125 11.4182H150.19V10.4277H158.661C159.435 10.4277 160.135 10.4824 160.77 10.5896C161.096 10.6544 161.392 10.7818 161.666 10.966C161.956 11.141 162.226 11.3969 162.477 11.7328C163.236 12.7141 163.607 13.8462 163.591 15.1209V22.7136Z" fill="white"/>
<path d="M172.838 11.4182C170.545 11.4607 169.414 12.7141 169.457 15.1806V27.2723H168.472V15.1847C168.425 12.012 169.934 10.4277 172.996 10.4277H174.091V11.4182H172.838Z" fill="white"/>
<path d="M189.494 11.4232H181.7C181.139 11.4232 180.636 11.486 180.182 11.6053C179.707 11.7126 179.249 12.0009 178.82 12.4703C178.408 12.8983 178.15 13.3222 178.042 13.7461C177.897 14.174 177.832 14.6869 177.855 15.2848V22.9939C177.855 24.2757 178.226 25.1477 178.977 25.6162C179.348 25.8337 179.755 25.9965 180.211 26.1058C180.666 26.2272 181.173 26.2869 181.732 26.2869H185.14C186.413 26.2869 187.454 25.9935 188.254 25.4017C189.058 24.8463 189.467 23.8882 189.494 22.5224V11.4232ZM190.478 22.5902C190.391 25.7811 188.706 27.3451 185.422 27.2794H181.768C180.996 27.2794 180.306 27.2116 179.696 27.0831C179.068 26.9202 178.467 26.5368 177.888 25.9389C177.453 25.4017 177.173 24.8584 177.061 24.302C176.91 23.7466 176.845 23.1284 176.868 22.4536V15.2595C176.91 12.0191 178.54 10.4085 181.76 10.4328H189.494V4.9707H190.478V22.5902Z" fill="white"/>
<path d="M3.24828 9.90087C3.57151 9.75822 3.89475 9.64693 4.21799 9.57713C4.81194 6.73631 7.32409 4.60571 10.3352 4.60571C13.3484 4.60571 15.8616 6.73935 16.4545 9.57915C17.3788 9.75518 18.1434 10.1295 18.7394 10.6869C18.7637 10.1416 18.7414 9.61658 18.6768 9.12187C18.296 4.8303 14.703 1.4624 10.3221 1.4624C5.81195 1.4624 2.14018 5.04276 1.94927 9.51845C1.923 9.90491 1.91492 10.3076 1.92907 10.7284C2.30786 10.4087 2.74019 10.1214 3.24828 9.90087Z" fill="white"/>
<path d="M15.2313 10.5371H5.18061C4.69677 10.5371 4.19575 10.6494 3.67958 10.8811C3.18159 11.0986 2.77351 11.3616 2.44623 11.6763C1.82299 12.4269 1.50379 13.5246 1.48157 14.9693V22.8382C1.50379 24.2859 1.82299 25.3826 2.44623 26.1292C2.77351 26.4489 3.18159 26.7119 3.67958 26.9315C4.19575 27.1581 4.69677 27.2724 5.18061 27.2724H15.2313C17.8273 27.2491 19.1475 25.8227 19.1889 23.0031V14.8044C19.1475 11.9808 17.8273 10.5594 15.2313 10.5371Z" fill="white"/>
</svg>
