<svg width="83" height="15" viewBox="0 0 83 15" fill="none" xmlns="http://www.w3.org/2000/svg">
<g clip-path="url(#clip0_70_2253)">
<path d="M15.2299 6.74513C15.2207 6.45546 15.0864 6.30594 14.8257 6.29612H13.4329C13.1032 6.31665 12.9329 6.50054 12.925 6.84645V9.39366C12.9329 9.75073 13.1212 9.93283 13.4873 9.9431H14.7638C14.8963 9.9431 15.0065 9.89311 15.0943 9.7909C15.186 9.71413 15.2299 9.61549 15.2299 9.49319V6.74513ZM11.1367 6.3836C11.1459 5.74624 11.2855 5.26197 11.5564 4.93079C11.6981 4.79198 11.8755 4.67594 12.0914 4.57998C12.3157 4.47777 12.533 4.42822 12.7437 4.42822H15.3002C16.4278 4.43804 17.0011 5.06514 17.0191 6.31085V10.1448C17.0108 10.5872 16.8404 10.971 16.5112 11.2919C16.1851 11.6293 15.7957 11.8012 15.3423 11.8114H12.925V14.5756H11.1367V6.3836Z" fill="#008AC9"/>
<path d="M20.2467 9.57309C20.2467 9.67976 20.295 9.76412 20.3894 9.8275C20.4737 9.90337 20.5799 9.9431 20.7142 9.9431H22.0877C22.398 9.9431 22.5591 9.8208 22.5683 9.57309V9.05177C22.5683 8.76701 22.4046 8.62329 22.0745 8.62329H20.7142C20.5351 8.62329 20.4113 8.65364 20.3424 8.71078C20.2788 8.77817 20.2467 8.91162 20.2467 9.10935V9.57309ZM22.5683 6.70005C22.5776 6.42065 22.4173 6.28719 22.0873 6.29612H18.4857V4.42822H22.5407C23.7219 4.44786 24.3215 5.02809 24.3417 6.17383V10.0815C24.3316 10.5755 24.1828 10.983 23.894 11.3071C23.592 11.6427 23.2026 11.8114 22.7255 11.8114H20.2744C19.0813 11.8012 18.4764 11.2473 18.458 10.1462V8.63847C18.4672 7.48783 19.0453 6.90313 20.1897 6.88305H22.5683V6.70005Z" fill="#008AC9"/>
<path d="M29.364 12.7072C29.5058 12.6983 29.6287 12.6465 29.7284 12.5537C29.8241 12.4671 29.8723 12.3676 29.8723 12.2546V11.8114H27.5828C27.2843 11.8114 27.0455 11.7726 26.8673 11.6954C26.679 11.6253 26.4915 11.4945 26.3028 11.3089C26.1241 11.112 25.9955 10.9063 25.9174 10.6911C25.8362 10.4943 25.7949 10.2439 25.7949 9.9431V4.42822H27.5828V9.35126C27.5828 9.74582 27.7412 9.9431 28.0621 9.9431H29.3245C29.4746 9.9431 29.605 9.89311 29.7143 9.7909C29.8197 9.70431 29.8723 9.60165 29.8723 9.48114V4.42822H31.6457V12.564C31.6356 13.1661 31.4837 13.6481 31.1909 14.0136C30.8938 14.3792 30.4873 14.5662 29.9689 14.5756H25.7949V12.7072H29.364Z" fill="#008AC9"/>
<path d="M33.0498 9.9431H36.2361C36.5276 9.93283 36.6791 9.81411 36.6883 9.58648V9.41866C36.6883 9.37001 36.6738 9.316 36.6457 9.25798C36.5746 9.11694 36.4872 9.04686 36.3832 9.04686H34.8034C34.3346 9.03749 33.9347 8.87324 33.5985 8.55634C33.2583 8.26355 33.084 7.90336 33.0739 7.48069V6.08768C33.0924 5.00087 33.6731 4.44786 34.817 4.42822H38.5125V6.29612H35.3815C35.0141 6.29612 34.8289 6.41083 34.8289 6.63935V6.82011C34.8289 7.05712 35.0181 7.17584 35.3951 7.17584H36.9701C37.3897 7.18566 37.7475 7.34902 38.0455 7.6677C38.3466 7.98861 38.5029 8.37022 38.5125 8.81343V10.1761C38.5029 10.559 38.3286 10.9411 37.9937 11.3223C37.8304 11.5093 37.6632 11.6378 37.4959 11.7106C37.323 11.7775 37.0882 11.8114 36.7883 11.8114H33.0498V9.9431Z" fill="#008AC9"/>
<path d="M41.5731 9.57309C41.5731 9.67976 41.6214 9.76412 41.718 9.8275C41.8014 9.90337 41.908 9.9431 42.0406 9.9431H43.4167C43.727 9.9431 43.8872 9.8208 43.8965 9.57309V9.05177C43.8965 8.76701 43.7305 8.62329 43.4018 8.62329H42.0406C41.8619 8.62329 41.7386 8.65364 41.6701 8.71078C41.6065 8.77817 41.5731 8.91162 41.5731 9.10935V9.57309ZM43.8965 6.70005C43.9044 6.42065 43.7442 6.28719 43.4136 6.29612H39.8129V4.42822H43.8693C45.0492 4.44786 45.6492 5.02809 45.6676 6.17383V10.0815C45.658 10.5755 45.5079 10.983 45.2208 11.3071C44.921 11.6427 44.5312 11.8114 44.0536 11.8114H41.6003C40.4081 11.8012 39.8028 11.2473 39.7861 10.1462V8.63847C39.794 7.48783 40.3717 6.90313 41.5169 6.88305H43.8965V6.70005Z" fill="#008AC9"/>
<path d="M47.1211 3.36889C47.1321 2.86454 47.3147 2.45971 47.6729 2.15621C48.0205 1.84779 48.477 1.68935 49.0415 1.68042H50.1771V3.48494H49.4892C49.1113 3.49386 48.9186 3.67775 48.9103 4.03303V4.42848H50.1771V6.29817H48.9103V11.8121H47.1211V3.36889Z" fill="#008AC9"/>
<path d="M55.2633 6.66524V6.62194C55.2633 6.52598 55.2251 6.4443 55.1483 6.3836C55.0649 6.32469 54.963 6.29612 54.8406 6.29612H53.5957C53.4359 6.29612 53.3073 6.34165 53.2077 6.43493C53.0839 6.52107 53.0211 6.63444 53.0211 6.77414V7.52398L55.2633 6.66524ZM53.0496 9.30574V9.42223C53.0496 9.57175 53.0878 9.69047 53.1655 9.77661C53.2217 9.88686 53.2972 9.9431 53.3977 9.9431H57.0713V11.8114H53.1655C52.8091 11.8114 52.5312 11.7775 52.335 11.7097C52.1204 11.6378 51.9277 11.5204 51.7596 11.3571C51.5629 11.1594 51.429 10.9581 51.3619 10.751C51.2881 10.5349 51.2517 10.2484 51.2517 9.89132L51.2363 6.1524C51.2561 5.02274 51.8364 4.44786 52.9768 4.42822H55.3875C56.5011 4.44786 57.0652 5.04282 57.0832 6.21623V7.69314L53.0496 9.30574Z" fill="#008AC9"/>
<path d="M60.8681 11.8113C60.5972 11.8113 60.3501 11.7859 60.1258 11.7394C59.8909 11.7006 59.657 11.5899 59.4178 11.4029C59.1724 11.1855 59.0025 10.9419 58.9095 10.6727C58.8111 10.408 58.7637 10.1081 58.7637 9.77068V6.28438C58.7536 6.00007 58.7817 5.75057 58.8471 5.5341C58.9073 5.31807 59.0337 5.10651 59.2246 4.89941C59.4423 4.68205 59.6644 4.53744 59.8988 4.46647C60.1245 4.40889 60.3786 4.37988 60.6635 4.37988H63.4043V4.81684H60.7271C60.2544 4.81684 59.883 4.91548 59.6113 5.11321C59.3335 5.32878 59.1917 5.70058 59.1917 6.22457V9.7131C59.1917 9.95858 59.2286 10.1974 59.3019 10.4277C59.3769 10.654 59.502 10.8526 59.6816 11.0262C59.8765 11.1766 60.0705 11.2704 60.2597 11.3087C60.4568 11.3529 60.6683 11.3739 60.8926 11.3739H63.4473V11.8113H60.8681Z" fill="#008AC9"/>
<path d="M70.4541 7.28818H66.8609C66.4307 7.298 66.0936 7.43324 65.8508 7.69389C65.5998 7.95857 65.4755 8.32144 65.4755 8.7825V9.8952C65.4755 10.1108 65.4975 10.3081 65.5431 10.4857C65.5883 10.6727 65.7012 10.8396 65.8794 10.9829C66.1897 11.2445 66.5334 11.3739 66.9091 11.3739H69.0863C69.9963 11.3641 70.4541 10.8767 70.4541 9.90904V7.28818ZM70.8812 9.80013C70.8812 10.0809 70.8601 10.3273 70.8246 10.5442C70.7666 10.7798 70.6477 11.007 70.4673 11.223C70.092 11.6252 69.6267 11.8211 69.0714 11.8113H66.935C66.3798 11.8113 65.9298 11.6426 65.5813 11.307C65.2253 10.9753 65.0449 10.5143 65.0449 9.92288V8.79901C65.0629 7.53098 65.684 6.88157 66.9078 6.85211H70.4673V6.36026C70.4673 5.95499 70.3518 5.60015 70.1223 5.29486C69.9765 5.09669 69.804 4.96413 69.6083 4.89584C69.4103 4.84318 69.1882 4.81684 68.9406 4.81684H65.0577V4.37988H68.7387C69.0754 4.37988 69.3796 4.40398 69.6552 4.4513C69.797 4.47986 69.9256 4.5361 70.0446 4.61733C70.1706 4.69455 70.2882 4.80747 70.397 4.95565C70.7271 5.38859 70.8882 5.88804 70.8812 6.45041V9.80013Z" fill="#008AC9"/>
<path d="M74.8986 4.81684C73.9022 4.83559 73.411 5.38859 73.4294 6.47675V11.8113H73.0014V6.47853C72.9812 5.07884 73.6366 4.37988 74.9675 4.37988H75.4433V4.81684H74.8986Z" fill="#008AC9"/>
<path d="M82.1373 4.81911H78.7504C78.5063 4.81911 78.2877 4.84679 78.0906 4.89945C77.8843 4.94677 77.685 5.07397 77.4985 5.28107C77.3198 5.46987 77.2075 5.65688 77.1605 5.84389C77.0977 6.03269 77.0692 6.25898 77.0793 6.52276V9.92381C77.0793 10.4893 77.2404 10.874 77.567 11.0807C77.728 11.1767 77.9049 11.2485 78.1033 11.2967C78.3009 11.3503 78.5212 11.3766 78.764 11.3766H80.245C80.7981 11.3766 81.2506 11.2472 81.5983 10.9861C81.9477 10.741 82.1255 10.3184 82.1373 9.71582V4.81911ZM82.5648 9.74572C82.5271 11.1535 81.7945 11.8435 80.3675 11.8145H78.7798C78.4444 11.8145 78.1446 11.7846 77.8795 11.7279C77.6065 11.656 77.3453 11.4869 77.0938 11.2231C76.9046 10.9861 76.783 10.7464 76.7343 10.5009C76.6689 10.2559 76.6403 9.98317 76.6504 9.68547V6.5116C76.6689 5.082 77.3769 4.37144 78.7763 4.38216H82.1373V1.97241H82.5648V9.74572Z" fill="#008AC9"/>
<path d="M1.20321 4.14741C1.34368 4.08448 1.48414 4.03538 1.62461 4.00459C1.88271 2.75129 2.97438 1.81131 4.28289 1.81131C5.59228 1.81131 6.68439 2.75263 6.94206 4.00548C7.3437 4.08314 7.67598 4.24828 7.93496 4.49421C7.9455 4.25364 7.93584 4.02199 7.90775 3.80374C7.74227 1.9104 6.18092 0.424561 4.27719 0.424561C2.31727 0.424561 0.721685 2.00413 0.638724 3.9787C0.627311 4.1492 0.6238 4.32684 0.629945 4.51251C0.794552 4.37147 0.982423 4.24471 1.20321 4.14741Z" fill="#E3001B"/>
<path d="M6.41055 4.42822H2.04298C1.83273 4.42822 1.61501 4.47777 1.3907 4.57998C1.1743 4.67594 0.996965 4.79198 0.854745 4.93079C0.583912 5.26197 0.445204 5.74624 0.435547 6.3836V9.85517C0.445204 10.4939 0.583912 10.9777 0.854745 11.3071C0.996965 11.4481 1.1743 11.5642 1.3907 11.661C1.61501 11.761 1.83273 11.8114 2.04298 11.8114H6.41055C7.53865 11.8012 8.11236 11.1718 8.13035 9.92792V6.31085C8.11236 5.06514 7.53865 4.43804 6.41055 4.42822Z" fill="#E3001B"/>
</g>
<defs>
<clipPath id="clip0_70_2253">
<rect width="83" height="15" fill="white"/>
</clipPath>
</defs>
</svg>
