<svg width="76" height="39" viewBox="0 0 76 39" fill="none" xmlns="http://www.w3.org/2000/svg">
<path d="M49.3924 14.8007C50.578 14.8007 51.538 13.8279 51.538 12.6283C51.538 11.4288 50.5774 10.4541 49.3924 10.4541C48.2074 10.4541 47.2487 11.4282 47.2487 12.6283C47.2486 12.9137 47.304 13.1962 47.4117 13.4598C47.5194 13.7235 47.6772 13.963 47.8763 14.1648C48.0754 14.3666 48.3118 14.5267 48.5719 14.6359C48.832 14.7451 49.1108 14.8013 49.3924 14.8013M32.9587 15.9723C32.8618 16.2257 32.1649 18.2143 30.4793 20.2809V11.4421L25.9887 12.3414V28.3648H30.4799V23.4121C31.7812 25.3881 32.4237 28.3648 32.4237 28.3648H37.803C37.2718 26.1228 34.9437 21.9903 34.9437 21.9903C36.3269 20.1824 37.393 18.147 38.0955 15.973L32.9587 15.9723ZM44.7649 15.8051C40.743 15.9362 38.7005 17.7647 38.7005 21.4V28.3641H43.0893V22.6857C43.0893 20.5095 43.3705 19.5823 45.9193 19.4873V15.871C45.4905 15.7785 44.7649 15.8077 44.7649 15.8077M18.4574 17.7393C17.9074 17.7032 16.6337 17.619 16.6337 16.4575C16.6337 15.0559 18.4668 15.0559 19.1549 15.0559C20.3643 15.0559 21.9299 15.4169 23.0487 15.757C23.4297 15.9176 23.8148 16.068 24.2037 16.2079L24.2537 16.2219V12.3813L24.1862 12.3611C22.8662 11.8924 21.3318 11.4427 18.4862 11.4427C13.5799 11.4427 11.8424 14.3383 11.8424 16.8197C11.8424 18.2498 12.4474 21.616 18.0655 22.0042C18.5418 22.034 19.8055 22.1074 19.8055 23.3089C19.8055 24.3 18.7705 24.8846 17.0305 24.8846C15.1243 24.8846 13.2724 24.3919 12.1493 23.9245V27.8784C13.8318 28.3249 15.728 28.5484 17.9512 28.5484C22.748 28.5484 24.8962 25.8086 24.8962 23.0929C24.8962 20.0136 22.4924 18.0136 18.4587 17.7393M47.2187 28.3667H51.5712V15.9875H47.2174L47.2187 28.3667ZM59.7674 12.2325V28.3667H64.1212V11.444L59.7674 12.2325ZM53.4155 12.2325L57.7643 11.444V28.3667H53.4155V12.2312V12.2325Z" fill="white"/>
</svg>
