<svg width="73" height="38" viewBox="0 0 73 38" fill="none" xmlns="http://www.w3.org/2000/svg">
<path d="M47.6082 14.3007C48.7622 14.3007 49.6966 13.3279 49.6966 12.1283C49.6966 10.9288 48.7616 9.9541 47.6082 9.9541C46.4548 9.9541 45.5217 10.9282 45.5217 12.1283C45.5216 12.4137 45.5755 12.6962 45.6803 12.9598C45.7851 13.2235 45.9388 13.463 46.1326 13.6648C46.3263 13.8666 46.5564 14.0267 46.8096 14.1359C47.0628 14.2451 47.3342 14.3013 47.6082 14.3013M31.6127 15.4723C31.5184 15.7257 30.8401 17.7143 29.1995 19.7809V10.9421L24.8286 11.8414V27.8648H29.2001V22.9121C30.4666 24.8881 31.092 27.8648 31.092 27.8648H36.3279C35.8108 25.6228 33.5448 21.4903 33.5448 21.4903C34.8911 19.6824 35.9288 17.647 36.6126 15.473L31.6127 15.4723ZM43.1041 15.3051C39.1895 15.4362 37.2015 17.2647 37.2015 20.9V27.8641H41.4732V22.1857C41.4732 20.0095 41.7469 19.0823 44.2277 18.9873V15.371C43.8104 15.2785 43.1041 15.3077 43.1041 15.3077M17.4982 17.2393C16.9628 17.2032 15.7231 17.119 15.7231 15.9575C15.7231 14.5559 17.5073 14.5559 18.1771 14.5559C19.3542 14.5559 20.8781 14.9169 21.967 15.257C22.3378 15.4176 22.7127 15.568 23.0912 15.7079L23.1399 15.7219V11.8813L23.0742 11.8611C21.7894 11.3924 20.2959 10.9427 17.5262 10.9427C12.7507 10.9427 11.0596 13.8383 11.0596 16.3197C11.0596 17.7498 11.6484 21.116 17.1167 21.5042C17.5803 21.534 18.8103 21.6074 18.8103 22.8089C18.8103 23.8 17.8029 24.3846 16.1093 24.3846C14.2539 24.3846 12.4514 23.8919 11.3583 23.4245V27.3784C12.9959 27.8249 14.8416 28.0484 17.0054 28.0484C21.6744 28.0484 23.7652 25.3086 23.7652 22.5929C23.7652 19.5136 21.4256 17.5136 17.4994 17.2393M45.4925 27.8667H49.7289V15.4875H45.4912L45.4925 27.8667ZM57.7066 11.7325V27.8667H61.9442V10.944L57.7066 11.7325ZM51.5241 11.7325L55.7569 10.944V27.8667H51.5241V11.7312V11.7325Z" fill="#862565"/>
</svg>
