<svg width="108" height="41" viewBox="0 0 108 41" fill="none" xmlns="http://www.w3.org/2000/svg">
<path fill-rule="evenodd" clip-rule="evenodd" d="M32.2129 23.7346C30.4997 23.7346 29.2963 22.62 29.2963 20.8799C29.2963 18.9541 30.7923 17.1466 32.9421 17.1466C34.6552 17.1466 35.8587 18.3122 35.8587 20.0525C35.8587 21.9786 34.3626 23.7346 32.2129 23.7346ZM33.2158 13.8188C28.7134 13.8188 25.3059 17.1129 25.3059 21.0488C25.3059 24.6132 28.1117 27.0804 31.9392 27.0804C36.4416 27.0804 39.849 23.6839 39.849 19.748C39.849 16.184 37.0433 13.8188 33.2158 13.8188Z" fill="white"/>
<path fill-rule="evenodd" clip-rule="evenodd" d="M59.343 23.7346C57.6298 23.7346 56.4287 22.62 56.4287 20.8799C56.4287 18.9541 57.9224 17.1466 60.0722 17.1466C61.7854 17.1466 62.9888 18.3122 62.9888 20.0525C62.9888 21.9786 61.4951 23.7346 59.343 23.7346ZM60.3459 13.8188C55.8435 13.8188 52.436 17.1129 52.436 21.0488C52.436 24.6132 55.2418 27.0804 59.0693 27.0804C63.5717 27.0804 66.9815 23.6839 66.9815 19.748C66.9815 16.184 64.1734 13.8188 60.3459 13.8188Z" fill="white"/>
<path fill-rule="evenodd" clip-rule="evenodd" d="M73.82 20.1004H73.2324L73.6737 17.4445H74.207C75.4553 17.4445 76.116 17.8192 76.116 18.6361C76.116 19.6066 75.1792 20.1004 73.82 20.1004ZM80.229 18.0064C80.229 15.623 78.3577 14.0908 74.9786 14.0908H70.2025L68.1094 26.8078H72.1304L72.7911 22.8071H72.9752L75.106 26.8078H79.7146L76.7578 22.3643C78.9264 21.615 80.229 19.9982 80.229 18.0064Z" fill="white"/>
<path fill-rule="evenodd" clip-rule="evenodd" d="M20.6974 19.1641C19.173 18.3978 18.8261 18.1936 18.8261 17.7852C18.8261 17.2743 19.4302 17.0188 20.275 17.0188C21.2449 17.0188 22.7103 17.1269 24.145 18.4876C24.5013 17.3973 25.0794 16.4046 25.8369 15.5496C23.8028 14.413 21.9292 13.8188 20.2019 13.8188C16.7684 13.8188 14.8028 15.6404 14.8028 17.8362C14.8028 19.7257 16.2351 20.7131 17.9436 21.5809C19.468 22.3643 19.8526 22.6029 19.8526 23.0799C19.8526 23.5905 19.2108 23.8794 18.366 23.8794C16.8958 23.8794 15.1874 22.9604 14.1774 22.024L13.5898 25.565C14.6376 26.3136 16.1431 27.0794 18.4202 27.0794C21.9646 27.0794 23.876 25.3098 23.876 23.0287C23.876 21.1725 22.6442 20.1515 20.6974 19.1641Z" fill="white"/>
<path fill-rule="evenodd" clip-rule="evenodd" d="M50.4301 19.6744H45.7224L46.0906 17.4445H51.1404C51.7941 16.1032 52.8064 14.9561 54.0689 14.0908H45.805C43.9715 14.0908 42.4141 15.3315 42.138 17.0108L40.5239 26.8078H44.5473L45.208 22.8071H49.9841L50.3287 20.6328C50.3452 20.3077 50.3782 19.9884 50.4301 19.6744Z" fill="white"/>
<path fill-rule="evenodd" clip-rule="evenodd" d="M80.3164 14.0908C81.3901 14.91 82.0532 16.0553 82.1948 17.4445H85.5574L84.0141 26.8078H88.0351L89.5808 17.4445H93.3068L93.859 14.0908H80.3164Z" fill="white"/>
</svg>
