<svg width="57" height="24" viewBox="0 0 57 24" fill="none" xmlns="http://www.w3.org/2000/svg">
<g clip-path="url(#clip0_905_18515)">
<path d="M56.9955 12.3454C56.9955 8.26217 55.0325 5.04022 51.2806 5.04022C47.5128 5.04022 45.2332 8.26228 45.2332 12.3136C45.2332 17.1145 47.9245 19.5389 51.7871 19.5389C53.671 19.5389 55.0958 19.1083 56.1723 18.5022V15.3121C55.0959 15.8545 53.861 16.1895 52.2938 16.1895C50.7582 16.1895 49.3967 15.6471 49.2226 13.765H56.9639C56.9639 13.5575 56.9955 12.7282 56.9955 12.3454ZM49.1751 10.8302C49.1751 9.02781 50.2675 8.27809 51.2648 8.27809C52.2305 8.27809 53.2595 9.02781 53.2595 10.8302H49.1751ZM39.1227 5.04022C37.5712 5.04022 36.5738 5.77391 36.0198 6.28441L35.8139 5.29548H32.3313V23.8932L36.2889 23.048L36.3048 18.5341C36.8747 18.9488 37.7136 19.5389 39.1068 19.5389C41.9405 19.5389 44.5209 17.2421 44.5209 12.1859C44.5051 7.56034 41.893 5.04022 39.1226 5.04022H39.1227ZM38.1728 16.0299C37.2388 16.0299 36.6846 15.695 36.3048 15.2803L36.2889 9.36269C36.7005 8.90019 37.2704 8.58123 38.1728 8.58123C39.6134 8.58123 40.6107 10.2081 40.6107 12.2975C40.6107 14.4349 39.6292 16.0299 38.1728 16.0299ZM26.8854 4.09918L30.859 3.23787V0L26.8854 0.845383V4.09918ZM26.8854 5.3114H30.859V19.2677H26.8854V5.3114ZM22.627 6.49166L22.3737 5.3114H18.9543V19.2677H22.912V9.80938C23.8459 8.58123 25.429 8.80452 25.9198 8.97993V5.3114C25.4132 5.11996 23.561 4.76905 22.627 6.49166ZM14.7116 1.85024L10.8489 2.67959L10.8331 15.4557C10.8331 17.8164 12.5904 19.5548 14.9333 19.5548C16.2314 19.5548 17.1812 19.3156 17.7036 19.0285V15.7907C17.1971 15.998 14.6958 16.7317 14.6958 14.3711V8.70875H17.7036V5.3114H14.6958L14.7116 1.85024ZM4.01003 9.36269C4.01003 8.74071 4.5166 8.50138 5.35577 8.50138C6.55881 8.50138 8.07852 8.86834 9.28167 9.52228V5.77391C7.96777 5.24759 6.66967 5.04022 5.35577 5.04022C2.14203 5.04022 0.00488281 6.73099 0.00488281 9.55424C0.00488281 13.9563 6.02051 13.2546 6.02051 15.1527C6.02051 15.8863 5.38738 16.1256 4.5008 16.1256C3.1869 16.1256 1.50879 15.5833 0.178971 14.8496V18.6458C1.65127 19.2838 3.13937 19.5548 4.5008 19.5548C7.79357 19.5548 10.0574 17.9121 10.0574 15.057C10.0416 10.3039 4.01003 11.1491 4.01003 9.36269Z" fill="#635BFF"/>
</g>
<defs>
<clipPath id="clip0_905_18515">
<rect width="57" height="24" fill="white"/>
</clipPath>
</defs>
</svg>
