<svg width="89" height="30" viewBox="0 0 89 30" fill="none" xmlns="http://www.w3.org/2000/svg">
<path d="M18.0426 20.9237L20.0955 9.17811H23.3791L21.3247 20.9237H18.0426ZM33.1879 9.43131C32.5375 9.19335 31.518 8.93799 30.245 8.93799C27.0004 8.93799 24.715 10.531 24.6954 12.8142C24.6772 14.502 26.3271 15.4435 27.5726 16.0053C28.8508 16.5812 29.2804 16.9483 29.2743 17.4623C29.2661 18.2497 28.2536 18.6092 27.3097 18.6092C25.9956 18.6092 25.2973 18.4312 24.2189 17.9928L23.7957 17.8062L23.3349 20.4355C24.1019 20.7635 25.5201 21.0474 26.9927 21.0622C30.4444 21.0622 32.6851 19.4873 32.7106 17.0491C32.7228 15.7129 31.8481 14.6962 29.9536 13.8578C28.8059 13.3144 28.103 12.9519 28.1105 12.4017C28.1105 11.9134 28.7054 11.3914 29.9911 11.3914C31.0647 11.3751 31.8426 11.6034 32.4487 11.8414L32.7429 11.9769L33.1879 9.43131ZM41.6377 9.17793H39.1005C38.3145 9.17793 37.7262 9.38709 37.3811 10.152L32.5045 20.916H35.9525C35.9525 20.916 36.5162 19.4687 36.6437 19.1509C37.0205 19.1509 40.3701 19.1559 40.849 19.1559C40.9472 19.5672 41.2485 20.916 41.2485 20.916H44.2954L41.6377 9.17757V9.17793ZM37.6121 16.7625C37.8837 16.0858 38.9204 13.4791 38.9204 13.4791C38.901 13.5103 39.19 12.799 39.3557 12.358L39.5776 13.3707C39.5776 13.3707 40.2063 16.1745 40.3378 16.7623H37.6121V16.7625ZM15.2551 9.17793L12.0404 17.1879L11.698 15.5602C11.0994 13.6837 9.23488 11.6508 7.15039 10.633L10.0899 20.905L13.5641 20.9012L18.7335 9.17781L15.2551 9.17775" fill="#0E4595"/>
<path d="M9.0409 9.17749H3.74607L3.7041 9.42187C7.82342 10.3941 10.549 12.7436 11.6807 15.5671L10.5294 10.1695C10.3307 9.42571 9.75419 9.20371 9.04102 9.17779" fill="#F2AE14"/>
<g clip-path="url(#clip0_369_4218)">
<path d="M60.3433 27.9429V26.2174C60.3433 25.5574 59.923 25.1252 59.2014 25.1252C58.8406 25.1252 58.4483 25.2391 58.1786 25.6143C57.9684 25.2994 57.6672 25.1252 57.2153 25.1252C56.9141 25.1252 56.6128 25.2123 56.3746 25.5272V25.1821H55.7441V27.9429H56.3746V26.4185C56.3746 25.9293 56.6444 25.6981 57.0647 25.6981C57.485 25.6981 57.6952 25.9561 57.6952 26.4185V27.9429H58.3257V26.4185C58.3257 25.9293 58.6269 25.6981 59.0158 25.6981C59.4361 25.6981 59.6463 25.9561 59.6463 26.4185V27.9429H60.3433ZM69.6958 25.1821H68.673V24.3478H68.0425V25.1821H67.4715V25.7282H68.0425V26.9947C68.0425 27.628 68.3122 27.9999 69.0338 27.9999C69.3035 27.9999 69.6047 27.9128 69.8149 27.7989L69.6328 27.2795C69.4506 27.3935 69.2404 27.4236 69.0898 27.4236C68.7886 27.4236 68.6695 27.2494 68.6695 26.9646V25.7282H69.6923V25.1821H69.6958ZM75.0481 25.1218C74.6873 25.1218 74.4456 25.296 74.295 25.5239V25.1788H73.6645V27.9396H74.295V26.3849C74.295 25.9259 74.5051 25.6646 74.8975 25.6646C75.0166 25.6646 75.1672 25.6947 75.2898 25.7215L75.4719 25.1453C75.3458 25.1218 75.1672 25.1218 75.0481 25.1218ZM66.9601 25.4099C66.6589 25.2089 66.2385 25.1218 65.7867 25.1218C65.0651 25.1218 64.5852 25.4669 64.5852 26.013C64.5852 26.4721 64.946 26.7334 65.5765 26.8172L65.8777 26.8473C66.207 26.9043 66.3892 26.9914 66.3892 27.1355C66.3892 27.3365 66.1475 27.4806 65.7271 27.4806C65.3068 27.4806 64.974 27.3365 64.7639 27.1924L64.4626 27.6514C64.7919 27.8826 65.2437 27.9965 65.6956 27.9965C66.5363 27.9965 67.0197 27.6213 67.0197 27.1053C67.0197 26.6161 66.6273 26.3581 66.0284 26.271L65.7271 26.2409C65.4574 26.2107 65.2472 26.1538 65.2472 25.9829C65.2472 25.7819 65.4574 25.6679 65.7902 25.6679C66.151 25.6679 66.5118 25.812 66.6939 25.8991L66.9601 25.4099ZM83.735 25.1218C83.3742 25.1218 83.1326 25.296 82.9819 25.5239V25.1788H82.3514V27.9396H82.9819V26.3849C82.9819 25.9259 83.1921 25.6646 83.5844 25.6646C83.7035 25.6646 83.8541 25.6947 83.9767 25.7215L84.1589 25.152C84.0363 25.1218 83.8576 25.1218 83.735 25.1218ZM75.6786 26.5625C75.6786 27.3968 76.2811 27.9999 77.2128 27.9999C77.6332 27.9999 77.9344 27.9128 78.2356 27.6849L77.9344 27.1958C77.6927 27.37 77.4545 27.4538 77.1813 27.4538C76.6699 27.4538 76.3091 27.1087 76.3091 26.5625C76.3091 26.0432 76.6699 25.6981 77.1813 25.6713C77.451 25.6713 77.6927 25.7584 77.9344 25.9293L78.2356 25.4401C77.9344 25.2089 77.6332 25.1252 77.2128 25.1252C76.2811 25.1218 75.6786 25.7282 75.6786 26.5625ZM81.5108 26.5625V25.1821H80.8803V25.5272C80.6701 25.2692 80.3688 25.1252 79.9765 25.1252C79.1639 25.1252 78.5334 25.7282 78.5334 26.5625C78.5334 27.3968 79.1639 27.9999 79.9765 27.9999C80.3969 27.9999 80.6981 27.8558 80.8803 27.5978V27.9429H81.5108V26.5625ZM79.1954 26.5625C79.1954 26.0733 79.5247 25.6713 80.0676 25.6713C80.579 25.6713 80.9398 26.0465 80.9398 26.5625C80.9398 27.0517 80.579 27.4538 80.0676 27.4538C79.5282 27.4236 79.1954 27.0483 79.1954 26.5625ZM71.6504 25.1218C70.8097 25.1218 70.2072 25.6981 70.2072 26.5592C70.2072 27.4236 70.8097 27.9965 71.6819 27.9965C72.1022 27.9965 72.5226 27.8826 72.8553 27.6213L72.5541 27.1891C72.3124 27.3633 72.0112 27.4772 71.7134 27.4772C71.3211 27.4772 70.9323 27.303 70.8412 26.8172H72.9744C72.9744 26.7301 72.9744 26.6731 72.9744 26.586C73.0024 25.6981 72.4595 25.1218 71.6504 25.1218ZM71.6504 25.6411C72.0427 25.6411 72.3124 25.8723 72.3719 26.3012H70.8692C70.9288 25.9293 71.1985 25.6411 71.6504 25.6411ZM87.3149 26.5625V24.0898H86.6844V25.5272C86.4742 25.2692 86.173 25.1252 85.7807 25.1252C84.968 25.1252 84.3375 25.7282 84.3375 26.5625C84.3375 27.3968 84.968 27.9999 85.7807 27.9999C86.201 27.9999 86.5022 27.8558 86.6844 27.5978V27.9429H87.3149V26.5625ZM84.9995 26.5625C84.9995 26.0733 85.3288 25.6713 85.8717 25.6713C86.3832 25.6713 86.7439 26.0465 86.7439 26.5625C86.7439 27.0517 86.3832 27.4538 85.8717 27.4538C85.3288 27.4236 84.9995 27.0483 84.9995 26.5625ZM63.8917 26.5625V25.1821H63.2612V25.5272C63.051 25.2692 62.7497 25.1252 62.3574 25.1252C61.5448 25.1252 60.9143 25.7282 60.9143 26.5625C60.9143 27.3968 61.5448 27.9999 62.3574 27.9999C62.7778 27.9999 63.079 27.8558 63.2612 27.5978V27.9429H63.8917V26.5625ZM61.5483 26.5625C61.5483 26.0733 61.8775 25.6713 62.4205 25.6713C62.9319 25.6713 63.2927 26.0465 63.2927 26.5625C63.2927 27.0517 62.9319 27.4538 62.4205 27.4538C61.8775 27.4236 61.5483 27.0483 61.5483 26.5625Z" fill="black"/>
<path d="M76.2216 4.2146H66.75V20.4914H76.2216V4.2146Z" fill="#FF5A00"/>
<path d="M67.3807 12.3531C67.3807 9.04613 69.006 6.11108 71.5 4.21469C69.6645 2.83428 67.3492 2 64.8237 2C58.8409 2 54 6.63041 54 12.3531C54 18.0758 58.8409 22.7062 64.8237 22.7062C67.3492 22.7062 69.6645 21.8719 71.5 20.4915C69.0025 18.6219 67.3807 15.6601 67.3807 12.3531Z" fill="#EB001B"/>
<path d="M89 12.3531C89 18.0758 84.1591 22.7062 78.1763 22.7062C75.6508 22.7062 73.3355 21.8719 71.5 20.4915C74.0255 18.5918 75.6193 15.6601 75.6193 12.3531C75.6193 9.04613 73.994 6.11108 71.5 4.21469C73.332 2.83428 75.6473 2 78.1728 2C84.1591 2 89 6.66057 89 12.3531Z" fill="#F79E1B"/>
</g>
<defs>
<clipPath id="clip0_369_4218">
<rect width="35" height="26" fill="white" transform="translate(54 2)"/>
</clipPath>
</defs>
</svg>
