<svg width="61" height="39" viewBox="0 0 61 39" fill="none" xmlns="http://www.w3.org/2000/svg">
<path d="M22.9297 27.2011L25.5386 11.9318H29.7115L27.1007 27.2011H22.9297V27.2011ZM42.1768 12.2609C41.3503 11.9516 40.0547 11.6196 38.437 11.6196C34.3135 11.6196 31.4092 13.6906 31.3843 16.6587C31.3611 18.8528 33.458 20.0769 35.0408 20.8072C36.6652 21.5558 37.2111 22.033 37.2033 22.7012C37.1929 23.7248 35.9062 24.1922 34.7067 24.1922C33.0366 24.1922 32.1493 23.9608 30.7788 23.3909L30.2409 23.1483L29.6554 26.5664C30.6301 26.9928 32.4323 27.3619 34.3037 27.3811C38.6903 27.3811 41.5379 25.3337 41.5703 22.1641C41.5858 20.427 40.4741 19.1053 38.0666 18.0154C36.6081 17.309 35.7148 16.8377 35.7243 16.1224C35.7243 15.4877 36.4804 14.809 38.1142 14.809C39.4786 14.7879 40.4672 15.0847 41.2374 15.394L41.6113 15.5703L42.1768 12.2609M52.9152 11.9316H49.6908C48.6919 11.9316 47.9443 12.2035 47.5057 13.1978L41.3083 27.191H45.6903C45.6903 27.191 46.4065 25.3096 46.5686 24.8964C47.0474 24.8964 51.3043 24.9029 51.9128 24.9029C52.0376 25.4376 52.4205 27.191 52.4205 27.191H56.2926L52.9152 11.9311V11.9316ZM47.7992 21.7915C48.1444 20.9118 49.4619 17.5231 49.4619 17.5231C49.4373 17.5637 49.8045 16.639 50.0151 16.0657L50.2971 17.3822C50.2971 17.3822 51.0961 21.0271 51.2632 21.7913H47.7992V21.7915V21.7915ZM19.3873 11.9316L15.3019 22.3446L14.8667 20.2285C14.1061 17.7891 11.7366 15.1462 9.08752 13.8231L12.8231 27.1767L17.2382 27.1718L23.8078 11.9314L19.3873 11.9313" fill="white"/>
<path d="M11.4899 11.9307H4.76105L4.70772 12.2484C9.94269 13.5123 13.4065 16.5667 14.8447 20.2371L13.3815 13.2202C13.129 12.2533 12.3964 11.9647 11.4901 11.9311" fill="#EDEDED"/>
</svg>
